<?xml version="1.0" encoding="utf-8"?>
<!-- Generator: Adobe Illustrator 23.0.0, SVG Export Plug-In . SVG Version: 6.00 Build 0)  -->
<svg version="1.1" id="Layer_1" xmlns="http://www.w3.org/2000/svg" xmlns:xlink="http://www.w3.org/1999/xlink" x="0px" y="0px"
	 viewBox="0 0 360 1228.9" style="enable-background:new 0 0 360 1228.9;" xml:space="preserve">
<style type="text/css">
	.st0{fill:url(#SVGID_1_);}
	.st1{opacity:0.5;}
	.st2{opacity:0.1;fill:#FCFCFC;enable-background:new    ;}
	.st3{fill:#DFD8D8;}
	.st4{fill:#FCFCFC;}
	.st5{opacity:0.46;fill:#FFFFFF;enable-background:new    ;}
	.st6{fill:#CCCCCC;}
	.st7{fill:#FFFFFF;}
	.st8{opacity:0.26;fill:#FFFFFF;enable-background:new    ;}
	.st9{opacity:0.7;fill:#FFFFFF;enable-background:new    ;}
	.st10{opacity:0.19;fill:#FFFFFF;enable-background:new    ;}
	.st11{opacity:0.3;fill:#FFFFFF;enable-background:new    ;}
	.st12{fill:#999999;}
	.st13{opacity:0.38;fill:#FFFFFF;enable-background:new    ;}
	.st14{opacity:0.3;fill:#FCFCFC;enable-background:new    ;}
	.st15{fill:#A8A8A8;}
	.st16{opacity:0.1;fill:#BBF9E7;enable-background:new    ;}
	.st17{fill:#4D4D4D;}
	.st18{opacity:0.2;fill:#FCFCFC;enable-background:new    ;}
	.st19{opacity:0.1;enable-background:new    ;}
	.st20{fill:#FFDF3C;}
	.st21{fill:#FF8948;}
	.st22{fill:#E6E7E8;}
	.st23{fill:#939598;}
	.st24{fill:#58595B;}
	.st25{fill:#808285;}
	.st26{fill:#E03643;}
	.st27{fill:#A3DFFF;}
	.st28{fill:#53A2D3;}
	.st29{fill:#F1F2F2;}
	.st30{fill:#D1D3D4;}
	.st31{fill:#3A3A3A;}
	.st32{fill:#A7A9AC;}
	.st33{fill:#BCBEC0;}
	.st34{fill:#46BBEB;}
	.st35{fill:#D5F6FF;}
	.st36{fill:#231F20;}
	.st37{fill:#414042;}
	.st38{fill:#E0E0E0;}
	.st39{fill:#828282;}
	.st40{fill:#FF4D26;}
	.st41{fill:#0096AF;}
</style>
<g>
	
		<radialGradient id="SVGID_1_" cx="196.178" cy="-104.1358" r="1264.9573" gradientTransform="matrix(0.6196 0 0 -0.7535 -54.2466 502.9013)" gradientUnits="userSpaceOnUse">
		<stop  offset="0" style="stop-color:#4D4D4D"/>
		<stop  offset="0.2681" style="stop-color:#2E2E2E"/>
		<stop  offset="0.5445" style="stop-color:#151515"/>
		<stop  offset="0.7966" style="stop-color:#050505"/>
		<stop  offset="1" style="stop-color:#000000"/>
	</radialGradient>
	<rect x="-1.3" y="0.3" class="st0" width="360.8" height="1228.6"/>
</g>
<g class="st1">
	<polygon class="st2" points="357.6,0 357.3,0.3 346.4,9.6 342.1,13.2 335,19.2 328.3,25 322.5,29.9 303.2,46.3 294.9,53.4 
		235.4,104.2 210.2,125.6 208.9,124.1 200.4,113.9 199,112.3 270,51.9 270,51.9 273.1,49.3 312.4,15.8 321.2,8.3 330.7,0.3 331,0 	
		"/>
	<g>
		<g>
			<g>
				<path class="st3" d="M239.4,91.6l-5.2,4.2c-0.5,0.3-1.1,0.2-1.5-0.3c-0.4-0.5-0.3-1.3,0.2-1.7l0,0l7.1-6
					c0.5-0.4,0.6-1.2,0.2-1.7c-0.4-0.5-1.1-0.6-1.6-0.2l-14.2,12.1c-0.1,0.1-0.1,0.1-0.2,0.1l-0.1,0.1l0,0c-0.6,0.2-1.2,0.1-1.6-0.4
					c-0.4-0.5-0.4-1.1-0.1-1.7l3.3-2.9c0.4-0.4,0.4-1.1,0-1.6c-0.4-0.5-1.1-0.6-1.6-0.2L199,112.2c-3.6,3.1-4.2,8.7-1.3,12.5
					c2.9,3.8,8.2,4.4,11.9,1.4l25.4-21.3c0.5-0.4,0.6-1.2,0.2-1.7c-0.4-0.5-1-0.6-1.5-0.3l-1.4,1.1c-0.5,0.4-1.2,0.3-1.6-0.2
					s-0.3-1.3,0.2-1.7l2.2-1.9l7.8-6.6c0.5-0.4,0.6-1.2,0.2-1.7C240.7,91.3,239.9,91.2,239.4,91.6z"/>
			</g>
		</g>
		<g>
			<path class="st4" d="M227.8,101.3l-3.9,3.2c-0.4,0.2-0.8,0.1-1.1-0.2c-0.3-0.4-0.2-1,0.1-1.3l0,0l5.4-4.6
				c0.4-0.3,0.4-0.9,0.1-1.3c-0.3-0.4-0.9-0.5-1.3-0.2l-10.8,9.2c-0.1,0-0.1,0.1-0.1,0.1l-0.1,0.1l0,0c-0.4,0.2-0.9,0.1-1.2-0.3
				c-0.3-0.4-0.3-0.9-0.1-1.3l2.5-2.2c0.3-0.3,0.3-0.8,0-1.2c-0.3-0.4-0.9-0.5-1.3-0.2l-15.2,12.6c-2.8,2.3-3.2,6.6-1,9.5
				c2.2,2.9,6.2,3.4,9,1.1l15.6-12.9c0.4-0.3,0.4-0.9,0.1-1.3c-0.3-0.4-0.8-0.4-1.1-0.2l-1,0.9c-0.4,0.3-0.9,0.3-1.2-0.1
				c-0.3-0.4-0.2-0.9,0.1-1.3l1.7-1.4l5.9-5c0.4-0.3,0.4-0.9,0.1-1.3C228.7,101,228.1,100.9,227.8,101.3z"/>
		</g>
	</g>
</g>
<g class="st1">
	<path class="st2" d="M359.8,30.7c0,5.3-0.1,10.8-0.3,13.8v4.6l-24.8,21.2l-19.8,16.9l-0.3,0.2l0,0l-1-1.2l-6.7-8.1l-1.1-1.3
		l37.1-31.6l4.9-4.1l11.8-10L359.8,30.7L359.8,30.7z"/>
	<g>
		<g>
			<g>
				<path class="st3" d="M337.9,60.3l-4.1,3.4c-0.4,0.2-0.9,0.1-1.2-0.3c-0.3-0.4-0.3-1,0.1-1.4l0,0l5.7-4.8c0.4-0.3,0.5-1,0.1-1.4
					c-0.3-0.4-0.9-0.5-1.3-0.2l-11.3,9.6c0,0-0.1,0.1-0.1,0.1l-0.1,0.1l0,0c-0.5,0.2-1,0.1-1.3-0.4c-0.3-0.4-0.3-0.9-0.1-1.3
					l2.6-2.3c0.3-0.3,0.3-0.9,0-1.3c-0.3-0.4-0.9-0.5-1.3-0.2l-19.8,16.7c-2.9,2.4-3.4,6.9-1,9.9c2.3,3.1,6.6,3.5,9.5,1.1l20.2-17
					c0.4-0.3,0.5-1,0.1-1.4c-0.3-0.4-0.8-0.5-1.2-0.2l-1.1,0.9c-0.4,0.3-1,0.3-1.3-0.2s-0.3-1,0.1-1.3l1.8-1.5l6.2-5.3
					c0.4-0.3,0.5-1,0.1-1.4C338.9,60,338.3,59.9,337.9,60.3z"/>
			</g>
		</g>
		<g>
			<path class="st4" d="M328.6,67.9l-3.1,2.6c-0.3,0.2-0.7,0.1-0.9-0.2c-0.2-0.3-0.2-0.8,0.1-1.1l0,0l4.3-3.7
				c0.3-0.3,0.4-0.7,0.1-1.1s-0.7-0.4-1-0.1l-8.6,7.3c0,0-0.1,0.1-0.1,0.1l-0.1,0.1l0,0c-0.3,0.1-0.8,0.1-1-0.3
				c-0.2-0.3-0.2-0.7-0.1-1l2-1.8c0.2-0.3,0.2-0.7,0-1c-0.3-0.3-0.7-0.4-1-0.1l-12.1,10c-2.2,1.8-2.6,5.2-0.8,7.6
				c1.8,2.3,5,2.7,7.2,0.8l12.4-10.3c0.3-0.3,0.4-0.7,0.1-1.1c-0.2-0.3-0.6-0.4-0.9-0.2l-0.8,0.7c-0.3,0.3-0.7,0.2-1-0.1
				s-0.2-0.8,0.1-1l1.4-1.1l4.7-4c0.3-0.3,0.4-0.7,0.1-1.1C329.3,67.8,328.9,67.7,328.6,67.9z"/>
		</g>
	</g>
</g>
<g>
	<ellipse class="st5" cx="10.6" cy="204.2" rx="0.3" ry="0.3"/>
	<ellipse class="st5" cx="39.1" cy="211.1" rx="0.6" ry="0.5"/>
	<ellipse class="st5" cx="59.3" cy="209.5" rx="0.6" ry="0.5"/>
	<ellipse class="st5" cx="44.6" cy="218.6" rx="0.6" ry="0.5"/>
	<path class="st5" d="M17.2,221.9c-0.1-0.1,0-0.3,0.1-0.3c0.1-0.1,0.3,0,0.4,0.1s0,0.3-0.1,0.3"/>
	<g id="the_moon">
		<path class="st6" d="M80.7,200.5c-6.7,15.2-25.6,22.6-42.1,16.4c-11.3-4.2-18.6-13.6-20-24c-0.6-4.8,0-9.9,2.1-14.7
			c6.7-15.2,25.6-22.6,42.1-16.4c12.9,4.8,20.6,16.4,20.2,28.5C82.9,193.7,82.1,197.2,80.7,200.5z"/>
		<path class="st7" d="M80.7,200.5c-6.7,15.2-25.6,22.6-42.1,16.4c-11.3-4.2-18.6-13.6-20-24c0.1-3.4,0.9-6.9,2.4-10.3
			c6.7-15.2,25.6-22.6,42.1-16.4c11.3,4.2,18.6,13.6,20,24C82.9,193.7,82.1,197.2,80.7,200.5z"/>
		<path class="st6" d="M63.8,162.1c-0.3-0.2-0.6-0.3-1-0.4c-16.5-6.2-35.4,1.1-42.1,16.4c-6.7,15.2,1.3,32.6,17.8,38.8
			s35.4-1.1,42.1-16.4c0,0,1.3-3.8-3.8-5.3s-24.8-8.9-16.1-15.6C60.7,179.7,74.5,169.8,63.8,162.1z"/>
		<path class="st4" d="M79.4,199.3c-5.7,13-20,20.9-34.3,19.1c-0.3,0-0.7-0.1-1-0.1c-2-0.3-4-0.8-6-1.5l-0.1,0
			c-0.1-0.1-0.3-0.1-0.4-0.1c-8.6-3.2-15-9.7-18.2-17.4c-0.1-0.2-0.1-0.4-0.2-0.5c-1-2.7-1.7-5.4-2-8.3c0-0.5-0.1-0.9-0.1-1.4
			c-0.1-4.1,0.6-8.2,2.3-12.1c2.7-6.2,7.5-11.1,13.3-14.3c0.2-0.1,0.4-0.2,0.6-0.3c2.7-1.4,5.6-2.5,8.6-3.1c0.2-0.1,0.5-0.1,0.7-0.1
			c6.1-1.2,12.7-0.8,19,1.5c0.3,0.1,2.1,1.3,2.3,1.6c0,0,0,0,0,0l0,0c0,0,0,0,0,0.1c1.4,1.9,2.1,3.7,2.2,5.4
			c0.6,6.6-6.7,10.9-6.7,10.9c-3.6,2.7-2.4,5.6,0.6,8.1l0,0c4.3,3.6,12.5,6.6,15.5,7.5c1.8,0.5,2.8,1.3,3.3,2.1l0,0
			C79.9,197.7,79.4,199.3,79.4,199.3z"/>
	</g>
	<path class="st6" d="M21.5,200.3c1.7-3.9,6.2-6,10.6-5.1c-3.8-1.9-5.7-5.9-4.5-9.7c-2.1,3.2-6.2,4.7-10.1,3.8
		c3.9,2.1,5.7,6.6,3.9,10.5L21.5,200.3z"/>
	<path class="st4" d="M19.2,199.8c1.7-3.9,6.2-6,10.6-5.1c-3.8-1.9-5.7-5.9-4.5-9.7c-2.1,3.2-6.2,4.7-10.1,3.8
		c3.9,2.1,5.7,6.6,3.9,10.5L19.2,199.8z"/>
	<path class="st6" d="M42.6,159l0.6,1.3L44,162l-1.3,3l-0.2,0.5l-3.8,1.5l-0.9-0.3l0,0l-2.9-1.1l-0.8-1.8l-0.7-1.5
		c2.7-1.4,5.6-2.5,8.6-3.1L42.6,159z"/>
	<path class="st4" d="M43.1,161.7l-1.5,3.5l-1.8,0.7l0,0l-2,0.8l-3.8-1.4l-0.5-1.1l-0.7-1.5c0.2-0.1,0.4-0.2,0.6-0.3
		c2.7-1.4,5.6-2.5,8.6-3.1l0.6,1.4L43.1,161.7z"/>
</g>
<path class="st8" d="M87.2,407c0.6,0,1.1-0.3,1.2-0.8c0,0,0-0.1,0-0.1s0-0.1,0-0.1c0,0,0,0.1,0,0.1s0,0.1,0,0.1
	c0.1,0.4,0.6,0.8,1.2,0.8c-0.6,0-1.1,0.3-1.2,0.8c0,0,0,0.1,0,0.1c0,0,0,0.1,0,0.1c0,0,0-0.1,0-0.1c0,0,0-0.1,0-0.1
	C88.4,407.3,87.9,407,87.2,407z"/>
<path class="st9" d="M89.3,256.9c0.4,0.6,1.1,0.8,1.7,0.4c0.1,0,0.1-0.1,0.2-0.1c0,0,0.1-0.1,0.1-0.1c-0.1,0-0.1,0.1-0.2,0.1
	c0,0-0.1,0.1-0.1,0.1c-0.5,0.5-0.5,1.3-0.2,1.9c-0.4-0.6-1.1-0.8-1.7-0.4c-0.1,0-0.1,0.1-0.2,0.1c0,0-0.1,0.1-0.1,0.1
	c0.1,0,0.1-0.1,0.2-0.1c0,0,0.1-0.1,0.1-0.1C89.6,258.3,89.7,257.5,89.3,256.9z"/>
<path class="st10" d="M20.8,346.8c0.2,0.3,0.6,0.3,0.9,0.1c0,0,0,0,0.1-0.1c0,0,0,0,0.1-0.1c0,0,0,0-0.1,0.1c0,0,0,0-0.1,0.1
	c-0.2,0.3-0.2,0.7,0,0.9c-0.2-0.3-0.6-0.3-0.9-0.1c0,0,0,0-0.1,0.1s0,0-0.1,0.1c0,0,0,0,0.1-0.1s0,0,0.1-0.1
	C21,347.4,21,347,20.8,346.8z"/>
<path class="st10" d="M21.5,355.8c0.5,0.3,1.2,0.4,1.7,0.1c0,0,0.1,0,0.1-0.1s0.1-0.1,0.1-0.1c0,0-0.1,0-0.1,0.1
	c0,0-0.1,0.1-0.1,0.1c-0.4,0.4-0.4,0.9,0.1,1.2c-0.5-0.3-1.2-0.4-1.7-0.1c0,0-0.1,0-0.1,0.1c0,0-0.1,0.1-0.1,0.1c0,0,0.1,0,0.1-0.1
	c0,0,0.1-0.1,0.1-0.1C22,356.6,21.9,356.1,21.5,355.8z"/>
<path class="st10" d="M5.7,258.5c0.1,0.1,0.3,0.1,0.4,0c0,0,0,0,0,0c0,0,0,0,0,0c0,0,0,0,0,0c0,0,0,0,0,0c-0.1,0.1-0.1,0.3,0,0.5
	c-0.1-0.1-0.3-0.1-0.4,0c0,0,0,0,0,0s0,0,0,0c0,0,0,0,0,0c0,0,0,0,0,0C5.8,258.9,5.8,258.7,5.7,258.5z"/>
<path class="st10" d="M14,352.2c0.3,0.3,0.9,0.3,1.3,0.1c0,0,0.1,0,0.1-0.1s0.1,0,0.1-0.1c0,0-0.1,0-0.1,0.1s-0.1,0-0.1,0.1
	c-0.3,0.3-0.3,0.7,0.1,0.9c-0.3-0.3-0.9-0.3-1.3-0.1c0,0-0.1,0-0.1,0.1c0,0-0.1,0-0.1,0.1c0,0,0.1,0,0.1-0.1s0.1,0,0.1-0.1
	C14.4,352.8,14.4,352.4,14,352.2z"/>
<path class="st10" d="M-4.1,341.9c0.2,0.3,0.6,0.3,0.9,0.1c0,0,0,0,0.1-0.1s0,0,0.1-0.1c0,0,0,0-0.1,0.1c0,0,0,0-0.1,0.1
	c-0.2,0.3-0.2,0.7,0,0.9c-0.2-0.3-0.6-0.3-0.9-0.1c0,0,0,0-0.1,0.1s0,0-0.1,0.1c0,0,0,0,0.1-0.1c0,0,0,0,0.1-0.1
	C-3.9,342.6-3.9,342.2-4.1,341.9z"/>
<path class="st10" d="M-3.6,248.8c0.3,0.4,0.9,0.4,1.3,0.1c0,0,0.1-0.1,0.1-0.1s0.1-0.1,0.1-0.1c0,0-0.1,0.1-0.1,0.1
	s-0.1,0.1-0.1,0.1c-0.3,0.4-0.3,1,0.1,1.4c-0.3-0.4-0.9-0.4-1.3-0.1c0,0-0.1,0.1-0.1,0.1c0,0-0.1,0.1-0.1,0.1c0,0,0.1-0.1,0.1-0.1
	c0,0,0.1-0.1,0.1-0.1C-3.2,249.7-3.2,249.1-3.6,248.8z"/>
<path class="st11" d="M41.3,247.9c-0.1,0.7,0.3,1.4,0.9,1.6c0.1,0,0.1,0,0.2,0.1s0.1,0,0.2,0c-0.1,0-0.1,0-0.2-0.1
	c-0.1,0-0.1,0-0.2,0c-0.7,0-1.3,0.5-1.4,1.2c0.1-0.7-0.3-1.4-0.9-1.6c-0.1,0-0.1,0-0.2-0.1s-0.1,0-0.2,0c0.1,0,0.1,0,0.2,0.1
	s0.1,0,0.2,0C40.6,249.1,41.2,248.6,41.3,247.9z"/>
<path class="st11" d="M40.9,238.3c-0.1,0.5,0.2,1,0.7,1.2c0,0,0.1,0,0.1,0s0.1,0,0.1,0c0,0-0.1,0-0.1,0s-0.1,0-0.1,0
	c-0.5,0-0.9,0.4-1,0.9c0.1-0.5-0.2-1-0.7-1.2c0,0-0.1,0-0.1,0s-0.1,0-0.1,0c0,0,0.1,0,0.1,0s0.1,0,0.1,0
	C40.4,239.1,40.8,238.8,40.9,238.3z"/>
<path class="st12" d="M359.8,30.7c0,5.3-0.1,10.8-0.3,13.8c-6.2,0.1-11.7,0.3-16.7,0.6c-27.4,1.8-36.6,6.7-47.9,8.3
	c-5.7,0.8-11.9,0.7-21.1-1c-1.3-0.2-2.6-0.4-3.8-0.5l0,0c-4.9-0.5-9-0.2-13.4-0.9c-47.8-6.9-53.6,2.4-78.1,4.8
	c-4.9,0.5-10.5,0.7-17.3,0.4c-28.4-1-50.6,3.8-88.4-2.5c-17.7-3-41.8-11.4-62.4-16c-4.1-0.9-8.1-1.7-11.8-2.2V0h360.8
	c0,0,0.3,9.3,0.3,20C359.8,22.5,359.8,26.6,359.8,30.7z"/>
<path class="st4" d="M359.8,20c0,3,0,6.9-0.1,10.8c0,3.2-0.1,6.2-0.2,8.5c-4,0.6-8,1.2-11.8,1.8l0,0c-16.2,2.3-30.9,4-44.4,5.3
	c-10.7,1.1-20.7,2-30.1,2.9c-5.7,0.6-11.1,1.1-16.4,1.8c-29.7,3.5-53.6,5.1-78.1,4.8c-42.9-0.5-87.7-6.7-168.1-18
	c-3.8-0.5-7.8-1.1-11.8-1.7V0h360.8C359.5,0,359.8,9.3,359.8,20z"/>
<path class="st13" d="M264.6,156.1c0.1,0.7,0.6,1.2,1.3,1.3c0.1,0,0.1,0,0.2,0s0.1,0,0.2,0c-0.1,0-0.1,0-0.2,0s-0.1,0-0.2,0
	c-0.6,0.2-1.1,0.8-1,1.5c-0.1-0.7-0.6-1.2-1.3-1.3c-0.1,0-0.1,0-0.2,0s-0.1,0-0.2,0c0.1,0,0.1,0,0.2,0s0.1,0,0.2,0
	C264.2,157.5,264.6,156.9,264.6,156.1z"/>
<path class="st13" d="M263,131.6c0.1,0.1,0.3,0.1,0.4-0.1c0,0,0,0,0,0s0,0,0-0.1c0,0,0,0,0,0s0,0,0,0.1c-0.1,0.2,0,0.4,0.1,0.4
	c-0.1-0.1-0.3-0.1-0.4,0.1c0,0,0,0,0,0s0,0,0,0.1c0,0,0,0,0,0s0,0,0-0.1C263.2,131.9,263.1,131.7,263,131.6z"/>
<path class="st13" d="M254.9,140.7c0.3,0.2,0.7,0.1,0.9-0.2c0,0,0-0.1,0.1-0.1s0-0.1,0-0.1c0,0,0,0.1-0.1,0.1c0,0,0,0.1,0,0.1
	c-0.1,0.3,0,0.7,0.3,0.9c-0.3-0.2-0.7-0.1-0.9,0.2c0,0,0,0.1-0.1,0.1c0,0,0,0.1,0,0.1c0,0,0-0.1,0.1-0.1c0,0,0-0.1,0-0.1
	C255.3,141.3,255.2,140.9,254.9,140.7z"/>
<path class="st13" d="M251.2,125c0.4,0.3,1,0.1,1.3-0.3c0,0,0.1-0.1,0.1-0.1s0-0.1,0.1-0.1c0,0-0.1,0.1-0.1,0.1s0,0.1-0.1,0.1
	c-0.2,0.5,0,1,0.4,1.3c-0.4-0.3-1-0.1-1.3,0.3c0,0-0.1,0.1-0.1,0.1s0,0.1-0.1,0.1c0,0,0.1-0.1,0.1-0.1s0-0.1,0.1-0.1
	C251.9,125.8,251.7,125.3,251.2,125z"/>
<path class="st13" d="M276.6,90.6c0.1,0.7,0.6,1.2,1.3,1.3c0.1,0,0.1,0,0.2,0s0.1,0,0.2,0c-0.1,0-0.1,0-0.2,0s-0.1,0-0.2,0
	c-0.6,0.2-1.1,0.8-1,1.5c-0.1-0.7-0.6-1.2-1.3-1.3c-0.1,0-0.1,0-0.2,0s-0.1,0-0.2,0c0.1,0,0.1,0,0.2,0s0.1,0,0.2,0
	C276.2,91.9,276.7,91.3,276.6,90.6z"/>
<path class="st13" d="M252.6,401.8c0.1,0.1,0.3,0.2,0.4,0.2c0,0,0,0,0,0c0,0,0,0,0,0c0,0,0,0,0,0c0,0,0,0,0,0
	c-0.2,0.1-0.2,0.2-0.2,0.3c-0.1-0.1-0.3-0.2-0.4-0.2c0,0,0,0,0,0c0,0,0,0,0,0c0,0,0,0,0,0c0,0,0,0,0,0
	C252.6,402.1,252.7,401.9,252.6,401.8z"/>
<path class="st13" d="M240.6,408.3c0.1,0.3,0.5,0.4,0.8,0.3c0,0,0.1,0,0.1,0c0,0,0.1,0,0.1,0c0,0-0.1,0-0.1,0c0,0-0.1,0-0.1,0
	c-0.3,0.1-0.5,0.4-0.3,0.7c-0.1-0.3-0.5-0.4-0.8-0.3c0,0-0.1,0-0.1,0c0,0-0.1,0-0.1,0c0,0,0.1,0,0.1,0c0,0,0.1,0,0.1,0
	C240.6,408.8,240.7,408.5,240.6,408.3z"/>
<path class="st13" d="M246.9,392.1c0.2,0.4,0.7,0.6,1.3,0.5c0,0,0.1,0,0.1,0c0,0,0.1,0,0.1,0c0,0-0.1,0-0.1,0c0,0-0.1,0-0.1,0
	c-0.5,0.2-0.7,0.6-0.5,1c-0.2-0.4-0.7-0.6-1.3-0.5c0,0-0.1,0-0.1,0c0,0-0.1,0-0.1,0c0,0,0.1,0,0.1,0c0,0,0.1,0,0.1,0
	C246.9,392.9,247.1,392.5,246.9,392.1z"/>
<path class="st8" d="M174.9,359.1c0.3,0.5,1,0.7,1.6,0.6c0.1,0,0.1,0,0.2,0c0.1,0,0.1,0,0.2-0.1c-0.1,0-0.1,0-0.2,0s-0.1,0-0.2,0.1
	c-0.6,0.3-0.8,0.8-0.6,1.3c-0.3-0.5-1-0.7-1.6-0.6c-0.1,0-0.1,0-0.2,0c-0.1,0-0.1,0-0.2,0.1c0.1,0,0.1,0,0.2,0s0.1,0,0.2-0.1
	C174.9,360.1,175.1,359.6,174.9,359.1z"/>
<path class="st9" d="M247.1,249.6c-0.4,0.7-0.2,1.6,0.3,2.1c0.1,0.1,0.1,0.1,0.2,0.1c0.1,0,0.1,0.1,0.2,0.1
	c-0.1-0.1-0.1-0.1-0.2-0.1c-0.1,0-0.1-0.1-0.2-0.1c-0.7-0.3-1.5-0.1-1.9,0.6c0.4-0.7,0.2-1.6-0.3-2.1c-0.1-0.1-0.1-0.1-0.2-0.1
	c-0.1,0-0.1-0.1-0.2-0.1c0.1,0.1,0.1,0.1,0.2,0.1c0.1,0,0.1,0.1,0.2,0.1C246,250.6,246.8,250.3,247.1,249.6z"/>
<path class="st8" d="M258,238.7c0.7,0.2,1.4-0.1,1.7-0.8c0-0.1,0-0.1,0.1-0.2s0-0.1,0-0.2c0,0.1,0,0.1-0.1,0.2c0,0.1,0,0.1,0,0.2
	c-0.1,0.7,0.3,1.4,1,1.7c-0.7-0.2-1.4,0.1-1.7,0.8c0,0.1,0,0.1-0.1,0.2c0,0.1,0,0.1,0,0.2c0-0.1,0-0.1,0.1-0.2s0-0.1,0-0.2
	C259,239.6,258.6,238.9,258,238.7z"/>
<path class="st13" d="M264,225c0.2,0.3,0.6,0.5,1,0.3c0,0,0.1,0,0.1-0.1s0.1,0,0.1-0.1c0,0-0.1,0-0.1,0.1s-0.1,0-0.1,0.1
	c-0.3,0.3-0.4,0.7-0.1,1c-0.2-0.3-0.6-0.5-1-0.3c0,0-0.1,0-0.1,0.1s-0.1,0-0.1,0.1c0,0,0.1,0,0.1-0.1s0.1,0,0.1-0.1
	C264.1,225.8,264.2,225.3,264,225z"/>
<path class="st13" d="M257.2,202.1c0.1,0.1,0.3,0.2,0.4,0.1c0,0,0,0,0,0c0,0,0,0,0,0c0,0,0,0,0,0c0,0,0,0,0,0
	c-0.1,0.1-0.2,0.3-0.1,0.5c-0.1-0.1-0.3-0.2-0.4-0.1c0,0,0,0,0,0c0,0,0,0,0,0c0,0,0,0,0,0c0,0,0,0,0,0
	C257.2,202.4,257.3,202.3,257.2,202.1z"/>
<path class="st13" d="M254.7,231.8c0.3,0.5,0.9,0.7,1.4,0.4c0,0,0.1-0.1,0.1-0.1c0,0,0.1-0.1,0.1-0.1c0,0-0.1,0.1-0.1,0.1
	c0,0-0.1,0.1-0.1,0.1c-0.4,0.4-0.5,1-0.2,1.5c-0.3-0.5-0.9-0.7-1.4-0.4c-0.1,0-0.1,0.1-0.1,0.1c-0.1,0-0.1,0.1-0.1,0.1
	c0.1,0,0.1-0.1,0.1-0.1c0.1,0,0.1-0.1,0.1-0.1C254.9,233,255,232.3,254.7,231.8z"/>
<path class="st13" d="M245.9,206.2c0.2,0.3,0.5,0.4,0.8,0.3c0,0,0.1,0,0.1-0.1c0,0,0.1,0,0.1-0.1c0,0-0.1,0-0.1,0.1
	c0,0-0.1,0-0.1,0.1c-0.3,0.2-0.3,0.6-0.1,0.9c-0.2-0.3-0.5-0.4-0.8-0.3c0,0-0.1,0-0.1,0.1c0,0-0.1,0-0.1,0.1c0,0,0.1,0,0.1-0.1
	c0,0,0.1,0,0.1-0.1C246.1,206.9,246.1,206.5,245.9,206.2z"/>
<path class="st8" d="M241.8,370.5c0.7,0.7,2,1,3.1,0.6c0.1,0,0.2-0.1,0.3-0.1c0.1,0,0.2-0.1,0.3-0.1c-0.1,0-0.2,0.1-0.3,0.1
	c-0.1,0-0.2,0.1-0.3,0.1c-0.9,0.6-1.1,1.6-0.4,2.3c-0.7-0.7-2-1-3.1-0.6c-0.1,0-0.2,0.1-0.3,0.1c-0.1,0-0.2,0.1-0.3,0.1
	c0.1,0,0.2-0.1,0.3-0.1c0.1,0,0.2-0.1,0.3-0.1C242.3,372.2,242.5,371.2,241.8,370.5z"/>
<path class="st8" d="M229.7,362.1c0.5,0.6,1.5,0.7,2.3,0.5c0.1,0,0.2-0.1,0.2-0.1c0.1,0,0.1-0.1,0.2-0.1c-0.1,0-0.2,0.1-0.2,0.1
	c-0.1,0-0.1,0.1-0.2,0.1c-0.7,0.4-0.8,1.2-0.3,1.7c-0.5-0.6-1.5-0.7-2.3-0.5c-0.1,0-0.2,0.1-0.2,0.1c-0.1,0-0.1,0.1-0.2,0.1
	c0.1,0,0.2-0.1,0.2-0.1c0.1,0,0.1-0.1,0.2-0.1C230.1,363.4,230.2,362.7,229.7,362.1z"/>
<path class="st8" d="M217.1,226.4c0.4,0.6,1.2,0.8,1.8,0.5c0.1,0,0.1-0.1,0.2-0.1s0.1-0.1,0.2-0.1c-0.1,0-0.1,0.1-0.2,0.1
	c-0.1,0-0.1,0.1-0.2,0.1c-0.5,0.5-0.6,1.3-0.2,1.9c-0.4-0.6-1.2-0.8-1.8-0.5c-0.1,0-0.1,0.1-0.2,0.1s-0.1,0.1-0.2,0.1
	c0.1,0,0.1-0.1,0.2-0.1c0.1,0,0.1-0.1,0.2-0.1C217.4,227.9,217.5,227,217.1,226.4z"/>
<path class="st13" d="M174.6,397.2c0.1,0.1,0.3,0.1,0.5,0.1c0,0,0,0,0,0c0,0,0,0,0,0c0,0,0,0,0,0c0,0,0,0,0,0
	c-0.1,0.1-0.2,0.2-0.1,0.3c-0.1-0.1-0.3-0.1-0.5-0.1c0,0,0,0,0,0c0,0,0,0,0,0c0,0,0,0,0,0s0,0,0,0
	C174.7,397.5,174.7,397.4,174.6,397.2z"/>
<path class="st13" d="M162.3,400.3c0.2,0.2,0.6,0.3,0.9,0.2c0,0,0.1,0,0.1,0c0,0,0.1,0,0.1,0c0,0-0.1,0-0.1,0c0,0-0.1,0-0.1,0
	c-0.3,0.2-0.3,0.5-0.1,0.7c-0.2-0.2-0.6-0.3-0.9-0.2c0,0-0.1,0-0.1,0c0,0-0.1,0-0.1,0c0,0,0.1,0,0.1,0c0,0,0.1,0,0.1,0
	C162.5,400.8,162.5,400.5,162.3,400.3z"/>
<path class="st13" d="M166.5,370.5c0.3,0.3,0.9,0.5,1.4,0.3c0,0,0.1,0,0.1,0c0,0,0.1,0,0.1-0.1c0,0-0.1,0-0.1,0c0,0-0.1,0-0.1,0.1
	c-0.4,0.3-0.5,0.7-0.2,1c-0.3-0.3-0.9-0.5-1.4-0.3c0,0-0.1,0-0.1,0c0,0-0.1,0-0.1,0.1c0,0,0.1,0,0.1,0c0,0,0.1,0,0.1-0.1
	C166.7,371.3,166.8,370.9,166.5,370.5z"/>
<path class="st13" d="M35.4,484c0.1,0.2,0.3,0.3,0.4,0.2c0,0,0,0,0,0c0,0,0,0,0,0c0,0,0,0,0,0c0,0,0,0,0,0c-0.2,0.1-0.2,0.3-0.2,0.5
	c-0.1-0.2-0.3-0.3-0.4-0.2c0,0,0,0,0,0c0,0,0,0,0,0c0,0,0,0,0,0c0,0,0,0,0,0C35.4,484.4,35.5,484.2,35.4,484z"/>
<path class="st13" d="M23,493.7c0.1,0.4,0.5,0.6,0.9,0.5c0,0,0.1,0,0.1,0s0.1,0,0.1,0c0,0-0.1,0-0.1,0s-0.1,0-0.1,0
	c-0.3,0.2-0.5,0.6-0.3,1c-0.1-0.4-0.5-0.6-0.9-0.5c0,0-0.1,0-0.1,0s-0.1,0-0.1,0c0,0,0.1,0,0.1,0s0.1,0,0.1,0
	C23,494.5,23.2,494,23,493.7z"/>
<path class="st13" d="M29.5,469.5c0.2,0.6,0.8,0.9,1.3,0.7c0,0,0.1,0,0.1,0s0.1,0,0.1-0.1c0,0-0.1,0-0.1,0s-0.1,0-0.1,0.1
	c-0.5,0.3-0.7,0.9-0.5,1.5c-0.2-0.6-0.8-0.9-1.3-0.7c0,0-0.1,0-0.1,0s-0.1,0-0.1,0.1c0,0,0.1,0,0.1,0s0.1,0,0.1-0.1
	C29.5,470.7,29.8,470.1,29.5,469.5z"/>
<path class="st9" d="M28.9,422.3c-0.4,0.5-0.2,1.1,0.3,1.4c0.1,0,0.1,0.1,0.2,0.1s0.1,0,0.2,0.1c-0.1,0-0.1-0.1-0.2-0.1
	s-0.1,0-0.2-0.1c-0.7-0.2-1.5,0-1.9,0.4c0.4-0.5,0.2-1.1-0.3-1.4c-0.1,0-0.1-0.1-0.2-0.1s-0.1,0-0.2-0.1c0.1,0,0.1,0.1,0.2,0.1
	s0.1,0,0.2,0.1C27.7,422.9,28.5,422.7,28.9,422.3z"/>
<path class="st8" d="M32.4,415c0.7,0.1,1.4-0.1,1.7-0.5c0,0,0-0.1,0.1-0.1c0,0,0-0.1,0-0.1c0,0,0,0.1-0.1,0.1c0,0,0,0.1,0,0.1
	c-0.1,0.5,0.3,1,1,1.1c-0.7-0.1-1.4,0.1-1.7,0.5c0,0,0,0.1-0.1,0.1c0,0,0,0.1,0,0.1c0,0,0-0.1,0.1-0.1c0,0,0-0.1,0-0.1
	C33.5,415.6,33.1,415.1,32.4,415z"/>
<path class="st13" d="M38.3,405.8c0.2,0.2,0.6,0.3,0.9,0.2c0,0,0.1,0,0.1,0c0,0,0.1,0,0.1,0c0,0-0.1,0-0.1,0c0,0-0.1,0-0.1,0
	c-0.3,0.2-0.3,0.5-0.1,0.7c-0.2-0.2-0.6-0.3-0.9-0.2c0,0-0.1,0-0.1,0c0,0-0.1,0-0.1,0c0,0,0.1,0,0.1,0c0,0,0.1,0,0.1,0
	C38.4,406.3,38.5,406,38.3,405.8z"/>
<path class="st13" d="M29.2,410.3c0.3,0.3,0.9,0.5,1.4,0.3c0,0,0.1,0,0.1,0c0,0,0.1,0,0.1-0.1c0,0-0.1,0-0.1,0c0,0-0.1,0-0.1,0.1
	c-0.4,0.3-0.5,0.7-0.2,1c-0.3-0.3-0.9-0.5-1.4-0.3c0,0-0.1,0-0.1,0c0,0-0.1,0-0.1,0.1c0,0,0.1,0,0.1,0c0,0,0.1,0,0.1-0.1
	C29.4,411.1,29.5,410.7,29.2,410.3z"/>
<path class="st8" d="M24.3,464.1c0.7,1.1,2.1,1.5,3.2,0.9c0.1,0,0.2-0.1,0.3-0.2s0.2-0.1,0.3-0.2c-0.1,0-0.2,0.1-0.3,0.2
	s-0.2,0.1-0.3,0.2c-0.9,0.9-1.1,2.3-0.4,3.4c-0.7-1.1-2.1-1.5-3.2-0.9c-0.1,0-0.2,0.1-0.3,0.2s-0.2,0.1-0.3,0.2
	c0.1,0,0.2-0.1,0.3-0.2s0.2-0.1,0.3-0.2C24.8,466.7,25,465.2,24.3,464.1z"/>
<path class="st8" d="M11.8,402.9c0.5,0.6,1.6,0.7,2.4,0.5c0.1,0,0.2-0.1,0.2-0.1s0.1-0.1,0.2-0.1c-0.1,0-0.2,0.1-0.2,0.1
	s-0.1,0.1-0.2,0.1c-0.7,0.4-0.8,1.2-0.3,1.7c-0.5-0.6-1.6-0.7-2.4-0.5c-0.1,0-0.2,0.1-0.2,0.1c-0.1,0-0.1,0.1-0.2,0.1
	c0.1,0,0.2-0.1,0.2-0.1c0.1,0,0.1-0.1,0.2-0.1C12.2,404.2,12.4,403.4,11.8,402.9z"/>
<path class="st13" d="M170.2,502.9c-0.1,0.2,0,0.4,0.1,0.5c0,0,0,0,0.1,0s0,0,0.1,0c0,0,0,0-0.1,0s0,0-0.1,0c-0.2-0.1-0.4,0-0.4,0.2
	c0.1-0.2,0-0.4-0.1-0.5c0,0,0,0-0.1,0s0,0-0.1,0c0,0,0,0,0.1,0s0,0,0.1,0C169.9,503.2,170.1,503.1,170.2,502.9z"/>
<path class="st13" d="M155,500c-0.2,0.4-0.1,0.8,0.3,1c0,0,0.1,0,0.1,0.1s0.1,0,0.1,0c0,0-0.1,0-0.1-0.1s-0.1,0-0.1,0
	c-0.4-0.1-0.7,0-0.9,0.4c0.2-0.4,0.1-0.8-0.3-1c0,0-0.1,0-0.1-0.1s-0.1,0-0.1,0c0,0,0.1,0,0.1,0.1s0.1,0,0.1,0
	C154.5,500.5,154.9,500.4,155,500z"/>
<path class="st13" d="M176.3,488.6c-0.3,0.5-0.1,1.2,0.4,1.5c0,0,0.1,0.1,0.1,0.1s0.1,0,0.1,0.1c0,0-0.1-0.1-0.1-0.1s-0.1,0-0.1-0.1
	c-0.5-0.2-1.1,0.1-1.4,0.6c0.3-0.5,0.1-1.2-0.4-1.5c0,0-0.1-0.1-0.1-0.1s-0.1,0-0.1-0.1c0,0,0.1,0.1,0.1,0.1s0.1,0,0.1,0.1
	C175.4,489.4,176,489.1,176.3,488.6z"/>
<path class="st8" d="M141.3,427.2c-0.3,0.5-0.1,1,0.5,1.3c0.1,0,0.1,0,0.2,0.1c0.1,0,0.1,0,0.2,0c-0.1,0-0.1,0-0.2-0.1
	c-0.1,0-0.1,0-0.2,0c-0.7-0.1-1.4,0.1-1.7,0.5c0.3-0.5,0.1-1-0.5-1.3c-0.1,0-0.1,0-0.2-0.1c-0.1,0-0.1,0-0.2,0c0.1,0,0.1,0,0.2,0.1
	c0.1,0,0.1,0,0.2,0C140.3,427.9,141.1,427.7,141.3,427.2z"/>
<path class="st9" d="M218.7,400.1c-0.8,0.1-1.3,0.6-1.2,1.1c0,0,0,0.1,0,0.1c0,0,0,0.1,0.1,0.1c0,0,0-0.1,0-0.1c0,0,0-0.1-0.1-0.1
	c-0.3-0.5-1-0.8-1.8-0.7c0.8-0.1,1.3-0.6,1.2-1.1c0,0,0-0.1,0-0.1c0,0,0-0.1-0.1-0.1c0,0,0,0.1,0,0.1c0,0,0,0.1,0.1,0.1
	C217.2,400,218,400.3,218.7,400.1z"/>
<path class="st8" d="M228.7,397c0.3,0.5,1.1,0.7,1.7,0.5c0.1,0,0.1,0,0.2,0s0.1,0,0.2-0.1c-0.1,0-0.1,0-0.2,0s-0.1,0-0.2,0.1
	c-0.6,0.3-0.8,0.8-0.5,1.3c-0.3-0.5-1.1-0.7-1.7-0.5c-0.1,0-0.1,0-0.2,0s-0.1,0-0.2,0.1c0.1,0,0.1,0,0.2,0s0.1,0,0.2-0.1
	C228.8,398,229,397.5,228.7,397z"/>
<path class="st13" d="M242.4,441.9c-0.1,0.3,0.1,0.5,0.4,0.6c0,0,0.1,0,0.1,0c0,0,0.1,0,0.1,0c0,0-0.1,0-0.1,0c0,0-0.1,0-0.1,0
	c-0.4,0-0.7,0.1-0.8,0.4c0.1-0.3-0.1-0.5-0.4-0.6c0,0-0.1,0-0.1,0c0,0-0.1,0-0.1,0c0,0,0.1,0,0.1,0c0,0,0.1,0,0.1,0
	C242,442.3,242.3,442.1,242.4,441.9z"/>
<path class="st13" d="M231.3,440.2c-0.1,0.4,0.1,0.8,0.6,0.9c0.1,0,0.1,0,0.1,0c0.1,0,0.1,0,0.2,0c-0.1,0-0.1,0-0.1,0
	c-0.1,0-0.1,0-0.2,0c-0.6,0-1.1,0.2-1.2,0.6c0.1-0.4-0.1-0.8-0.6-0.9c-0.1,0-0.1,0-0.1,0c-0.1,0-0.1,0-0.2,0c0.1,0,0.1,0,0.1,0
	c0.1,0,0.1,0,0.2,0C230.6,440.8,231.2,440.6,231.3,440.2z"/>
<path class="st8" d="M176.5,480.8c-0.3,1.3,0.4,2.6,1.5,3.1c0.1,0,0.2,0.1,0.3,0.1s0.2,0,0.4,0.1c-0.1,0-0.2-0.1-0.3-0.1
	s-0.2,0-0.4-0.1c-1.2-0.1-2.4,0.7-2.7,2c0.3-1.3-0.4-2.6-1.5-3.1c-0.1,0-0.2-0.1-0.3-0.1s-0.2,0-0.4-0.1c0.1,0,0.2,0.1,0.3,0.1
	s0.2,0,0.4,0.1C175,483,176.2,482.1,176.5,480.8z"/>
<path class="st8" d="M176.7,473.7c-0.2,1,0.3,2,1.1,2.3c0.1,0,0.2,0.1,0.3,0.1s0.2,0,0.3,0c-0.1,0-0.2-0.1-0.3-0.1s-0.2,0-0.3,0
	c-0.9-0.1-1.8,0.5-2,1.5c0.2-1-0.3-2-1.1-2.3c-0.1,0-0.2-0.1-0.3-0.1s-0.2,0-0.3,0c0.1,0,0.2,0.1,0.3,0.1s0.2,0,0.3,0
	C175.6,475.3,176.5,474.7,176.7,473.7z"/>
<path class="st8" d="M203.5,418.3c-0.2,0.5,0.2,1,0.8,1.2c0.1,0,0.1,0,0.2,0c0.1,0,0.1,0,0.2,0c-0.1,0-0.1,0-0.2,0
	c-0.1,0-0.1,0-0.2,0c-0.7,0-1.3,0.3-1.5,0.8c0.2-0.5-0.2-1-0.8-1.2c-0.1,0-0.1,0-0.2,0s-0.1,0-0.2,0c0.1,0,0.1,0,0.2,0s0.1,0,0.2,0
	C202.7,419.1,203.3,418.8,203.5,418.3z"/>
<path class="st13" d="M120.2,440.8c-0.1,0.1,0.1,0.3,0.2,0.3c0,0,0,0,0.1,0c0,0,0,0,0.1,0c0,0,0,0-0.1,0c0,0,0,0-0.1,0
	c-0.2,0-0.4,0.1-0.4,0.2c0.1-0.1-0.1-0.3-0.2-0.3c0,0,0,0-0.1,0c0,0,0,0-0.1,0c0,0,0,0,0.1,0c0,0,0,0,0.1,0
	C120,441,120.2,440.9,120.2,440.8z"/>
<path class="st13" d="M108.5,436.3c-0.1,0.3,0.1,0.5,0.4,0.6c0,0,0.1,0,0.1,0c0,0,0.1,0,0.1,0c0,0-0.1,0-0.1,0c0,0-0.1,0-0.1,0
	c-0.4,0-0.7,0.1-0.8,0.4c0.1-0.3-0.1-0.5-0.4-0.6c0,0-0.1,0-0.1,0c0,0-0.1,0-0.1,0c0,0,0.1,0,0.1,0s0.1,0,0.1,0
	C108,436.8,108.4,436.6,108.5,436.3z"/>
<path class="st13" d="M123.6,430.5c-0.2,0.4,0.1,0.8,0.7,0.9c0.1,0,0.1,0,0.2,0s0.1,0,0.2,0c-0.1,0-0.1,0-0.2,0s-0.1,0-0.2,0
	c-0.6,0-1.1,0.2-1.2,0.6c0.2-0.4-0.1-0.8-0.7-0.9c-0.1,0-0.1,0-0.2,0s-0.1,0-0.2,0c0.1,0,0.1,0,0.2,0s0.1,0,0.2,0
	C122.9,431.1,123.5,430.9,123.6,430.5z"/>
<path class="st13" d="M127.8,752.7c0.1,0.2,0.3,0.3,0.4,0.2c0,0,0,0,0.1,0c0,0,0,0,0.1,0c0,0,0,0-0.1,0c0,0,0,0-0.1,0
	c-0.2,0.1-0.2,0.3-0.2,0.4c-0.1-0.2-0.3-0.3-0.4-0.2c0,0,0,0-0.1,0c0,0,0,0-0.1,0c0,0,0,0,0.1,0s0,0,0.1,0
	C127.8,753.1,127.9,752.9,127.8,752.7z"/>
<path class="st13" d="M115.5,761.2c0.1,0.3,0.5,0.5,0.9,0.4c0,0,0.1,0,0.1,0s0.1,0,0.1,0c0,0-0.1,0-0.1,0s-0.1,0-0.1,0
	c-0.3,0.2-0.5,0.5-0.3,0.8c-0.1-0.3-0.5-0.5-0.9-0.4c0,0-0.1,0-0.1,0s-0.1,0-0.1,0c0,0,0.1,0,0.1,0s0.1,0,0.1,0
	C115.5,761.9,115.6,761.5,115.5,761.2z"/>
<path class="st13" d="M122,740.1c0.2,0.5,0.8,0.8,1.3,0.6c0.1,0,0.1,0,0.2,0c0.1,0,0.1,0,0.1-0.1c-0.1,0-0.1,0-0.2,0
	c-0.1,0-0.1,0-0.1,0.1c-0.5,0.3-0.7,0.8-0.5,1.3c-0.2-0.5-0.8-0.8-1.3-0.6c-0.1,0-0.1,0-0.2,0c-0.1,0-0.1,0-0.1,0.1
	c0.1,0,0.1,0,0.2,0s0.1,0,0.1-0.1C122,741.2,122.2,740.6,122,740.1z"/>
<path class="st8" d="M47.9,720.6c0.3,0.6,1,0.9,1.7,0.8c0.1,0,0.1,0,0.2-0.1c0.1,0,0.1,0,0.2-0.1c-0.1,0-0.1,0-0.2,0.1
	c-0.1,0-0.1,0-0.2,0.1c-0.6,0.3-0.9,1-0.6,1.6c-0.3-0.6-1-0.9-1.7-0.8c-0.1,0-0.1,0-0.2,0.1c-0.1,0-0.1,0-0.2,0.1
	c0.1,0,0.1,0,0.2-0.1c0.1,0,0.1,0,0.2-0.1C47.9,721.9,48.1,721.2,47.9,720.6z"/>
<path class="st9" d="M122.3,807.2c-0.4,0.7-0.2,1.6,0.3,2.1c0.1,0,0.1,0.1,0.2,0.1c0.1,0,0.1,0.1,0.2,0.1c-0.1,0-0.1-0.1-0.2-0.1
	c-0.1,0-0.1-0.1-0.2-0.1c-0.7-0.3-1.5,0-1.9,0.7c0.4-0.7,0.2-1.6-0.3-2.1c-0.1,0-0.1-0.1-0.2-0.1c-0.1,0-0.1-0.1-0.2-0.1
	c0.1,0,0.1,0.1,0.2,0.1c0.1,0,0.1,0.1,0.2,0.1C121.1,808.1,121.9,807.9,122.3,807.2z"/>
<path class="st8" d="M125.9,796.3c0.7,0.2,1.4-0.1,1.7-0.8c0-0.1,0.1-0.1,0.1-0.2s0-0.1,0.1-0.2c0,0.1-0.1,0.1-0.1,0.2
	s0,0.1-0.1,0.2c-0.1,0.7,0.3,1.4,1,1.7c-0.7-0.2-1.4,0.1-1.7,0.8c0,0.1-0.1,0.1-0.1,0.2s0,0.1-0.1,0.2c0-0.1,0.1-0.1,0.1-0.2
	s0-0.1,0.1-0.2C127,797.2,126.6,796.5,125.9,796.3z"/>
<path class="st13" d="M132,782.6c0.2,0.3,0.6,0.5,0.9,0.3c0,0,0.1,0,0.1,0c0,0,0.1,0,0.1-0.1c0,0-0.1,0-0.1,0c0,0-0.1,0-0.1,0.1
	c-0.3,0.3-0.4,0.7-0.1,1c-0.2-0.3-0.6-0.5-0.9-0.3c0,0-0.1,0-0.1,0c0,0-0.1,0-0.1,0.1c0,0,0.1,0,0.1,0c0,0,0.1,0,0.1-0.1
	C132.1,783.3,132.2,782.9,132,782.6z"/>
<path class="st13" d="M122.7,789.4c0.3,0.5,0.9,0.7,1.4,0.5c0.1,0,0.1,0,0.1-0.1c0.1,0,0.1-0.1,0.1-0.1c-0.1,0-0.1,0-0.1,0.1
	c-0.1,0-0.1,0.1-0.1,0.1c-0.4,0.4-0.5,1-0.2,1.5c-0.3-0.5-0.9-0.7-1.4-0.5c-0.1,0-0.1,0-0.1,0.1c-0.1,0-0.1,0.1-0.1,0.1
	c0.1,0,0.1,0,0.1-0.1c0.1,0,0.1-0.1,0.1-0.1C122.9,790.6,123,789.9,122.7,789.4z"/>
<path class="st8" d="M116.7,735.4c0.7,1,2.1,1.3,3.2,0.8c0.1,0,0.2-0.1,0.3-0.2s0.2-0.1,0.3-0.2c-0.1,0-0.2,0.1-0.3,0.2
	s-0.2,0.1-0.3,0.2c-0.9,0.8-1.1,2-0.4,3c-0.7-1-2.1-1.3-3.2-0.8c-0.1,0-0.2,0.1-0.3,0.2s-0.2,0.1-0.3,0.2c0.1,0,0.2-0.1,0.3-0.2
	s0.2-0.1,0.3-0.2C117.3,737.6,117.4,736.3,116.7,735.4z"/>
<path class="st8" d="M104.3,724.5c0.5,0.7,1.6,1,2.4,0.6c0.1,0,0.2-0.1,0.2-0.1c0.1,0,0.2-0.1,0.2-0.2c-0.1,0-0.2,0.1-0.2,0.1
	c-0.1,0-0.2,0.1-0.2,0.2c-0.7,0.6-0.8,1.5-0.3,2.3c-0.5-0.7-1.6-1-2.4-0.6c-0.1,0-0.2,0.1-0.2,0.1c-0.1,0-0.2,0.1-0.2,0.2
	c0.1,0,0.2-0.1,0.2-0.1s0.2-0.1,0.2-0.2C104.7,726.2,104.8,725.2,104.3,724.5z"/>
<path class="st8" d="M85.1,784c0.4,0.6,1.2,0.8,1.8,0.5c0.1,0,0.1-0.1,0.2-0.1c0.1,0,0.1-0.1,0.2-0.1c-0.1,0-0.1,0.1-0.2,0.1
	c-0.1,0-0.1,0.1-0.2,0.1c-0.5,0.5-0.6,1.3-0.2,1.9c-0.4-0.6-1.2-0.8-1.8-0.5c-0.1,0-0.1,0.1-0.2,0.1c-0.1,0-0.1,0.1-0.2,0.1
	c0.1,0,0.1-0.1,0.2-0.1s0.1-0.1,0.2-0.1C85.4,785.4,85.5,784.6,85.1,784z"/>
<path class="st13" d="M47.6,746.8c0.1,0.2,0.3,0.2,0.5,0.1c0,0,0,0,0,0s0,0,0,0c0,0,0,0,0,0s0,0,0,0c-0.1,0.1-0.2,0.3-0.1,0.5
	c-0.1-0.2-0.3-0.2-0.5-0.1c0,0,0,0,0,0s0,0,0,0c0,0,0,0,0,0s0,0,0,0C47.7,747.1,47.7,747,47.6,746.8z"/>
<path class="st13" d="M35,750.8c0.2,0.3,0.6,0.4,1,0.3c0,0,0.1,0,0.1,0c0,0,0.1,0,0.1-0.1c0,0-0.1,0-0.1,0c0,0-0.1,0-0.1,0.1
	c-0.3,0.2-0.3,0.6-0.2,0.9c-0.2-0.3-0.6-0.4-1-0.3c0,0-0.1,0-0.1,0c0,0-0.1,0-0.1,0.1c0,0,0.1,0,0.1,0c0,0,0.1,0,0.1-0.1
	C35.1,751.5,35.2,751.1,35,750.8z"/>
<path class="st13" d="M39.2,735.4c0.3,0.4,0.9,0.6,1.4,0.4c0,0,0.1,0,0.1-0.1c0,0,0.1-0.1,0.1-0.1c0,0-0.1,0-0.1,0.1
	s-0.1,0.1-0.1,0.1c-0.4,0.3-0.5,0.9-0.2,1.3c-0.3-0.4-0.9-0.6-1.4-0.4c0,0-0.1,0-0.1,0.1s-0.1,0.1-0.1,0.1c0,0,0.1,0,0.1-0.1
	c0,0,0.1-0.1,0.1-0.1C39.4,736.5,39.5,735.9,39.2,735.4z"/>
<path class="st13" d="M262.6,769.3c-0.1,0.2,0,0.3,0.1,0.4c0,0,0,0,0,0c0,0,0,0,0,0c0,0,0,0,0,0c0,0,0,0,0,0c-0.2,0-0.4,0-0.5,0.2
	c0.1-0.2,0-0.3-0.1-0.4c0,0,0,0,0,0c0,0,0,0,0,0c0,0,0,0,0,0c0,0,0,0,0,0C262.4,769.5,262.6,769.4,262.6,769.3z"/>
<path class="st13" d="M247.5,766.7c-0.2,0.3-0.1,0.7,0.3,0.9c0,0,0.1,0,0.1,0c0,0,0.1,0,0.1,0c0,0-0.1,0-0.1,0c0,0-0.1,0-0.1,0
	c-0.4-0.1-0.7,0-0.9,0.4c0.2-0.3,0.1-0.7-0.3-0.9c0,0-0.1,0-0.1,0c0,0-0.1,0-0.1,0c0,0,0.1,0,0.1,0c0,0,0.1,0,0.1,0
	C246.9,767.2,247.3,767,247.5,766.7z"/>
<path class="st13" d="M268.7,756.8c-0.3,0.5-0.1,1,0.4,1.3c0,0,0.1,0,0.1,0.1c0,0,0.1,0,0.1,0c0,0-0.1,0-0.1-0.1c0,0-0.1,0-0.1,0
	c-0.5-0.2-1.1,0.1-1.4,0.5c0.3-0.5,0.1-1-0.4-1.3c0,0-0.1,0-0.1-0.1c0,0-0.1,0-0.1,0c0,0,0.1,0,0.1,0.1c0,0,0.1,0,0.1,0
	C267.9,757.5,268.5,757.2,268.7,756.8z"/>
<path class="st8" d="M233.8,814.5c-0.3,0.7-0.1,1.5,0.5,1.9c0.1,0,0.1,0.1,0.2,0.1s0.1,0,0.2,0.1c-0.1,0-0.1-0.1-0.2-0.1
	c-0.1,0-0.1,0-0.2-0.1c-0.7-0.2-1.4,0.1-1.7,0.8c0.3-0.7,0.1-1.5-0.5-1.9c-0.1,0-0.1-0.1-0.2-0.1c-0.1,0-0.1,0-0.2-0.1
	c0.1,0,0.1,0.1,0.2,0.1c0.1,0,0.1,0,0.2,0.1C232.8,815.6,233.5,815.2,233.8,814.5z"/>
<path class="st9" d="M311.2,721c-0.8,0.1-1.3,0.8-1.2,1.5c0,0.1,0,0.1,0,0.2c0,0.1,0,0.1,0.1,0.2c0-0.1,0-0.1,0-0.2s0-0.1-0.1-0.2
	c-0.3-0.7-1-1-1.8-0.9c0.8-0.1,1.3-0.8,1.2-1.5c0-0.1,0-0.1,0-0.2s0-0.1-0.1-0.2c0,0.1,0,0.1,0,0.2c0,0.1,0,0.1,0.1,0.2
	C309.7,720.7,310.4,721.1,311.2,721z"/>
<path class="st8" d="M321.2,716.9c0.3,0.6,1,0.9,1.7,0.7c0.1,0,0.1,0,0.2-0.1s0.1-0.1,0.2-0.1c-0.1,0-0.1,0-0.2,0.1
	s-0.1,0.1-0.2,0.1c-0.6,0.4-0.8,1.1-0.5,1.7c-0.3-0.6-1-0.9-1.7-0.7c-0.1,0-0.1,0-0.2,0.1s-0.1,0.1-0.2,0.1c0.1,0,0.1,0,0.2-0.1
	s0.1-0.1,0.2-0.1C321.3,718.2,321.5,717.5,321.2,716.9z"/>
<path class="st13" d="M334.9,712.8c-0.1,0.3,0.1,0.7,0.4,0.8c0,0,0.1,0,0.1,0s0.1,0,0.1,0c0,0-0.1,0-0.1,0c0,0-0.1,0-0.1,0
	c-0.4,0-0.7,0.2-0.8,0.5c0.1-0.3-0.1-0.7-0.4-0.8c0,0-0.1,0-0.1,0c0,0-0.1,0-0.1,0c0,0,0.1,0,0.1,0s0.1,0,0.1,0
	C334.4,713.3,334.8,713.1,334.9,712.8z"/>
<path class="st13" d="M323.8,710.6c-0.1,0.5,0.1,1,0.6,1.2c0,0,0.1,0,0.1,0c0,0,0.1,0,0.2,0c0,0-0.1,0-0.1,0c0,0-0.1,0-0.2,0
	c-0.5-0.1-1.1,0.3-1.2,0.8c0.1-0.5-0.1-1-0.6-1.2c0,0-0.1,0-0.1,0c0,0-0.1,0-0.2,0c0,0,0.1,0,0.1,0c0,0,0.1,0,0.2,0
	C323.1,711.4,323.6,711.1,323.8,710.6z"/>
<path class="st8" d="M268.9,750c-0.3,1.1,0.4,2.3,1.5,2.7c0.1,0,0.2,0.1,0.3,0.1c0.1,0,0.2,0,0.4,0c-0.1,0-0.2-0.1-0.3-0.1
	c-0.1,0-0.2,0-0.4,0c-1.2-0.1-2.4,0.6-2.7,1.8c0.3-1.1-0.4-2.3-1.5-2.7c-0.1,0-0.2-0.1-0.3-0.1c-0.1,0-0.2,0-0.4,0
	c0.1,0,0.2,0.1,0.3,0.1c0.1,0,0.2,0,0.4,0C267.5,751.9,268.6,751.1,268.9,750z"/>
<path class="st8" d="M269.1,734.2c-0.2,0.8,0.3,1.7,1.1,2c0.1,0,0.2,0,0.3,0.1s0.2,0,0.3,0c-0.1,0-0.2,0-0.3-0.1s-0.2,0-0.3,0
	c-0.9-0.1-1.8,0.5-2,1.3c0.2-0.8-0.3-1.7-1.1-2c-0.1,0-0.2,0-0.3-0.1s-0.2,0-0.3,0c0.1,0,0.2,0,0.3,0.1s0.2,0,0.3,0
	C268,735.6,268.9,735,269.1,734.2z"/>
<path class="st8" d="M301.9,801.3c-0.2,0.7,0.2,1.5,0.9,1.7c0.1,0,0.1,0,0.2,0.1c0.1,0,0.1,0,0.2,0c-0.1,0-0.1,0-0.2-0.1
	c-0.1,0-0.1,0-0.2,0c-0.7-0.1-1.4,0.4-1.5,1.2c0.2-0.7-0.2-1.5-0.9-1.7c-0.1,0-0.1,0-0.2-0.1c-0.1,0-0.1,0-0.2,0
	c0.1,0,0.1,0,0.2,0.1c0.1,0,0.1,0,0.2,0C301.1,802.5,301.8,802.1,301.9,801.3z"/>
<path class="st13" d="M212.7,711.3c-0.1,0.2,0.1,0.3,0.2,0.4c0,0,0,0,0.1,0c0,0,0,0,0.1,0c0,0,0,0-0.1,0c0,0,0,0-0.1,0
	c-0.2,0-0.4,0.1-0.4,0.3c0.1-0.2-0.1-0.3-0.2-0.4c0,0,0,0-0.1,0c0,0,0,0-0.1,0c0,0,0,0,0.1,0c0,0,0,0,0.1,0
	C212.5,711.6,212.6,711.5,212.7,711.3z"/>
<path class="st13" d="M200.9,705.6c-0.1,0.3,0.1,0.7,0.4,0.8c0,0,0.1,0,0.1,0c0,0,0.1,0,0.1,0c0,0-0.1,0-0.1,0s-0.1,0-0.1,0
	c-0.4,0-0.7,0.2-0.8,0.5c0.1-0.3-0.1-0.7-0.4-0.8c0,0-0.1,0-0.1,0s-0.1,0-0.1,0c0,0,0.1,0,0.1,0c0,0,0.1,0,0.1,0
	C200.5,706.1,200.8,705.9,200.9,705.6z"/>
<path class="st13" d="M216.1,819.5c-0.1,0.6,0.1,1.2,0.6,1.4c0.1,0,0.1,0,0.1,0c0.1,0,0.1,0,0.2,0c-0.1,0-0.1,0-0.1,0
	c-0.1,0-0.1,0-0.2,0c-0.6-0.1-1.1,0.3-1.2,0.9c0.1-0.6-0.1-1.2-0.6-1.4c-0.1,0-0.1,0-0.1,0c-0.1,0-0.1,0-0.2,0c0.1,0,0.1,0,0.1,0
	c0.1,0,0.1,0,0.2,0C215.4,820.4,215.9,820.1,216.1,819.5z"/>
<path class="st13" d="M320.3,744.5c0.1,0.2,0.3,0.3,0.4,0.2c0,0,0,0,0,0s0,0,0,0c0,0,0,0,0,0s0,0,0,0c-0.2,0.1-0.2,0.3-0.2,0.5
	c-0.1-0.2-0.3-0.3-0.4-0.2c0,0,0,0,0,0s0,0,0,0c0,0,0,0,0,0s0,0,0,0C320.3,744.9,320.4,744.7,320.3,744.5z"/>
<path class="st13" d="M314.4,730.1c0.2,0.6,0.8,0.9,1.3,0.7c0,0,0.1,0,0.1,0s0.1,0,0.1-0.1c0,0-0.1,0-0.1,0s-0.1,0-0.1,0.1
	c-0.5,0.3-0.7,0.9-0.5,1.5c-0.2-0.6-0.8-0.9-1.3-0.7c0,0-0.1,0-0.1,0s-0.1,0-0.1,0.1c0,0,0.1,0,0.1,0s0.1,0,0.1-0.1
	C314.4,731.2,314.6,730.6,314.4,730.1z"/>
<path class="st8" d="M240.3,707.7c0.3,0.7,1,1,1.7,0.9c0.1,0,0.1,0,0.2-0.1s0.1-0.1,0.2-0.1c-0.1,0-0.1,0-0.2,0.1s-0.1,0.1-0.2,0.1
	c-0.6,0.4-0.9,1.2-0.6,1.9c-0.3-0.7-1-1-1.7-0.9c-0.1,0-0.1,0-0.2,0.1s-0.1,0.1-0.2,0.1c0.1,0,0.1,0,0.2-0.1s0.1-0.1,0.2-0.1
	C240.3,709.2,240.6,708.4,240.3,707.7z"/>
<path class="st9" d="M314.8,523.5c-0.4,0.7-0.2,1.6,0.3,2.1c0.1,0,0.1,0.1,0.2,0.1c0.1,0,0.1,0.1,0.2,0.1c-0.1,0-0.1-0.1-0.2-0.1
	c-0.1,0-0.1-0.1-0.2-0.1c-0.7-0.3-1.5,0-1.9,0.7c0.4-0.7,0.2-1.6-0.3-2.1c-0.1,0-0.1-0.1-0.2-0.1c-0.1,0-0.1-0.1-0.2-0.1
	c0.1,0,0.1,0.1,0.2,0.1c0.1,0,0.1,0.1,0.2,0.1C313.6,524.5,314.4,524.2,314.8,523.5z"/>
<path class="st8" d="M318.3,512.6c0.7,0.2,1.4-0.1,1.7-0.8c0-0.1,0-0.1,0.1-0.2c0-0.1,0-0.1,0-0.2c0,0.1,0,0.1-0.1,0.2s0,0.1,0,0.2
	c-0.1,0.7,0.3,1.4,1,1.7c-0.7-0.2-1.4,0.1-1.7,0.8c0,0.1,0,0.1-0.1,0.2c0,0.1,0,0.1,0,0.2c0-0.1,0-0.1,0.1-0.2c0-0.1,0-0.1,0-0.2
	C319.4,513.5,319,512.8,318.3,512.6z"/>
<path class="st13" d="M324.4,498.9c0.2,0.3,0.6,0.5,1,0.3c0,0,0.1,0,0.1,0s0.1,0,0.1-0.1c0,0-0.1,0-0.1,0s-0.1,0-0.1,0.1
	c-0.3,0.3-0.4,0.7-0.1,1c-0.2-0.3-0.6-0.5-1-0.3c0,0-0.1,0-0.1,0s-0.1,0-0.1,0.1c0,0,0.1,0,0.1,0s0.1,0,0.1-0.1
	C324.5,499.6,324.6,499.2,324.4,498.9z"/>
<path class="st13" d="M315.1,505.7c0.3,0.5,0.9,0.7,1.4,0.5c0,0,0.1,0,0.1-0.1c0,0,0.1-0.1,0.1-0.1c0,0-0.1,0-0.1,0.1
	c0,0-0.1,0.1-0.1,0.1c-0.4,0.4-0.5,1-0.2,1.5c-0.3-0.5-0.9-0.7-1.4-0.5c0,0-0.1,0-0.1,0.1c0,0-0.1,0.1-0.1,0.1c0,0,0.1,0,0.1-0.1
	c0,0,0.1-0.1,0.1-0.1C315.3,506.9,315.4,506.2,315.1,505.7z"/>
<path class="st8" d="M309.2,724.6c0.7,1.1,2.1,1.5,3.2,0.9c0.1,0,0.2-0.1,0.3-0.2s0.2-0.2,0.3-0.2c-0.1,0-0.2,0.1-0.3,0.2
	s-0.2,0.2-0.3,0.2c-0.9,0.9-1.1,2.3-0.4,3.4c-0.7-1.1-2.1-1.5-3.2-0.9c-0.1,0-0.2,0.1-0.3,0.2s-0.2,0.2-0.3,0.2
	c0.1,0,0.2-0.1,0.3-0.2s0.2-0.2,0.3-0.2C309.7,727.2,309.9,725.7,309.2,724.6z"/>
<path class="st8" d="M296.7,712.1c0.5,0.8,1.5,1.1,2.4,0.7c0.1,0,0.2-0.1,0.2-0.1c0.1,0,0.1-0.1,0.2-0.2c-0.1,0-0.2,0.1-0.2,0.1
	c-0.1,0-0.1,0.1-0.2,0.2c-0.7,0.7-0.8,1.8-0.3,2.6c-0.5-0.8-1.5-1.1-2.4-0.7c-0.1,0-0.2,0.1-0.2,0.1c-0.1,0-0.1,0.1-0.2,0.2
	c0.1,0,0.2-0.1,0.2-0.1c0.1,0,0.1-0.1,0.2-0.2C297.1,714.1,297.2,713,296.7,712.1z"/>
<path class="st8" d="M277.5,500.3c0.4,0.6,1.2,0.8,1.8,0.5c0.1,0,0.1-0.1,0.2-0.1s0.1-0.1,0.2-0.1c-0.1,0-0.1,0.1-0.2,0.1
	c-0.1,0-0.1,0.1-0.2,0.1c-0.5,0.5-0.6,1.3-0.2,1.9c-0.4-0.6-1.2-0.8-1.8-0.5c-0.1,0-0.1,0.1-0.2,0.1s-0.1,0.1-0.2,0.1
	c0.1,0,0.1-0.1,0.2-0.1c0.1,0,0.1-0.1,0.2-0.1C277.8,501.7,277.9,500.9,277.5,500.3z"/>
<path class="st13" d="M240,737.7c0.1,0.2,0.3,0.2,0.5,0.2c0,0,0,0,0.1,0s0,0,0,0c0,0,0,0-0.1,0s0,0,0,0c-0.1,0.1-0.2,0.3-0.1,0.5
	c-0.1-0.2-0.3-0.2-0.5-0.2c0,0,0,0-0.1,0s0,0,0,0c0,0,0,0,0.1,0s0,0,0,0C240.1,738.1,240.1,737.9,240,737.7z"/>
<path class="st13" d="M227.4,742.3c0.2,0.3,0.6,0.5,0.9,0.3c0,0,0.1,0,0.1,0c0,0,0.1,0,0.1-0.1c0,0-0.1,0-0.1,0c0,0-0.1,0-0.1,0.1
	c-0.3,0.3-0.4,0.7-0.1,1c-0.2-0.3-0.6-0.5-0.9-0.3c0,0-0.1,0-0.1,0c0,0-0.1,0-0.1,0.1c0,0,0.1,0,0.1,0c0,0,0.1,0,0.1-0.1
	C227.5,743.1,227.6,742.6,227.4,742.3z"/>
<path class="st13" d="M231.7,724.7c0.3,0.5,0.9,0.7,1.4,0.5c0.1,0,0.1,0,0.1-0.1c0.1,0,0.1-0.1,0.1-0.1c-0.1,0-0.1,0-0.1,0.1
	c-0.1,0-0.1,0.1-0.1,0.1c-0.4,0.4-0.5,1-0.2,1.5c-0.3-0.5-0.9-0.7-1.4-0.5c-0.1,0-0.1,0-0.1,0.1c-0.1,0-0.1,0.1-0.1,0.1
	c0.1,0,0.1,0,0.1-0.1c0.1,0,0.1-0.1,0.1-0.1C231.9,725.8,232,725.2,231.7,724.7z"/>
<path class="st13" d="M25.2,803.5c-0.1,0.1-0.1,0.4,0,0.5c0,0,0,0,0,0c0,0,0,0,0,0c0,0,0,0,0,0c0,0,0,0,0,0c-0.1-0.1-0.4-0.1-0.5,0
	c0.1-0.1,0.1-0.4,0-0.5c0,0,0,0,0,0s0,0,0,0c0,0,0,0,0,0s0,0,0,0C24.9,803.6,25.1,803.6,25.2,803.5z"/>
<path class="st13" d="M12,795.1c-0.3,0.3-0.3,0.7-0.1,1c0,0,0,0.1,0.1,0.1s0.1,0,0.1,0.1c0,0,0-0.1-0.1-0.1s-0.1,0-0.1-0.1
	c-0.3-0.2-0.7-0.2-1,0c0.3-0.3,0.3-0.7,0.1-1c0,0,0-0.1-0.1-0.1s-0.1,0-0.1-0.1c0,0,0,0.1,0.1,0.1s0.1,0,0.1,0.1
	C11.3,795.4,11.7,795.4,12,795.1z"/>
<path class="st13" d="M35.7,792.2c-0.4,0.4-0.5,1.1-0.1,1.5c0,0,0.1,0.1,0.1,0.1c0,0,0.1,0.1,0.1,0.1c0,0-0.1-0.1-0.1-0.1
	c0,0-0.1-0.1-0.1-0.1c-0.4-0.4-1.1-0.3-1.5,0.1c0.4-0.4,0.5-1.1,0.1-1.5c0,0-0.1-0.1-0.1-0.1c0,0-0.1-0.1-0.1-0.1
	c0,0,0.1,0.1,0.1,0.1c0,0,0.1,0.1,0.1,0.1C34.7,792.7,35.3,792.7,35.7,792.2z"/>
<path class="st8" d="M27,711.7c-0.5,0.5-0.5,1.4-0.1,2c0,0.1,0.1,0.1,0.1,0.2s0.1,0.1,0.1,0.1c0-0.1-0.1-0.1-0.1-0.2
	s-0.1-0.1-0.1-0.1c-0.6-0.4-1.4-0.4-1.9,0.2c0.5-0.5,0.5-1.4,0.1-2c0-0.1-0.1-0.1-0.1-0.2s-0.1-0.1-0.1-0.1c0,0.1,0.1,0.1,0.1,0.2
	s0.1,0.1,0.1,0.1C25.6,712.3,26.4,712.2,27,711.7z"/>
<path class="st9" d="M89.1,769.3c-0.8-0.1-1.5,0.4-1.7,1.1c0,0.1,0,0.2-0.1,0.2c0,0.1,0,0.2,0,0.2c0-0.1,0-0.2,0.1-0.2
	c0-0.1,0-0.2,0-0.2c0-0.8-0.5-1.5-1.3-1.6c0.8,0.1,1.5-0.4,1.7-1.1c0-0.1,0-0.2,0.1-0.2c0-0.1,0-0.2,0-0.2c0,0.1,0,0.2-0.1,0.2
	c0,0.1,0,0.2,0,0.2C87.8,768.5,88.3,769.2,89.1,769.3z"/>
<path class="st8" d="M100,768.6c0.1,0.8,0.7,1.3,1.3,1.3c0.1,0,0.1,0,0.2,0s0.1,0,0.2,0c-0.1,0-0.1,0-0.2,0s-0.1,0-0.2,0
	c-0.7,0.2-1.2,0.8-1.1,1.6c-0.1-0.8-0.7-1.3-1.3-1.3c-0.1,0-0.1,0-0.2,0s-0.1,0-0.2,0c0.1,0,0.1,0,0.2,0s0.1,0,0.2,0
	C99.6,770,100.1,769.4,100,768.6z"/>
<path class="st13" d="M114.4,769.3c-0.2,0.3-0.2,0.8,0.1,1c0,0,0.1,0,0.1,0.1s0.1,0,0.1,0.1c0,0-0.1,0-0.1-0.1s-0.1,0-0.1-0.1
	c-0.3-0.2-0.7-0.1-1,0.3c0.2-0.3,0.2-0.8-0.1-1c0,0-0.1,0-0.1-0.1s-0.1,0-0.1-0.1c0,0,0.1,0,0.1,0.1s0.1,0,0.1,0.1
	C113.8,769.7,114.2,769.6,114.4,769.3z"/>
<path class="st13" d="M104.8,762.8c-0.3,0.5-0.3,1.2,0.2,1.5c0,0,0.1,0.1,0.1,0.1c0,0,0.1,0.1,0.1,0.1c0,0-0.1-0.1-0.1-0.1
	c0,0-0.1-0.1-0.1-0.1c-0.5-0.3-1.1-0.1-1.4,0.4c0.3-0.5,0.3-1.2-0.2-1.5c0,0-0.1-0.1-0.1-0.1s-0.1-0.1-0.1-0.1c0,0,0.1,0.1,0.1,0.1
	c0,0,0.1,0.1,0.1,0.1C103.9,763.5,104.5,763.3,104.8,762.8z"/>
<path class="st8" d="M38.5,785c-0.7,1.1-0.5,2.6,0.4,3.4c0.1,0.1,0.2,0.2,0.3,0.2s0.2,0.1,0.3,0.2c-0.1-0.1-0.2-0.2-0.3-0.2
	s-0.2-0.1-0.3-0.2c-1.1-0.6-2.5-0.2-3.2,0.9c0.7-1.1,0.5-2.6-0.4-3.4c-0.1-0.1-0.2-0.2-0.3-0.2s-0.2-0.1-0.3-0.2
	c0.1,0.1,0.2,0.2,0.3,0.2s0.2,0.1,0.3,0.2C36.4,786.5,37.8,786.1,38.5,785z"/>
<path class="st8" d="M44.7,768.2c-0.5,0.8-0.4,1.9,0.3,2.6c0.1,0.1,0.1,0.1,0.2,0.2s0.2,0.1,0.2,0.1c-0.1-0.1-0.1-0.1-0.2-0.2
	c-0.1,0-0.2-0.1-0.2-0.1c-0.8-0.4-1.9-0.1-2.4,0.7c0.5-0.8,0.4-1.9-0.3-2.6c-0.1-0.1-0.1-0.1-0.2-0.2c-0.1,0-0.2-0.1-0.2-0.1
	c0.1,0.1,0.1,0.1,0.2,0.2s0.2,0.1,0.2,0.1C43.1,769.3,44.1,769,44.7,768.2z"/>
<path class="st13" d="M164.5,1020.8c-0.1,0.2-0.1,0.4,0.1,0.5c0,0,0,0,0,0c0,0,0,0,0.1,0c0,0,0,0,0,0c0,0,0,0-0.1,0
	c-0.2-0.1-0.4,0-0.5,0.2c0.1-0.2,0.1-0.4-0.1-0.5c0,0,0,0,0,0c0,0,0,0-0.1,0c0,0,0,0,0,0c0,0,0,0,0.1,0
	C164.2,1021,164.4,1021,164.5,1020.8z"/>
<path class="st13" d="M149.8,1016.1c-0.2,0.3-0.1,0.8,0.1,1c0,0,0.1,0,0.1,0.1s0.1,0,0.1,0c0,0-0.1,0-0.1-0.1s-0.1,0-0.1,0
	c-0.3-0.2-0.7,0-0.9,0.3c0.2-0.3,0.1-0.8-0.1-1c0,0-0.1,0-0.1-0.1s-0.1,0-0.1,0c0,0,0.1,0,0.1,0.1s0.1,0,0.1,0
	C149.1,1016.6,149.5,1016.5,149.8,1016.1z"/>
<path class="st13" d="M172.1,1007.3c-0.3,0.5-0.2,1.2,0.2,1.5c0,0,0.1,0.1,0.1,0.1c0.1,0,0.1,0.1,0.1,0.1c0,0-0.1-0.1-0.1-0.1
	c-0.1,0-0.1-0.1-0.1-0.1c-0.5-0.2-1.1,0-1.4,0.5c0.3-0.5,0.2-1.2-0.2-1.5c0,0-0.1-0.1-0.1-0.1c-0.1,0-0.1-0.1-0.1-0.1
	c0,0,0.1,0.1,0.1,0.1c0.1,0,0.1,0.1,0.1,0.1C171.1,1008,171.8,1007.8,172.1,1007.3z"/>
<path class="st8" d="M145,931.3c-0.4,0.7-0.2,1.5,0.3,1.9c0.1,0,0.1,0.1,0.2,0.1s0.1,0.1,0.2,0.1c-0.1,0-0.1-0.1-0.2-0.1
	s-0.1-0.1-0.2-0.1c-0.6-0.3-1.4,0-1.8,0.6c0.4-0.7,0.2-1.5-0.3-1.9c-0.1,0-0.1-0.1-0.2-0.1s-0.1-0.1-0.2-0.1c0.1,0,0.1,0.1,0.2,0.1
	s0.1,0.1,0.2,0.1C143.8,932.3,144.6,932,145,931.3z"/>
<path class="st9" d="M218.6,971.4c-0.8,0.1-1.4,0.7-1.4,1.5c0,0.1,0,0.2,0,0.2c0,0.1,0,0.2,0,0.2c0-0.1,0-0.2,0-0.2
	c0-0.1,0-0.2,0-0.2c-0.2-0.8-0.9-1.3-1.6-1.2c0.8-0.1,1.4-0.7,1.4-1.5c0-0.1,0-0.2,0-0.2c0-0.1,0-0.2,0-0.2c0,0.1,0,0.2,0,0.2
	c0,0.1,0,0.2,0,0.2C217.1,971,217.8,971.5,218.6,971.4z"/>
<path class="st8" d="M229,967.9c0.2,0.7,0.9,1.1,1.6,1c0.1,0,0.1,0,0.2-0.1c0.1,0,0.1,0,0.2-0.1c-0.1,0-0.1,0-0.2,0.1
	c-0.1,0-0.1,0-0.2,0.1c-0.6,0.3-0.9,1.1-0.7,1.8c-0.2-0.7-0.9-1.1-1.6-1c-0.1,0-0.1,0-0.2,0.1c-0.1,0-0.1,0-0.2,0.1
	c0.1,0,0.1,0,0.2-0.1c0.1,0,0.1,0,0.2-0.1C228.9,969.4,229.3,968.7,229,967.9z"/>
<path class="st13" d="M243.1,964.9c-0.1,0.4,0,0.8,0.3,1c0,0,0.1,0,0.1,0c0,0,0.1,0,0.1,0c0,0-0.1,0-0.1,0s-0.1,0-0.1,0
	c-0.4-0.1-0.7,0.1-0.9,0.5c0.1-0.4,0-0.8-0.3-1c0,0-0.1,0-0.1,0s-0.1,0-0.1,0c0,0,0.1,0,0.1,0c0,0,0.1,0,0.1,0
	C242.6,965.5,243,965.2,243.1,964.9z"/>
<path class="st13" d="M232.3,961.1c-0.2,0.6,0,1.2,0.5,1.5c0.1,0,0.1,0,0.1,0.1s0.1,0,0.1,0c-0.1,0-0.1,0-0.1-0.1s-0.1,0-0.1,0
	c-0.5-0.1-1.1,0.2-1.3,0.7c0.2-0.6,0-1.2-0.5-1.5c-0.1,0-0.1,0-0.1-0.1s-0.1,0-0.1,0c0.1,0,0.1,0,0.1,0.1s0.1,0,0.1,0
	C231.6,961.9,232.1,961.6,232.3,961.1z"/>
<path class="st8" d="M173.1,999.6c-0.4,1.3,0.1,2.6,1.2,3.2c0.1,0.1,0.2,0.1,0.3,0.2c0.1,0,0.2,0.1,0.3,0.1
	c-0.1-0.1-0.2-0.1-0.3-0.2s-0.2-0.1-0.3-0.1c-1.2-0.3-2.4,0.5-2.9,1.7c0.4-1.3-0.1-2.6-1.2-3.2c-0.1-0.1-0.2-0.1-0.3-0.2
	s-0.2-0.1-0.3-0.1c0.1,0.1,0.2,0.1,0.3,0.2c0.1,0,0.2,0.1,0.3,0.1C171.4,1001.5,172.7,1000.8,173.1,999.6z"/>
<path class="st8" d="M175.2,981.6c-0.3,0.9,0.1,2,0.9,2.4c0.1,0,0.2,0.1,0.2,0.1s0.2,0.1,0.3,0.1c-0.1,0-0.2-0.1-0.2-0.1
	c-0.1,0-0.2-0.1-0.3-0.1c-0.9-0.2-1.8,0.3-2.1,1.3c0.3-0.9-0.1-2-0.9-2.4c-0.1,0-0.2-0.1-0.2-0.1s-0.2-0.1-0.3-0.1
	c0.1,0,0.2,0.1,0.2,0.1s0.2,0.1,0.3,0.1C173.9,983.1,174.9,982.5,175.2,981.6z"/>
<path class="st13" d="M121.9,949c-0.1,0.2,0,0.4,0.2,0.5c0,0,0,0,0.1,0c0,0,0,0,0.1,0c0,0,0,0-0.1,0c0,0,0,0-0.1,0
	c-0.2,0-0.4,0.1-0.4,0.2c0.1-0.2,0-0.4-0.2-0.5c0,0,0,0-0.1,0c0,0,0,0-0.1,0c0,0,0,0,0.1,0s0,0,0.1,0
	C121.6,949.3,121.8,949.2,121.9,949z"/>
<path class="st13" d="M110.8,941.1c-0.1,0.4,0,0.8,0.3,1c0,0,0.1,0,0.1,0c0,0,0.1,0,0.1,0c0,0-0.1,0-0.1,0c0,0-0.1,0-0.1,0
	c-0.4-0.1-0.7,0.1-0.9,0.5c0.1-0.4,0-0.8-0.3-1c0,0-0.1,0-0.1,0c0,0-0.1,0-0.1,0c0,0,0.1,0,0.1,0s0.1,0,0.1,0
	C110.3,941.7,110.7,941.5,110.8,941.1z"/>
<path class="st13" d="M126.8,934.2c-0.2,0.6,0,1.2,0.5,1.5c0.1,0,0.1,0,0.1,0.1s0.1,0,0.2,0c-0.1,0-0.1,0-0.1-0.1s-0.1,0-0.2,0
	c-0.5-0.1-1.1,0.2-1.3,0.7c0.2-0.6,0-1.2-0.5-1.5c-0.1,0-0.1,0-0.1-0.1s-0.1,0-0.2,0c0.1,0,0.1,0,0.1,0.1s0.1,0,0.2,0
	C126.1,935.1,126.6,934.8,126.8,934.2z"/>
<path class="st13" d="M203.7,1203.4c-0.2,0-0.4,0.2-0.4,0.4c0,0,0,0,0,0.1c0,0,0,0,0,0.1c0,0,0,0,0-0.1s0,0,0-0.1
	c-0.1-0.2-0.3-0.3-0.5-0.3c0.2,0,0.4-0.2,0.4-0.4c0,0,0,0,0-0.1s0,0,0-0.1c0,0,0,0,0,0.1c0,0,0,0,0,0.1
	C203.3,1203.3,203.5,1203.4,203.7,1203.4z"/>
<path class="st13" d="M223.6,1131.3c-0.4,0.1-0.6,0.4-0.6,0.8c0,0,0,0.1,0,0.1c0,0,0,0.1,0,0.1c0,0,0-0.1,0-0.1c0,0,0-0.1,0-0.1
	c-0.1-0.4-0.5-0.6-0.9-0.5c0.4-0.1,0.6-0.4,0.6-0.8c0,0,0-0.1,0-0.1c0,0,0-0.1,0-0.1c0,0,0,0.1,0,0.1c0,0,0,0.1,0,0.1
	C222.9,1131.2,223.2,1131.4,223.6,1131.3z"/>
<path class="st8" d="M279.4,1069.9c-0.7,0.2-1.2,0.8-1.1,1.6c0,0.1,0,0.1,0,0.2c0,0.1,0,0.1,0.1,0.2c0-0.1,0-0.1,0-0.2
	c0-0.1,0-0.1-0.1-0.2c-0.2-0.7-0.9-1.1-1.6-0.9c0.7-0.2,1.2-0.8,1.1-1.6c0-0.1,0-0.1,0-0.2s0-0.1-0.1-0.2c0,0.1,0,0.1,0,0.2
	c0,0.1,0,0.1,0.1,0.2C278,1069.6,278.7,1070,279.4,1069.9z"/>
<path class="st13" d="M327.2,1162.4c-0.5,0.2-0.8,0.8-0.7,1.4c0,0.1,0,0.1,0,0.2s0,0.1,0.1,0.2c0-0.1,0-0.1,0-0.2s0-0.1-0.1-0.2
	c-0.3-0.5-0.9-0.7-1.4-0.5c0.5-0.2,0.8-0.8,0.7-1.4c0-0.1,0-0.1,0-0.2s0-0.1-0.1-0.2c0,0.1,0,0.1,0,0.2s0,0.1,0.1,0.2
	C326.1,1162.4,326.7,1162.6,327.2,1162.4z"/>
<path class="st8" d="M260,1143c-1.2,0.5-1.8,1.9-1.4,3.1c0,0.1,0.1,0.2,0.1,0.3c0,0.1,0.1,0.2,0.2,0.3c0-0.1-0.1-0.2-0.1-0.3
	c0-0.1-0.1-0.2-0.2-0.3c-0.6-1.1-2-1.6-3.1-1c1.2-0.5,1.8-1.9,1.4-3.1c0-0.1-0.1-0.2-0.1-0.3c0-0.1-0.1-0.2-0.2-0.3
	c0,0.1,0.1,0.2,0.1,0.3c0,0.1,0.1,0.2,0.2,0.3C257.5,1143.1,258.9,1143.5,260,1143z"/>
<path class="st8" d="M265,1127.4c-0.9,0.4-1.3,1.4-1.1,2.3c0,0.1,0,0.2,0.1,0.3c0,0.1,0.1,0.2,0.1,0.3c0-0.1,0-0.2-0.1-0.3
	c0-0.1-0.1-0.2-0.1-0.3c-0.5-0.8-1.5-1.2-2.4-0.8c0.9-0.4,1.3-1.4,1.1-2.3c0-0.1,0-0.2-0.1-0.3c0-0.1-0.1-0.2-0.1-0.3
	c0,0.1,0,0.2,0.1,0.3c0,0.1,0.1,0.2,0.1,0.3C263.1,1127.4,264.1,1127.8,265,1127.4z"/>
<path class="st8" d="M330.1,1119.5c-0.7,0.3-1,1.1-0.8,1.8c0,0.1,0,0.1,0.1,0.2s0.1,0.1,0.1,0.2c0-0.1,0-0.1-0.1-0.2
	s-0.1-0.1-0.1-0.2c-0.4-0.6-1.1-0.9-1.8-0.6c0.7-0.3,1-1.1,0.8-1.8c0-0.1,0-0.1-0.1-0.2s-0.1-0.1-0.1-0.2c0,0.1,0,0.1,0.1,0.2
	s0.1,0.1,0.1,0.2C328.7,1119.5,329.4,1119.8,330.1,1119.5z"/>
<path class="st13" d="M251.3,1064.1c-0.2,0.1-0.3,0.3-0.2,0.5c0,0,0,0,0,0.1c0,0,0,0,0,0.1c0,0,0,0,0-0.1c0,0,0,0,0-0.1
	c-0.1-0.2-0.3-0.2-0.5-0.2c0.2-0.1,0.3-0.3,0.2-0.5c0,0,0,0,0-0.1c0,0,0,0,0-0.1c0,0,0,0,0,0.1c0,0,0,0,0,0.1
	C251,1064.1,251.2,1064.2,251.3,1064.1z"/>
<path class="st13" d="M249.4,1050.3c-0.4,0.2-0.5,0.6-0.4,0.9c0,0,0,0.1,0,0.1s0,0.1,0.1,0.1c0,0,0-0.1,0-0.1s0-0.1-0.1-0.1
	c-0.2-0.3-0.6-0.5-0.9-0.3c0.4-0.2,0.5-0.6,0.4-0.9c0,0,0-0.1,0-0.1s0-0.1-0.1-0.1c0,0,0,0.1,0,0.1s0,0.1,0.1,0.1
	C248.6,1050.3,249,1050.4,249.4,1050.3z"/>
<path class="st13" d="M265,1057.9c-0.5,0.2-0.8,0.8-0.7,1.4c0,0.1,0,0.1,0,0.2s0,0.1,0.1,0.2c0-0.1,0-0.1,0-0.2s0-0.1-0.1-0.2
	c-0.3-0.5-0.9-0.7-1.4-0.5c0.5-0.2,0.8-0.8,0.7-1.4c0-0.1,0-0.1,0-0.2s0-0.1-0.1-0.2c0,0.1,0,0.1,0,0.2s0,0.1,0.1,0.2
	C263.9,1057.9,264.5,1058.1,265,1057.9z"/>
<path class="st13" d="M369.7,1096.4c-0.2,0.3-0.1,0.8,0.1,1c0,0,0.1,0.1,0.1,0.1s0.1,0,0.1,0.1c0,0-0.1-0.1-0.1-0.1
	c0,0-0.1,0-0.1-0.1c-0.3-0.2-0.7,0-1,0.3c0.2-0.3,0.1-0.8-0.1-1c0,0-0.1-0.1-0.1-0.1s-0.1,0-0.1-0.1c0,0,0.1,0.1,0.1,0.1
	s0.1,0,0.1,0.1C369.1,1096.9,369.5,1096.8,369.7,1096.4z"/>
<path class="st13" d="M163.5,887.3c-0.2,0-0.4,0.1-0.4,0.3c0,0,0,0,0,0c0,0,0,0,0,0.1c0,0,0,0,0,0c0,0,0,0,0-0.1
	c0-0.2-0.1-0.4-0.3-0.4c0.2,0,0.4-0.1,0.4-0.3c0,0,0,0,0,0c0,0,0,0,0-0.1c0,0,0,0,0,0s0,0,0,0.1C163.2,887,163.4,887.2,163.5,887.3z
	"/>
<path class="st13" d="M162,871.1c-0.4-0.1-0.7,0.2-0.8,0.5c0,0,0,0.1,0,0.1s0,0.1,0,0.1c0,0,0-0.1,0-0.1s0-0.1,0-0.1
	c0-0.4-0.3-0.7-0.6-0.8c0.4,0.1,0.7-0.2,0.8-0.5c0,0,0-0.1,0-0.1s0-0.1,0-0.1c0,0,0,0.1,0,0.1s0,0.1,0,0.1
	C161.4,870.7,161.6,871.1,162,871.1z"/>
<path class="st13" d="M178.3,889.4c-0.6-0.1-1.1,0.3-1.3,0.8c0,0,0,0.1,0,0.2s0,0.1,0,0.2c0,0,0-0.1,0-0.2c0-0.1,0-0.1,0-0.2
	c0-0.6-0.4-1.1-0.9-1.2c0.6,0.1,1.1-0.3,1.3-0.8c0,0,0-0.1,0-0.2c0-0.1,0-0.1,0-0.2c0,0,0,0.1,0,0.2c0,0.1,0,0.1,0,0.2
	C177.4,888.8,177.8,889.3,178.3,889.4z"/>
<path class="st13" d="M242.8,942.1c-0.4,0-0.7,0.3-0.7,0.7c0,0,0,0.1,0,0.1c0,0,0,0.1,0,0.1c0,0,0-0.1,0-0.1c0,0,0-0.1,0-0.1
	c-0.1-0.4-0.4-0.7-0.8-0.7c0.4,0,0.7-0.3,0.7-0.7c0,0,0-0.1,0-0.1c0,0,0-0.1,0-0.1c0,0,0,0.1,0,0.1c0,0,0,0.1,0,0.1
	C242.1,941.8,242.4,942.1,242.8,942.1z"/>
<path class="st13" d="M242,930.2c-0.6,0-1,0.5-1.1,1c0,0.1,0,0.1,0,0.2s0,0.1,0,0.2c0-0.1,0-0.1,0-0.2s0-0.1,0-0.2
	c-0.1-0.6-0.6-1-1.1-1c0.6,0,1-0.5,1.1-1c0-0.1,0-0.1,0-0.2s0-0.1,0-0.2c0,0.1,0,0.1,0,0.2s0,0.1,0,0.2
	C241,929.8,241.4,930.2,242,930.2z"/>
<path class="st8" d="M185.5,887.4c-1.3,0.1-2.3,1.1-2.4,2.4c0,0.1,0,0.3,0,0.4s0,0.3,0,0.4c0-0.1,0-0.3,0-0.4c0-0.1,0-0.3,0-0.4
	c-0.2-1.3-1.3-2.2-2.6-2.1c1.3-0.1,2.3-1.1,2.4-2.4c0-0.1,0-0.3,0-0.4c0-0.1,0-0.3,0-0.4c0,0.1,0,0.3,0,0.4c0,0.1,0,0.3,0,0.4
	C183.1,886.6,184.2,887.5,185.5,887.4z"/>
<path class="st13" d="M-17,1060.6c-0.6,0-1,0.5-1.1,1.1c0,0.1,0,0.1,0,0.2c0,0.1,0,0.1,0,0.2c0-0.1,0-0.1,0-0.2c0-0.1,0-0.1,0-0.2
	c-0.1-0.6-0.6-1-1.2-1c0.6,0,1-0.5,1.1-1.1c0-0.1,0-0.1,0-0.2c0-0.1,0-0.1,0-0.2c0,0.1,0,0.1,0,0.2s0,0.1,0,0.2
	C-18.1,1060.2-17.6,1060.6-17,1060.6z"/>
<path class="st8" d="M27.2,994.1c-0.7,0-1.3,0.7-1.3,1.4c0,0.1,0,0.1,0,0.2c0,0.1,0,0.1,0,0.2c0-0.1,0-0.1,0-0.2c0-0.1,0-0.1,0-0.2
	c-0.1-0.7-0.8-1.2-1.5-1.2c0.7,0,1.3-0.7,1.3-1.4c0-0.1,0-0.1,0-0.2c0-0.1,0-0.1,0-0.2c0,0.1,0,0.1,0,0.2c0,0.1,0,0.1,0,0.2
	C25.9,993.7,26.5,994.2,27.2,994.1z"/>
<path class="st9" d="M37.4,1080.6c-0.5-0.6-1.3-0.8-2-0.3c-0.1,0-0.1,0.1-0.2,0.1s-0.1,0.1-0.2,0.2c0.1,0,0.1-0.1,0.2-0.1
	s0.1-0.1,0.2-0.2c0.5-0.6,0.5-1.5,0-2.1c0.5,0.6,1.3,0.8,2,0.3c0.1,0,0.1-0.1,0.2-0.1s0.1-0.1,0.2-0.2c-0.1,0-0.1,0.1-0.2,0.1
	s-0.1,0.1-0.2,0.2C36.9,1079.1,36.9,1080,37.4,1080.6z"/>
<path class="st8" d="M46,1087.7c-0.4,0.6-0.3,1.4,0.2,1.9c0,0.1,0.1,0.1,0.2,0.1c0.1,0,0.1,0.1,0.2,0.1c0-0.1-0.1-0.1-0.2-0.1
	c-0.1,0-0.1-0.1-0.2-0.1c-0.6-0.3-1.4-0.2-1.8,0.4c0.4-0.6,0.3-1.4-0.2-1.9c0-0.1-0.1-0.1-0.2-0.1c-0.1,0-0.1-0.1-0.2-0.1
	c0,0.1,0.1,0.1,0.2,0.1s0.1,0.1,0.2,0.1C44.8,1088.4,45.6,1088.3,46,1087.7z"/>
<path class="st13" d="M25.7,1141c-0.2,0-0.3,0.2-0.3,0.4c0,0,0,0,0,0.1s0,0,0,0.1c0,0,0,0,0-0.1s0,0,0-0.1c-0.1-0.2-0.2-0.3-0.4-0.2
	c0.2,0,0.3-0.2,0.3-0.4c0,0,0,0,0-0.1c0,0,0,0,0-0.1c0,0,0,0,0,0.1s0,0,0,0.1C25.4,1141,25.6,1141.1,25.7,1141z"/>
<path class="st13" d="M19.8,1120.2c-1.6,0.4-2.6,2-2.5,3.6c0,0.2,0,0.3,0.1,0.5c0,0.2,0.1,0.3,0.1,0.5c0-0.2,0-0.3-0.1-0.5
	s-0.1-0.3-0.1-0.5c-0.6-1.6-2.2-2.5-3.8-2.1c1.6-0.4,2.6-2,2.5-3.6c0-0.2,0-0.3-0.1-0.5s-0.1-0.3-0.1-0.5c0,0.2,0,0.3,0.1,0.5
	c0,0.2,0.1,0.3,0.1,0.5C16.6,1119.7,18.2,1120.6,19.8,1120.2z"/>
<path class="st8" d="M-10.4,1057.1c-1.2,0.3-2,1.6-1.9,2.9c0,0.1,0,0.2,0.1,0.4c0,0.1,0.1,0.2,0.1,0.3c0-0.1,0-0.2-0.1-0.4
	c0-0.1-0.1-0.2-0.1-0.3c-0.5-1.2-1.7-1.9-3-1.5c1.2-0.3,2-1.6,1.9-2.9c0-0.1,0-0.2-0.1-0.4c0-0.1-0.1-0.2-0.1-0.3
	c0,0.1,0,0.2,0.1,0.4c0,0.1,0.1,0.2,0.1,0.3C-12.9,1056.8-11.6,1057.4-10.4,1057.1z"/>
<path class="st8" d="M4.9,1048.8c-0.9,0.3-1.5,1.2-1.4,2.2c0,0.1,0,0.2,0,0.3c0,0.1,0,0.2,0.1,0.3c0-0.1,0-0.2,0-0.3
	c0-0.1,0-0.2-0.1-0.3c-0.4-0.9-1.3-1.4-2.2-1.1c0.9-0.3,1.5-1.2,1.4-2.2c0-0.1,0-0.2,0-0.3c0-0.1,0-0.2-0.1-0.3c0,0.1,0,0.2,0,0.3
	c0,0.1,0,0.2,0.1,0.3C3,1048.5,4,1049,4.9,1048.8z"/>
<path class="st8" d="M68.7,1018.3c-2,0.5-3.2,2.6-3,4.6c0,0.2,0.1,0.4,0.1,0.6c0.1,0.2,0.1,0.4,0.2,0.6c0-0.2-0.1-0.4-0.1-0.6
	c-0.1-0.2-0.1-0.4-0.2-0.6c-0.8-1.9-2.8-3-4.8-2.5c2-0.5,3.2-2.6,3-4.6c0-0.2-0.1-0.4-0.1-0.6c0-0.2-0.1-0.4-0.2-0.6
	c0,0.2,0.1,0.4,0.1,0.6c0,0.2,0.1,0.4,0.2,0.6C64.6,1017.8,66.7,1018.9,68.7,1018.3z"/>
<path class="st13" d="M0.3,984.1c-0.2,0-0.3,0.2-0.3,0.4c0,0,0,0,0,0.1s0,0,0,0c0,0,0,0,0-0.1s0,0,0,0c-0.1-0.2-0.3-0.3-0.4-0.2
	c0.2,0,0.3-0.2,0.3-0.4c0,0,0,0,0-0.1c0,0,0,0,0,0c0,0,0,0,0,0.1c0,0,0,0,0,0C-0.1,984,0.1,984.2,0.3,984.1z"/>
<path class="st13" d="M0.3,970.1c-0.4,0.1-0.6,0.5-0.6,0.8c0,0,0,0.1,0,0.1c0,0,0,0.1,0,0.1c0,0,0-0.1,0-0.1c0,0,0-0.1,0-0.1
	c-0.1-0.4-0.5-0.6-0.9-0.5c0.4-0.1,0.6-0.5,0.6-0.8c0,0,0-0.1,0-0.1s0-0.1,0-0.1c0,0,0,0.1,0,0.1s0,0.1,0,0.1
	C-0.5,970-0.1,970.2,0.3,970.1z"/>
<path class="st13" d="M14.7,980c-0.6,0.1-0.9,0.7-0.9,1.3c0,0.1,0,0.1,0,0.2s0,0.1,0.1,0.2c0-0.1,0-0.1,0-0.2s0-0.1-0.1-0.2
	c-0.2-0.5-0.8-0.9-1.3-0.7c0.6-0.1,0.9-0.7,0.9-1.3c0-0.1,0-0.1,0-0.2s0-0.1-0.1-0.2c0,0.1,0,0.1,0,0.2s0,0.1,0.1,0.2
	C13.6,979.8,14.1,980.2,14.7,980z"/>
<path class="st13" d="M34,1216.7c-0.2-0.1-0.4,0-0.5,0.2c0,0,0,0,0,0.1s0,0,0,0.1c0,0,0,0,0-0.1c0,0,0,0,0-0.1
	c0-0.2-0.1-0.4-0.3-0.4c0.2,0.1,0.4,0,0.5-0.2c0,0,0,0,0-0.1s0,0,0-0.1c0,0,0,0,0,0.1c0,0,0,0,0,0.1
	C33.7,1216.4,33.8,1216.6,34,1216.7z"/>
<path class="st13" d="M-18.6,857.1C-18.6,857.1-18.5,857.1-18.6,857.1C-18.5,857.1-18.5,857.1-18.6,857.1
	C-18.6,857.2-18.6,857.2-18.6,857.1C-18.6,857.2-18.6,857.2-18.6,857.1z"/>
<path class="st13" d="M-17.7,855.8C-17.8,855.9-17.8,855.9-17.7,855.8C-17.8,855.9-17.8,855.9-17.7,855.8
	C-17.7,855.8-17.7,855.8-17.7,855.8C-17.7,855.8-17.7,855.8-17.7,855.8z"/>
<path class="st13" d="M72.3,985.3c-0.1-0.2-0.3-0.3-0.4-0.2c0,0,0,0-0.1,0c0,0,0,0-0.1,0c0,0,0,0,0.1,0c0,0,0,0,0.1,0
	c0.2-0.1,0.2-0.3,0.1-0.5c0.1,0.2,0.3,0.3,0.4,0.2c0,0,0,0,0.1,0c0,0,0,0,0.1,0c0,0,0,0-0.1,0c0,0,0,0-0.1,0
	C72.3,984.9,72.2,985.1,72.3,985.3z"/>
<path class="st13" d="M84.1,974.8c-0.2-0.4-0.6-0.5-0.9-0.4c0,0-0.1,0-0.1,0c0,0-0.1,0-0.1,0c0,0,0.1,0,0.1,0c0,0,0.1,0,0.1,0
	c0.3-0.2,0.4-0.6,0.3-1c0.2,0.4,0.6,0.5,0.9,0.4c0,0,0.1,0,0.1,0c0,0,0.1,0,0.1,0c0,0-0.1,0-0.1,0c0,0-0.1,0-0.1,0
	C84,974,83.9,974.5,84.1,974.8z"/>
<path class="st13" d="M79,999.3c-0.2-0.5-0.8-0.8-1.3-0.6c-0.1,0-0.1,0-0.2,0.1s-0.1,0-0.1,0.1c0.1,0,0.1,0,0.2-0.1s0.1,0,0.1-0.1
	c0.5-0.3,0.7-1,0.4-1.5c0.2,0.5,0.8,0.8,1.3,0.6c0.1,0,0.1,0,0.2-0.1s0.1,0,0.1-0.1c-0.1,0-0.1,0-0.2,0.1s-0.1,0-0.1,0.1
	C78.9,998.1,78.8,998.8,79,999.3z"/>
<path class="st9" d="M102.6,1043.4c1-2.1,0.4-4.5-1.3-5.9c-0.2-0.1-0.3-0.2-0.5-0.3s-0.4-0.2-0.6-0.3c0.2,0.1,0.3,0.2,0.5,0.3
	s0.4,0.2,0.6,0.3c2,0.8,4.3-0.2,5.3-2.2c-1,2.1-0.4,4.5,1.3,5.9c0.2,0.1,0.3,0.2,0.5,0.3s0.4,0.2,0.6,0.3c-0.2-0.1-0.3-0.2-0.5-0.3
	s-0.4-0.2-0.6-0.3C105.9,1040.4,103.6,1041.3,102.6,1043.4z"/>
<path class="st8" d="M94.3,1075.1c-2-0.5-4,0.6-4.7,2.6c-0.1,0.2-0.1,0.4-0.2,0.6c-0.1,0.2-0.1,0.4-0.1,0.6c0.1-0.2,0.1-0.4,0.2-0.6
	c0.1-0.2,0.1-0.4,0.1-0.6c0.2-2.1-1.1-4.1-3.1-4.6c2,0.5,4-0.6,4.7-2.6c0.1-0.2,0.1-0.4,0.2-0.6s0.1-0.4,0.1-0.6
	c-0.1,0.2-0.1,0.4-0.2,0.6c-0.1,0.2-0.1,0.4-0.1,0.6C91,1072.7,92.3,1074.6,94.3,1075.1z"/>
<path class="st13" d="M79.3,1115.5c-0.6-0.9-1.8-1.2-2.8-0.7c-0.1,0.1-0.2,0.1-0.3,0.2s-0.2,0.1-0.2,0.2c0.1-0.1,0.2-0.1,0.3-0.2
	s0.2-0.1,0.2-0.2c0.8-0.8,0.9-2,0.3-3c0.6,0.9,1.8,1.2,2.8,0.7c0.1-0.1,0.2-0.1,0.3-0.2s0.2-0.1,0.2-0.2c-0.1,0.1-0.2,0.1-0.3,0.2
	s-0.2,0.1-0.2,0.2C78.8,1113.3,78.7,1114.6,79.3,1115.5z"/>
<path class="st13" d="M104.7,1094.2c-1-1.4-2.7-1.8-4.1-1c-0.1,0.1-0.3,0.2-0.4,0.3c-0.1,0.1-0.2,0.2-0.3,0.3
	c0.1-0.1,0.3-0.2,0.4-0.3c0.1-0.1,0.2-0.2,0.3-0.3c1.1-1.2,1.3-3.1,0.4-4.4c1,1.4,2.7,1.8,4.1,1c0.1-0.1,0.3-0.2,0.4-0.3
	c0.1-0.1,0.2-0.2,0.3-0.3c-0.1,0.1-0.3,0.2-0.4,0.3c-0.1,0.1-0.2,0.2-0.3,0.3C104,1090.9,103.8,1092.8,104.7,1094.2z"/>
<path class="st9" d="M43.2,847.9c-0.5-0.6-1.3-0.8-2-0.3c-0.1,0-0.1,0.1-0.2,0.1s-0.1,0.1-0.2,0.2c0.1,0,0.1-0.1,0.2-0.1
	s0.1-0.1,0.2-0.2c0.5-0.6,0.5-1.5,0-2.1c0.5,0.6,1.3,0.8,2,0.3c0.1,0,0.1-0.1,0.2-0.1s0.1-0.1,0.2-0.2c-0.1,0-0.1,0.1-0.2,0.1
	s-0.1,0.1-0.2,0.2C42.8,846.4,42.7,847.3,43.2,847.9z"/>
<path class="st8" d="M51.9,855c-0.4,0.6-0.3,1.4,0.2,2c0,0,0.1,0.1,0.2,0.1c0.1,0,0.1,0.1,0.2,0.1c0,0-0.1-0.1-0.2-0.1
	c-0.1,0-0.1-0.1-0.2-0.1c-0.6-0.3-1.4-0.2-1.8,0.4c0.4-0.6,0.3-1.4-0.2-2c0,0-0.1-0.1-0.2-0.1c-0.1,0-0.1-0.1-0.2-0.1
	c0,0,0.1,0.1,0.2,0.1s0.1,0.1,0.2,0.1C50.7,855.8,51.5,855.6,51.9,855z"/>
<path class="st13" d="M62.3,865.5c-0.4,0.1-0.6,0.5-0.6,0.8c0,0,0,0.1,0,0.1s0,0.1,0,0.1c0,0,0-0.1,0-0.1c0,0,0-0.1,0-0.1
	c-0.1-0.4-0.5-0.6-0.9-0.5c0.4-0.1,0.6-0.5,0.6-0.8c0,0,0-0.1,0-0.1c0,0,0-0.1,0-0.1c0,0,0,0.1,0,0.1c0,0,0,0.1,0,0.1
	C61.5,865.3,61.9,865.6,62.3,865.5z"/>
<path class="st13" d="M59.1,854c-0.6,0.1-0.9,0.7-0.9,1.3c0,0.1,0,0.1,0,0.2c0,0.1,0,0.1,0,0.2c0-0.1,0-0.1,0-0.2c0-0.1,0-0.1,0-0.2
	c-0.2-0.5-0.8-0.9-1.3-0.7c0.6-0.1,0.9-0.7,0.9-1.3c0-0.1,0-0.1,0-0.2c0-0.1,0-0.1,0-0.2c0,0.1,0,0.1,0,0.2s0,0.1,0,0.2
	C58,853.8,58.6,854.1,59.1,854z"/>
<path class="st8" d="M85.2,838.2c-0.7-0.2-1.4,0.2-1.7,0.9c0,0.1,0,0.1-0.1,0.2s0,0.1,0,0.2c0-0.1,0-0.1,0.1-0.2s0-0.1,0-0.2
	c0.1-0.7-0.4-1.4-1.1-1.6c0.7,0.2,1.4-0.2,1.7-0.9c0-0.1,0-0.1,0.1-0.2s0-0.1,0-0.2c0,0.1,0,0.1-0.1,0.2s0,0.1,0,0.2
	C84,837.4,84.5,838.1,85.2,838.2z"/>
<path class="st13" d="M79.9,852.3c-0.2-0.3-0.6-0.4-1-0.2c0,0-0.1,0-0.1,0.1s-0.1,0-0.1,0.1c0,0,0.1,0,0.1-0.1s0.1,0,0.1-0.1
	c0.3-0.3,0.3-0.7,0.1-1c0.2,0.3,0.6,0.4,1,0.2c0,0,0.1,0,0.1-0.1s0.1,0,0.1-0.1c0,0-0.1,0-0.1,0.1s-0.1,0-0.1,0.1
	C79.8,851.6,79.7,852,79.9,852.3z"/>
<path class="st13" d="M88.8,844.9c-0.3-0.5-0.9-0.6-1.4-0.4c-0.1,0-0.1,0.1-0.1,0.1s-0.1,0.1-0.1,0.1c0.1,0,0.1-0.1,0.1-0.1
	c0,0,0.1-0.1,0.1-0.1c0.4-0.4,0.5-1.1,0.1-1.5c0.3,0.5,0.9,0.6,1.4,0.4c0.1,0,0.1-0.1,0.1-0.1c0,0,0.1-0.1,0.1-0.1
	c-0.1,0-0.1,0.1-0.1,0.1c0,0-0.1,0.1-0.1,0.1C88.6,843.8,88.5,844.4,88.8,844.9z"/>
<path class="st9" d="M99.7,778.1c-0.5-0.5-1.3-0.7-2-0.3c-0.1,0-0.1,0.1-0.2,0.1c-0.1,0-0.1,0.1-0.2,0.1c0.1,0,0.1-0.1,0.2-0.1
	c0.1,0,0.1-0.1,0.2-0.1c0.5-0.5,0.5-1.3,0-1.8c0.5,0.5,1.3,0.7,2,0.3c0.1,0,0.1-0.1,0.2-0.1c0.1,0,0.1-0.1,0.2-0.1
	c-0.1,0-0.1,0.1-0.2,0.1c-0.1,0-0.1,0.1-0.2,0.1C99.2,776.7,99.2,777.5,99.7,778.1z"/>
<path class="st13" d="M118.7,793.4c-0.4,0.1-0.6,0.4-0.6,0.7c0,0,0,0.1,0,0.1c0,0,0,0.1,0,0.1c0,0,0-0.1,0-0.1c0,0,0-0.1,0-0.1
	c-0.1-0.3-0.5-0.5-0.9-0.4c0.4-0.1,0.6-0.4,0.6-0.7c0,0,0-0.1,0-0.1c0,0,0-0.1,0-0.1c0,0,0,0.1,0,0.1c0,0,0,0.1,0,0.1
	C118,793.3,118.4,793.5,118.7,793.4z"/>
<path class="st13" d="M115.6,783.4c-0.6,0.1-0.9,0.6-0.9,1.1c0,0,0,0.1,0,0.2c0,0,0,0.1,0.1,0.1c0,0,0-0.1,0-0.1c0,0,0-0.1-0.1-0.1
	c-0.2-0.5-0.8-0.8-1.3-0.6c0.6-0.1,0.9-0.6,0.9-1.1c0,0,0-0.1,0-0.2c0,0,0-0.1-0.1-0.1c0,0,0,0.1,0,0.2c0,0,0,0.1,0.1,0.1
	C114.5,783.2,115.1,783.5,115.6,783.4z"/>
<path class="st8" d="M64.6,777c-0.6,0.3-0.8,1-0.6,1.6c0,0.1,0.1,0.1,0.1,0.2c0,0,0.1,0.1,0.1,0.2c0-0.1-0.1-0.1-0.1-0.2
	c0,0-0.1-0.1-0.1-0.2c-0.4-0.5-1.2-0.6-1.8-0.3c0.6-0.3,0.8-1,0.6-1.6c0-0.1-0.1-0.1-0.1-0.2c0,0-0.1-0.1-0.1-0.2
	c0,0.1,0.1,0.1,0.1,0.2c0,0,0.1,0.1,0.1,0.2C63.2,777.2,64,777.4,64.6,777z"/>
<path class="st9" d="M77.4,779.7c-0.1,0-0.1,0-0.2,0s-0.1,0-0.2,0c0.1,0,0.1,0,0.2,0C77.2,779.7,77.3,779.7,77.4,779.7
	c0.8,0,1.4-0.4,1.6-1.1c-0.2,0.7,0.3,1.4,1,1.6c0.1,0,0.1,0,0.2,0s0.1,0,0.2,0c-0.1,0-0.1,0-0.2,0s-0.1,0-0.2,0"/>
<path class="st9" d="M272.5,853.7c-0.5-0.6-1.3-0.8-2-0.3c-0.1,0-0.1,0.1-0.2,0.1s-0.1,0.1-0.2,0.2c0.1,0,0.1-0.1,0.2-0.1
	s0.1-0.1,0.2-0.2c0.5-0.6,0.5-1.5,0-2.1c0.5,0.6,1.3,0.8,2,0.3c0.1,0,0.1-0.1,0.2-0.1s0.1-0.1,0.2-0.2c-0.1,0-0.1,0.1-0.2,0.1
	s-0.1,0.1-0.2,0.2C272.1,852.2,272,853.1,272.5,853.7z"/>
<path class="st8" d="M281.2,860.8c-0.4,0.6-0.3,1.4,0.2,2c0,0,0.1,0.1,0.1,0.1c0.1,0,0.1,0.1,0.2,0.1c0,0-0.1-0.1-0.1-0.1
	c-0.1,0-0.1-0.1-0.2-0.1c-0.6-0.3-1.4-0.2-1.8,0.4c0.4-0.6,0.3-1.4-0.2-2c0,0-0.1-0.1-0.1-0.1c-0.1,0-0.1-0.1-0.2-0.1
	c0,0,0.1,0.1,0.1,0.1c0.1,0,0.1,0.1,0.2,0.1C280,861.6,280.8,861.4,281.2,860.8z"/>
<path class="st13" d="M291.6,871.3c-0.4,0.1-0.6,0.5-0.6,0.8c0,0,0,0.1,0,0.1c0,0,0,0.1,0,0.1c0,0,0-0.1,0-0.1c0,0,0-0.1,0-0.1
	c-0.1-0.4-0.5-0.6-0.9-0.5c0.4-0.1,0.6-0.5,0.6-0.8c0,0,0-0.1,0-0.1s0-0.1,0-0.1c0,0,0,0.1,0,0.1s0,0.1,0,0.1
	C290.8,871.2,291.2,871.4,291.6,871.3z"/>
<path class="st13" d="M288.4,859.8c-0.6,0.1-0.9,0.7-0.9,1.3c0,0.1,0,0.1,0,0.2s0,0.1,0,0.2c0-0.1,0-0.1,0-0.2s0-0.1,0-0.2
	c-0.2-0.5-0.8-0.9-1.3-0.7c0.6-0.1,0.9-0.7,0.9-1.3c0-0.1,0-0.1,0-0.2s0-0.1,0-0.2c0,0.1,0,0.1,0,0.2c0,0.1,0,0.1,0,0.2
	C287.3,859.6,287.9,859.9,288.4,859.8z"/>
<path class="st8" d="M305.5,829.4c-0.7,0.2-1.1,0.8-1,1.4c0,0.1,0,0.1,0,0.2s0,0.1,0.1,0.2c0-0.1,0-0.1,0-0.2c0-0.1,0-0.1-0.1-0.2
	c-0.3-0.6-1-0.9-1.7-0.8c0.7-0.2,1.1-0.8,1-1.4c0-0.1,0-0.1,0-0.2c0-0.1,0-0.1-0.1-0.2c0,0.1,0,0.1,0,0.2c0,0.1,0,0.1,0.1,0.2
	C304.1,829.3,304.8,829.6,305.5,829.4z"/>
<path class="st9" d="M317.4,832.9c0.4-0.7,0.1-1.6-0.5-2c-0.1,0-0.1-0.1-0.2-0.1s-0.1-0.1-0.2-0.1c0.1,0,0.1,0.1,0.2,0.1
	c0.1,0,0.1,0.1,0.2,0.1c0.7,0.3,1.5,0,1.9-0.8c-0.4,0.7-0.1,1.6,0.5,2c0.1,0,0.1,0.1,0.2,0.1s0.1,0.1,0.2,0.1
	c-0.1,0-0.1-0.1-0.2-0.1s-0.1-0.1-0.2-0.1C318.5,831.9,317.7,832.2,317.4,832.9z"/>
<path class="st8" d="M314.5,844c-0.7-0.2-1.4,0.2-1.6,0.9c0,0.1,0,0.1-0.1,0.2s0,0.1,0,0.2c0-0.1,0-0.1,0.1-0.2s0-0.1,0-0.2
	c0.1-0.7-0.4-1.4-1.1-1.6c0.7,0.2,1.4-0.2,1.6-0.9c0-0.1,0-0.1,0.1-0.2s0-0.1,0-0.2c0,0.1,0,0.1-0.1,0.2s0,0.1,0,0.2
	C313.3,843.2,313.8,843.9,314.5,844z"/>
<path class="st13" d="M309.2,858.1c-0.2-0.3-0.6-0.4-1-0.2c0,0-0.1,0-0.1,0.1s-0.1,0-0.1,0.1c0,0,0.1,0,0.1-0.1s0.1,0,0.1-0.1
	c0.3-0.3,0.3-0.7,0.1-1c0.2,0.3,0.6,0.4,1,0.2c0,0,0.1,0,0.1-0.1s0.1,0,0.1-0.1c0,0-0.1,0-0.1,0.1s-0.1,0-0.1,0.1
	C309.1,857.4,309,857.8,309.2,858.1z"/>
<path class="st13" d="M318.1,850.7c-0.3-0.5-1-0.6-1.4-0.4c0,0-0.1,0.1-0.1,0.1c0,0-0.1,0.1-0.1,0.1c0,0,0.1-0.1,0.1-0.1
	c0,0,0.1-0.1,0.1-0.1c0.4-0.4,0.5-1.1,0.1-1.5c0.3,0.5,1,0.6,1.4,0.4c0,0,0.1-0.1,0.1-0.1c0,0,0.1-0.1,0.1-0.1c0,0-0.1,0.1-0.1,0.1
	c0,0-0.1,0.1-0.1,0.1C317.9,849.6,317.8,850.2,318.1,850.7z"/>
<path class="st8" d="M84.6,1004.4c-0.8-1.1-2.2-1.3-3.2-0.7c-0.1,0.1-0.2,0.1-0.3,0.2c-0.1,0.1-0.2,0.2-0.3,0.3
	c0.1-0.1,0.2-0.1,0.3-0.2s0.2-0.2,0.3-0.3c0.9-0.9,1-2.4,0.2-3.5c0.8,1.1,2.2,1.3,3.2,0.7c0.1-0.1,0.2-0.1,0.3-0.2
	c0.1-0.1,0.2-0.2,0.3-0.3c-0.1,0.1-0.2,0.1-0.3,0.2c-0.1,0.1-0.2,0.2-0.3,0.3C83.9,1001.9,83.8,1003.3,84.6,1004.4z"/>
<path class="st8" d="M97.8,1016c-0.6-0.8-1.6-1-2.4-0.5c-0.1,0-0.2,0.1-0.2,0.2s-0.1,0.1-0.2,0.2c0.1,0,0.2-0.1,0.2-0.2
	c0.1-0.1,0.1-0.1,0.2-0.2c0.7-0.7,0.7-1.8,0.2-2.6c0.6,0.8,1.6,1,2.4,0.5c0.1,0,0.2-0.1,0.2-0.2s0.1-0.1,0.2-0.2
	c-0.1,0-0.2,0.1-0.2,0.2c-0.1,0.1-0.1,0.1-0.2,0.2C97.3,1014.1,97.2,1015.2,97.8,1016z"/>
<path class="st8" d="M95.2,724.3c-0.4,0.6-0.3,1.5,0.2,1.9c0.1,0,0.1,0.1,0.2,0.1s0.1,0.1,0.2,0.1c-0.1,0-0.1-0.1-0.2-0.1
	c-0.1,0-0.1-0.1-0.2-0.1c-0.6-0.3-1.4-0.1-1.8,0.5c0.4-0.6,0.3-1.5-0.2-1.9c-0.1,0-0.1-0.1-0.2-0.1c-0.1,0-0.1-0.1-0.2-0.1
	c0.1,0,0.1,0.1,0.2,0.1c0.1,0,0.1,0.1,0.2,0.1C94,725.1,94.8,724.9,95.2,724.3z"/>
<path class="st13" d="M0.5,577c-0.1,0.2-0.1,0.4,0,0.5c0,0,0,0,0,0c0,0,0,0,0.1,0c0,0,0,0,0,0c0,0,0,0-0.1,0c-0.2-0.1-0.4,0-0.5,0.1
	c0.1-0.2,0.1-0.4-0.1-0.5c0,0,0,0,0,0c0,0,0,0-0.1,0c0,0,0,0,0,0c0,0,0,0,0.1,0C0.1,577.2,0.3,577.1,0.5,577z"/>
<path class="st13" d="M8.7,563.9c-0.3,0.5-0.3,1.2,0.1,1.5c0,0,0.1,0.1,0.1,0.1s0.1,0.1,0.1,0.1c0,0-0.1-0.1-0.1-0.1
	c0,0-0.1-0.1-0.1-0.1c-0.5-0.3-1.1-0.1-1.4,0.4c0.3-0.5,0.3-1.2-0.2-1.5c0,0-0.1-0.1-0.1-0.1S7,564.1,7,564c0,0,0.1,0.1,0.1,0.1
	s0.1,0.1,0.1,0.1C7.8,564.5,8.4,564.3,8.7,563.9z"/>
<path class="st13" d="M102,190.3c0.9,0,1.6-0.8,1.7-1.8c0-0.1,0-0.2,0-0.3s0-0.2,0-0.3c0,0.1,0,0.2,0,0.3s0,0.2,0,0.3
	c0.1,1.1,0.8,1.9,1.7,1.9c-0.9,0-1.6,0.8-1.7,1.8c0,0.1,0,0.2,0,0.3s0,0.2,0,0.3c0-0.1,0-0.2,0-0.3s0-0.2,0-0.3
	C103.5,191.1,102.8,190.3,102,190.3z"/>
<path class="st9" d="M187.1,185.1c0.1,1.1,0.9,1.9,1.7,1.9c0.1,0,0.2,0,0.2,0c0.1,0,0.2,0,0.2-0.1c-0.1,0-0.2,0-0.2,0
	c-0.1,0-0.2,0-0.2,0.1c-0.8,0.3-1.4,1.3-1.2,2.4c-0.1-1.1-0.9-1.9-1.7-1.9c-0.1,0-0.2,0-0.2,0c-0.1,0-0.2,0-0.2,0.1
	c0.1,0,0.2,0,0.2,0c0.1,0,0.2,0,0.2-0.1C186.7,187.2,187.3,186.2,187.1,185.1z"/>
<path class="st7" d="M143.7,180.3c0.6-1.3,0.2-2.9-1-3.7c-0.1-0.1-0.2-0.1-0.3-0.2s-0.2-0.1-0.4-0.1c0.1,0.1,0.2,0.1,0.3,0.2
	c0.1,0.1,0.2,0.1,0.4,0.1c1.3,0.4,2.7-0.2,3.4-1.5c-0.6,1.3-0.2,2.9,1,3.7c0.1,0.1,0.2,0.1,0.3,0.2c0.1,0.1,0.2,0.1,0.4,0.1
	c-0.1-0.1-0.2-0.1-0.3-0.2c-0.1-0.1-0.2-0.1-0.4-0.1C145.8,178.3,144.3,179,143.7,180.3z"/>
<path class="st7" d="M359.5,658v147.9c-10.4,20.7-20.2,34.3-25.1,40.5c-2,2.6-3.2,3.9-3.2,3.9c-11.8,12.2-39.3,17-54.8,17.9
	l-208.9,13c-9.2,0.6-16.7-6.5-15.9-14.9l13.6-144.5c1.4-15.3,14.5-27.6,31.1-29.3C96.2,692.4,274.7,689.8,359.5,658z"/>
<path class="st8" d="M33.5,1078.3c0.3,0.8,1.2,1.2,2,1c0.1,0,0.2-0.1,0.2-0.1c0.1,0,0.2-0.1,0.2-0.1c-0.1,0-0.2,0.1-0.2,0.1
	c-0.1,0-0.2,0.1-0.2,0.1c-0.7,0.4-1,1.3-0.7,2.1c-0.3-0.8-1.2-1.2-2-1c-0.1,0-0.2,0.1-0.2,0.1c-0.1,0-0.2,0.1-0.2,0.1
	c0.1,0,0.2-0.1,0.2-0.1c0.1,0,0.2-0.1,0.2-0.1C33.5,1080,33.8,1079.1,33.5,1078.3z"/>
<path class="st8" d="M18.1,854.2c0.1-0.1,0.1-0.2,0.2-0.3C18.3,854,18.2,854.1,18.1,854.2c0,0.1-0.1,0.2-0.1,0.3
	C18,854.4,18.1,854.3,18.1,854.2z"/>
<path class="st8" d="M20.5,1162.5c0,0,0,0.1-0.1,0.1C20.4,1162.6,20.4,1162.6,20.5,1162.5c0-0.1,0-0.1,0.1-0.1
	C20.5,1162.4,20.5,1162.5,20.5,1162.5z"/>
<path class="st8" d="M16.1,850.2c0-0.1,0.1-0.1,0.1-0.2C16.2,850,16.1,850.1,16.1,850.2c0,0.1-0.1,0.2-0.1,0.2
	C16,850.3,16,850.2,16.1,850.2z"/>
<path class="st8" d="M18.5,849.4c-0.8-0.4-1.8-0.2-2.3,0.5c0.3-0.8,0-1.7-0.8-2.2c0.8,0.4,1.8,0.2,2.3-0.5
	C17.3,848.1,17.7,849,18.5,849.4z"/>
<path class="st8" d="M17.8,847c0,0.1-0.1,0.1-0.1,0.2C17.7,847.2,17.7,847.1,17.8,847c0-0.1,0-0.2,0.1-0.2
	C17.8,846.9,17.8,847,17.8,847z"/>
<path class="st14" d="M16.1,850.2c0-0.1,0.1-0.1,0.1-0.2C16.2,850,16.1,850.1,16.1,850.2c0,0.1-0.1,0.2-0.1,0.2
	C16,850.3,16,850.2,16.1,850.2z"/>
<path class="st14" d="M18.5,849.4c-0.8-0.4-1.8-0.2-2.3,0.5c0.3-0.8,0-1.7-0.8-2.2c0.8,0.4,1.8,0.2,2.3-0.5
	C17.3,848.1,17.7,849,18.5,849.4z"/>
<path class="st14" d="M17.8,847c0,0.1-0.1,0.1-0.1,0.2C17.7,847.2,17.7,847.1,17.8,847c0-0.1,0-0.2,0.1-0.2
	C17.8,846.9,17.8,847,17.8,847z"/>
<path class="st14" d="M18.1,854.2c0.1-0.1,0.1-0.2,0.2-0.3C18.3,854,18.2,854.1,18.1,854.2c0,0.1-0.1,0.2-0.1,0.3
	C18,854.4,18.1,854.3,18.1,854.2z"/>
<path class="st14" d="M20.5,1162.5c0,0,0,0.1-0.1,0.1C20.4,1162.6,20.4,1162.6,20.5,1162.5c0-0.1,0-0.1,0.1-0.1
	C20.5,1162.4,20.5,1162.5,20.5,1162.5z"/>
<path class="st15" d="M16.1,850.2c0-0.1,0.1-0.1,0.1-0.2C16.2,850,16.1,850.1,16.1,850.2c0,0.1-0.1,0.2-0.1,0.2
	C16,850.3,16,850.2,16.1,850.2z"/>
<path class="st15" d="M17.6,847.3c-0.3,0.8,0,1.7,0.8,2.2c-0.8-0.4-1.8-0.2-2.3,0.5c0.3-0.8,0-1.7-0.8-2.2
	C16.1,848.2,17.1,848,17.6,847.3z"/>
<path class="st15" d="M17.8,847c0,0.1-0.1,0.1-0.1,0.2C17.7,847.2,17.7,847.1,17.8,847c0-0.1,0-0.2,0.1-0.2
	C17.8,846.9,17.8,847,17.8,847z"/>
<path class="st15" d="M18.1,854.2c0.1-0.1,0.1-0.2,0.2-0.3C18.3,854,18.2,854.1,18.1,854.2c0,0.1-0.1,0.2-0.1,0.3
	C18,854.4,18.1,854.3,18.1,854.2z"/>
<path class="st15" d="M20.5,1162.5c0,0,0,0.1-0.1,0.1C20.4,1162.6,20.4,1162.6,20.5,1162.5c0-0.1,0-0.1,0.1-0.1
	C20.5,1162.4,20.5,1162.5,20.5,1162.5z"/>
<g>
	<path class="st16" d="M-18.6,858.2C-18.6,858.2-18.6,858.3-18.6,858.2C-18.6,858.3-18.6,858.2-18.6,858.2
		C-18.5,858.2-18.5,858.2-18.6,858.2C-18.5,858.2-18.6,858.2-18.6,858.2z M-17.7,857.1C-17.8,857.1-17.8,857.1-17.7,857.1
		C-17.8,857.1-17.7,857.1-17.7,857.1C-17.7,857-17.7,857-17.7,857.1C-17.7,857-17.7,857-17.7,857.1z M96.1,840.4L96.1,840.4
		c0-0.6,0-1.1-0.1-1.6c0-0.2,0-0.3,0-0.5c0-0.4-0.1-0.8-0.1-1.2c0-0.2,0-0.4-0.1-0.5c0-0.4-0.1-0.7-0.1-1.1c0-0.2,0-0.4-0.1-0.6
		c-0.1-0.4-0.1-0.8-0.2-1.2c0-0.2,0-0.3-0.1-0.5c-0.1-0.5-0.2-1.1-0.3-1.6c0,0,0-0.1,0-0.1c-0.1-0.5-0.2-1-0.3-1.5
		c0-0.2-0.1-0.3-0.1-0.5c-0.1-0.4-0.2-0.7-0.3-1.1c-0.1-0.2-0.1-0.4-0.2-0.6c-0.1-0.3-0.2-0.7-0.3-1c-0.1-0.2-0.1-0.4-0.2-0.6
		c-0.1-0.4-0.2-0.7-0.3-1.1c-0.1-0.2-0.1-0.3-0.2-0.5c-0.2-0.5-0.4-1.1-0.6-1.6c-11.6-31-50-48.1-85.8-38.1
		c-2.9,0.8-5.7,1.8-8.4,2.9v106.6c15.1,6.3,33,7.7,50.2,2.9c14.4-4,26.2-11.8,34.4-21.7l0,0c1.1-1.4,2.2-2.8,3.2-4.2
		c0,0,0,0,0.1-0.1c0.3-0.5,0.6-0.9,0.9-1.3c0,0,0.1-0.1,0.1-0.1c0.3-0.5,0.6-0.9,0.9-1.4c0,0,0,0,0-0.1c0.9-1.5,1.7-3,2.5-4.5
		c0,0,0-0.1,0.1-0.1c0.2-0.5,0.4-0.9,0.6-1.4c0-0.1,0.1-0.1,0.1-0.2c0.2-0.5,0.4-0.9,0.6-1.4c0-0.1,0.1-0.1,0.1-0.2
		c0.6-1.6,1.2-3.1,1.7-4.7c0-0.1,0.1-0.2,0.1-0.2c0.1-0.4,0.3-0.9,0.4-1.3c0-0.1,0.1-0.2,0.1-0.3c0.1-0.4,0.2-0.9,0.3-1.3
		c0-0.1,0.1-0.2,0.1-0.3c0.1-0.5,0.2-1,0.3-1.5c0,0,0-0.1,0-0.1c0.2-1.1,0.4-2.2,0.5-3.3c0-0.1,0-0.2,0-0.4c0.1-0.4,0.1-0.8,0.1-1.3
		c0-0.2,0-0.3,0-0.5c0-0.4,0.1-0.8,0.1-1.2c0-0.2,0-0.3,0-0.5c0-0.4,0-0.9,0.1-1.3c0-0.1,0-0.2,0-0.3
		C96.1,841.5,96.1,841,96.1,840.4z"/>
	<path class="st16" d="M-18.6,858.2C-18.6,858.2-18.6,858.3-18.6,858.2C-18.6,858.3-18.6,858.2-18.6,858.2
		C-18.5,858.2-18.5,858.2-18.6,858.2C-18.5,858.2-18.6,858.2-18.6,858.2z M-17.7,857.1C-17.8,857.1-17.8,857.1-17.7,857.1
		C-17.8,857.1-17.7,857.1-17.7,857.1C-17.7,857-17.7,857-17.7,857.1C-17.7,857-17.7,857-17.7,857.1z M88.7,840.5L88.7,840.5
		c0-0.5,0-1,0-1.4c0-0.1,0-0.3,0-0.4c0-0.3,0-0.7-0.1-1c0-0.2,0-0.3,0-0.5c0-0.3-0.1-0.7-0.1-1c0-0.2,0-0.3-0.1-0.5
		c0-0.3-0.1-0.7-0.1-1c0-0.1,0-0.3-0.1-0.4c-0.1-0.5-0.2-1-0.3-1.5c0,0,0,0,0-0.1c-0.1-0.5-0.2-0.9-0.3-1.4c0-0.2-0.1-0.3-0.1-0.5
		c-0.1-0.3-0.2-0.7-0.2-1c-0.1-0.2-0.1-0.4-0.1-0.5c-0.1-0.3-0.2-0.6-0.3-0.9c-0.1-0.2-0.1-0.3-0.2-0.5c-0.1-0.3-0.2-0.7-0.3-1
		c-0.1-0.2-0.1-0.3-0.2-0.5c-0.2-0.5-0.3-1-0.5-1.4C75.4,797.3,41.2,782.1,9.3,791c-3.8,1.1-7.3,2.4-10.7,4v92.2
		c14.1,6.8,31.3,8.6,47.9,4c12.8-3.6,23.3-10.5,30.6-19.3c1-1.2,2-2.5,2.8-3.8c0,0,0,0,0-0.1c0.3-0.4,0.5-0.8,0.8-1.2
		c0,0,0.1-0.1,0.1-0.1c0.3-0.4,0.5-0.8,0.8-1.2c0,0,0,0,0,0c0.8-1.3,1.5-2.7,2.2-4c0,0,0-0.1,0.1-0.1c0.2-0.4,0.4-0.8,0.6-1.2
		c0-0.1,0.1-0.1,0.1-0.2c0.2-0.4,0.3-0.8,0.5-1.2c0,0,0-0.1,0.1-0.2c0.6-1.4,1.1-2.8,1.5-4.2c0-0.1,0-0.1,0.1-0.2
		c0.1-0.4,0.2-0.8,0.3-1.2c0-0.1,0.1-0.2,0.1-0.3c0.1-0.4,0.2-0.8,0.3-1.2c0-0.1,0-0.2,0.1-0.3c0.1-0.4,0.2-0.9,0.3-1.3
		c0,0,0-0.1,0-0.1c0.2-1,0.3-1.9,0.5-2.9c0-0.1,0-0.2,0-0.3c0-0.4,0.1-0.7,0.1-1.1c0-0.1,0-0.3,0-0.4c0-0.3,0.1-0.7,0.1-1.1
		c0-0.1,0-0.3,0-0.4c0-0.4,0-0.8,0.1-1.2c0-0.1,0-0.2,0-0.3C88.7,841.5,88.7,841,88.7,840.5z"/>
	<path class="st16" d="M-18.6,858.2C-18.6,858.2-18.6,858.3-18.6,858.2C-18.6,858.3-18.6,858.2-18.6,858.2
		C-18.5,858.2-18.5,858.2-18.6,858.2C-18.5,858.2-18.6,858.2-18.6,858.2z M-17.7,857.1C-17.8,857.1-17.8,857.1-17.7,857.1
		C-17.8,857.1-17.7,857.1-17.7,857.1C-17.7,857-17.7,857-17.7,857.1C-17.7,857-17.7,857-17.7,857.1z M81.5,839.3c0-0.1,0-0.2,0-0.4
		c0-0.3,0-0.6-0.1-0.9c0-0.2,0-0.3,0-0.4c0-0.3-0.1-0.6-0.1-0.9c0-0.1,0-0.3-0.1-0.4c0-0.3-0.1-0.6-0.1-0.9c0-0.1,0-0.2-0.1-0.4
		c-0.1-0.4-0.1-0.9-0.2-1.3c0,0,0,0,0-0.1c-0.1-0.4-0.2-0.8-0.3-1.2c0-0.1-0.1-0.3-0.1-0.4c-0.1-0.3-0.1-0.6-0.2-0.9
		c0-0.2-0.1-0.3-0.1-0.5c-0.1-0.3-0.2-0.5-0.2-0.8c-0.1-0.2-0.1-0.3-0.1-0.5c-0.1-0.3-0.2-0.6-0.3-0.9c-0.1-0.1-0.1-0.3-0.1-0.4
		c-0.1-0.4-0.3-0.8-0.4-1.3c-9.1-24.4-39.2-37.8-67.4-29.9c-4.7,1.3-9,3.1-12.9,5.3v77.7c13.1,7.4,29.7,9.8,45.7,5.3
		c11.3-3.2,20.6-9.3,27-17c0.9-1.1,1.7-2.2,2.5-3.3c0,0,0,0,0-0.1c0.2-0.3,0.5-0.7,0.7-1.1c0,0,0.1-0.1,0.1-0.1
		c0.2-0.4,0.5-0.7,0.7-1.1c0,0,0,0,0,0c0.7-1.2,1.3-2.4,1.9-3.6c0,0,0-0.1,0.1-0.1c0.2-0.4,0.3-0.7,0.5-1.1c0-0.1,0.1-0.1,0.1-0.2
		c0.2-0.4,0.3-0.7,0.5-1.1c0,0,0-0.1,0.1-0.1c0.5-1.2,0.9-2.5,1.3-3.7c0-0.1,0-0.1,0.1-0.2c0.1-0.3,0.2-0.7,0.3-1
		c0-0.1,0.1-0.2,0.1-0.3c0.1-0.3,0.2-0.7,0.3-1c0-0.1,0-0.2,0.1-0.3c0.1-0.4,0.2-0.8,0.2-1.2c0,0,0-0.1,0-0.1
		c0.2-0.8,0.3-1.7,0.4-2.6c0-0.1,0-0.2,0-0.3c0-0.3,0.1-0.7,0.1-1c0-0.1,0-0.2,0-0.4c0-0.3,0.1-0.6,0.1-0.9c0-0.1,0-0.2,0-0.4
		c0-0.3,0-0.7,0-1c0-0.1,0-0.2,0-0.3c0-0.4,0-0.9,0-1.3v0C81.5,840.1,81.5,839.7,81.5,839.3z"/>
	<g>
		<path class="st4" d="M73.8,841l-0.1,2.4c-0.1,1-0.2,2-0.3,3l-0.9,3.9c-0.1,0.5-0.3,0.9-0.4,1.4c0,0,0,0,0,0
			c-0.1,0.3-0.2,0.5-0.3,0.7l-0.3,0.7c-0.2,0.5-0.4,1-0.6,1.5c-0.2,0.5-0.4,0.9-0.6,1.4l-0.4,0.7c-0.1,0.2-0.2,0.5-0.4,0.7l-0.4,0.7
			c-0.1,0.2-0.3,0.5-0.4,0.7l-0.8,1.4c-0.3,0.4-0.6,0.9-0.9,1.3l-0.1,0.1c-0.1,0.2-0.3,0.4-0.4,0.6c-0.3,0.4-0.6,0.8-0.9,1.2
			l-0.6,0.7c-5.5,6.7-13.5,11.9-23.2,14.6c-15.5,4.3-31.7,1.1-43.4-7.3v-61.1c4.4-3.1,9.5-5.6,15.2-7.2c24.1-6.7,49.9,4.7,57.7,25.6
			C73.1,832.9,73.8,837,73.8,841z"/>
		<g>
			<path class="st3" d="M34.1,808.4L34.1,808.4c0.7,1.8-0.5,3.8-2.6,4.4l-15.8,4.4c-2.4,0.7-3.8,2.9-3,5l0,0
				c0.8,2.1,3.4,3.3,5.8,2.6l23.9-6.7c2.5-0.7,5.1,0.5,5.9,2.6l0,0c0.8,2.1-0.6,4.4-3,5.1l-16.8,4.7c-2.2,0.6-3.4,2.7-2.7,4.6l0,0
				c0.7,1.9,3.1,3,5.3,2.3l11.5-3.2c2-0.6,4.2,0.4,4.8,2.1l0,0c0.7,1.8-0.5,3.6-2.5,4.2l-16.4,4.6c-2.4,0.7-3.7,2.9-2.9,4.9l0,0
				c0.8,2,3.3,3.2,5.7,2.5l21.7-6c2.3-0.6,4.7,0.4,5.4,2.4l0,0c0.7,2-0.5,4.1-2.8,4.7l-6.6,1.8c-2,0.6-3.1,2.4-2.5,4.1l0,0
				c0.6,1.7,2.8,2.7,4.8,2.1l5-1.4c3.7-1,7.7,0.7,8.9,3.9l0,0c8.2-9.9,11.1-22.9,6.4-35.4C63.8,808,38,796.5,13.9,803.2l0,0
				c1.3,3.6,5.8,5.6,9.9,4.4l5.2-1.5C31.1,805.6,33.4,806.6,34.1,808.4z"/>
		</g>
	</g>
</g>
<g>
	<g>
		
			<image style="overflow:visible;opacity:0.5;enable-background:new    ;" width="74" height="66" xlink:href="CADBA2C0.png"  transform="matrix(1 0 0 1 -7 806.9592)">
		</image>
		<g>
			<ellipse class="st17" cx="28.6" cy="838.8" rx="27.5" ry="23.8"/>
		</g>
	</g>
	<g>
		<path class="st9" d="M41,841.9c-0.1,0.3,0.2,0.6,0.6,0.7c0,0,0.1,0,0.1,0s0.1,0,0.1,0c0,0-0.1,0-0.1,0s-0.1,0-0.1,0
			c-0.4,0-0.7,0.2-0.8,0.5c0.1-0.3-0.2-0.6-0.6-0.7c0,0-0.1,0-0.1,0s-0.1,0-0.1,0c0,0,0.1,0,0.1,0s0.1,0,0.1,0
			C40.6,842.4,40.9,842.2,41,841.9z"/>
		<path class="st9" d="M44.7,816.7c-0.2,1,0.5,1.8,1.7,2.1c0.1,0,0.2,0,0.3,0.1s0.2,0,0.3,0c-0.1,0-0.2,0-0.3-0.1s-0.2,0-0.3,0
			c-1.2,0-2.2,0.7-2.4,1.6c0.2-1-0.5-1.8-1.7-2.1c-0.1,0-0.2,0-0.3-0.1s-0.2,0-0.3,0c0.1,0,0.2,0,0.3,0.1s0.2,0,0.3,0
			C43.5,818.4,44.5,817.7,44.7,816.7z"/>
		<path class="st7" d="M16.5,855.5L16.5,855.5c-0.1,0-0.1,0-0.1-0.1v-33.2c0-0.1,0-0.1,0.1-0.1h0c0,1.7,1.4,3.1,3.1,3.1v27.2
			C17.9,852.4,16.5,853.8,16.5,855.5z"/>
		<g>
			<path class="st7" d="M45.1,829.6v17.7c0,4.5-4.5,8.1-10.1,8.1H21.6c0-0.6,0.3-1.2,0.8-1.6s1.2-0.7,2-0.7H35c4,0,7.2-2.6,7.2-5.8
				v-17.7c0-3.2-3.2-5.8-7.2-5.8H24.5c-1.6,0-2.9-1-2.9-2.3H35c5.3,0,9.6,3.3,10,7.4C45.1,829.1,45.1,829.3,45.1,829.6z"/>
		</g>
	</g>
	<ellipse class="st7" cx="9.5" cy="826.9" rx="3.9" ry="3.4"/>
</g>
<path class="st13" d="M21.4,1152.4c0.1,0.1,0.1,0.1,0.2,0c0,0,0,0,0,0c0,0,0,0,0,0c0,0,0,0,0,0s0,0,0,0c0,0.1,0,0.2,0,0.2
	c-0.1-0.1-0.1-0.1-0.2,0c0,0,0,0,0,0s0,0,0,0c0,0,0,0,0,0s0,0,0,0C21.4,1152.6,21.4,1152.5,21.4,1152.4z"/>
<path class="st13" d="M18.5,835c0.3,0.3,0.6,0.3,0.9,0.1c0,0,0,0,0.1-0.1s0,0,0.1-0.1c0,0,0,0-0.1,0.1c0,0,0,0-0.1,0.1
	c-0.2,0.3-0.2,0.7,0,0.9c-0.3-0.3-0.6-0.3-0.9-0.1c0,0,0,0-0.1,0.1s0,0-0.1,0.1c0,0,0,0,0.1-0.1c0,0,0,0,0.1-0.1
	C18.7,835.6,18.7,835.2,18.5,835z"/>
<path class="st13" d="M19.4,824.8c0.4,0.3,1,0.4,1.4,0.1c0,0,0.1,0,0.1-0.1s0.1-0.1,0.1-0.1c0,0-0.1,0-0.1,0.1s-0.1,0.1-0.1,0.1
	c-0.3,0.3-0.3,0.9,0.1,1.2c-0.4-0.3-1-0.4-1.4-0.1c0,0-0.1,0-0.1,0.1s-0.1,0.1-0.1,0.1c0,0,0.1,0,0.1-0.1s0.1-0.1,0.1-0.1
	C19.8,825.6,19.8,825.1,19.4,824.8z"/>
<path class="st18" d="M359.5,1202.5v26.4H-1.3v-22.5c48.8-26.1,113.4-41.9,184.2-41.9C250,1164.5,311.6,1178.8,359.5,1202.5z"/>
<path class="st4" d="M358.8,1228.9H6.9c40.4-31.5,104.2-51.9,176-51.9S318.4,1197.4,358.8,1228.9z"/>
<path class="st18" d="M359.5,1220.1v8.8H-1.3v-3.3c44.4-33.7,110.4-55,184.2-55C252.5,1170.5,315.3,1189.6,359.5,1220.1z"/>
<polygon id="Shadow_17_" class="st19" points="353.2,699.5 324.5,672.9 313.1,692.8 324.2,703.1 319.5,712.4 327.9,720.2 
	353.2,720.2 "/>
<g id="Spacecraft_2_">
	<g id="Star_19_">
		<g>
			<ellipse class="st7" cx="304.8" cy="683.7" rx="2.9" ry="2.6"/>
		</g>
		<g>
			<path class="st7" d="M334.7,704c-0.9,0-1.7-0.7-1.7-1.5c0,0.8-0.8,1.5-1.7,1.5c0.9,0,1.7,0.7,1.7,1.5
				C333,704.6,333.8,704,334.7,704z"/>
		</g>
		<g>
			<path class="st7" d="M339.8,687.3c-0.9,0-1.7-0.7-1.7-1.5c0,0.8-0.8,1.5-1.7,1.5c0.9,0,1.7,0.7,1.7,1.5
				C338.2,688,338.9,687.3,339.8,687.3z"/>
		</g>
		<g>
			<path class="st7" d="M309.4,699.9c-0.9,0-1.7-0.7-1.7-1.5c0,0.8-0.8,1.5-1.7,1.5c0.9,0,1.7,0.7,1.7,1.5
				C307.7,700.6,308.4,699.9,309.4,699.9z"/>
		</g>
	</g>
	<g id="Smoke">
		<polygon class="st7" points="323,696.6 320.1,696.6 319.5,704.4 323,704.4 		"/>
		<polygon class="st7" points="323,696.6 325.9,696.6 326.5,704.4 323,704.4 		"/>
		<path class="st7" d="M323.6,700.6c0,0.8-0.7,1.5-1.6,1.5s-1.6-0.7-1.6-1.5s0.7-1.5,1.6-1.5C322.9,699.1,323.6,699.7,323.6,700.6z"
			/>
		<path class="st7" d="M325.5,701.4c0,0.8-0.7,1.5-1.6,1.5s-1.6-0.7-1.6-1.5s0.7-1.5,1.6-1.5C324.7,699.9,325.5,700.6,325.5,701.4z"
			/>
		<path class="st7" d="M323.6,702.9c0,0.8-0.7,1.5-1.6,1.5s-1.6-0.7-1.6-1.5s0.7-1.5,1.6-1.5C322.9,701.4,323.6,702,323.6,702.9z"/>
		<path class="st7" d="M323.2,704.8c0,0.8-0.7,1.5-1.6,1.5s-1.6-0.7-1.6-1.5s0.7-1.5,1.6-1.5S323.2,704,323.2,704.8z"/>
		<path class="st7" d="M326.1,704.8c0,0.8-0.7,1.5-1.6,1.5s-1.6-0.7-1.6-1.5s0.7-1.5,1.6-1.5C325.4,703.3,326.1,704,326.1,704.8z"/>
		<path class="st7" d="M325.6,703.3c0,0.8-0.7,1.5-1.6,1.5s-1.6-0.7-1.6-1.5s0.7-1.5,1.6-1.5C324.9,701.8,325.6,702.5,325.6,703.3z"
			/>
		<path class="st7" d="M325.6,706.1c0,0.8-0.7,1.5-1.6,1.5s-1.6-0.7-1.6-1.5s0.7-1.5,1.6-1.5C324.9,704.6,325.6,705.2,325.6,706.1z"
			/>
		<path class="st7" d="M327.3,704.8c0,0.8-0.7,1.5-1.6,1.5s-1.6-0.7-1.6-1.5s0.7-1.5,1.6-1.5S327.3,704,327.3,704.8z"/>
		<path class="st7" d="M321.4,704.4c0,0.8-0.7,1.5-1.6,1.5s-1.6-0.7-1.6-1.5s0.7-1.5,1.6-1.5S321.4,703.5,321.4,704.4z"/>
		<path class="st7" d="M321.2,706.8c0,0.8-0.7,1.5-1.6,1.5s-1.6-0.7-1.6-1.5s0.7-1.5,1.6-1.5C320.4,705.3,321.2,706,321.2,706.8z"/>
		<path class="st7" d="M320,708.8c0,0.7-0.6,1.2-1.3,1.2c-0.7,0-1.3-0.5-1.3-1.2c0-0.7,0.6-1.2,1.3-1.2
			C319.4,707.6,320,708.2,320,708.8z"/>
		<path class="st7" d="M323.6,707c0,0.8-0.7,1.5-1.6,1.5s-1.6-0.7-1.6-1.5s0.7-1.5,1.6-1.5C322.9,705.5,323.6,706.2,323.6,707z"/>
		<path class="st7" d="M324,710.2c0,1.5-1.3,2.6-2.9,2.6s-2.9-1.2-2.9-2.6s1.3-2.6,2.9-2.6S324,708.7,324,710.2z"/>
		<path class="st7" d="M329.1,708.5c0,1.6-1.4,3-3.2,3s-3.2-1.3-3.2-3s1.4-3,3.2-3C327.7,705.5,329.1,706.9,329.1,708.5z"/>
	</g>
	<g id="Fire">
		<path class="st20" d="M324.4,697.9c0,0.7-0.6,3.1-1.5,3.1s-1.5-2.3-1.5-3.1c0-0.7,0.6-1.3,1.5-1.3S324.4,697.2,324.4,697.9z"/>
		<path class="st21" d="M324,697.7c0,0.5-0.5,2.2-1,2.2s-1-1.7-1-2.2c0-0.5,0.5-0.9,1-0.9C323.6,696.8,324,697.2,324,697.7z"/>
	</g>
	<g id="Spacecraft_1_">
		<g>
			<path class="st22" d="M332.8,687.3l-3.5-2.7c-0.3-0.2-0.6-0.7-0.8-1l-1.3-3.9c-0.1-0.3-0.4-0.7-0.6-0.7c0,0,0,0,0,0l0,0h-0.4v0.6
				v1.2v11.5v2c0,0.4,0.3,0.6,0.7,0.5l5.7-1.6c0.4-0.1,0.7-0.5,0.7-0.8v-4C333.3,688,333.1,687.5,332.8,687.3z"/>
			<path class="st22" d="M319.6,679C319.6,679,319.5,679,319.6,679c-0.3,0-0.5,0.3-0.7,0.7l-1.3,3.9c-0.1,0.3-0.5,0.8-0.8,1
				l-3.5,2.7c-0.3,0.2-0.5,0.7-0.5,1.1v4c0,0.4,0.3,0.7,0.7,0.8l5.7,1.6c0.4,0.1,0.7-0.1,0.7-0.5v-2v-11.5v-1.2V679L319.6,679
				L319.6,679z"/>
		</g>
		<path class="st23" d="M326.2,694.3c0,0.4,0.3,0.6,0.7,0.5l5.7-1.6c0.4-0.1,0.7-0.5,0.7-0.8h-7.1V694.3z"/>
		<path class="st23" d="M313.5,693.1l5.7,1.6c0.4,0.1,0.7-0.1,0.7-0.5v-2h-7.1C312.9,692.6,313.1,693,313.5,693.1z"/>
		<path class="st24" d="M323.1,696.3c0,0.2-0.2,0.3-0.4,0.3h-2.4c-0.2,0-0.4-0.2-0.4-0.3v-1.4c0-0.2,0.2-0.3,0.4-0.3h2.4
			c0.2,0,0.4,0.2,0.4,0.3V696.3z"/>
		<path class="st24" d="M326.2,696.3c0,0.2-0.2,0.3-0.4,0.3h-2.4c-0.2,0-0.4-0.2-0.4-0.3v-1.4c0-0.2,0.2-0.3,0.4-0.3h2.4
			c0.2,0,0.4,0.2,0.4,0.3V696.3z"/>
		<path class="st25" d="M324.7,696.3c0,0.2-0.2,0.3-0.4,0.3h-2.4c-0.2,0-0.4-0.2-0.4-0.3v-1.4c0-0.2,0.2-0.3,0.4-0.3h2.4
			c0.2,0,0.4,0.2,0.4,0.3V696.3z"/>
		<rect x="319.9" y="676.4" class="st7" width="6.3" height="18.5"/>
		<polygon class="st26" points="332.3,690.2 331.6,690.1 331.3,689.6 331,690.1 330.4,690.2 330.8,690.6 330.7,691.2 331.3,690.9 
			331.9,691.2 331.8,690.6 		"/>
		<path class="st23" d="M323.1,672.3c-2.2,0-3.1,4.2-3.1,4.2h3.1h3.1C326.2,676.4,325.2,672.3,323.1,672.3z"/>
		<g>
			<path class="st27" d="M323.1,677.4c-1.2,0-2.1,0.9-2.1,1.9h4.2C325.2,678.3,324.2,677.4,323.1,677.4z"/>
		</g>
		<path class="st28" d="M315.6,690.4c0,0.4-0.4,0.8-0.8,0.8s-0.8-0.3-0.8-0.8c0-0.4,0.4-0.8,0.8-0.8S315.6,690,315.6,690.4z"/>
		<rect x="321" y="679.3" class="st29" width="4.2" height="13"/>
		<path class="st30" d="M323.6,695.2c0,0.2,0.2,0.3,0.4,0.3h2.4c0.2,0,0.4-0.2,0.4-0.3V693c0-0.2-0.1-0.4-0.3-0.5l-1.5-0.7
			c-0.2-0.1-0.5-0.2-0.7-0.2H324c-0.2,0-0.4,0.2-0.4,0.3L323.6,695.2L323.6,695.2z"/>
		<path class="st30" d="M322.5,695.2c0,0.2-0.2,0.3-0.4,0.3h-2.4c-0.2,0-0.4-0.2-0.4-0.3V693c0-0.2,0.1-0.4,0.3-0.5l1.5-0.7
			c0.2-0.1,0.5-0.2,0.7-0.2h0.3c0.2,0,0.4,0.2,0.4,0.3L322.5,695.2L322.5,695.2z"/>
		<path class="st31" d="M323.6,691.4c0-0.2-0.2-0.3-0.4-0.3h-0.4c-0.2,0-0.4,0.2-0.4,0.3v3.8c0,0.2,0.2,0.3,0.4,0.3h0.4
			c0.2,0,0.4-0.2,0.4-0.3V691.4z"/>
	</g>
</g>
<g id="Space_Robot_1_">
	<rect x="132.4" y="1173.7" class="st32" width="1.3" height="5.2"/>
	<rect x="157.3" y="1161.1" class="st7" width="0.7" height="12.7"/>
	<polygon class="st22" points="153.1,1168.7 151.4,1167.3 146,1174.6 147.7,1176 	"/>
	<polygon class="st7" points="158.2,1161.1 157.1,1160.2 151.7,1167.5 152.8,1168.4 	"/>
	<path class="st33" d="M134.2,1173.2c0,0.7-0.5,1.2-1.2,1.2s-1.2-0.5-1.2-1.2c0-0.7,0.5-1.2,1.2-1.2
		C133.7,1172,134.2,1172.6,134.2,1173.2z"/>
	<path class="st33" d="M134.8,1177.4c0,1-0.8,1.9-1.8,1.9s-1.8-0.8-1.8-1.9s0.8-1.9,1.8-1.9C134,1175.5,134.8,1176.4,134.8,1177.4z"
		/>
	<path class="st33" d="M148.7,1175.1c0,1-0.8,1.9-1.8,1.9s-1.8-0.8-1.8-1.9s0.8-1.9,1.8-1.9S148.7,1174.1,148.7,1175.1z"/>
	<path class="st33" d="M158.9,1161c0,0.8-0.6,1.4-1.4,1.4c-0.8,0-1.4-0.7-1.4-1.4c0-0.8,0.6-1.4,1.4-1.4
		C158.3,1159.5,158.9,1160.2,158.9,1161z"/>
	<g>
		<rect x="132" y="1163.8" class="st33" width="7.8" height="0.3"/>
	</g>
	<g>
		<rect x="139.6" y="1163.8" class="st33" width="0.3" height="8.2"/>
	</g>
	<g>
		<polygon class="st33" points="139.8,1163.8 139.9,1164 134.4,1169.8 134.2,1169.6 		"/>
	</g>
	<g>
		<path class="st7" d="M131.9,1172.3c2.5,2.6,6.5,2.6,8.9,0l-9-9.4C129.4,1165.5,129.4,1169.7,131.9,1172.3z"/>
	</g>
	<path class="st7" d="M140.4,1164.5c-0.3,0.3-0.9,0.3-1.2,0s-0.3-0.9,0-1.3s0.9-0.3,1.2,0S140.8,1164.2,140.4,1164.5z"/>
	
		<rect x="155.6" y="1180.8" transform="matrix(1 -1.076730e-03 1.076730e-03 1 -1.2728 0.1703)" class="st22" width="3.8" height="2.8"/>
	<rect x="153" y="1181" transform="matrix(1 -1.091262e-03 1.091262e-03 1 -1.29 0.1691)" class="st33" width="2.6" height="2.5"/>
	<g>
		<path class="st34" d="M159.8,1180.6h-0.2c-0.1,0-0.3,0.1-0.3,0.3v2.7c0,0.2,0.1,0.3,0.3,0.3h0.2V1180.6z"/>
	</g>
	<rect x="155.7" y="1180.9" class="st35" width="3.5" height="0.3"/>
	<rect x="153.1" y="1181.1" class="st35" width="2.4" height="0.3"/>
	<path class="st7" d="M159.8,1182.2L159.8,1182.2L159.8,1182.2v-1.6c0,0,0.2,0.1,0.2,1.6l0,0l0,0l0,0l0,0c0,1.5-0.2,1.6-0.2,1.6
		V1182.2L159.8,1182.2L159.8,1182.2z"/>
	<polygon class="st33" points="150.1,1186.5 129.9,1186.5 127,1186.5 129.9,1191.9 150.1,1191.9 153,1186.5 	"/>
	<ellipse class="st36" cx="129.9" cy="1191.9" rx="2.5" ry="2.7"/>
	<path class="st37" d="M131.4,1191.9c0,0.9-0.7,1.6-1.6,1.6c-0.9,0-1.6-0.7-1.6-1.6c0-0.9,0.7-1.6,1.6-1.6
		C130.8,1190.2,131.4,1191,131.4,1191.9z"/>
	<ellipse class="st36" cx="134.9" cy="1191.9" rx="2.5" ry="2.7"/>
	<path class="st37" d="M136.5,1191.9c0,0.9-0.7,1.6-1.6,1.6c-0.9,0-1.6-0.7-1.6-1.6c0-0.9,0.7-1.6,1.6-1.6
		C135.8,1190.2,136.5,1191,136.5,1191.9z"/>
	<ellipse class="st36" cx="140" cy="1191.9" rx="2.5" ry="2.7"/>
	<path class="st37" d="M141.6,1191.9c0,0.9-0.7,1.6-1.6,1.6c-0.9,0-1.6-0.7-1.6-1.6c0-0.9,0.7-1.6,1.6-1.6
		C140.9,1190.2,141.6,1191,141.6,1191.9z"/>
	<path class="st36" d="M147.6,1191.9c0,1.5-1.1,2.7-2.5,2.7s-2.5-1.2-2.5-2.7c0-1.5,1.1-2.7,2.5-2.7
		C146.5,1189.2,147.6,1190.4,147.6,1191.9z"/>
	<path class="st37" d="M146.6,1191.9c0,0.9-0.7,1.6-1.6,1.6c-0.9,0-1.6-0.7-1.6-1.6c0-0.9,0.7-1.6,1.6-1.6
		C145.9,1190.2,146.6,1191,146.6,1191.9z"/>
	<path class="st36" d="M152.6,1191.9c0,1.5-1.1,2.7-2.5,2.7s-2.5-1.2-2.5-2.7c0-1.5,1.1-2.7,2.5-2.7S152.6,1190.4,152.6,1191.9z"/>
	<path class="st37" d="M151.7,1191.9c0,0.9-0.7,1.6-1.6,1.6c-0.9,0-1.6-0.7-1.6-1.6c0-0.9,0.7-1.6,1.6-1.6
		C151,1190.2,151.7,1191,151.7,1191.9z"/>
	<polygon class="st7" points="150.8,1177.4 140.5,1177.4 139.6,1177.4 127,1177.4 127,1181.2 127,1186.5 153,1186.5 153,1181.2 
		153,1181 	"/>
	<rect x="144.5" y="1176.3" class="st32" width="4.9" height="1.1"/>
	<path class="st33" d="M156,1175c0-0.5,0.4-1,0.9-1s0.9,0.4,0.9,1s-0.4,1-0.9,1l0,0v0.9l0,0c1,0,1.8-0.8,1.8-1.9s-0.8-1.9-1.8-1.9
		s-1.8,0.8-1.8,1.9H156z"/>
	<rect x="127" y="1181.2" class="st34" width="26" height="1.7"/>
</g>
<g id="Satellite_2_">
	<g id="Satellite_1_">
		<path class="st7" d="M362.8,1033.6c-0.7-1.1-2.3-1.5-3.4-0.8l-0.5,0.7v8.2l-15-10.1l2.3-3.1l4.7-6.3l0.8-1l1.6-2.1l5.6,3.8v1.8
			l3.5,2.4l-2.2,2.9c0.3,0.3,0.6,0.6,0.9,0.8c0.8,0.4,1.7,0.3,2.5-0.1C362.4,1031,362,1032.5,362.8,1033.6z"/>
		<polygon class="st28" points="362.4,1026.7 360.2,1029.6 360.2,1029.6 358.9,1031.4 354.7,1037 345.8,1030.9 353.4,1020.7 
			358.9,1024.3 		"/>
		<polygon class="st28" points="355.7,1037.7 358.9,1033.4 358.9,1039.8 		"/>
		<path class="st28" d="M362.8,1033.6c-0.7-1.1-2.3-1.5-3.4-0.8l0,0l1.1-1.4l0.7-1c0.8,0.4,1.7,0.3,2.5-0.1
			C362.4,1031,362,1032.5,362.8,1033.6z"/>
		<polygon class="st7" points="297.3,999.9 306.7,987.3 327.6,1001.4 318.2,1014 		"/>
		<polygon class="st28" points="308.1,1005.5 299.2,999.4 306.8,989.1 315.8,995.2 		"/>
		<polygon class="st28" points="318,1012.2 309.1,1006.1 316.8,995.8 325.7,1001.9 		"/>
		<polygon class="st7" points="287.5,1013.2 296.8,1000.5 317.7,1014.7 308.3,1027.3 		"/>
		<polygon class="st28" points="298.2,1018.7 289.3,1012.7 297,1002.4 305.9,1008.4 		"/>
		<polygon class="st28" points="308.2,1025.4 299.2,1019.4 306.9,1009.1 315.8,1015.2 		"/>
		<polygon class="st7" points="358.9,1042.5 358.9,1053.5 354.9,1058.8 334.1,1044.7 341.1,1035.2 343.5,1032.1 		"/>
		<polygon class="st28" points="344.8,1050.3 335.9,1044.2 343.6,1033.9 352.5,1040 		"/>
		<polygon class="st28" points="358.9,1044.3 358.9,1051.5 354.8,1057 345.8,1050.9 353.5,1040.6 		"/>
		<path class="st33" d="M314.8,1041.3c0.7-0.9,1.9-1.1,2.8-0.5c0.9,0.6,1.1,1.8,0.5,2.7c-0.7,0.9-1.9,1.1-2.8,0.5
			C314.3,1043.4,314.1,1042.2,314.8,1041.3z"/>
		<path class="st33" d="M317.9,1035.4c1-1.3,2.9-1.7,4.3-0.7c1.4,0.9,1.7,2.8,0.7,4.1c-1,1.3-2.9,1.7-4.3,0.7
			C317.2,1038.6,316.9,1036.7,317.9,1035.4z"/>
		<polygon class="st33" points="320.9,1034.5 322.8,1035.8 317.7,1042.6 315.9,1041.3 		"/>
		<polygon class="st33" points="346.4,1000.3 348.3,1001.5 343.2,1008.3 341.4,1007.1 		"/>
		<polygon class="st33" points="350.8,1001.9 349.5,1003.7 343.9,999.9 345.2,998.1 		"/>
		<polygon class="st7" points="328.6,1042.6 312.2,1031.5 330.5,1006.9 346.9,1018 		"/>
		<polygon class="st33" points="341.1,1035.2 336.4,1032.1 337.2,1031 341.9,1034.1 		"/>
		<polygon class="st33" points="335.6,1042.5 330.9,1039.4 331.7,1038.3 336.4,1041.5 		"/>
		<polygon class="st33" points="310.6,1024.1 315.3,1027.3 314.5,1028.3 309.9,1025.1 		"/>
		<polygon class="st33" points="316.1,1016.7 320.8,1019.9 320,1020.9 315.4,1017.8 		"/>
		<polygon class="st33" points="351,1022 346.3,1018.8 347.1,1017.8 351.7,1020.9 		"/>
		<polygon class="st33" points="345.5,1029.3 340.8,1026.2 341.6,1025.2 346.2,1028.3 		"/>
		<polygon class="st33" points="320.5,1010.9 325.2,1014.1 324.4,1015 319.7,1011.8 		"/>
		<polygon class="st33" points="326,1003.5 330.7,1006.7 329.9,1007.6 325.2,1004.5 		"/>
		<path class="st7" d="M346.9,1018c-3.2,4.3-9.5,5.3-14,2.3c-4.5-3.1-5.6-9-2.4-13.4c3.2-4.3,9.5-5.3,14-2.3
			C349.1,1007.7,350.1,1013.7,346.9,1018z"/>
		<g>
			<polygon class="st33" points="309,1055.3 308.7,1055.7 297.6,1048.1 297.8,1047.8 			"/>
		</g>
		<g>
			<polygon class="st33" points="298,1048.4 297.6,1048.1 305.5,1037.5 305.9,1037.8 			"/>
		</g>
		<g>
			<polygon class="st33" points="297.7,1048.2 297.7,1047.7 311.1,1045.5 311.2,1046 			"/>
		</g>
		<g>
			<path class="st7" d="M317.2,1044.8c-1-5.8-6.7-9.6-12.8-8.6l3.7,20.8C314.1,1056,318.2,1050.5,317.2,1044.8z"/>
		</g>
		<path class="st7" d="M297.4,1046.6c0.8-0.1,1.6,0.4,1.7,1.2c0.1,0.8-0.4,1.5-1.2,1.6c-0.8,0.1-1.6-0.4-1.7-1.2
			C296.1,1047.4,296.6,1046.7,297.4,1046.6z"/>
		<path class="st22" d="M332.7,1015.4c0.7-1,2.1-1.2,3.2-0.5l1.4,0.9c1,0.7,1.3,2,0.5,3l-11.4,15.4c-0.7,1-2.1,1.2-3.2,0.5l-1.4-0.9
			c-1-0.7-1.3-2-0.5-3L332.7,1015.4z"/>
	</g>
	<g id="Star_15_">
		<g>
			<path class="st7" d="M311.7,973.6c-1.2,0.7-2.8,0.3-3.5-0.8c0.7,1.1,0.4,2.6-0.8,3.3c1.2-0.7,2.8-0.3,3.5,0.8
				C310.1,975.8,310.5,974.3,311.7,973.6z"/>
		</g>
		<g>
			<path class="st7" d="M319,1073c-0.9,0.5-2,0.3-2.6-0.6c0.5,0.8,0.3,1.9-0.6,2.5c0.9-0.5,2-0.3,2.6,0.6
				C317.8,1074.6,318.1,1073.5,319,1073z"/>
		</g>
		<g>
			<path class="st7" d="M283.2,1020.7c-1.2,0.7-2.8,0.3-3.5-0.8c0.7,1.1,0.4,2.6-0.8,3.3c1.2-0.7,2.8-0.3,3.5,0.8
				C281.7,1022.9,282,1021.4,283.2,1020.7z"/>
		</g>
		<g>
			<path class="st7" d="M362.8,1033.6c-0.7-1.1-2.3-1.5-3.4-0.8c0,0,0,0-0.1,0c0,0,0,0,0.1,0c0.5-0.3,0.9-0.9,1.1-1.4
				c0.1-0.6,0.1-1.2-0.2-1.7c0-0.1,0-0.1-0.1-0.1c0,0,0.1,0.1,0.1,0.1c0.3,0.3,0.6,0.6,0.9,0.8c0.8,0.4,1.7,0.3,2.5-0.1
				C362.4,1031,362,1032.5,362.8,1033.6z"/>
		</g>
	</g>
</g>
<path class="st38" d="M359.5,750.1v129.4c-7-3.8-15.7-6.3-25.1-8.2c-29.3-5.7-65.7-5.2-80.9-20.2c-36.5-36.1,74.4-71.3,84.8-103
	c0.4-1.1,0.8-2.1,1.3-3c3.1-5.6,8-4.9,13.7-0.7C355.2,746,357.3,747.9,359.5,750.1z"/>
<path class="st7" d="M360.1,553.3c0,1.4,0,2.1,0,2.1s-2.6,0.7-7.4,1.8c-2.7,0.6-6.1,1.4-10.2,2.3c-47.3,10.2-180.7,34.2-289.4,9.2
	c-18.8-4.3-36.8-10.1-53.5-17.6V311.3c1.1-0.1,2.3-0.1,3.4-0.2c239.6-16.2,281.9-91.4,357.1,0.2L360.1,553.3z"/>
<path class="st38" d="M360.1,559.5c0,0,0-0.7,0-2.2l0-0.3c-43.5-12.2-143.4-37.9-189.8-31.6c-65.3,8.8-88.4-47.9-93.4-93.8
	C72,387,42.1,311.3,2.9,311.7c-1.1,0-2.3,0.1-3.4,0.2v243.1v4.4c11.9,6.9,30.6,11.1,53.5,13.4c88.1,9.1,193.2,10.8,250.1-8.4
	c13-4.4,29.7,12.6,57,8.6V559.5z"/>
<g id="Satellite_Receiver_1_">
	<g id="Satellite_Receiver_3">
		<g>
			<g>
				<g>
					<path class="st39" d="M313.5,363.7V349c0-1.2,1.1-2.2,2.5-2.2h9.2c1.3,0,2.5,0.9,2.9,1.9l4.7,14.8c0.2,0.6,0.1,1.2-0.3,1.7
						c-0.4,0.5-1,0.7-1.7,0.7h-14.7C314.6,365.9,313.5,364.9,313.5,363.7z M315.9,348.5c-0.3,0-0.5,0.2-0.5,0.5v14.7
						c0,0.2,0.2,0.5,0.5,0.5h14.7c0.1,0,0.1,0,0.1,0c0,0,0,0,0-0.1l-4.7-14.8c-0.1-0.3-0.6-0.6-0.9-0.6L315.9,348.5L315.9,348.5z"/>
				</g>
			</g>
			<g>
				<g>
					<path class="st39" d="M296.5,365.2c-0.4-0.5-0.5-1.1-0.3-1.7l4.7-14.8c0.3-1.1,1.6-1.9,2.9-1.9h9.2c1.4,0,2.5,1,2.5,2.2v14.7
						c0,1.2-1.1,2.2-2.5,2.2h-14.7C297.5,365.9,296.9,365.7,296.5,365.2z M303.8,348.5c-0.4,0-0.8,0.3-0.9,0.6l-4.7,14.8
						c0,0.1,0,0.1,0,0.1c0,0,0.1,0,0.1,0H313c0.3,0,0.5-0.2,0.5-0.5V349c0-0.2-0.2-0.5-0.5-0.5L303.8,348.5L303.8,348.5z"/>
				</g>
			</g>
		</g>
		<rect x="312.6" y="333.6" class="st29" width="3.8" height="7.6"/>
		<polygon class="st40" points="304.1,318.1 306.6,316 298.6,310.6 290.6,305.3 296.1,312.8 301.6,320.2 		"/>
		<path class="st7" d="M289.4,307.4c0.9,0.9,2.5,0.9,3.5,0.1c1-0.8,1-2.2,0.1-3.1c-0.9-0.9-2.5-0.9-3.5-0.1
			C288.5,305.1,288.5,306.5,289.4,307.4z"/>
		<path class="st19" d="M293,304.3c-0.1-0.1-0.3-0.2-0.4-0.3c0.2,0.7-0.1,1.5-0.7,2c-0.9,0.7-2.1,0.8-3.1,0.2
			c0.1,0.4,0.3,0.8,0.6,1.1c0.9,0.9,2.5,0.9,3.5,0.1C293.9,306.6,293.9,305.2,293,304.3z"/>
		<path class="st30" d="M311.2,332.7c0,1.6,1.5,2.9,3.3,2.9c1.8,0,3.3-1.3,3.3-2.9s-1.5-2.9-3.3-2.9
			C312.7,329.8,311.2,331.1,311.2,332.7z"/>
		<g>
			<g>
				<path class="st39" d="M314.4,338.4c3.1,0,5.6,2.3,5.6,5h-11.2C308.8,340.6,311.4,338.4,314.4,338.4z"/>
			</g>
		</g>
		<rect x="302.3" y="343.4" class="st39" width="24.4" height="3.8"/>
		<g>
			<path class="st41" d="M317.2,330.6c-9.3,7.9-23.9,7.5-32.6-0.9l33.6-28.5C326.9,309.5,326.4,322.7,317.2,330.6z"/>
		</g>
		<path class="st19" d="M323.3,309.1c0.1,5.6-2.3,11.3-7.2,15.5c-7.9,6.7-19.6,7.4-28.3,2.4l-3.2,2.7c8.7,8.3,23.4,8.7,32.6,0.9
			C323.8,324.9,325.9,316.5,323.3,309.1z"/>
	</g>
	<g id="Satellite_Receiver_2">
		<g>
			<g>
				<g>
					<g>
						<path class="st39" d="M344.4,364.8v-7.6c0-0.6,0.6-1.2,1.3-1.2h4.8c0.6,0,1.3,0.4,1.5,1l2.4,7.7c0.1,0.3,0,0.6-0.2,0.9
							c-0.2,0.2-0.5,0.4-0.9,0.4h-7.6C345,365.9,344.4,365.4,344.4,364.8z M345.7,356.9c-0.1,0-0.3,0.1-0.3,0.2v7.6
							c0,0.1,0.1,0.2,0.3,0.2h7.6c0.1,0,0.1,0,0.1,0s0,0,0-0.1l-2.4-7.7c-0.1-0.2-0.3-0.3-0.5-0.3H345.7z"/>
					</g>
				</g>
				<g>
					<g>
						<path class="st39" d="M335.6,365.6c-0.2-0.2-0.3-0.6-0.2-0.9l2.4-7.7c0.2-0.6,0.8-1,1.5-1h4.8c0.7,0,1.3,0.5,1.3,1.2v7.6
							c0,0.6-0.6,1.2-1.3,1.2h-7.6C336.1,365.9,335.8,365.8,335.6,365.6z M339.4,356.9c-0.2,0-0.4,0.2-0.5,0.3l-2.4,7.7
							c0,0,0,0.1,0,0.1s0,0,0.1,0h7.6c0.1,0,0.3-0.1,0.3-0.2v-7.6c0-0.1-0.1-0.2-0.3-0.2L339.4,356.9L339.4,356.9z"/>
					</g>
				</g>
			</g>
		</g>
		<rect x="343.9" y="349.2" class="st39" width="2" height="3.9"/>
		<polygon class="st40" points="339.5,341.2 340.8,340.1 336.7,337.3 332.6,334.6 335.4,338.4 338.2,342.3 		"/>
		<path class="st7" d="M331.9,335.6c0.5,0.5,1.3,0.5,1.8,0c0.5-0.4,0.5-1.2,0.1-1.6c-0.5-0.5-1.3-0.5-1.8,0
			C331.5,334.4,331.5,335.2,331.9,335.6z"/>
		<path class="st19" d="M333.8,334.1c-0.1-0.1-0.1-0.1-0.2-0.2c0.1,0.4-0.1,0.8-0.4,1c-0.4,0.4-1.1,0.4-1.6,0.1
			c0,0.2,0.2,0.4,0.3,0.6c0.5,0.5,1.3,0.5,1.8,0C334.3,335.2,334.3,334.5,333.8,334.1z"/>
		<path class="st30" d="M343.2,348.8c0,0.8,0.8,1.5,1.7,1.5c0.9,0,1.7-0.7,1.7-1.5s-0.8-1.5-1.7-1.5
			C344,347.2,343.2,347.9,343.2,348.8z"/>
		<g>
			<path class="st39" d="M344.9,351.7c1.6,0,2.9,1.2,2.9,2.6H342C342,352.8,343.3,351.7,344.9,351.7z"/>
		</g>
		<rect x="338.6" y="354.3" class="st39" width="12.6" height="2"/>
		<g>
			<path class="st41" d="M346.3,347.6c-4.8,4.1-12.4,3.9-16.9-0.4l17.4-14.8C351.3,336.8,351.1,343.6,346.3,347.6z"/>
		</g>
		<path class="st19" d="M349.5,336.6c0.1,2.9-1.2,5.8-3.8,8c-4.1,3.5-10.1,3.8-14.7,1.2l-1.7,1.4c4.5,4.3,12.1,4.5,16.9,0.4
			C349.7,344.7,350.8,340.4,349.5,336.6z"/>
	</g>
	<g id="Satellite_Receiver_1">
		<g>
			<g>
				<g>
					<path class="st39" d="M283.3,364.8v-7.6c0-0.6,0.6-1.2,1.3-1.2h4.8c0.6,0,1.3,0.4,1.5,1l2.4,7.7c0.1,0.3,0,0.6-0.2,0.9
						c-0.2,0.2-0.5,0.4-0.9,0.4h-7.6C283.9,365.9,283.3,365.4,283.3,364.8z M284.6,356.9c-0.1,0-0.3,0.1-0.3,0.2v7.6
						c0,0.1,0.1,0.2,0.3,0.2h7.6c0.1,0,0.1,0,0.1,0s0,0,0-0.1l-2.4-7.7c-0.1-0.2-0.3-0.3-0.5-0.3H284.6z"/>
				</g>
			</g>
			<g>
				<g>
					<path class="st39" d="M274.6,365.6c-0.2-0.2-0.3-0.6-0.2-0.9l2.4-7.7c0.2-0.6,0.8-1,1.5-1h4.8c0.7,0,1.3,0.5,1.3,1.2v7.6
						c0,0.6-0.6,1.2-1.3,1.2h-7.6C275.1,365.9,274.8,365.8,274.6,365.6z M278.3,356.9c-0.2,0-0.4,0.2-0.5,0.3l-2.4,7.7
						c0,0,0,0.1,0,0.1s0,0,0.1,0h7.6c0.1,0,0.3-0.1,0.3-0.2v-7.6c0-0.1-0.1-0.2-0.3-0.2L278.3,356.9L278.3,356.9z"/>
				</g>
			</g>
		</g>
		<rect x="282.9" y="349.2" class="st39" width="2" height="3.9"/>
		<polygon class="st40" points="278.5,341.2 279.8,340.1 275.7,337.3 271.5,334.6 274.4,338.4 277.2,342.3 		"/>
		<path class="st7" d="M270.9,335.6c0.5,0.5,1.3,0.5,1.8,0c0.5-0.4,0.5-1.2,0.1-1.6s-1.3-0.5-1.8,0
			C270.5,334.4,270.4,335.2,270.9,335.6z"/>
		<path class="st19" d="M272.8,334.1c-0.1-0.1-0.1-0.1-0.2-0.2c0.1,0.4-0.1,0.8-0.4,1c-0.4,0.4-1.1,0.4-1.6,0.1
			c0,0.2,0.2,0.4,0.3,0.6c0.5,0.5,1.3,0.5,1.8,0C273.2,335.2,273.3,334.5,272.8,334.1z"/>
		<path class="st30" d="M282.2,348.8c0,0.8,0.8,1.5,1.7,1.5c0.9,0,1.7-0.7,1.7-1.5s-0.8-1.5-1.7-1.5
			C282.9,347.2,282.2,347.9,282.2,348.8z"/>
		<g>
			<path class="st39" d="M283.9,351.7c1.6,0,2.9,1.2,2.9,2.6H281C281,352.8,282.3,351.7,283.9,351.7z"/>
		</g>
		<rect x="277.6" y="354.3" class="st39" width="12.6" height="2"/>
		<g>
			<path class="st41" d="M285.3,347.6c-4.8,4.1-12.4,3.9-16.9-0.4l17.4-14.8C290.3,336.8,290.1,343.6,285.3,347.6z"/>
		</g>
		<path class="st19" d="M288.4,336.6c0.1,2.9-1.2,5.8-3.8,8c-4.1,3.5-10.1,3.8-14.7,1.2l-1.7,1.4c4.5,4.3,12.1,4.5,16.9,0.4
			C288.7,344.7,289.8,340.4,288.4,336.6z"/>
	</g>
	<g id="Star_14_">
		<g>
			<path class="st7" d="M340.9,299.5c-2,0.9-4.4,0.2-5.4-1.6c1,1.8,0.2,4-1.8,4.9c2-0.9,4.4-0.2,5.4,1.6
				C338.1,302.6,338.9,300.4,340.9,299.5z"/>
		</g>
		<g>
			<path class="st7" d="M308.7,295.3c-1.2,0.7-2.7,0.3-3.5-0.7c0.7,1.1,0.4,2.5-0.8,3.1c1.2-0.7,2.7-0.3,3.5,0.7
				C307.2,297.4,307.5,296,308.7,295.3z"/>
		</g>
		<g>
			<path class="st7" d="M268.6,310.7c-0.9,0.5-2,0.3-2.6-0.5c0.5,0.8,0.3,1.8-0.6,2.3c0.9-0.5,2-0.3,2.6,0.5
				C267.4,312.2,267.7,311.2,268.6,310.7z"/>
		</g>
		<g>
			
				<ellipse transform="matrix(0.2503 -0.9682 0.9682 0.2503 -125.0862 494.7465)" class="st7" cx="256.9" cy="328.1" rx="6.7" ry="1.7"/>
		</g>
	</g>
</g>
</svg>
