<?xml version="1.0" encoding="utf-8"?>
<!-- Generator: Adobe Illustrator 23.0.0, SVG Export Plug-In . SVG Version: 6.00 Build 0)  -->
<svg version="1.1" id="Layer_1" xmlns="http://www.w3.org/2000/svg" xmlns:xlink="http://www.w3.org/1999/xlink" x="0px" y="0px"
	 viewBox="0 0 590 500" style="enable-background:new 0 0 590 500;" xml:space="preserve">
<style type="text/css">
	.st0{fill:#FFFFFF;}
	.st1{fill:#828282;}
	.st2{fill:#F1F2F2;}
	.st3{fill:#FF4D26;}
	.st4{opacity:0.1;enable-background:new    ;}
	.st5{fill:#D1D3D4;}
	.st6{fill:#0096AF;}
	.st7{fill:#E0E0E0;}
</style>
<path class="st0" d="M590,456.09c-0.05,2.22-0.08,3.38-0.08,3.38s-4.27,1.06-12.19,2.84c-4.45,1-10.05,2.22-16.68,3.6
	c-77.38,16.15-295.64,54.32-473.45,14.63C56.88,473.7,27.37,464.52,0,452.51V71.29c1.87-0.12,3.75-0.24,5.6-0.35
	C397.62,45.21,466.79-74.4,589.92,71.29L590,456.09z"/>
<g id="Satellite_Receiver_1_">
	<g id="Satellite_Receiver_3">
		<g>
			<g>
				<g>
					<path class="st1" d="M544.68,141.18v-14.73c0-1.24,1.11-2.24,2.49-2.24h9.19c1.26,0,2.51,0.85,2.87,1.94l4.7,14.83
						c0.19,0.61,0.08,1.23-0.31,1.7s-1.02,0.74-1.73,0.74h-14.73C545.8,143.42,544.68,142.41,544.68,141.18z M547.18,126
						c-0.27,0-0.5,0.21-0.5,0.45v14.73c0,0.24,0.23,0.45,0.5,0.45h14.73c0.09,0,0.13-0.02,0.14-0.02c0-0.01,0.01-0.05-0.01-0.13
						l-4.7-14.83c-0.1-0.32-0.57-0.64-0.94-0.64h-9.21V126z"/>
				</g>
			</g>
			<g>
				<g>
					<path class="st1" d="M527.72,142.68c-0.4-0.47-0.51-1.09-0.31-1.7l4.7-14.83c0.34-1.09,1.6-1.94,2.87-1.94h9.19
						c1.38,0,2.49,1.01,2.49,2.24v14.73c0,1.24-1.11,2.24-2.49,2.24h-14.73C528.75,143.42,528.12,143.15,527.72,142.68z M534.98,126
						c-0.38,0-0.84,0.32-0.94,0.64l-4.7,14.83c-0.02,0.08-0.02,0.12-0.02,0.13c0.01,0.01,0.05,0.03,0.14,0.03h14.73
						c0.27,0,0.5-0.21,0.5-0.45v-14.73c0-0.24-0.23-0.45-0.5-0.45L534.98,126L534.98,126z"/>
				</g>
			</g>
		</g>
		<rect x="543.78" y="111.11" class="st2" width="3.79" height="7.58"/>
		<polygon class="st3" points="535.32,95.59 537.8,93.48 529.83,88.13 521.86,82.77 527.34,90.24 532.82,97.71 		"/>
		<path class="st0" d="M520.65,84.84c0.93,0.89,2.48,0.93,3.48,0.09c0.98-0.84,1.03-2.24,0.1-3.13c-0.93-0.89-2.49-0.93-3.48-0.09
			C519.76,82.55,519.72,83.95,520.65,84.84z"/>
		<path class="st4" d="M524.23,81.8c-0.12-0.12-0.26-0.22-0.41-0.31c0.15,0.72-0.09,1.49-0.73,2.03c-0.85,0.73-2.14,0.79-3.07,0.22
			c0.08,0.4,0.29,0.78,0.63,1.09c0.93,0.89,2.48,0.93,3.48,0.09C525.11,84.09,525.16,82.69,524.23,81.8z"/>
		<path class="st5" d="M542.42,110.22c0,1.62,1.46,2.93,3.26,2.93c1.8,0,3.26-1.31,3.26-2.93s-1.46-2.93-3.26-2.93
			C543.88,107.28,542.42,108.6,542.42,110.22z"/>
		<g>
			<g>
				<path class="st1" d="M545.68,115.85c3.09,0,5.61,2.26,5.61,5.04h-11.21C540.07,118.1,542.58,115.85,545.68,115.85z"/>
			</g>
		</g>
		<rect x="533.49" y="120.89" class="st1" width="24.38" height="3.77"/>
		<g>
			<path class="st6" d="M548.38,108.05c-9.27,7.87-23.89,7.49-32.64-0.85l33.59-28.51C558.08,87.03,557.66,100.17,548.38,108.05z"/>
		</g>
		<path class="st4" d="M554.53,86.63c0.1,5.63-2.32,11.28-7.24,15.46c-7.88,6.69-19.61,7.42-28.33,2.37l-3.23,2.74
			c8.75,8.34,23.36,8.72,32.64,0.85C555.05,102.38,557.14,93.99,554.53,86.63z"/>
	</g>
	<g id="Satellite_Receiver_2">
		<g>
			<g>
				<g>
					<g>
						<path class="st1" d="M575.61,142.26v-7.62c0-0.64,0.58-1.16,1.29-1.16h4.75c0.65,0,1.31,0.44,1.48,1.01l2.43,7.67
							c0.1,0.32,0.04,0.64-0.16,0.88c-0.2,0.24-0.53,0.38-0.89,0.38h-7.62C576.18,143.42,575.61,142.9,575.61,142.26z
							 M576.89,134.41c-0.14,0-0.25,0.11-0.25,0.23v7.62c0,0.13,0.12,0.23,0.25,0.23h7.62c0.05,0,0.07-0.01,0.07-0.01
							s0.01-0.03-0.01-0.07l-2.43-7.67c-0.05-0.17-0.29-0.33-0.49-0.33H576.89z"/>
					</g>
				</g>
				<g>
					<g>
						<path class="st1" d="M566.84,143.04c-0.2-0.24-0.26-0.56-0.16-0.88l2.43-7.67c0.18-0.56,0.83-1.01,1.48-1.01h4.75
							c0.71,0,1.29,0.52,1.29,1.16v7.62c0,0.64-0.58,1.16-1.29,1.16h-7.61C567.37,143.42,567.04,143.28,566.84,143.04z
							 M570.59,134.41c-0.19,0-0.44,0.16-0.49,0.33l-2.43,7.67c-0.01,0.04-0.01,0.06-0.01,0.06s0.03,0.01,0.07,0.01h7.61
							c0.14,0,0.25-0.11,0.25-0.23v-7.62c0-0.13-0.12-0.23-0.25-0.23h-4.75V134.41z"/>
					</g>
				</g>
			</g>
		</g>
		<rect x="575.14" y="126.71" class="st1" width="1.96" height="3.92"/>
		<polygon class="st3" points="570.76,118.68 572.05,117.58 567.92,114.81 563.8,112.04 566.64,115.9 569.47,119.77 		"/>
		<path class="st0" d="M563.17,113.11c0.49,0.46,1.29,0.48,1.79,0.05c0.51-0.43,0.54-1.16,0.05-1.62c-0.49-0.46-1.29-0.48-1.79-0.05
			C562.71,111.93,562.69,112.65,563.17,113.11z"/>
		<path class="st4" d="M565.02,111.54c-0.06-0.06-0.13-0.12-0.21-0.16c0.08,0.37-0.05,0.77-0.38,1.05c-0.45,0.38-1.1,0.41-1.59,0.11
			c0.04,0.21,0.15,0.4,0.32,0.57c0.49,0.46,1.29,0.48,1.79,0.05C565.48,112.73,565.5,112,565.02,111.54z"/>
		<path class="st5" d="M574.43,126.24c0,0.84,0.76,1.52,1.68,1.52c0.93,0,1.69-0.68,1.69-1.52s-0.76-1.52-1.69-1.52
			C575.19,124.72,574.43,125.4,574.43,126.24z"/>
		<g>
			<path class="st1" d="M576.12,129.15c1.6,0,2.9,1.17,2.9,2.61h-5.8C573.22,130.32,574.52,129.15,576.12,129.15z"/>
		</g>
		<rect x="569.82" y="131.76" class="st1" width="12.61" height="1.95"/>
		<g>
			<path class="st6" d="M577.52,125.12c-4.79,4.07-12.36,3.88-16.89-0.44l17.37-14.75C582.54,114.25,582.32,121.05,577.52,125.12z"
				/>
		</g>
		<path class="st4" d="M580.71,114.04c0.05,2.91-1.21,5.84-3.75,8c-4.07,3.46-10.15,3.84-14.66,1.23l-1.67,1.42
			c4.53,4.32,12.09,4.51,16.89,0.44C580.97,122.19,582.05,117.85,580.71,114.04z"/>
	</g>
	<g id="Satellite_Receiver_1">
		<g>
			<g>
				<g>
					<path class="st1" d="M514.58,142.26v-7.62c0-0.64,0.58-1.16,1.29-1.16h4.75c0.65,0,1.31,0.44,1.48,1.01l2.43,7.67
						c0.1,0.32,0.04,0.64-0.16,0.88c-0.2,0.24-0.53,0.38-0.89,0.38h-7.61C515.16,143.42,514.58,142.9,514.58,142.26z M515.88,134.41
						c-0.14,0-0.25,0.11-0.25,0.23v7.62c0,0.13,0.12,0.23,0.25,0.23h7.61c0.05,0,0.07-0.01,0.07-0.01s0.01-0.03-0.01-0.07
						l-2.43-7.67c-0.05-0.17-0.29-0.33-0.49-0.33H515.88z"/>
				</g>
			</g>
			<g>
				<g>
					<path class="st1" d="M505.81,143.04c-0.2-0.24-0.26-0.56-0.16-0.88l2.43-7.67c0.18-0.56,0.83-1.01,1.48-1.01h4.75
						c0.71,0,1.29,0.52,1.29,1.16v7.62c0,0.64-0.58,1.16-1.29,1.16h-7.61C506.34,143.42,506.01,143.28,505.81,143.04z
						 M509.57,134.41c-0.19,0-0.44,0.16-0.49,0.33l-2.43,7.67c-0.01,0.04-0.01,0.06-0.01,0.06s0.03,0.01,0.07,0.01h7.61
						c0.14,0,0.25-0.11,0.25-0.23v-7.62c0-0.13-0.12-0.23-0.25-0.23h-4.75V134.41z"/>
				</g>
			</g>
		</g>
		<rect x="514.12" y="126.71" class="st1" width="1.96" height="3.92"/>
		<polygon class="st3" points="509.73,118.68 511.02,117.58 506.9,114.81 502.77,112.04 505.61,115.9 508.45,119.77 		"/>
		<path class="st0" d="M502.15,113.11c0.49,0.46,1.29,0.48,1.79,0.05c0.51-0.43,0.54-1.16,0.05-1.62c-0.49-0.46-1.29-0.48-1.79-0.05
			C501.69,111.93,501.66,112.65,502.15,113.11z"/>
		<path class="st4" d="M504,111.54c-0.06-0.06-0.13-0.12-0.21-0.16c0.08,0.37-0.05,0.77-0.38,1.05c-0.45,0.38-1.1,0.41-1.59,0.11
			c0.04,0.21,0.15,0.4,0.32,0.57c0.49,0.46,1.29,0.48,1.79,0.05C504.45,112.73,504.48,112,504,111.54z"/>
		<path class="st5" d="M513.41,126.24c0,0.84,0.76,1.52,1.68,1.52c0.93,0,1.68-0.68,1.68-1.52s-0.76-1.52-1.68-1.52
			C514.16,124.72,513.41,125.4,513.41,126.24z"/>
		<g>
			<path class="st1" d="M515.1,129.15c1.6,0,2.9,1.17,2.9,2.61h-5.8C512.2,130.32,513.49,129.15,515.1,129.15z"/>
		</g>
		<rect x="508.79" y="131.76" class="st1" width="12.61" height="1.95"/>
		<g>
			<path class="st6" d="M516.49,125.12c-4.79,4.07-12.36,3.88-16.89-0.44l17.37-14.75C521.51,114.25,521.29,121.05,516.49,125.12z"
				/>
		</g>
		<path class="st4" d="M519.68,114.04c0.05,2.91-1.21,5.84-3.75,8c-4.07,3.46-10.15,3.84-14.66,1.23l-1.67,1.42
			c4.53,4.32,12.09,4.51,16.89,0.44C519.95,122.19,521.02,117.85,519.68,114.04z"/>
	</g>
	<g id="Star_14_">
		<g>
			<path class="st0" d="M572.09,76.97c-1.99,0.9-4.4,0.18-5.39-1.61c0.99,1.78,0.19,3.96-1.78,4.85c1.99-0.9,4.4-0.18,5.39,1.61
				C569.3,80.04,570.1,77.87,572.09,76.97z"/>
		</g>
		<g>
			<path class="st0" d="M539.95,72.83c-1.19,0.66-2.75,0.33-3.49-0.73c0.74,1.07,0.38,2.47-0.82,3.13c1.19-0.66,2.75-0.33,3.49,0.73
				C538.4,74.89,538.76,73.49,539.95,72.83z"/>
		</g>
		<g>
			<path class="st0" d="M499.81,88.2c-0.88,0.49-2.03,0.25-2.57-0.54c0.55,0.79,0.27,1.83-0.61,2.32c0.88-0.49,2.03-0.25,2.57,0.54
				C498.65,89.73,498.93,88.69,499.81,88.2z"/>
		</g>
		<g>
			
				<ellipse transform="matrix(0.2503 -0.9682 0.9682 0.2503 263.7014 551.7935)" class="st0" cx="488.14" cy="105.63" rx="6.72" ry="1.73"/>
		</g>
	</g>
</g>
<path class="st7" d="M589.92,466.01c0,0,0.03-1.18,0.08-3.43l-0.08-0.5c-71.13-19.47-234.61-60.22-310.53-50.33
	c-106.91,13.93-144.61-76.24-152.8-149.19C118.62,191.66,69.64,71.26,5.6,71.94C3.75,71.96,1.88,72.08,0,72.3v386.65v7.06
	c19.49,10.9,50.12,17.62,87.6,21.37c144.19,14.45,316.17,17.21,409.13-13.38c21.27-7,48.62,20,93.2,13.75V466.01z"/>
</svg>
