<?xml version="1.0" encoding="utf-8"?>
<!-- Generator: Adobe Illustrator 23.0.0, SVG Export Plug-In . SVG Version: 6.00 Build 0)  -->
<svg version="1.1" id="Layer_1" xmlns="http://www.w3.org/2000/svg" xmlns:xlink="http://www.w3.org/1999/xlink" x="0px" y="0px"
	 viewBox="0 0 1366 3038" style="enable-background:new 0 0 1366 3038;" xml:space="preserve">
<style type="text/css">
	.st0{fill:url(#SVGID_1_);}
	.st1{opacity:0.46;fill:#FFFFFF;enable-background:new    ;}
	.st2{fill:#CCCCCC;}
	.st3{fill:#FFFFFF;}
	.st4{fill:#FCFCFC;}
	.st5{opacity:0.38;fill:#FFFFFF;enable-background:new    ;}
	.st6{opacity:0.26;fill:#FFFFFF;enable-background:new    ;}
	.st7{opacity:0.7;fill:#FFFFFF;enable-background:new    ;}
	.st8{opacity:0.19;fill:#FFFFFF;enable-background:new    ;}
	.st9{opacity:0.3;fill:#FFFFFF;enable-background:new    ;}
	.st10{fill:#C4C4C4;}
	.st11{fill:none;stroke:#FFFFFF;stroke-width:2;stroke-miterlimit:10;}
	.st12{opacity:0.4;fill:#FFFFFF;enable-background:new    ;}
	.st13{opacity:0.2;fill:#FCFCFC;enable-background:new    ;}
	.st14{fill:none;}
	.st15{opacity:0.1;enable-background:new    ;}
	.st16{opacity:0.3;fill:#FCFCFC;enable-background:new    ;}
	.st17{fill:#A8A8A8;}
	.st18{opacity:0.1;fill:#BBF9E7;enable-background:new    ;}
	.st19{fill:#DFD8D8;}
	.st20{fill:#4D4D4D;}
	.st21{opacity:0.1;fill:#FCFCFC;enable-background:new    ;}
	.st22{fill:#D2D3D4;}
	.st23{fill:#F15C4D;}
	.st24{fill:#9EDBF0;}
	.st25{fill:#7CD0E0;}
	.st26{fill:#F1607F;}
	.st27{fill:#002C40;}
	.st28{fill:#D8F0FA;}
</style>
<g>
	
		<radialGradient id="SVGID_1_" cx="259.8873" cy="-326.2428" r="1866.4174" gradientTransform="matrix(1 0 0 1.7183 0 1997.4683)" gradientUnits="userSpaceOnUse">
		<stop  offset="0" style="stop-color:#4D4D4D"/>
		<stop  offset="0.2681" style="stop-color:#2E2E2E"/>
		<stop  offset="0.5445" style="stop-color:#151515"/>
		<stop  offset="0.7966" style="stop-color:#050505"/>
		<stop  offset="1" style="stop-color:#000000"/>
	</radialGradient>
	<rect class="st0" width="1366" height="3038"/>
</g>
<g>
	<circle class="st1" cx="134.8" cy="489.8" r="1.1"/>
	<circle class="st1" cx="248.4" cy="519.8" r="2.3"/>
	<circle class="st1" cx="328.8" cy="512.7" r="2.3"/>
	<circle class="st1" cx="270.2" cy="552.3" r="2.3"/>
	<path class="st1" d="M161,566.7c-0.3-0.5-0.2-1.2,0.3-1.5s1.2-0.2,1.5,0.3s0.2,1.2-0.3,1.5"/>
	<g id="the_moon">
		<path class="st2" d="M414.2,473.9c-26.8,66-102.1,97.8-168.1,71c-45.1-18.3-74.2-59.1-79.6-104.2c-2.5-21,0.1-42.9,8.6-63.9
			c26.8-66,102.1-97.8,168.1-71c51.5,20.9,82.1,71.2,80.5,123.7C423.2,444.3,420.1,459.4,414.2,473.9z"/>
		<path class="st3" d="M414.2,473.9c-26.8,66-102.1,97.8-168.1,71c-45.1-18.3-74.2-59.1-79.6-104.2c0.5-14.9,3.5-29.9,9.4-44.4
			c26.8-66,102.1-97.8,168.1-71c45.1,18.3,74.2,59.1,79.6,104.2C423.2,444.3,420.1,459.4,414.2,473.9z"/>
		<path class="st2" d="M347,307.4c-1.1-0.9-2.6-1.1-3.9-1.6c-66-26.8-141.3,5-168.1,71s5,141.3,71,168.1s141.3-5,168.1-71
			c0,0,5-16.3-15.4-23s-98.9-38.6-64.1-67.4C334.7,383.5,389.8,340.8,347,307.4z"/>
		<path class="st4" d="M409.2,468.7c-22.8,56.3-79.7,90.5-136.8,82.8c-1.3-0.2-2.6-0.4-4-0.6c-8-1.3-16-3.5-23.9-6.6l-0.3-0.1
			c-0.5-0.2-1-0.4-1.6-0.6c-34.4-14-60-42.2-72.8-75.3c-0.3-0.8-0.6-1.5-0.9-2.3c-4.2-11.5-6.9-23.6-7.9-35.9c-0.2-2-0.3-4-0.4-6
			c-0.6-17.6,2.3-35.5,9.2-52.4c10.9-26.9,29.9-48.1,53.1-62c0.8-0.5,1.6-0.9,2.4-1.4c10.7-6.1,22.2-10.7,34.2-13.5
			c0.9-0.2,1.8-0.4,2.7-0.6c24.5-5.3,50.8-3.6,75.8,6.6c1.3,0.5,8.3,5.8,9.1,6.9c0,0,0,0.1,0.1,0.1l0,0c0,0.1,0.1,0.1,0.1,0.2
			c5.7,8.3,8.4,16.1,9,23.3c2.5,28.4-26.9,47.2-26.9,47.2c-14.2,11.8-9.5,24.1,2.4,35l0,0c17.3,15.8,49.7,28.5,61.7,32.5
			c7,2.3,11,5.7,13.3,9.2l0,0C411.3,461.7,409.2,468.7,409.2,468.7z"/>
	</g>
	<path class="st2" d="M178.3,472.8c6.9-16.9,24.9-26,42.1-22.1c-15.1-8.1-22.6-25.7-18.1-42.1c-8.3,13.8-24.8,20.5-40.4,16.6
		c15.6,9.1,22.6,28.5,15.6,45.7L178.3,472.8z"/>
	<path class="st4" d="M168.8,470.6c6.9-16.9,24.9-26,42.1-22.1c-15.1-8.1-22.6-25.7-18.1-42.1c-8.3,13.8-24.8,20.5-40.4,16.6
		c15.6,9,22.6,28.4,15.6,45.7L168.8,470.6z"/>
	<path class="st2" d="M262.3,294l2.5,5.8l3,7.1l-5.3,13.1l-0.8,2.1l-15.1,6.4L243,327l-0.1-0.1l-11.4-4.6l-3.2-7.6l-2.8-6.6
		c10.7-6.1,22.2-10.7,34.2-13.5L262.3,294z"/>
	<path class="st4" d="M264.3,305.5l-6.2,15.2l-7.1,3h-0.1L243,327l-15.2-6.2l-2-4.7l-2.8-6.6c0.8-0.5,1.6-0.9,2.4-1.4
		c10.7-6.1,22.2-10.7,34.2-13.5l2.5,5.9L264.3,305.5z"/>
</g>
<path class="st5" d="M761.6,457.3c1.3,0,2.5-0.9,2.7-2.2c0-0.1,0-0.3,0-0.4s0-0.3,0-0.4c0,0.1,0,0.3,0,0.4s0,0.3,0,0.4
	c0.2,1.3,1.2,2.3,2.6,2.4c-1.3,0-2.5,0.9-2.7,2.2c0,0.1,0,0.3,0,0.4s0,0.3,0,0.4c0-0.1,0-0.3,0-0.4s0-0.3,0-0.4
	C764.1,458.4,763,457.4,761.6,457.3z"/>
<path class="st5" d="M798.4,490.7c2.7,0.1,5-1.9,5.4-4.5c0-0.3,0.1-0.5,0.1-0.8s0-0.5,0-0.8c0,0.3-0.1,0.5-0.1,0.8s0,0.5,0,0.8
	c0.3,2.6,2.5,4.7,5.2,4.8c-2.7-0.1-5,1.9-5.4,4.5c0,0.3-0.1,0.5-0.1,0.8s0,0.5,0,0.8c0-0.3,0.1-0.5,0.1-0.8s0-0.5,0-0.8
	C803.3,492.9,801.1,490.8,798.4,490.7z"/>
<path class="st5" d="M666.8,401.1c0.7,0,1.3-0.5,1.4-1.1c0-0.1,0-0.1,0-0.2s0-0.1,0-0.2c0,0.1,0,0.1,0,0.2s0,0.1,0,0.2
	c0.1,0.6,0.6,1.2,1.3,1.2c-0.7,0-1.3,0.5-1.4,1.1c0,0.1,0,0.1,0,0.2s0,0.1,0,0.2c0-0.1,0-0.1,0-0.2s0-0.1,0-0.2
	C668,401.7,667.5,401.2,666.8,401.1z"/>
<path class="st5" d="M762.4,497.7c2,0.1,3.7-1.4,4.1-3.3c0-0.2,0-0.4,0.1-0.6c0-0.2,0-0.4,0-0.6c0,0.2,0,0.4-0.1,0.6
	c0,0.2,0,0.4,0,0.6c0.2,2,1.9,3.5,3.9,3.6c-2-0.1-3.7,1.4-4.1,3.3c0,0.2,0,0.4-0.1,0.6c0,0.2,0,0.4,0,0.6c0-0.2,0-0.4,0.1-0.6
	c0-0.2,0-0.4,0-0.6C766,499.3,764.4,497.7,762.4,497.7z"/>
<path class="st5" d="M654.7,447c1.3,0,2.5-0.9,2.7-2.2c0-0.1,0-0.3,0-0.4s0-0.3,0-0.4c0,0.1,0,0.3,0,0.4s0,0.3,0,0.4
	c0.2,1.3,1.2,2.3,2.6,2.4c-1.3,0-2.5,0.9-2.7,2.2c0,0.1,0,0.3,0,0.4s0,0.3,0,0.4c0-0.1,0-0.3,0-0.4s0-0.3,0-0.4
	C657.1,448,656,447,654.7,447z"/>
<path class="st6" d="M699,705.1c4.5,0,8.2-3.3,8.8-7.7c0.1-0.4,0.1-0.8,0.1-1.3s0-0.8-0.1-1.3c-0.1,0.4-0.1,0.8-0.1,1.3
	s0,0.8,0.1,1.3c0.6,4.3,4.3,7.7,8.8,7.7c-4.5,0-8.2,3.3-8.8,7.7c-0.1,0.4-0.1,0.8-0.1,1.3s0,0.8,0.1,1.3c0.1-0.4,0.1-0.8,0.1-1.3
	s0-0.8-0.1-1.3C707.3,708.5,703.5,705.1,699,705.1z"/>
<path class="st6" d="M639.4,718.4c3.4,0,6.2-2.5,6.6-5.8c0-0.3,0.1-0.6,0.1-1s0-0.6-0.1-1c0,0.3-0.1,0.6-0.1,1s0,0.6,0.1,1
	c0.5,3.3,3.3,5.8,6.6,5.8c-3.4,0-6.2,2.5-6.6,5.8c0,0.3-0.1,0.6-0.1,1s0,0.6,0.1,1c0-0.3,0.1-0.6,0.1-1s0-0.6-0.1-1
	C645.5,720.9,642.7,718.4,639.4,718.4z"/>
<path class="st5" d="M613.7,401.3c2,0.1,3.7-1.4,4.1-3.3c0-0.2,0-0.4,0.1-0.6c0-0.2,0-0.4,0-0.6c0,0.2,0,0.4-0.1,0.6
	c0,0.2,0,0.4,0,0.6c0.2,2,1.9,3.5,3.9,3.6c-2-0.1-3.7,1.4-4.1,3.3c0,0.2,0,0.4-0.1,0.6c0,0.2,0,0.4,0,0.6c0-0.2,0-0.4,0.1-0.6
	c0-0.2,0-0.4,0-0.6C617.4,402.9,615.8,401.3,613.7,401.3z"/>
<path class="st6" d="M416.5,607c2.5,0,4.6-1.9,5-4.3c0-0.2,0-0.5,0-0.7s0-0.5,0-0.7c0,0.2,0,0.5,0,0.7s0,0.5,0,0.7
	c0.4,2.5,2.5,4.3,5,4.3c-2.5,0-4.6,1.9-5,4.3c0,0.2,0,0.5,0,0.7s0,0.5,0,0.7c0-0.2,0-0.5,0-0.7s0-0.5,0-0.7
	C421.1,608.9,419,607,416.5,607z"/>
<path class="st5" d="M765.8,293.1c0.8,1.1,2.2,1.5,3.4,0.9c0.1-0.1,0.2-0.1,0.3-0.2s0.2-0.1,0.3-0.2c-0.1,0.1-0.2,0.1-0.3,0.2
	s-0.2,0.1-0.3,0.2c-1,0.9-1.2,2.4-0.4,3.5c-0.8-1.1-2.2-1.5-3.4-0.9c-0.1,0.1-0.2,0.1-0.3,0.2s-0.2,0.1-0.3,0.2
	c0.1-0.1,0.2-0.1,0.3-0.2s0.2-0.1,0.3-0.2C766.4,295.7,766.6,294.2,765.8,293.1z"/>
<path class="st5" d="M760.3,342.4c1.5,2.2,4.4,3,6.8,1.8c0.2-0.1,0.4-0.2,0.7-0.4c0.2-0.1,0.4-0.3,0.6-0.5c-0.2,0.1-0.4,0.2-0.7,0.4
	c-0.2,0.1-0.4,0.3-0.6,0.5c-1.9,1.8-2.3,4.7-0.8,7c-1.5-2.2-4.4-3-6.8-1.8c-0.2,0.1-0.4,0.2-0.7,0.4s-0.4,0.3-0.6,0.5
	c0.2-0.1,0.4-0.2,0.7-0.4s0.4-0.3,0.6-0.5C761.5,347.6,761.8,344.7,760.3,342.4z"/>
<path class="st5" d="M733.6,317.4c1.1,1.7,3.3,2.2,5.1,1.3c0.2-0.1,0.3-0.2,0.5-0.3c0.2-0.1,0.3-0.2,0.5-0.4
	c-0.2,0.1-0.3,0.2-0.5,0.3c-0.2,0.1-0.3,0.2-0.5,0.4c-1.5,1.3-1.8,3.6-0.6,5.2c-1.1-1.7-3.3-2.2-5.1-1.3c-0.2,0.1-0.3,0.2-0.5,0.3
	c-0.2,0.1-0.3,0.2-0.5,0.4c0.2-0.1,0.3-0.2,0.5-0.3c0.2-0.1,0.3-0.2,0.5-0.4C734.4,321.3,734.7,319,733.6,317.4z"/>
<path class="st5" d="M641.4,238.2c1.5,2.2,4.4,2.9,6.8,1.8c0.2-0.1,0.4-0.2,0.7-0.4s0.4-0.3,0.6-0.5c-0.2,0.1-0.4,0.2-0.7,0.4
	c-0.2,0.1-0.4,0.3-0.6,0.5c-1.9,1.8-2.3,4.7-0.8,7c-1.5-2.2-4.4-2.9-6.8-1.8c-0.2,0.1-0.4,0.2-0.7,0.4s-0.4,0.3-0.6,0.5
	c0.2-0.1,0.4-0.2,0.7-0.4s0.4-0.3,0.6-0.5C642.5,243.4,642.9,240.4,641.4,238.2z"/>
<path class="st3" d="M1223.6,31.9c0.6-1.2,0.2-2.7-0.9-3.4c-0.1-0.1-0.2-0.1-0.3-0.2c-0.1-0.1-0.2-0.1-0.3-0.1
	c0.1,0.1,0.2,0.1,0.3,0.2c0.1,0.1,0.2,0.1,0.3,0.1c1.3,0.4,2.6-0.2,3.2-1.4c-0.6,1.2-0.2,2.7,0.9,3.4c0.1,0.1,0.2,0.1,0.3,0.2
	c0.1,0.1,0.2,0.1,0.3,0.1c-0.1-0.1-0.2-0.1-0.3-0.2c-0.1-0.1-0.2-0.1-0.3-0.1C1225.6,30.1,1224.2,30.7,1223.6,31.9z"/>
<path class="st3" d="M1269.1,12.1c1.2-2.4,0.3-5.3-1.8-6.8c-0.2-0.1-0.4-0.3-0.7-0.4s-0.5-0.2-0.7-0.3c0.2,0.1,0.4,0.3,0.7,0.4
	s0.5,0.2,0.7,0.3c2.5,0.8,5.3-0.3,6.4-2.8c-1.2,2.4-0.3,5.3,1.8,6.8c0.2,0.1,0.4,0.3,0.7,0.4s0.5,0.2,0.7,0.3
	c-0.2-0.1-0.4-0.3-0.7-0.4s-0.5-0.2-0.7-0.3C1273,8.5,1270.3,9.6,1269.1,12.1z"/>
<path class="st3" d="M1205,104.5c0.3-0.6,0.1-1.3-0.5-1.7c-0.1,0-0.1-0.1-0.2-0.1s-0.1-0.1-0.2-0.1c0.1,0,0.1,0.1,0.2,0.1
	s0.1,0.1,0.2,0.1c0.6,0.2,1.3-0.1,1.6-0.7c-0.3,0.6-0.1,1.3,0.5,1.7c0.1,0,0.1,0.1,0.2,0.1s0.1,0.1,0.2,0.1c-0.1,0-0.1-0.1-0.2-0.1
	s-0.1-0.1-0.2-0.1C1206,103.6,1205.3,103.9,1205,104.5z"/>
<path class="st3" d="M1260.7,47.8c0.9-1.8,0.3-4-1.4-5.1c-0.2-0.1-0.3-0.2-0.5-0.3s-0.3-0.2-0.5-0.2c0.2,0.1,0.3,0.2,0.5,0.3
	s0.3,0.2,0.5,0.2c1.9,0.6,4-0.3,4.8-2.1c-0.9,1.8-0.3,4,1.4,5.1c0.2,0.1,0.3,0.2,0.5,0.3s0.3,0.2,0.5,0.2c-0.2-0.1-0.3-0.2-0.5-0.3
	s-0.3-0.2-0.5-0.2C1263.7,45.1,1261.6,45.9,1260.7,47.8z"/>
<path class="st3" d="M1241.8,134.4c0.6-1.2,0.2-2.7-0.9-3.4c-0.1-0.1-0.2-0.1-0.3-0.2s-0.2-0.1-0.3-0.1c0.1,0.1,0.2,0.1,0.3,0.2
	s0.2,0.1,0.3,0.1c1.3,0.4,2.6-0.2,3.2-1.4c-0.6,1.2-0.2,2.7,0.9,3.4c0.1,0.1,0.2,0.1,0.3,0.2s0.2,0.1,0.3,0.1
	c-0.1-0.1-0.2-0.1-0.3-0.2s-0.2-0.1-0.3-0.1C1243.8,132.6,1242.4,133.1,1241.8,134.4z"/>
<path class="st3" d="M1183.4,152.9c0.9-1.8,0.3-4-1.4-5.1c-0.2-0.1-0.3-0.2-0.5-0.3s-0.3-0.1-0.5-0.2c0.2,0.1,0.3,0.2,0.5,0.3
	s0.3,0.1,0.5,0.2c1.9,0.6,4-0.3,4.8-2.1c-0.9,1.8-0.3,4,1.4,5.1c0.2,0.1,0.3,0.2,0.5,0.3s0.3,0.1,0.5,0.2c-0.2-0.1-0.3-0.2-0.5-0.3
	s-0.3-0.1-0.5-0.2C1186.3,150.3,1184.3,151.1,1183.4,152.9z"/>
<path class="st3" d="M1124.3-9.6c0.1,0.3,0.1,0.5,0.2,0.7c0-0.3,0-0.5-0.1-0.8"/>
<path class="st3" d="M1084.4,0.2c2-0.4,3.4-2.1,3.3-4.1c0-0.2,0-0.4-0.1-0.6s-0.1-0.4-0.1-0.6c0,0.2,0,0.4,0.1,0.6s0.1,0.4,0.1,0.5
	c0.6,1.9,2.5,3,4.5,2.7c-2,0.4-3.4,2.1-3.3,4.1c0,0.2,0,0.4,0.1,0.6s0.1,0.4,0.1,0.5c0-0.2,0-0.4-0.1-0.6s-0.1-0.4-0.1-0.5
	C1088.3,1,1086.4-0.2,1084.4,0.2z"/>
<path class="st3" d="M1046,60.9c2.7-0.5,4.5-2.8,4.4-5.5c0-0.3,0-0.5-0.1-0.8s-0.1-0.5-0.2-0.7c0,0.3,0,0.5,0.1,0.8s0.1,0.5,0.2,0.7
	c0.8,2.5,3.4,4.1,6,3.6c-2.7,0.5-4.5,2.8-4.4,5.5c0,0.3,0,0.5,0.1,0.8s0.1,0.5,0.2,0.7c0-0.3,0-0.5-0.1-0.8s-0.1-0.5-0.2-0.7
	C1051.2,62,1048.6,60.4,1046,60.9z"/>
<path class="st7" d="M425.6,320.4c1.6,2.2,4.6,2.9,6.9,1.6c0.2-0.1,0.4-0.3,0.6-0.4s0.4-0.3,0.6-0.5c-0.2,0.1-0.4,0.3-0.6,0.4
	s-0.4,0.3-0.6,0.5c-1.9,1.9-2.2,4.9-0.6,7.1c-1.6-2.2-4.6-2.9-6.9-1.6c-0.2,0.1-0.4,0.3-0.6,0.4s-0.4,0.3-0.6,0.5
	c0.2-0.1,0.4-0.3,0.6-0.4s0.4-0.3,0.6-0.5C426.9,325.7,427.2,322.6,425.6,320.4z"/>
<path class="st5" d="M1250.1,1005.8c1.2,0.7,2.6,0.3,3.4-0.7c0.1-0.1,0.2-0.2,0.2-0.3c0.1-0.1,0.1-0.2,0.2-0.3
	c-0.1,0.1-0.2,0.2-0.2,0.3c-0.1,0.1-0.1,0.2-0.2,0.3c-0.5,1.2,0,2.6,1.2,3.3c-1.2-0.7-2.6-0.3-3.4,0.7c-0.1,0.1-0.2,0.2-0.2,0.3
	c-0.1,0.1-0.1,0.2-0.2,0.3c0.1-0.1,0.2-0.2,0.2-0.3c0.1-0.1,0.1-0.2,0.2-0.3C1251.8,1007.9,1251.3,1006.5,1250.1,1005.8z"/>
<path class="st5" d="M1192.9,911.6c0.6,0.3,1.3,0.2,1.7-0.3c0,0,0.1-0.1,0.1-0.2c0-0.1,0.1-0.1,0.1-0.2c0,0-0.1,0.1-0.1,0.2
	c0,0.1-0.1,0.1-0.1,0.2c-0.2,0.6,0,1.3,0.6,1.7c-0.6-0.3-1.3-0.2-1.7,0.3c0,0-0.1,0.1-0.1,0.2s-0.1,0.1-0.1,0.2c0,0,0.1-0.1,0.1-0.2
	c0-0.1,0.1-0.1,0.1-0.2C1193.7,912.7,1193.5,912,1192.9,911.6z"/>
<path class="st5" d="M1231.8,1041.8c1.8,1,4,0.5,5.2-1c0.1-0.2,0.2-0.3,0.3-0.5c0.1-0.2,0.2-0.3,0.3-0.5c-0.1,0.2-0.2,0.3-0.3,0.5
	c-0.1,0.2-0.2,0.3-0.3,0.5c-0.7,1.8,0,4,1.8,5c-1.8-1-4-0.5-5.2,1c-0.1,0.2-0.2,0.3-0.3,0.5s-0.2,0.3-0.3,0.5
	c0.1-0.2,0.2-0.3,0.3-0.5c0.1-0.2,0.2-0.3,0.3-0.5C1234.3,1044.9,1233.6,1042.8,1231.8,1041.8z"/>
<path class="st5" d="M1160.6,946.3c1.2,0.7,2.6,0.3,3.4-0.7c0.1-0.1,0.2-0.2,0.2-0.3c0.1-0.1,0.1-0.2,0.2-0.3
	c-0.1,0.1-0.2,0.2-0.2,0.3c-0.1,0.1-0.1,0.2-0.2,0.3c-0.5,1.2,0,2.6,1.2,3.3c-1.2-0.7-2.6-0.3-3.4,0.7c-0.1,0.1-0.2,0.2-0.2,0.3
	c-0.1,0.1-0.1,0.2-0.2,0.3c0.1-0.1,0.2-0.2,0.2-0.3c0.1-0.1,0.1-0.2,0.2-0.3C1162.3,948.4,1161.8,947,1160.6,946.3z"/>
<path class="st6" d="M1099,1156.2c4,2.1,8.8,0.9,11.4-2.6c0.3-0.3,0.5-0.7,0.7-1.1s0.4-0.8,0.5-1.2c-0.3,0.3-0.5,0.7-0.7,1.1
	s-0.4,0.8-0.5,1.2c-1.5,4.1,0.2,8.8,4.2,10.9c-4-2.1-8.8-0.9-11.4,2.6c-0.3,0.3-0.5,0.7-0.7,1.1s-0.4,0.8-0.5,1.2
	c0.3-0.3,0.5-0.7,0.7-1.1s0.4-0.8,0.5-1.2C1104.7,1163,1103,1158.3,1099,1156.2z"/>
<path class="st6" d="M1040.1,1183.8c3,1.6,6.6,0.7,8.6-1.9c0.2-0.3,0.3-0.5,0.5-0.8s0.3-0.6,0.4-0.9c-0.2,0.3-0.3,0.5-0.5,0.8
	s-0.3,0.6-0.4,0.9c-1.1,3.1,0.2,6.6,3.1,8.2c-3-1.6-6.6-0.7-8.6,1.9c-0.2,0.3-0.3,0.5-0.5,0.8s-0.3,0.6-0.4,0.9
	c0.2-0.3,0.3-0.5,0.5-0.8s0.3-0.6,0.4-0.9C1044.4,1188.9,1043.1,1185.4,1040.1,1183.8z"/>
<path class="st5" d="M1146.1,886.8c1.8,1,4,0.5,5.2-1c0.1-0.2,0.2-0.3,0.3-0.5c0.1-0.2,0.2-0.3,0.3-0.5c-0.1,0.2-0.2,0.3-0.3,0.5
	s-0.2,0.3-0.3,0.5c-0.7,1.8,0,4,1.8,5c-1.8-1-4-0.5-5.2,1c-0.1,0.2-0.2,0.3-0.3,0.5c-0.1,0.2-0.2,0.3-0.3,0.5
	c0.1-0.2,0.2-0.3,0.3-0.5c0.1-0.2,0.2-0.3,0.3-0.5C1148.5,889.9,1147.8,887.8,1146.1,886.8z"/>
<path class="st6" d="M875.2,1019.4c2.3,1.2,5,0.5,6.5-1.5c0.1-0.2,0.3-0.4,0.4-0.6c0.1-0.2,0.2-0.4,0.3-0.7
	c-0.1,0.2-0.3,0.4-0.4,0.6c-0.1,0.2-0.2,0.4-0.3,0.7c-0.8,2.3,0.1,5,2.4,6.2c-2.3-1.2-5-0.5-6.5,1.5c-0.1,0.2-0.3,0.4-0.4,0.6
	c-0.1,0.2-0.2,0.4-0.3,0.7c0.1-0.2,0.3-0.4,0.4-0.6c0.1-0.2,0.2-0.4,0.3-0.7C878.4,1023.3,877.4,1020.6,875.2,1019.4z"/>
<path class="st5" d="M1331.1,862.9c0.2,1.3,1.3,2.3,2.6,2.4c0.1,0,0.3,0,0.4,0s0.3,0,0.4-0.1c-0.1,0-0.3,0-0.4,0s-0.3,0-0.4,0.1
	c-1.3,0.3-2.2,1.5-2,2.9c-0.2-1.3-1.3-2.3-2.6-2.4c-0.1,0-0.3,0-0.4,0s-0.3,0-0.4,0.1c0.1,0,0.3,0,0.4,0s0.3,0,0.4-0.1
	C1330.4,865.5,1331.3,864.2,1331.1,862.9z"/>
<path class="st5" d="M1303.1,903.8c0.3,2.7,2.5,4.7,5.2,4.8c0.3,0,0.5,0,0.8,0s0.5-0.1,0.8-0.1c-0.3,0-0.5,0-0.8,0s-0.5,0.1-0.8,0.1
	c-2.5,0.7-4.3,3.1-4,5.8c-0.3-2.7-2.5-4.7-5.2-4.8c-0.3,0-0.5,0-0.8,0s-0.5,0.1-0.8,0.1c0.3,0,0.5,0,0.8,0s0.5-0.1,0.8-0.1
	C1301.6,909,1303.4,906.5,1303.1,903.8z"/>
<path class="st5" d="M1291.3,869.1c0.2,2,1.9,3.5,3.9,3.6c0.2,0,0.4,0,0.6,0s0.4-0.1,0.6-0.1c-0.2,0-0.4,0-0.6,0s-0.4,0.1-0.6,0.1
	c-1.9,0.5-3.2,2.3-3,4.3c-0.2-2-1.9-3.5-3.9-3.6c-0.2,0-0.4,0-0.6,0s-0.4,0.1-0.6,0.1c0.2,0,0.4,0,0.6,0s0.4-0.1,0.6-0.1
	C1290.2,873,1291.5,871.1,1291.3,869.1z"/>
<path class="st5" d="M1247.2,755.9c0.3,2.7,2.5,4.7,5.2,4.8c0.3,0,0.5,0,0.8,0s0.5-0.1,0.8-0.1c-0.3,0-0.5,0-0.8,0s-0.5,0.1-0.8,0.1
	c-2.6,0.7-4.3,3.1-4,5.8c-0.3-2.7-2.5-4.7-5.2-4.8c-0.3,0-0.5,0-0.8,0s-0.5,0.1-0.8,0.1c0.3,0,0.5,0,0.8,0s0.5-0.1,0.8-0.1
	C1245.8,761,1247.5,758.6,1247.2,755.9z"/>
<path class="st7" d="M1018.1,770.9c0.4,2.7,2.7,4.7,5.3,4.7c0.3,0,0.5,0,0.8,0c0.3,0,0.5-0.1,0.8-0.2c-0.3,0-0.5,0-0.8,0
	s-0.5,0.1-0.8,0.2c-2.6,0.7-4.3,3.3-3.9,6c-0.4-2.7-2.7-4.7-5.3-4.7c-0.3,0-0.5,0-0.8,0s-0.5,0.1-0.8,0.2c0.3,0,0.5,0,0.8,0
	s0.5-0.1,0.8-0.2C1016.8,776.1,1018.5,773.6,1018.1,770.9z"/>
<path class="st5" d="M1240.9,662.6c0.6,0.3,1.3,0.2,1.7-0.3c0,0,0.1-0.1,0.1-0.2c0-0.1,0.1-0.1,0.1-0.2c0,0-0.1,0.1-0.1,0.2
	c0,0.1-0.1,0.1-0.1,0.2c-0.2,0.6,0,1.3,0.6,1.7c-0.6-0.3-1.3-0.2-1.7,0.3c0,0-0.1,0.1-0.1,0.2s-0.1,0.1-0.1,0.2c0,0,0.1-0.1,0.1-0.2
	c0-0.1,0.1-0.1,0.1-0.2C1241.7,663.7,1241.5,663,1240.9,662.6z"/>
<path class="st5" d="M1208.6,697.3c1.2,0.7,2.6,0.3,3.4-0.7c0.1-0.1,0.2-0.2,0.2-0.3c0.1-0.1,0.1-0.2,0.2-0.3
	c-0.1,0.1-0.2,0.2-0.2,0.3c-0.1,0.1-0.1,0.2-0.2,0.3c-0.5,1.2,0,2.6,1.2,3.3c-1.2-0.7-2.6-0.3-3.4,0.7c-0.1,0.1-0.2,0.2-0.2,0.3
	c-0.1,0.1-0.1,0.2-0.2,0.3c0.1-0.1,0.2-0.2,0.2-0.3c0.1-0.1,0.1-0.2,0.2-0.3C1210.3,699.4,1209.8,698,1208.6,697.3z"/>
<path class="st5" d="M1194.1,637.8c1.8,1,4,0.5,5.2-1c0.1-0.2,0.2-0.3,0.3-0.5c0.1-0.2,0.2-0.3,0.3-0.5c-0.1,0.2-0.2,0.3-0.3,0.5
	s-0.2,0.3-0.3,0.5c-0.7,1.8,0,4,1.8,5c-1.8-1-4-0.5-5.2,1c-0.1,0.2-0.2,0.3-0.3,0.5c-0.1,0.2-0.2,0.3-0.3,0.5
	c0.1-0.2,0.2-0.3,0.3-0.5c0.1-0.2,0.2-0.3,0.3-0.5C1196.5,640.9,1195.8,638.8,1194.1,637.8z"/>
<path class="st6" d="M133.2,816.7c3.5,2.8,8.5,2.6,11.7-0.4c0.3-0.3,0.6-0.6,0.9-0.9c0.3-0.3,0.5-0.7,0.7-1
	c-0.3,0.3-0.6,0.6-0.9,0.9c-0.3,0.3-0.5,0.7-0.7,1c-2.3,3.8-1.5,8.7,2,11.5c-3.5-2.8-8.5-2.6-11.7,0.4c-0.3,0.3-0.6,0.6-0.9,0.9
	c-0.3,0.3-0.5,0.7-0.7,1c0.3-0.3,0.6-0.6,0.9-0.9c0.3-0.3,0.5-0.7,0.7-1C137.5,824.5,136.7,819.6,133.2,816.7z"/>
<path class="st6" d="M78.5,789.5c2.6,2.1,6.4,1.9,8.8-0.3c0.2-0.2,0.4-0.4,0.7-0.7c0.2-0.3,0.4-0.5,0.5-0.8
	c-0.2,0.2-0.4,0.4-0.7,0.7c-0.2,0.3-0.4,0.5-0.5,0.8c-1.7,2.8-1.1,6.5,1.5,8.6c-2.6-2.1-6.4-1.9-8.8,0.3c-0.2,0.2-0.4,0.4-0.7,0.7
	c-0.2,0.3-0.4,0.5-0.5,0.8c0.2-0.2,0.4-0.4,0.7-0.7c0.2-0.3,0.4-0.5,0.5-0.8C81.7,795.3,81.1,791.6,78.5,789.5z"/>
<path class="st5" d="M344.4,1475.5c0.5,1.3,1.8,1.9,3.1,1.6c0.1,0,0.2-0.1,0.4-0.1c0.1-0.1,0.2-0.1,0.3-0.2c-0.1,0-0.2,0.1-0.4,0.1
	s-0.2,0.1-0.3,0.2c-1.1,0.6-1.7,2.1-1.2,3.3c-0.5-1.3-1.8-1.9-3.1-1.6c-0.1,0-0.2,0.1-0.4,0.1s-0.2,0.1-0.3,0.2
	c0.1,0,0.2-0.1,0.4-0.1s0.2-0.1,0.3-0.2C344.4,1478.2,344.9,1476.8,344.4,1475.5z"/>
<path class="st5" d="M359.3,1366.3c0.3,0.6,0.9,1,1.5,0.8c0.1,0,0.1,0,0.2-0.1c0.1,0,0.1-0.1,0.2-0.1c-0.1,0-0.1,0-0.2,0.1
	c-0.1,0-0.1,0.1-0.2,0.1c-0.6,0.3-0.8,1-0.6,1.7c-0.3-0.6-0.9-1-1.5-0.8c-0.1,0-0.1,0-0.2,0.1c-0.1,0-0.1,0.1-0.2,0.1
	c0.1,0,0.1,0,0.2-0.1c0.1,0,0.1-0.1,0.2-0.1C359.2,1367.6,359.5,1366.9,359.3,1366.3z"/>
<path class="st5" d="M307.5,1491.9c0.7,1.9,2.7,2.9,4.7,2.4c0.2,0,0.4-0.1,0.5-0.2c0.2-0.1,0.4-0.2,0.5-0.2c-0.2,0-0.4,0.1-0.5,0.2
	c-0.2,0.1-0.4,0.2-0.5,0.2c-1.7,1-2.5,3.1-1.8,5c-0.7-1.9-2.7-2.9-4.7-2.4c-0.2,0-0.4,0.1-0.5,0.2c-0.2,0.1-0.4,0.2-0.5,0.2
	c0.2,0,0.4-0.1,0.5-0.2c0.2-0.1,0.4-0.2,0.5-0.2C307.5,1495.9,308.3,1493.8,307.5,1491.9z"/>
<path class="st5" d="M312.3,1372.9c0.5,1.3,1.8,1.9,3.1,1.6c0.1,0,0.2-0.1,0.4-0.1c0.1-0.1,0.2-0.1,0.3-0.2c-0.1,0-0.2,0.1-0.4,0.1
	s-0.2,0.1-0.3,0.2c-1.1,0.6-1.7,2.1-1.2,3.3c-0.5-1.3-1.8-1.9-3.1-1.6c-0.1,0-0.2,0.1-0.4,0.1c-0.1,0.1-0.2,0.1-0.3,0.2
	c0.1,0,0.2-0.1,0.4-0.1s0.2-0.1,0.3-0.2C312.3,1375.6,312.8,1374.2,312.3,1372.9z"/>
<path class="st6" d="M132.3,1453.2c1.8,4.2,6.3,6.3,10.5,5.2c0.4-0.1,0.8-0.2,1.2-0.4c0.4-0.2,0.8-0.4,1.1-0.6
	c-0.4,0.1-0.8,0.2-1.2,0.4c-0.4,0.2-0.8,0.4-1.1,0.6c-3.8,2.3-5.4,7-3.6,11.1c-1.8-4.2-6.3-6.3-10.5-5.2c-0.4,0.1-0.8,0.2-1.2,0.4
	c-0.4,0.2-0.8,0.4-1.1,0.6c0.4-0.1,0.8-0.2,1.2-0.4s0.8-0.4,1.1-0.6C132.5,1462.1,134.1,1457.3,132.3,1453.2z"/>
<path class="st6" d="M96.9,1403.4c1.3,3.1,4.7,4.7,7.9,3.9c0.3-0.1,0.6-0.2,0.9-0.3s0.6-0.3,0.8-0.4c-0.3,0.1-0.6,0.2-0.9,0.3
	s-0.6,0.3-0.8,0.4c-2.8,1.7-4,5.2-2.7,8.3c-1.3-3.1-4.7-4.7-7.9-3.9c-0.3,0.1-0.6,0.2-0.9,0.3s-0.6,0.3-0.8,0.4
	c0.3-0.1,0.6-0.2,0.9-0.3s0.6-0.3,0.8-0.4C97,1410,98.2,1406.5,96.9,1403.4z"/>
<path class="st5" d="M338.5,1317.4c0.7,1.9,2.7,2.9,4.7,2.4c0.2,0,0.4-0.1,0.5-0.2c0.2-0.1,0.4-0.2,0.5-0.2c-0.2,0-0.4,0.1-0.5,0.2
	c-0.2,0.1-0.4,0.2-0.5,0.2c-1.7,1-2.5,3.1-1.8,5c-0.7-1.9-2.7-2.9-4.7-2.4c-0.2,0-0.4,0.1-0.5,0.2c-0.2,0.1-0.4,0.2-0.5,0.2
	c0.2,0,0.4-0.1,0.5-0.2c0.2-0.1,0.4-0.2,0.5-0.2C338.4,1321.4,339.2,1319.3,338.5,1317.4z"/>
<path class="st6" d="M72.2,1171.8c1,2.3,3.6,3.6,5.9,2.9c0.2-0.1,0.4-0.1,0.7-0.2c0.2-0.1,0.4-0.2,0.6-0.3c-0.2,0.1-0.4,0.1-0.7,0.2
	s-0.4,0.2-0.6,0.3c-2.1,1.3-3,3.9-2.1,6.3c-1-2.3-3.6-3.6-5.9-2.9c-0.2,0.1-0.4,0.1-0.7,0.2c-0.2,0.1-0.4,0.2-0.6,0.3
	c0.2-0.1,0.4-0.1,0.7-0.2c0.2-0.1,0.4-0.2,0.6-0.3C72.3,1176.9,73.2,1174.2,72.2,1171.8z"/>
<path class="st5" d="M497.3,1415.4c-0.7,1.1-0.5,2.6,0.5,3.5c0.1,0.1,0.2,0.2,0.3,0.2s0.2,0.1,0.3,0.2c-0.1-0.1-0.2-0.2-0.3-0.2
	c-0.1-0.1-0.2-0.1-0.3-0.2c-1.2-0.6-2.6-0.2-3.4,1c0.7-1.1,0.5-2.6-0.5-3.5c-0.1-0.1-0.2-0.2-0.3-0.2s-0.2-0.1-0.3-0.2
	c0.1,0.1,0.2,0.2,0.3,0.2s0.2,0.1,0.3,0.2C495.1,1417,496.6,1416.6,497.3,1415.4z"/>
<path class="st5" d="M449.7,1429.6c-1.5,2.3-1,5.2,1,6.9c0.2,0.2,0.4,0.3,0.6,0.4s0.4,0.3,0.7,0.4c-0.2-0.2-0.4-0.3-0.6-0.4
	s-0.4-0.3-0.7-0.4c-2.4-1.1-5.3-0.3-6.7,2c1.5-2.3,1-5.2-1-6.9c-0.2-0.2-0.4-0.3-0.6-0.4s-0.4-0.3-0.7-0.4c0.2,0.2,0.4,0.3,0.6,0.4
	s0.4,0.3,0.7,0.4C445.4,1432.7,448.3,1431.9,449.7,1429.6z"/>
<path class="st5" d="M462.4,1395.2c-1.1,1.7-0.7,3.9,0.8,5.2c0.1,0.1,0.3,0.2,0.5,0.3s0.3,0.2,0.5,0.3c-0.1-0.1-0.3-0.2-0.5-0.3
	s-0.3-0.2-0.5-0.3c-1.8-0.8-4-0.2-5,1.5c1.1-1.7,0.7-3.9-0.8-5.2c-0.1-0.1-0.3-0.2-0.5-0.3c-0.2-0.1-0.3-0.2-0.5-0.3
	c0.1,0.1,0.3,0.2,0.5,0.3c0.2,0.1,0.3,0.2,0.5,0.3C459.1,1397.5,461.3,1396.9,462.4,1395.2z"/>
<path class="st5" d="M499.5,1279.5c-1.5,2.3-1,5.2,1,6.9c0.2,0.2,0.4,0.3,0.6,0.4s0.4,0.3,0.7,0.4c-0.2-0.2-0.4-0.3-0.6-0.4
	s-0.4-0.3-0.7-0.4c-2.4-1.1-5.3-0.3-6.7,2c1.5-2.3,1-5.2-1-6.9c-0.2-0.2-0.4-0.3-0.6-0.4s-0.4-0.3-0.7-0.4c0.2,0.2,0.4,0.3,0.6,0.4
	s0.4,0.3,0.7,0.4C495.1,1282.5,498,1281.7,499.5,1279.5z"/>
<path class="st7" d="M339.7,1112.7c-1.4,2.3-0.9,5.3,1.2,7c0.2,0.2,0.4,0.3,0.6,0.4s0.5,0.3,0.7,0.3c-0.2-0.2-0.4-0.3-0.6-0.4
	s-0.5-0.3-0.7-0.3c-2.5-1-5.4-0.2-6.8,2.2c1.4-2.3,0.9-5.3-1.2-7c-0.2-0.2-0.4-0.3-0.6-0.4s-0.5-0.3-0.7-0.3
	c0.2,0.2,0.4,0.3,0.6,0.4s0.5,0.3,0.7,0.3C335.4,1115.9,338.3,1115,339.7,1112.7z"/>
<path class="st5" d="M553.3,1203c0.3,0.6,0.9,1,1.5,0.8c0.1,0,0.1,0,0.2-0.1c0.1,0,0.1-0.1,0.2-0.1c-0.1,0-0.1,0-0.2,0.1
	c-0.1,0-0.1,0.1-0.2,0.1c-0.6,0.3-0.8,1-0.6,1.7c-0.3-0.6-0.9-1-1.5-0.8c-0.1,0-0.1,0-0.2,0.1s-0.1,0.1-0.2,0.1c0.1,0,0.1,0,0.2-0.1
	c0.1,0,0.1-0.1,0.2-0.1C553.3,1204.4,553.5,1203.7,553.3,1203z"/>
<path class="st5" d="M506.4,1209.7c0.5,1.3,1.8,1.9,3.1,1.6c0.1,0,0.2-0.1,0.4-0.1s0.2-0.1,0.3-0.2c-0.1,0-0.2,0.1-0.4,0.1
	s-0.2,0.1-0.3,0.2c-1.1,0.6-1.7,2.1-1.2,3.3c-0.5-1.3-1.8-1.9-3.1-1.6c-0.1,0-0.2,0.1-0.4,0.1s-0.2,0.1-0.3,0.2
	c0.1,0,0.2-0.1,0.4-0.1c0.1-0.1,0.2-0.1,0.3-0.2C506.3,1212.3,506.9,1210.9,506.4,1209.7z"/>
<path class="st5" d="M532.5,1154.2c0.7,1.9,2.7,2.9,4.7,2.4c0.2,0,0.4-0.1,0.5-0.2s0.3-0.2,0.5-0.2c-0.2,0-0.4,0.1-0.5,0.2
	c-0.2,0.1-0.3,0.2-0.5,0.2c-1.7,1-2.5,3.1-1.8,5c-0.7-1.9-2.7-2.9-4.7-2.4c-0.2,0-0.4,0.1-0.5,0.2c-0.2,0.1-0.3,0.2-0.5,0.2
	c0.2,0,0.4-0.1,0.5-0.2c0.2-0.1,0.3-0.2,0.5-0.2C532.5,1158.2,533.3,1156.1,532.5,1154.2z"/>
<path class="st6" d="M681,1512.1c4.5,0,8.2-3.3,8.8-7.7c0.1-0.4,0.1-0.8,0.1-1.3s0-0.8-0.1-1.3c-0.1,0.4-0.1,0.8-0.1,1.3
	s0,0.8,0.1,1.3c0.6,4.3,4.3,7.7,8.8,7.7c-4.5,0-8.2,3.3-8.8,7.7c-0.1,0.4-0.1,0.8-0.1,1.3s0,0.8,0.1,1.3c0.1-0.4,0.1-0.8,0.1-1.3
	s0-0.8-0.1-1.3C689.3,1515.4,685.5,1512.1,681,1512.1z"/>
<path class="st6" d="M621.4,1525.4c3.4,0,6.2-2.5,6.6-5.8c0-0.3,0.1-0.6,0.1-0.9s0-0.6-0.1-0.9c0,0.3-0.1,0.6-0.1,0.9s0,0.6,0.1,0.9
	c0.5,3.3,3.3,5.8,6.6,5.8c-3.4,0-6.2,2.5-6.6,5.8c0,0.3-0.1,0.6-0.1,0.9s0,0.6,0.1,0.9c0-0.3,0.1-0.6,0.1-0.9s0-0.6-0.1-0.9
	C627.5,1527.9,624.7,1525.4,621.4,1525.4z"/>
<path class="st5" d="M1228.1,2483.8c1.2,0.7,2.6,0.4,3.4-0.7c0.1-0.1,0.2-0.2,0.2-0.3c0.1-0.1,0.1-0.2,0.2-0.3
	c-0.1,0.1-0.2,0.2-0.2,0.3c-0.1,0.1-0.1,0.2-0.2,0.3c-0.5,1.2,0,2.6,1.2,3.3c-1.2-0.7-2.6-0.4-3.4,0.7c-0.1,0.1-0.2,0.2-0.2,0.3
	c-0.1,0.1-0.1,0.2-0.2,0.3c0.1-0.1,0.2-0.2,0.2-0.3c0.1-0.1,0.1-0.2,0.2-0.3C1229.8,2485.9,1229.3,2484.5,1228.1,2483.8z"/>
<path class="st5" d="M1174.9,1718.6c0.6,0.3,1.3,0.2,1.7-0.3c0-0.1,0.1-0.1,0.1-0.2s0.1-0.1,0.1-0.2c0,0.1-0.1,0.1-0.1,0.2
	s-0.1,0.1-0.1,0.2c-0.2,0.6,0,1.3,0.6,1.7c-0.6-0.3-1.3-0.2-1.7,0.3c0,0.1-0.1,0.1-0.1,0.2s-0.1,0.1-0.1,0.2c0-0.1,0.1-0.1,0.1-0.2
	s0.1-0.1,0.1-0.2C1175.7,1719.7,1175.5,1718.9,1174.9,1718.6z"/>
<path class="st5" d="M1209.8,2519.8c1.8,1,4,0.5,5.2-1c0.1-0.1,0.2-0.3,0.3-0.5c0.1-0.2,0.2-0.3,0.3-0.5c-0.1,0.1-0.2,0.3-0.3,0.5
	c-0.1,0.2-0.2,0.3-0.3,0.5c-0.7,1.8,0,4,1.8,5c-1.8-1-4-0.5-5.2,1c-0.1,0.1-0.2,0.3-0.3,0.5c-0.1,0.2-0.2,0.3-0.3,0.5
	c0.1-0.1,0.2-0.3,0.3-0.5c0.1-0.2,0.2-0.3,0.3-0.5C1212.3,2522.9,1211.6,2520.8,1209.8,2519.8z"/>
<path class="st5" d="M1142.6,1753.3c1.2,0.7,2.6,0.3,3.4-0.7c0.1-0.1,0.2-0.2,0.2-0.3c0.1-0.1,0.1-0.2,0.2-0.3
	c-0.1,0.1-0.2,0.2-0.2,0.3c-0.1,0.1-0.1,0.2-0.2,0.3c-0.5,1.2,0,2.6,1.2,3.3c-1.2-0.7-2.6-0.3-3.4,0.7c-0.1,0.1-0.2,0.2-0.2,0.3
	s-0.1,0.2-0.2,0.3c0.1-0.1,0.2-0.2,0.2-0.3c0.1-0.1,0.1-0.2,0.2-0.3C1144.3,1755.4,1143.8,1754,1142.6,1753.3z"/>
<path class="st6" d="M1074,2608.2c4,2.1,8.8,0.9,11.4-2.6c0.3-0.3,0.5-0.7,0.7-1.1s0.4-0.8,0.5-1.1c-0.3,0.3-0.5,0.7-0.7,1.1
	c-0.2,0.4-0.4,0.8-0.5,1.1c-1.5,4.1,0.2,8.8,4.2,10.9c-4-2.1-8.8-0.9-11.4,2.6c-0.3,0.3-0.5,0.7-0.7,1.1c-0.2,0.4-0.4,0.8-0.5,1.1
	c0.3-0.3,0.5-0.7,0.7-1.1c0.2-0.4,0.4-0.8,0.5-1.1C1079.7,2615,1078,2610.3,1074,2608.2z"/>
<path class="st6" d="M1015.1,2591.8c3,1.6,6.6,0.7,8.6-1.9c0.2-0.3,0.3-0.5,0.5-0.8c0.2-0.3,0.3-0.6,0.4-0.9
	c-0.2,0.3-0.3,0.5-0.5,0.8s-0.3,0.6-0.4,0.9c-1.1,3.1,0.2,6.6,3.1,8.2c-3-1.6-6.6-0.7-8.6,1.9c-0.2,0.3-0.3,0.5-0.5,0.8
	s-0.3,0.6-0.4,0.9c0.2-0.3,0.3-0.5,0.5-0.8s0.3-0.6,0.4-0.9C1019.4,2596.9,1018.1,2593.4,1015.1,2591.8z"/>
<path class="st5" d="M967,1690.8c1.8,1,4,0.5,5.2-1c0.1-0.2,0.2-0.3,0.3-0.5s0.2-0.3,0.3-0.5c-0.1,0.2-0.2,0.3-0.3,0.5
	s-0.2,0.3-0.3,0.5c-0.7,1.8,0,4,1.8,5c-1.8-1-4-0.5-5.2,1c-0.1,0.2-0.2,0.3-0.3,0.5s-0.2,0.3-0.3,0.5c0.1-0.2,0.2-0.3,0.3-0.5
	s0.2-0.3,0.3-0.5C969.5,1693.9,968.8,1691.8,967,1690.8z"/>
<path class="st6" d="M857.2,1782.4c2.3,1.2,5,0.5,6.5-1.5c0.1-0.2,0.3-0.4,0.4-0.6c0.1-0.2,0.2-0.4,0.3-0.7
	c-0.1,0.2-0.3,0.4-0.4,0.6c-0.1,0.2-0.2,0.4-0.3,0.7c-0.8,2.3,0.1,5,2.4,6.2c-2.3-1.2-5-0.5-6.5,1.5c-0.1,0.2-0.3,0.4-0.4,0.6
	c-0.1,0.2-0.2,0.4-0.3,0.7c0.1-0.2,0.3-0.4,0.4-0.6c0.1-0.2,0.2-0.4,0.3-0.7C860.4,1786.3,859.4,1783.6,857.2,1782.4z"/>
<path class="st5" d="M1313.1,1669.9c0.2,1.3,1.3,2.3,2.6,2.4c0.1,0,0.3,0,0.4,0s0.3,0,0.4-0.1c-0.1,0-0.3,0-0.4,0s-0.3,0-0.4,0.1
	c-1.3,0.3-2.2,1.5-2,2.9c-0.2-1.3-1.3-2.3-2.6-2.4c-0.1,0-0.3,0-0.4,0s-0.3,0-0.4,0.1c0.1,0,0.3,0,0.4,0s0.3,0,0.4-0.1
	C1312.4,1672.5,1313.3,1671.2,1313.1,1669.9z"/>
<path class="st5" d="M1285.1,1710.8c0.3,2.7,2.5,4.7,5.2,4.8c0.3,0,0.5,0,0.8,0s0.5-0.1,0.8-0.1c-0.3,0-0.5,0-0.8,0
	s-0.5,0.1-0.8,0.1c-2.5,0.7-4.3,3.1-4,5.8c-0.3-2.7-2.5-4.7-5.2-4.8c-0.3,0-0.5,0-0.8,0s-0.5,0.1-0.8,0.1c0.3,0,0.5,0,0.8,0
	s0.5-0.1,0.8-0.1C1283.6,1716,1285.4,1713.5,1285.1,1710.8z"/>
<path class="st5" d="M1273.3,1676.1c0.2,2,1.9,3.5,3.9,3.6c0.2,0,0.4,0,0.6,0s0.4-0.1,0.6-0.1c-0.2,0-0.4,0-0.6,0s-0.4,0.1-0.6,0.1
	c-1.9,0.5-3.2,2.3-3,4.3c-0.2-2-1.9-3.5-3.9-3.6c-0.2,0-0.4,0-0.6,0s-0.4,0.1-0.6,0.1c0.2,0,0.4,0,0.6,0s0.4-0.1,0.6-0.1
	C1272.2,1680,1273.5,1678.1,1273.3,1676.1z"/>
<path class="st5" d="M1229.2,1562.9c0.3,2.7,2.5,4.7,5.2,4.8c0.3,0,0.5,0,0.8,0s0.5-0.1,0.8-0.1c-0.3,0-0.5,0-0.8,0
	s-0.5,0.1-0.8,0.1c-2.6,0.7-4.3,3.1-4,5.8c-0.3-2.7-2.5-4.7-5.2-4.8c-0.3,0-0.5,0-0.8,0s-0.5,0.1-0.8,0.1c0.3,0,0.5,0,0.8,0
	s0.5-0.1,0.8-0.1C1227.8,1568,1229.5,1565.6,1229.2,1562.9z"/>
<path class="st7" d="M1000.1,1533.9c0.4,2.7,2.7,4.7,5.3,4.7c0.3,0,0.5,0,0.8-0.1s0.5-0.1,0.8-0.2c-0.3,0-0.5,0-0.8,0.1
	c-0.3,0-0.5,0.1-0.8,0.2c-2.6,0.7-4.3,3.3-3.9,6c-0.4-2.7-2.7-4.7-5.3-4.7c-0.3,0-0.5,0-0.8,0.1c-0.3,0-0.5,0.1-0.8,0.2
	c0.3,0,0.5,0,0.8-0.1s0.5-0.1,0.8-0.2C998.8,1539.1,1000.5,1536.6,1000.1,1533.9z"/>
<path class="st5" d="M1222.9,1469.6c0.6,0.3,1.3,0.2,1.7-0.3c0-0.1,0.1-0.1,0.1-0.2s0.1-0.1,0.1-0.2c0,0.1-0.1,0.1-0.1,0.2
	s-0.1,0.1-0.1,0.2c-0.2,0.6,0,1.3,0.6,1.7c-0.6-0.3-1.3-0.2-1.7,0.3c0,0.1-0.1,0.1-0.1,0.2s-0.1,0.1-0.1,0.2c0-0.1,0.1-0.1,0.1-0.2
	s0.1-0.1,0.1-0.2C1223.7,1470.7,1223.5,1469.9,1222.9,1469.6z"/>
<path class="st5" d="M1190.6,1504.3c1.2,0.7,2.6,0.3,3.4-0.7c0.1-0.1,0.2-0.2,0.2-0.3c0.1-0.1,0.1-0.2,0.2-0.3
	c-0.1,0.1-0.2,0.2-0.2,0.3c-0.1,0.1-0.1,0.2-0.2,0.3c-0.5,1.2,0,2.6,1.2,3.3c-1.2-0.7-2.6-0.3-3.4,0.7c-0.1,0.1-0.2,0.2-0.2,0.3
	s-0.1,0.2-0.2,0.3c0.1-0.1,0.2-0.2,0.2-0.3c0.1-0.1,0.1-0.2,0.2-0.3C1192.3,1506.4,1191.8,1505,1190.6,1504.3z"/>
<path class="st5" d="M1176.1,1444.8c1.8,1,4,0.5,5.2-1c0.1-0.2,0.2-0.3,0.3-0.5s0.2-0.3,0.3-0.5c-0.1,0.2-0.2,0.3-0.3,0.5
	s-0.2,0.3-0.3,0.5c-0.7,1.8,0,4,1.8,5c-1.8-1-4-0.5-5.2,1c-0.1,0.2-0.2,0.3-0.3,0.5s-0.2,0.3-0.3,0.5c0.1-0.2,0.2-0.3,0.3-0.5
	s0.2-0.3,0.3-0.5C1178.5,1447.9,1177.8,1445.8,1176.1,1444.8z"/>
<path class="st6" d="M131.9,1799.3c1.4,3,4.9,4.6,8.1,3.7c0.3-0.1,0.6-0.2,0.9-0.3s0.6-0.3,0.9-0.4c-0.3,0.1-0.6,0.2-0.9,0.3
	s-0.6,0.3-0.9,0.4c-2.9,1.7-4.1,5.1-2.8,8.1c-1.4-3-4.9-4.6-8.1-3.7c-0.3,0.1-0.6,0.2-0.9,0.3s-0.6,0.3-0.9,0.4
	c0.3-0.1,0.6-0.2,0.9-0.3s0.6-0.3,0.9-0.4C132,1805.8,133.2,1802.4,131.9,1799.3z"/>
<path class="st6" d="M93.4,1611.7c4.2,3.6,10.2,3.3,14-0.5c0.4-0.4,0.7-0.8,1-1.2s0.6-0.9,0.9-1.3c-0.4,0.4-0.7,0.8-1,1.2
	s-0.6,0.9-0.9,1.3c-2.7,4.8-1.7,11,2.4,14.6c-4.2-3.6-10.2-3.3-14,0.5c-0.4,0.4-0.7,0.8-1,1.2s-0.6,0.9-0.9,1.3
	c0.4-0.4,0.7-0.8,1-1.2s0.6-0.9,0.9-1.3C98.5,1621.5,97.6,1615.3,93.4,1611.7z"/>
<path class="st5" d="M322.4,2909.5c0.5,1.3,1.8,1.9,3.1,1.6c0.1,0,0.2-0.1,0.4-0.1c0.1-0.1,0.2-0.1,0.3-0.2c-0.1,0-0.2,0.1-0.4,0.1
	c-0.1,0.1-0.2,0.1-0.3,0.2c-1.1,0.6-1.7,2.1-1.2,3.3c-0.5-1.3-1.8-1.9-3.1-1.6c-0.1,0-0.2,0.1-0.4,0.1c-0.1,0.1-0.2,0.1-0.3,0.2
	c0.1,0,0.2-0.1,0.4-0.1c0.1-0.1,0.2-0.1,0.3-0.2C322.4,2912.2,322.9,2910.8,322.4,2909.5z"/>
<path class="st5" d="M334.3,2774.3c0.3,0.6,0.9,1,1.5,0.8c0.1,0,0.1,0,0.2-0.1c0.1,0,0.1-0.1,0.2-0.1c-0.1,0-0.1,0-0.2,0.1
	c-0.1,0-0.1,0.1-0.2,0.1c-0.6,0.3-0.8,1-0.6,1.6c-0.3-0.6-0.9-1-1.5-0.8c-0.1,0-0.1,0-0.2,0.1c-0.1,0-0.1,0.1-0.2,0.1
	c0.1,0,0.1,0,0.2-0.1c0.1,0,0.1-0.1,0.2-0.1C334.2,2775.6,334.5,2774.9,334.3,2774.3z"/>
<path class="st5" d="M285.5,2925.9c0.7,1.9,2.7,2.9,4.7,2.4c0.2,0,0.4-0.1,0.5-0.2c0.2-0.1,0.4-0.1,0.5-0.2c-0.2,0-0.4,0.1-0.5,0.2
	c-0.2,0.1-0.4,0.1-0.5,0.2c-1.7,1-2.5,3.1-1.8,5c-0.7-1.9-2.7-2.9-4.7-2.4c-0.2,0-0.4,0.1-0.5,0.2c-0.2,0.1-0.4,0.1-0.5,0.2
	c0.2,0,0.4-0.1,0.5-0.2c0.2-0.1,0.4-0.1,0.5-0.2C285.5,2929.9,286.3,2927.8,285.5,2925.9z"/>
<path class="st5" d="M290.3,2806.9c0.5,1.3,1.8,1.9,3.1,1.6c0.1,0,0.2-0.1,0.4-0.1c0.1-0.1,0.2-0.1,0.3-0.2c-0.1,0-0.2,0.1-0.4,0.1
	c-0.1,0.1-0.2,0.1-0.3,0.2c-1.1,0.6-1.7,2.1-1.2,3.3c-0.5-1.3-1.8-1.9-3.1-1.6c-0.1,0-0.2,0.1-0.4,0.1c-0.1,0.1-0.2,0.1-0.3,0.2
	c0.1,0,0.2-0.1,0.4-0.1c0.1-0.1,0.2-0.1,0.3-0.2C290.3,2809.6,290.8,2808.2,290.3,2806.9z"/>
<path class="st6" d="M110.3,2931.2c1.8,4.1,6.3,6.3,10.5,5.2c0.4-0.1,0.8-0.2,1.2-0.4c0.4-0.2,0.8-0.4,1.1-0.6
	c-0.4,0.1-0.8,0.2-1.2,0.4c-0.4,0.2-0.8,0.4-1.1,0.6c-3.8,2.3-5.4,7-3.6,11.1c-1.8-4.1-6.3-6.3-10.5-5.2c-0.4,0.1-0.8,0.2-1.2,0.4
	c-0.4,0.2-0.8,0.4-1.1,0.6c0.4-0.1,0.8-0.2,1.2-0.4c0.4-0.2,0.8-0.4,1.1-0.6C110.5,2940.1,112.1,2935.3,110.3,2931.2z"/>
<path class="st6" d="M74.9,2881.4c1.3,3.1,4.7,4.7,7.9,3.9c0.3-0.1,0.6-0.2,0.9-0.3s0.6-0.3,0.8-0.4c-0.3,0.1-0.6,0.2-0.9,0.3
	s-0.6,0.3-0.8,0.4c-2.8,1.7-4,5.2-2.7,8.4c-1.3-3.1-4.7-4.7-7.9-3.9c-0.3,0.1-0.6,0.2-0.9,0.3s-0.6,0.3-0.8,0.4
	c0.3-0.1,0.6-0.2,0.9-0.3s0.6-0.3,0.8-0.4C75,2888,76.2,2884.5,74.9,2881.4z"/>
<path class="st5" d="M313.5,2725.4c0.7,1.9,2.7,2.9,4.7,2.4c0.2,0,0.4-0.1,0.5-0.2c0.2-0.1,0.4-0.1,0.5-0.2c-0.2,0-0.4,0.1-0.5,0.2
	c-0.2,0.1-0.4,0.1-0.5,0.2c-1.7,1-2.5,3.1-1.8,5c-0.7-1.9-2.7-2.9-4.7-2.4c-0.2,0-0.4,0.1-0.5,0.2c-0.2,0.1-0.4,0.1-0.5,0.2
	c0.2,0,0.4-0.1,0.5-0.2c0.2-0.1,0.4-0.1,0.5-0.2C313.4,2729.4,314.2,2727.3,313.5,2725.4z"/>
<path class="st6" d="M50.2,2649.9c1,2.4,3.5,3.6,5.9,2.9c0.2-0.1,0.5-0.1,0.7-0.2c0.2-0.1,0.4-0.2,0.6-0.3c-0.2,0.1-0.5,0.1-0.7,0.2
	c-0.2,0.1-0.4,0.2-0.6,0.3c-2.1,1.3-3,3.9-2,6.3c-1-2.4-3.5-3.6-5.9-2.9c-0.2,0.1-0.5,0.1-0.7,0.2c-0.2,0.1-0.4,0.2-0.6,0.3
	c0.2-0.1,0.5-0.1,0.7-0.2c0.2-0.1,0.4-0.2,0.6-0.3C50.3,2654.9,51.2,2652.2,50.2,2649.9z"/>
<path class="st5" d="M475.3,2849.4c-0.7,1.1-0.5,2.6,0.5,3.5c0.1,0.1,0.2,0.2,0.3,0.2s0.2,0.1,0.3,0.2c-0.1-0.1-0.2-0.2-0.3-0.2
	c-0.1-0.1-0.2-0.1-0.3-0.2c-1.2-0.6-2.6-0.1-3.4,1c0.7-1.1,0.5-2.6-0.5-3.5c-0.1-0.1-0.2-0.2-0.3-0.2s-0.2-0.1-0.3-0.2
	c0.1,0.1,0.2,0.2,0.3,0.2s0.2,0.1,0.3,0.2C473.1,2851,474.6,2850.6,475.3,2849.4z"/>
<path class="st5" d="M427.7,2863.6c-1.5,2.3-1,5.2,1,6.9c0.2,0.2,0.4,0.3,0.6,0.4s0.4,0.3,0.7,0.4c-0.2-0.2-0.4-0.3-0.6-0.4
	c-0.2-0.1-0.4-0.3-0.7-0.4c-2.4-1.1-5.3-0.3-6.7,2c1.5-2.3,1-5.2-1-6.9c-0.2-0.2-0.4-0.3-0.6-0.4c-0.2-0.1-0.4-0.3-0.7-0.4
	c0.2,0.2,0.4,0.3,0.6,0.4c0.2,0.1,0.4,0.3,0.7,0.4C423.4,2866.6,426.3,2865.9,427.7,2863.6z"/>
<path class="st5" d="M440.4,2829.2c-1.1,1.7-0.7,3.9,0.8,5.2c0.1,0.1,0.3,0.2,0.5,0.3s0.3,0.2,0.5,0.3c-0.1-0.1-0.3-0.2-0.5-0.3
	s-0.3-0.2-0.5-0.3c-1.8-0.8-4-0.2-5,1.5c1.1-1.7,0.7-3.9-0.8-5.2c-0.1-0.1-0.3-0.2-0.5-0.3s-0.3-0.2-0.5-0.3
	c0.1,0.1,0.3,0.2,0.5,0.3s0.3,0.2,0.5,0.3C437.1,2831.5,439.3,2830.9,440.4,2829.2z"/>
<path class="st7" d="M314.7,2520.7c-1.4,2.3-0.9,5.3,1.2,7c0.2,0.2,0.4,0.3,0.6,0.4c0.2,0.1,0.5,0.3,0.7,0.4
	c-0.2-0.2-0.4-0.3-0.6-0.4c-0.2-0.1-0.5-0.3-0.7-0.4c-2.5-1-5.4-0.2-6.8,2.2c1.4-2.3,0.9-5.3-1.2-7c-0.2-0.2-0.4-0.3-0.6-0.4
	c-0.2-0.1-0.5-0.3-0.7-0.4c0.2,0.2,0.4,0.3,0.6,0.4c0.2,0.1,0.5,0.3,0.7,0.4C310.4,2523.9,313.3,2523,314.7,2520.7z"/>
<path class="st5" d="M507.5,2562.2c0.7,1.9,2.7,2.9,4.7,2.4c0.2,0,0.4-0.1,0.5-0.2c0.2-0.1,0.3-0.1,0.5-0.2c-0.2,0-0.4,0.1-0.5,0.2
	c-0.2,0.1-0.3,0.1-0.5,0.2c-1.7,1-2.5,3.1-1.8,5c-0.7-1.9-2.7-2.9-4.7-2.4c-0.2,0-0.4,0.1-0.5,0.2c-0.2,0.1-0.4,0.1-0.5,0.2
	c0.2,0,0.4-0.1,0.5-0.2s0.4-0.1,0.5-0.2C507.5,2566.2,508.3,2564.1,507.5,2562.2z"/>
<path class="st6" d="M101.7,1563.7c4.4-0.9,7.4-4.8,7.2-9.2c0-0.4-0.1-0.8-0.2-1.3s-0.2-0.8-0.3-1.2c0,0.4,0.1,0.8,0.2,1.3
	s0.2,0.8,0.3,1.2c1.4,4.1,5.7,6.7,10.1,5.8c-4.4,0.9-7.4,4.8-7.2,9.2c0,0.4,0.1,0.8,0.2,1.3s0.2,0.8,0.3,1.2c0-0.4-0.1-0.8-0.2-1.3
	s-0.2-0.8-0.3-1.2C110.4,1565.4,106.1,1562.9,101.7,1563.7z"/>
<path class="st6" d="M45.6,1588.1c3.3-0.6,5.6-3.6,5.4-6.9c0-0.3,0-0.6-0.1-0.9s-0.1-0.6-0.3-0.9c0,0.3,0,0.6,0.1,0.9
	s0.1,0.6,0.3,0.9c1.1,3.1,4.3,5,7.6,4.4c-3.3,0.6-5.6,3.6-5.4,6.9c0,0.3,0,0.6,0.1,0.9s0.1,0.6,0.3,0.9c0-0.3,0-0.6-0.1-0.9
	s-0.1-0.6-0.3-0.9C52.2,1589.4,49,1587.5,45.6,1588.1z"/>
<path class="st5" d="M708.3,1797.5c1.3,0.4,2.7-0.2,3.3-1.3c0.1-0.1,0.1-0.2,0.2-0.3c0-0.1,0.1-0.2,0.1-0.4
	c-0.1,0.1-0.1,0.2-0.2,0.3c0,0.1-0.1,0.2-0.1,0.4c-0.2,1.3,0.5,2.6,1.8,3c-1.3-0.4-2.7,0.2-3.3,1.3c-0.1,0.1-0.1,0.2-0.2,0.3
	c0,0.1-0.1,0.2-0.1,0.4c0.1-0.1,0.1-0.2,0.2-0.3c0-0.1,0.1-0.2,0.1-0.4C710.3,1799.2,709.5,1797.9,708.3,1797.5z"/>
<path class="st5" d="M569.1,1940.2c0.5,0.5,1.2,0.6,1.8,0.2c0,0,0.1-0.1,0.2-0.1s0.1-0.1,0.1-0.1s-0.1,0.1-0.2,0.1s-0.1,0.1-0.1,0.1
	c-0.4,0.5-0.4,1.3,0.1,1.8c-0.5-0.5-1.2-0.6-1.8-0.2c0,0-0.1,0.1-0.2,0.1s-0.1,0.1-0.1,0.1s0.1-0.1,0.2-0.1l0.1-0.1
	C569.6,1941.4,569.6,1940.7,569.1,1940.2z"/>
<path class="st5" d="M690.1,2481.3c1.9,0.6,4-0.2,4.9-2c0.1-0.2,0.2-0.3,0.2-0.5s0.1-0.4,0.1-0.6c-0.1,0.2-0.2,0.3-0.2,0.5
	s-0.1,0.4-0.1,0.6c-0.4,1.9,0.7,3.9,2.7,4.5c-1.9-0.6-4,0.2-4.9,2c-0.1,0.2-0.2,0.3-0.2,0.5s-0.1,0.4-0.1,0.6
	c0.1-0.2,0.2-0.3,0.2-0.5s0.1-0.4,0.1-0.6C693.1,2483.9,692,2481.9,690.1,2481.3z"/>
<path class="st5" d="M528.1,1964c0.9,1,2.4,1.1,3.5,0.3c0.1-0.1,0.2-0.2,0.3-0.2s0.2-0.2,0.3-0.3c-0.1,0.1-0.2,0.2-0.3,0.2
	s-0.2,0.2-0.3,0.3c-0.8,1-0.8,2.5,0.2,3.5c-0.9-1-2.4-1.1-3.5-0.3c-0.1,0.1-0.2,0.2-0.3,0.2s-0.2,0.2-0.3,0.3
	c0.1-0.1,0.2-0.2,0.3-0.2s0.2-0.2,0.3-0.3C529.1,1966.5,529.1,1965,528.1,1964z"/>
<path class="st6" d="M581.4,2618.8c4.3,1.3,8.8-0.8,10.7-4.7c0.2-0.4,0.3-0.8,0.5-1.2s0.2-0.8,0.3-1.2c-0.2,0.4-0.3,0.8-0.5,1.2
	s-0.2,0.8-0.3,1.2c-0.7,4.3,1.9,8.6,6.2,9.9c-4.3-1.3-8.8,0.8-10.7,4.7c-0.2,0.4-0.3,0.8-0.5,1.2s-0.2,0.8-0.3,1.2
	c0.2-0.4,0.3-0.8,0.5-1.2s0.2-0.8,0.3-1.2C588.3,2624.4,585.7,2620.1,581.4,2618.8z"/>
<path class="st5" d="M531.5,1902.7c1.4,1.5,3.6,1.7,5.2,0.5c0.2-0.1,0.3-0.2,0.4-0.4s0.3-0.3,0.4-0.4c-0.2,0.1-0.3,0.2-0.4,0.4
	s-0.3,0.3-0.4,0.4c-1.2,1.5-1.2,3.8,0.2,5.3c-1.4-1.5-3.6-1.7-5.2-0.5c-0.2,0.1-0.3,0.2-0.4,0.4s-0.3,0.3-0.4,0.4
	c0.2-0.1,0.3-0.2,0.4-0.4s0.3-0.3,0.4-0.4C533,1906.5,532.9,1904.2,531.5,1902.7z"/>
<path class="st6" d="M327.4,2483.9c2.4,0.8,5-0.4,6.1-2.7c0.1-0.2,0.2-0.4,0.3-0.7s0.1-0.5,0.2-0.7c-0.1,0.2-0.2,0.4-0.3,0.7
	s-0.1,0.5-0.2,0.7c-0.4,2.4,1.1,4.9,3.5,5.6c-2.4-0.8-5,0.4-6.1,2.7c-0.1,0.2-0.2,0.4-0.3,0.7c-0.1,0.2-0.1,0.5-0.2,0.7
	c0.1-0.2,0.2-0.4,0.3-0.7s0.1-0.5,0.2-0.7C331.3,2487.1,329.8,2484.6,327.4,2483.9z"/>
<path class="st5" d="M760.6,1641.8c0.4,1.3,1.7,2.1,3,1.8c0.1,0,0.3-0.1,0.4-0.1c0.1,0,0.2-0.1,0.3-0.1c-0.1,0-0.3,0.1-0.4,0.1
	c-0.1,0-0.2,0.1-0.3,0.1c-1.2,0.6-1.8,1.9-1.4,3.2c-0.4-1.3-1.7-2.1-3-1.8c-0.1,0-0.3,0.1-0.4,0.1c-0.1,0-0.2,0.1-0.3,0.1
	c0.1,0,0.3-0.1,0.4-0.1c0.1,0,0.2-0.1,0.3-0.1C760.4,1644.4,761,1643.1,760.6,1641.8z"/>
<path class="st5" d="M740.8,1687.3c0.8,2.6,3.4,4.1,6,3.7c0.3,0,0.5-0.1,0.7-0.2c0.3-0.1,0.5-0.2,0.7-0.3c-0.3,0-0.5,0.1-0.7,0.2
	c-0.3,0.1-0.5,0.2-0.7,0.3c-2.4,1.1-3.6,3.8-2.8,6.4c-0.8-2.6-3.4-4.1-6-3.7c-0.3,0-0.5,0.1-0.7,0.2c-0.3,0.1-0.5,0.2-0.7,0.3
	c0.3,0,0.5-0.1,0.7-0.2s0.5-0.2,0.7-0.3C740.4,1692.6,741.7,1689.9,740.8,1687.3z"/>
<path class="st5" d="M722.7,1655.4c0.6,1.9,2.5,3.1,4.5,2.8c0.2,0,0.4-0.1,0.5-0.1s0.4-0.1,0.5-0.2c-0.2,0-0.4,0.1-0.5,0.1
	s-0.4,0.1-0.5,0.2c-1.8,0.8-2.7,2.9-2.1,4.8c-0.6-1.9-2.5-3.1-4.5-2.8c-0.2,0-0.4,0.1-0.5,0.1s-0.4,0.1-0.5,0.2
	c0.2,0,0.4-0.1,0.5-0.1s0.4-0.1,0.5-0.2C722.3,1659.4,723.3,1657.4,722.7,1655.4z"/>
<path class="st5" d="M657.9,1552.7c0.8,2.6,3.4,4.1,6,3.7c0.3,0,0.5-0.1,0.7-0.2c0.3-0.1,0.5-0.2,0.7-0.3c-0.3,0-0.5,0.1-0.7,0.2
	c-0.3,0.1-0.5,0.2-0.7,0.3c-2.4,1.1-3.6,3.8-2.8,6.4c-0.8-2.6-3.4-4.1-6-3.7c-0.3,0-0.5,0.1-0.7,0.2s-0.5,0.2-0.7,0.3
	c0.3,0,0.5-0.1,0.7-0.2s0.5-0.2,0.7-0.3C657.5,1558,658.7,1555.2,657.9,1552.7z"/>
<path class="st7" d="M427.4,1567.7c0.9,2.6,3.5,4.1,6.1,3.6c0.3-0.1,0.5-0.1,0.7-0.2c0.3-0.1,0.5-0.2,0.7-0.3
	c-0.3,0.1-0.5,0.1-0.7,0.2c-0.3,0.1-0.5,0.2-0.7,0.3c-2.4,1.2-3.6,4-2.7,6.6c-0.9-2.6-3.5-4.1-6.1-3.6c-0.3,0.1-0.5,0.1-0.7,0.2
	c-0.3,0.1-0.5,0.2-0.7,0.3c0.3-0.1,0.5-0.1,0.7-0.2c0.3-0.1,0.5-0.2,0.7-0.3C427.1,1573.1,428.3,1570.3,427.4,1567.7z"/>
<path class="st5" d="M634,1506.3c0.6,0.2,1.3-0.1,1.6-0.7c0-0.1,0-0.1,0.1-0.2s0-0.1,0-0.2c0,0.1,0,0.1-0.1,0.2s0,0.1,0,0.2
	c-0.1,0.7,0.3,1.3,0.9,1.5c-0.6-0.2-1.3,0.1-1.6,0.7c0,0.1,0,0.1-0.1,0.2s0,0.1,0,0.2c0-0.1,0-0.1,0.1-0.2s0-0.1,0-0.2
	C635,1507.1,634.6,1506.5,634,1506.3z"/>
<path class="st5" d="M608.9,1502.5c1.3,0.4,2.7-0.2,3.3-1.3c0.1-0.1,0.1-0.2,0.2-0.3s0.1-0.2,0.1-0.4c-0.1,0.1-0.1,0.2-0.2,0.3
	c0,0.1-0.1,0.2-0.1,0.4c-0.2,1.3,0.5,2.6,1.8,3c-1.3-0.4-2.7,0.2-3.3,1.3c-0.1,0.1-0.1,0.2-0.2,0.3c0,0.1-0.1,0.2-0.1,0.4
	c0.1-0.1,0.1-0.2,0.2-0.3c0-0.1,0.1-0.2,0.1-0.4C610.9,1504.2,610.2,1502.9,608.9,1502.5z"/>
<path class="st5" d="M583.3,1490.8c1.9,0.7,4-0.2,4.9-2c0.1-0.2,0.2-0.3,0.2-0.5s0.1-0.4,0.1-0.6c-0.1,0.2-0.2,0.3-0.2,0.5
	s-0.1,0.4-0.1,0.6c-0.4,1.9,0.7,3.9,2.7,4.5c-1.9-0.7-4,0.2-4.9,2c-0.1,0.2-0.2,0.3-0.2,0.5s-0.1,0.4-0.1,0.6
	c0.1-0.2,0.2-0.3,0.2-0.5s0.1-0.4,0.1-0.6C586.3,1493.4,585.2,1491.4,583.3,1490.8z"/>
<path class="st6" d="M167.7,2072.5c0.2-0.4,0.5-0.7,0.7-1.1C168.2,2071.8,168.1,2072.2,167.7,2072.5c-0.2,0.5-0.3,0.8-0.6,1.2
	C167.4,2073.3,167.5,2072.9,167.7,2072.5z"/>
<path class="st6" d="M176.8,2056.8c-0.2,0.4-0.4,0.7-0.7,1.1C176.2,2057.5,176.4,2057.1,176.8,2056.8c0.2-0.5,0.3-0.8,0.6-1.2
	C177.2,2056.1,177,2056.5,176.8,2056.8z"/>
<path class="st6" d="M104.4,2053.1c0.2-0.3,0.3-0.6,0.5-0.8C104.8,2052.6,104.7,2052.9,104.4,2053.1c-0.1,0.4-0.2,0.7-0.4,0.9
	C104.2,2053.7,104.3,2053.4,104.4,2053.1z"/>
<path class="st6" d="M114,2050.4c-3.2-1.6-7-0.7-9.1,2c1.2-3.1-0.2-6.6-3.3-8.2c3.2,1.6,7,0.7,9.1-2
	C109.5,2045.3,110.9,2048.8,114,2050.4z"/>
<path class="st6" d="M111.3,2041.4c-0.2,0.3-0.3,0.6-0.5,0.8C110.9,2041.9,111.1,2041.6,111.3,2041.4c0.1-0.4,0.2-0.7,0.4-0.9
	C111.5,2040.8,111.4,2041.1,111.3,2041.4z"/>
<path class="st5" d="M348.9,2437.5c0.7,1.1,2.2,1.6,3.4,1c0.1-0.1,0.2-0.1,0.3-0.2c0.1-0.1,0.2-0.1,0.3-0.2
	c-0.1,0.1-0.2,0.1-0.3,0.2c-0.1,0.1-0.2,0.1-0.3,0.2c-1,0.9-1.3,2.3-0.5,3.5c-0.7-1.1-2.2-1.6-3.4-1c-0.1,0.1-0.2,0.1-0.3,0.2
	c-0.1,0.1-0.2,0.1-0.3,0.2c0.1-0.1,0.2-0.1,0.3-0.2c0.1-0.1,0.2-0.1,0.3-0.2C349.4,2440.1,349.6,2438.6,348.9,2437.5z"/>
<path class="st5" d="M342.7,2327.4c0.4,0.6,1.1,0.8,1.7,0.5c0.1,0,0.1-0.1,0.2-0.1l0.1-0.1c-0.1,0-0.1,0.1-0.2,0.1l-0.1,0.1
	c-0.5,0.4-0.6,1.2-0.3,1.7c-0.4-0.6-1.1-0.8-1.7-0.5c-0.1,0-0.1,0.1-0.2,0.1l-0.1,0.1c0.1,0,0.1-0.1,0.2-0.1l0.1-0.1
	C343,2328.7,343.1,2328,342.7,2327.4z"/>
<path class="st5" d="M315.8,2460.6c1.1,1.7,3.3,2.3,5,1.5c0.2-0.1,0.3-0.2,0.5-0.3s0.3-0.2,0.5-0.3c-0.2,0.1-0.3,0.2-0.5,0.3
	s-0.3,0.2-0.5,0.3c-1.5,1.3-1.9,3.5-0.8,5.2c-1.1-1.7-3.3-2.3-5-1.5c-0.2,0.1-0.3,0.2-0.5,0.3s-0.3,0.2-0.5,0.3
	c0.2-0.1,0.3-0.2,0.5-0.3s0.3-0.2,0.5-0.3C316.5,2464.5,316.9,2462.3,315.8,2460.6z"/>
<path class="st5" d="M297.9,2342.9c0.7,1.1,2.2,1.6,3.4,1c0.1-0.1,0.2-0.1,0.3-0.2c0.1-0.1,0.2-0.1,0.3-0.2
	c-0.1,0.1-0.2,0.1-0.3,0.2c-0.1,0.1-0.2,0.1-0.3,0.2c-1,0.9-1.3,2.3-0.5,3.5c-0.7-1.1-2.2-1.6-3.4-1c-0.1,0.1-0.2,0.1-0.3,0.2
	c-0.1,0.1-0.2,0.1-0.3,0.2c0.1-0.1,0.2-0.1,0.3-0.2c0.1-0.1,0.2-0.1,0.3-0.2C298.4,2345.5,298.6,2344,297.9,2342.9z"/>
<path class="st6" d="M294.8,2707.1c2.5,3.7,7.4,5,11.3,3.1c0.4-0.2,0.7-0.4,1.1-0.6c0.4-0.2,0.7-0.5,1-0.8c-0.4,0.2-0.7,0.4-1.1,0.6
	c-0.4,0.2-0.7,0.5-1,0.8c-3.3,2.9-4,7.9-1.4,11.6c-2.5-3.7-7.4-5-11.3-3.1c-0.4,0.2-0.7,0.4-1.1,0.6s-0.7,0.5-1,0.8
	c0.4-0.2,0.7-0.4,1.1-0.6c0.4-0.2,0.7-0.5,1-0.8C296.6,2715.7,297.3,2710.8,294.8,2707.1z"/>
<path class="st6" d="M250.5,2664.9c1.9,2.8,5.5,3.7,8.5,2.3c0.3-0.1,0.6-0.3,0.8-0.5c0.3-0.2,0.5-0.4,0.8-0.6
	c-0.3,0.1-0.6,0.3-0.8,0.5c-0.3,0.2-0.5,0.4-0.8,0.6c-2.4,2.2-3,5.9-1.1,8.7c-1.9-2.8-5.5-3.7-8.5-2.3c-0.3,0.1-0.6,0.3-0.8,0.5
	c-0.3,0.2-0.5,0.4-0.8,0.6c0.3-0.1,0.6-0.3,0.8-0.5c0.3-0.2,0.5-0.4,0.8-0.6C251.9,2671.4,252.4,2667.7,250.5,2664.9z"/>
<path class="st5" d="M384.7,2250.7c1.5,2.4,4.5,3.2,6.9,2.1c0.2-0.1,0.5-0.2,0.7-0.4c0.2-0.1,0.4-0.3,0.6-0.5
	c-0.2,0.1-0.5,0.2-0.7,0.4c-0.2,0.1-0.4,0.3-0.6,0.5c-2.1,1.8-2.6,4.8-1.1,7.1c-1.5-2.4-4.5-3.2-6.9-2.1c-0.2,0.1-0.5,0.2-0.7,0.4
	c-0.2,0.1-0.4,0.3-0.6,0.5c0.2-0.1,0.5-0.2,0.7-0.4c0.2-0.1,0.4-0.3,0.6-0.5C385.7,2256.1,386.2,2253,384.7,2250.7z"/>
<path class="st6" d="M182.3,2442.3c1.4,2.1,4.2,2.8,6.4,1.7c0.2-0.1,0.4-0.2,0.6-0.4c0.2-0.1,0.4-0.3,0.6-0.4
	c-0.2,0.1-0.4,0.2-0.6,0.4s-0.4,0.3-0.6,0.4c-1.8,1.6-2.2,4.4-0.8,6.6c-1.4-2.1-4.2-2.8-6.4-1.7c-0.2,0.1-0.4,0.2-0.6,0.4
	c-0.2,0.1-0.4,0.3-0.6,0.4c0.2-0.1,0.4-0.2,0.6-0.4c0.2-0.1,0.4-0.3,0.6-0.4C183.4,2447.2,183.7,2444.4,182.3,2442.3z"/>
<path class="st5" d="M34.6,2970.4c-0.5,1.3,0,2.7,1.2,3.3c0.1,0.1,0.2,0.1,0.3,0.2s0.2,0.1,0.4,0.1c-0.1-0.1-0.2-0.1-0.3-0.2
	c-0.1-0.1-0.2-0.1-0.4-0.1c-1.3-0.3-2.6,0.4-3.1,1.6c0.5-1.3,0-2.7-1.1-3.3c-0.1-0.1-0.2-0.1-0.3-0.2c-0.1-0.1-0.2-0.1-0.4-0.1
	c0.1,0.1,0.2,0.1,0.3,0.2c0.1,0.1,0.2,0.1,0.4,0.1C32.8,2972.4,34.1,2971.7,34.6,2970.4z"/>
<path class="st5" d="M-9.4,2993.4c-1,2.5,0,5.3,2.3,6.6c0.2,0.1,0.4,0.2,0.7,0.3c0.2,0.1,0.5,0.2,0.7,0.2c-0.2-0.1-0.4-0.2-0.7-0.3
	c-0.2-0.1-0.5-0.2-0.7-0.2c-2.6-0.6-5.2,0.7-6.2,3.2c1-2.5,0-5.3-2.3-6.6c-0.2-0.1-0.4-0.2-0.7-0.3c-0.2-0.1-0.5-0.2-0.7-0.2
	c0.2,0.1,0.4,0.2,0.7,0.3c0.2,0.1,0.5,0.2,0.7,0.2C-13.1,2997.2-10.4,2995.9-9.4,2993.4z"/>
<path class="st5" d="M-3.5,2957.2c-0.8,1.9,0,4,1.7,5c0.2,0.1,0.3,0.2,0.5,0.3s0.4,0.1,0.5,0.2c-0.2-0.1-0.3-0.2-0.5-0.3
	s-0.4-0.1-0.5-0.2c-1.9-0.5-3.9,0.5-4.7,2.4c0.8-1.9,0-4-1.7-5c-0.2-0.1-0.3-0.2-0.5-0.3s-0.4-0.1-0.5-0.2c0.2,0.1,0.3,0.2,0.5,0.3
	s0.4,0.1,0.5,0.2C-6.3,2960.1-4.3,2959.1-3.5,2957.2z"/>
<path class="st5" d="M10.9,2836.6c-1,2.5,0,5.3,2.3,6.6c0.2,0.1,0.4,0.2,0.7,0.3c0.2,0.1,0.5,0.2,0.7,0.2c-0.2-0.1-0.4-0.2-0.7-0.3
	c-0.2-0.1-0.5-0.2-0.7-0.2c-2.6-0.6-5.2,0.7-6.2,3.2c1-2.5,0-5.3-2.3-6.6c-0.2-0.1-0.4-0.2-0.7-0.3c-0.2-0.1-0.5-0.2-0.7-0.2
	c0.2,0.1,0.4,0.2,0.7,0.3c0.2,0.1,0.5,0.2,0.7,0.2C7.2,2840.4,9.9,2839.1,10.9,2836.6z"/>
<path class="st5" d="M49.2,2751.3c0.4,0.6,1.1,0.8,1.7,0.5c0.1,0,0.1-0.1,0.2-0.1c0,0,0.1-0.1,0.2-0.1c-0.1,0-0.1,0.1-0.2,0.1
	c0,0-0.1,0.1-0.2,0.1c-0.5,0.4-0.6,1.2-0.3,1.7c-0.4-0.6-1.1-0.8-1.7-0.5c-0.1,0-0.1,0.1-0.2,0.1c0,0-0.1,0.1-0.2,0.1
	c0.1,0,0.1-0.1,0.2-0.1c0,0,0.1-0.1,0.2-0.1C49.5,2752.6,49.6,2751.9,49.2,2751.3z"/>
<path class="st5" d="M4.4,2766.7c0.7,1.1,2.2,1.6,3.4,1c0.1-0.1,0.2-0.1,0.3-0.2c0.1-0.1,0.2-0.1,0.3-0.2c-0.1,0.1-0.2,0.1-0.3,0.2
	c-0.1,0.1-0.2,0.1-0.3,0.2c-1,0.9-1.3,2.3-0.5,3.5c-0.7-1.1-2.2-1.6-3.4-1c-0.1,0.1-0.2,0.1-0.3,0.2c-0.1,0.1-0.2,0.1-0.3,0.2
	c0.1-0.1,0.2-0.1,0.3-0.2c0.1-0.1,0.2-0.1,0.3-0.2C4.9,2769.3,5.1,2767.9,4.4,2766.7z"/>
<path class="st5" d="M19.6,2707.3c1.1,1.7,3.3,2.3,5,1.5c0.2-0.1,0.3-0.2,0.5-0.3s0.3-0.2,0.5-0.3c-0.2,0.1-0.3,0.2-0.5,0.3
	s-0.3,0.2-0.5,0.3c-1.5,1.3-1.9,3.5-0.8,5.2c-1.1-1.7-3.3-2.3-5-1.5c-0.2,0.1-0.3,0.2-0.5,0.3s-0.3,0.2-0.5,0.3
	c0.2-0.1,0.3-0.2,0.5-0.3s0.3-0.2,0.5-0.3C20.3,2711.2,20.6,2709,19.6,2707.3z"/>
<path class="st5" d="M947.4,2309.5c0.5,1.3,1.8,1.9,3.1,1.6c0.1,0,0.2-0.1,0.4-0.1c0.1-0.1,0.2-0.1,0.3-0.2c-0.1,0-0.2,0.1-0.4,0.1
	c-0.1,0.1-0.2,0.1-0.3,0.2c-1.1,0.6-1.7,2.1-1.2,3.3c-0.5-1.3-1.8-1.9-3.1-1.6c-0.1,0-0.2,0.1-0.4,0.1c-0.1,0.1-0.2,0.1-0.3,0.2
	c0.1,0,0.2-0.1,0.4-0.1c0.1-0.1,0.2-0.1,0.3-0.2C947.4,2312.2,947.9,2310.8,947.4,2309.5z"/>
<path class="st5" d="M959.3,2174.3c0.3,0.6,0.9,1,1.5,0.8c0.1,0,0.1,0,0.2-0.1c0.1,0,0.1-0.1,0.2-0.1c-0.1,0-0.1,0-0.2,0.1
	c-0.1,0-0.1,0.1-0.2,0.1c-0.6,0.3-0.8,1-0.6,1.6c-0.3-0.6-0.9-1-1.5-0.8c-0.1,0-0.1,0-0.2,0.1c-0.1,0-0.1,0.1-0.2,0.1
	c0.1,0,0.1,0,0.2-0.1c0.1,0,0.1-0.1,0.2-0.1C959.2,2175.6,959.5,2174.9,959.3,2174.3z"/>
<path class="st5" d="M915.3,2206.9c0.5,1.3,1.8,1.9,3.1,1.6c0.1,0,0.2-0.1,0.4-0.1c0.1-0.1,0.2-0.1,0.3-0.2c-0.1,0-0.2,0.1-0.4,0.1
	c-0.1,0.1-0.2,0.1-0.3,0.2c-1.1,0.6-1.7,2.1-1.2,3.3c-0.5-1.3-1.8-1.9-3.1-1.6c-0.1,0-0.2,0.1-0.4,0.1c-0.1,0.1-0.2,0.1-0.3,0.2
	c0.1,0,0.2-0.1,0.4-0.1c0.1-0.1,0.2-0.1,0.3-0.2C915.3,2209.6,915.8,2208.2,915.3,2206.9z"/>
<path class="st6" d="M735.3,2331.2c1.8,4.1,6.3,6.3,10.5,5.2c0.4-0.1,0.8-0.2,1.2-0.4s0.8-0.4,1.1-0.6c-0.4,0.1-0.8,0.2-1.2,0.4
	s-0.8,0.4-1.1,0.6c-3.8,2.3-5.4,7-3.6,11.1c-1.8-4.1-6.3-6.3-10.5-5.2c-0.4,0.1-0.8,0.2-1.2,0.4s-0.8,0.4-1.1,0.6
	c0.4-0.1,0.8-0.2,1.2-0.4s0.8-0.4,1.1-0.6C735.5,2340.1,737.1,2335.3,735.3,2331.2z"/>
<path class="st6" d="M699.9,2281.4c1.3,3.1,4.7,4.7,7.9,3.9c0.3-0.1,0.6-0.2,0.9-0.3c0.3-0.1,0.6-0.3,0.8-0.4
	c-0.3,0.1-0.6,0.2-0.9,0.3c-0.3,0.1-0.6,0.3-0.8,0.4c-2.8,1.7-4,5.2-2.7,8.4c-1.3-3.1-4.7-4.7-7.9-3.9c-0.3,0.1-0.6,0.2-0.9,0.3
	c-0.3,0.1-0.6,0.3-0.8,0.4c0.3-0.1,0.6-0.2,0.9-0.3c0.3-0.1,0.6-0.3,0.8-0.4C700,2288,701.2,2284.5,699.9,2281.4z"/>
<path class="st5" d="M938.5,2125.4c0.7,1.9,2.7,2.9,4.7,2.4c0.2,0,0.4-0.1,0.5-0.2c0.2-0.1,0.3-0.1,0.5-0.2c-0.2,0-0.4,0.1-0.5,0.2
	s-0.3,0.1-0.5,0.2c-1.7,1-2.5,3.1-1.8,5c-0.7-1.9-2.7-2.9-4.7-2.4c-0.2,0-0.4,0.1-0.5,0.2c-0.2,0.1-0.3,0.1-0.5,0.2
	c0.2,0,0.4-0.1,0.5-0.2s0.3-0.1,0.5-0.2C938.4,2129.4,939.2,2127.3,938.5,2125.4z"/>
<path class="st6" d="M675.2,2049.9c1,2.4,3.5,3.6,5.9,2.9c0.2-0.1,0.5-0.1,0.7-0.2c0.2-0.1,0.4-0.2,0.6-0.3
	c-0.2,0.1-0.5,0.1-0.7,0.2c-0.2,0.1-0.4,0.2-0.6,0.3c-2.1,1.3-3,3.9-2,6.3c-1-2.4-3.5-3.6-5.9-2.9c-0.2,0.1-0.5,0.1-0.7,0.2
	c-0.2,0.1-0.4,0.2-0.6,0.3c0.2-0.1,0.5-0.1,0.7-0.2c0.2-0.1,0.4-0.2,0.6-0.3C675.3,2054.9,676.2,2052.2,675.2,2049.9z"/>
<path class="st6" d="M919.8,2107.1c2.5,3.7,7.3,5,11.3,3.1c0.4-0.2,0.7-0.4,1.1-0.6s0.7-0.5,1-0.8c-0.4,0.2-0.7,0.4-1.1,0.6
	s-0.7,0.5-1,0.8c-3.3,2.9-4,7.9-1.4,11.6c-2.5-3.7-7.3-5-11.3-3.1c-0.4,0.2-0.7,0.4-1.1,0.6s-0.7,0.5-1,0.8c0.4-0.2,0.7-0.4,1.1-0.6
	s0.7-0.5,1-0.8C921.6,2115.7,922.3,2110.8,919.8,2107.1z"/>
<path class="st6" d="M875.5,2064.9c1.9,2.8,5.5,3.7,8.5,2.3c0.3-0.1,0.6-0.3,0.8-0.5c0.3-0.2,0.5-0.4,0.8-0.6
	c-0.3,0.1-0.6,0.3-0.8,0.5c-0.3,0.2-0.5,0.4-0.8,0.6c-2.4,2.2-3,5.9-1.1,8.7c-1.9-2.8-5.5-3.7-8.5-2.3c-0.3,0.1-0.6,0.3-0.8,0.5
	c-0.3,0.2-0.5,0.4-0.8,0.6c0.3-0.1,0.6-0.3,0.8-0.5c0.3-0.2,0.5-0.4,0.8-0.6C876.9,2071.4,877.4,2067.7,875.5,2064.9z"/>
<path class="st5" d="M659.6,2370.4c-0.5,1.3,0,2.7,1.2,3.3c0.1,0.1,0.2,0.1,0.3,0.2c0.1,0.1,0.2,0.1,0.4,0.1
	c-0.1-0.1-0.2-0.1-0.3-0.2c-0.1-0.1-0.2-0.1-0.4-0.1c-1.3-0.3-2.6,0.4-3.1,1.6c0.5-1.3,0-2.7-1.2-3.3c-0.1-0.1-0.2-0.1-0.3-0.2
	c-0.1-0.1-0.2-0.1-0.4-0.1c0.1,0.1,0.2,0.1,0.3,0.2c0.1,0.1,0.2,0.1,0.4,0.1C657.8,2372.4,659.1,2371.7,659.6,2370.4z"/>
<path class="st5" d="M615.6,2393.4c-1,2.5,0,5.3,2.3,6.6c0.2,0.1,0.4,0.2,0.7,0.3c0.2,0.1,0.5,0.2,0.7,0.2c-0.2-0.1-0.4-0.2-0.7-0.3
	c-0.2-0.1-0.5-0.2-0.7-0.2c-2.5-0.6-5.2,0.7-6.2,3.2c1-2.5,0-5.3-2.3-6.6c-0.2-0.1-0.4-0.2-0.7-0.3c-0.2-0.1-0.5-0.2-0.7-0.2
	c0.2,0.1,0.4,0.2,0.7,0.3c0.2,0.1,0.5,0.2,0.7,0.2C611.9,2397.2,614.6,2395.9,615.6,2393.4z"/>
<path class="st5" d="M621.5,2357.2c-0.8,1.9,0,4,1.7,5c0.2,0.1,0.3,0.2,0.5,0.3s0.4,0.1,0.5,0.2c-0.2-0.1-0.3-0.2-0.5-0.3
	s-0.4-0.1-0.5-0.2c-1.9-0.5-3.9,0.5-4.7,2.4c0.8-1.9,0-4-1.7-5c-0.2-0.1-0.3-0.2-0.5-0.3s-0.4-0.1-0.5-0.2c0.2,0.1,0.3,0.2,0.5,0.3
	s0.4,0.1,0.5,0.2C618.7,2360.1,620.8,2359.1,621.5,2357.2z"/>
<path class="st5" d="M635.9,2236.6c-1,2.5,0,5.3,2.3,6.6c0.2,0.1,0.4,0.2,0.7,0.3c0.2,0.1,0.5,0.2,0.7,0.2c-0.2-0.1-0.4-0.2-0.7-0.3
	c-0.2-0.1-0.5-0.2-0.7-0.2c-2.5-0.6-5.2,0.7-6.2,3.2c1-2.5,0-5.3-2.3-6.6c-0.2-0.1-0.4-0.2-0.7-0.3c-0.2-0.1-0.5-0.2-0.7-0.2
	c0.2,0.1,0.4,0.2,0.7,0.3c0.2,0.1,0.5,0.2,0.7,0.2C632.2,2240.4,634.9,2239.1,635.9,2236.6z"/>
<path class="st5" d="M674.2,2151.3c0.4,0.6,1.1,0.8,1.7,0.5c0.1,0,0.1-0.1,0.2-0.1c0,0,0.1-0.1,0.2-0.1c-0.1,0-0.1,0.1-0.2,0.1
	c0,0-0.1,0.1-0.2,0.1c-0.5,0.4-0.6,1.2-0.3,1.7c-0.4-0.6-1.1-0.8-1.7-0.5c-0.1,0-0.1,0.1-0.2,0.1c0,0-0.1,0.1-0.2,0.1
	c0.1,0,0.1-0.1,0.2-0.1c0,0,0.1-0.1,0.2-0.1C674.5,2152.6,674.6,2151.9,674.2,2151.3z"/>
<path class="st5" d="M629.4,2166.7c0.7,1.1,2.2,1.6,3.4,1c0.1-0.1,0.2-0.1,0.3-0.2c0.1-0.1,0.2-0.1,0.3-0.2
	c-0.1,0.1-0.2,0.1-0.3,0.2c-0.1,0.1-0.2,0.1-0.3,0.2c-1,0.9-1.3,2.3-0.5,3.5c-0.7-1.1-2.2-1.6-3.4-1c-0.1,0.1-0.2,0.1-0.3,0.2
	c-0.1,0.1-0.2,0.1-0.3,0.2c0.1-0.1,0.2-0.1,0.3-0.2s0.2-0.1,0.3-0.2C629.9,2169.3,630.1,2167.9,629.4,2166.7z"/>
<path class="st5" d="M644.6,2107.3c1.1,1.7,3.3,2.3,5,1.5c0.2-0.1,0.3-0.2,0.5-0.3s0.3-0.2,0.5-0.3c-0.2,0.1-0.3,0.2-0.5,0.3
	s-0.3,0.2-0.5,0.3c-1.5,1.3-1.9,3.5-0.8,5.2c-1.1-1.7-3.3-2.3-5-1.5c-0.2,0.1-0.3,0.2-0.5,0.3s-0.3,0.2-0.5,0.3
	c0.2-0.1,0.3-0.2,0.5-0.3s0.3-0.2,0.5-0.3C645.3,2111.2,645.6,2109,644.6,2107.3z"/>
<path class="st5" d="M1295.2,506.9c0.3,2.7,2.5,4.7,5.2,4.8c0.3,0,0.5,0,0.8,0s0.5-0.1,0.8-0.1c-0.3,0-0.5,0-0.8,0s-0.5,0.1-0.8,0.1
	c-2.6,0.7-4.3,3.1-4,5.8c-0.3-2.7-2.5-4.7-5.2-4.8c-0.3,0-0.5,0-0.8,0s-0.5,0.1-0.8,0.1c0.3,0,0.5,0,0.8,0s0.5-0.1,0.8-0.1
	C1293.8,512,1295.5,509.6,1295.2,506.9z"/>
<path class="st7" d="M1066.1,477.9c0.4,2.7,2.7,4.7,5.3,4.7c0.3,0,0.5,0,0.8,0s0.5-0.1,0.8-0.2c-0.3,0-0.5,0-0.8,0s-0.5,0.1-0.8,0.2
	c-2.6,0.7-4.3,3.3-3.9,6c-0.4-2.7-2.7-4.7-5.3-4.7c-0.3,0-0.5,0-0.8,0s-0.5,0.1-0.8,0.2c0.3,0,0.5,0,0.8,0s0.5-0.1,0.8-0.2
	C1064.8,483.1,1066.5,480.6,1066.1,477.9z"/>
<path class="st8" d="M143.7,369.3c0.9,1,2.4,1.1,3.5,0.3c0.1-0.1,0.2-0.1,0.3-0.2s0.2-0.2,0.3-0.3c-0.1,0.1-0.2,0.1-0.3,0.2
	s-0.2,0.2-0.3,0.3c-0.8,1-0.8,2.5,0.2,3.5c-0.9-1-2.4-1.1-3.5-0.3c-0.1,0.1-0.2,0.1-0.3,0.2s-0.2,0.2-0.3,0.3
	c0.1-0.1,0.2-0.1,0.3-0.2s0.2-0.2,0.3-0.3C144.7,371.7,144.7,370.2,143.7,369.3z"/>
<path class="st8" d="M146.6,418.8c1.9,1.9,4.9,2.2,7,0.6c0.2-0.1,0.4-0.3,0.6-0.5c0.2-0.2,0.4-0.4,0.5-0.6c-0.2,0.1-0.4,0.3-0.6,0.5
	c-0.2,0.2-0.4,0.4-0.5,0.6c-1.6,2.1-1.5,5.1,0.4,7c-1.9-1.9-4.9-2.2-7-0.6c-0.2,0.1-0.4,0.3-0.6,0.5c-0.2,0.2-0.4,0.4-0.5,0.6
	c0.2-0.1,0.4-0.3,0.6-0.5c0.2-0.2,0.4-0.4,0.5-0.6C148.6,423.8,148.4,420.8,146.6,418.8z"/>
<path class="st8" d="M82.1,326.7c0.5,0.5,1.2,0.5,1.8,0.2c0.1,0,0.1-0.1,0.2-0.1s0.1-0.1,0.1-0.1c-0.1,0-0.1,0.1-0.2,0.1
	s-0.1,0.1-0.1,0.1c-0.4,0.5-0.4,1.3,0.1,1.8c-0.5-0.5-1.2-0.5-1.8-0.2c-0.1,0-0.1,0.1-0.2,0.1s-0.1,0.1-0.1,0.1
	c0.1,0,0.1-0.1,0.2-0.1s0.1-0.1,0.1-0.1C82.6,327.9,82.5,327.2,82.1,326.7z"/>
<path class="st8" d="M116,398.6c1.4,1.5,3.7,1.6,5.2,0.5c0.2-0.1,0.3-0.2,0.4-0.4c0.1-0.1,0.3-0.3,0.4-0.4c-0.2,0.1-0.3,0.2-0.4,0.4
	c-0.1,0.1-0.3,0.3-0.4,0.4c-1.2,1.5-1.1,3.8,0.3,5.3c-1.4-1.5-3.7-1.6-5.2-0.5c-0.2,0.1-0.3,0.2-0.4,0.4c-0.1,0.1-0.3,0.3-0.4,0.4
	c0.2-0.1,0.3-0.2,0.4-0.4c0.1-0.1,0.3-0.3,0.4-0.4C117.5,402.3,117.4,400,116,398.6z"/>
<path class="st8" d="M41.3,350.9c0.9,1,2.4,1.1,3.5,0.3c0.1-0.1,0.2-0.1,0.3-0.2s0.2-0.2,0.3-0.3c-0.1,0.1-0.2,0.1-0.3,0.2
	s-0.2,0.2-0.3,0.3c-0.8,1-0.8,2.5,0.2,3.5c-0.9-1-2.4-1.1-3.5-0.3c-0.1,0.1-0.2,0.1-0.3,0.2s-0.2,0.2-0.3,0.3
	c0.1-0.1,0.2-0.1,0.3-0.2s0.2-0.2,0.3-0.3C42.3,353.3,42.2,351.8,41.3,350.9z"/>
<path class="st8" d="M44.1,289.6c1.4,1.5,3.7,1.6,5.2,0.5c0.2-0.1,0.3-0.2,0.4-0.4c0.1-0.1,0.3-0.3,0.4-0.4
	c-0.2,0.1-0.3,0.2-0.4,0.4c-0.1,0.1-0.3,0.3-0.4,0.4c-1.2,1.5-1.1,3.8,0.3,5.3c-1.4-1.5-3.7-1.6-5.2-0.5c-0.2,0.1-0.3,0.2-0.4,0.4
	c-0.1,0.1-0.3,0.3-0.4,0.4c0.2-0.1,0.3-0.2,0.4-0.4c0.1-0.1,0.3-0.3,0.4-0.4C45.6,293.3,45.5,291,44.1,289.6z"/>
<path class="st9" d="M223.3,286.3c-0.5,2.7,1.1,5.2,3.6,6c0.2,0.1,0.5,0.1,0.7,0.2c0.3,0,0.5,0.1,0.8,0.1c-0.2-0.1-0.5-0.1-0.7-0.2
	c-0.3,0-0.5-0.1-0.8-0.1c-2.6-0.1-5,1.8-5.5,4.4c0.5-2.7-1.1-5.2-3.6-6c-0.2-0.1-0.5-0.1-0.7-0.2c-0.3,0-0.5-0.1-0.8-0.1
	c0.2,0.1,0.5,0.1,0.7,0.2s0.5,0.1,0.8,0.1C220.4,290.9,222.8,289,223.3,286.3z"/>
<path class="st9" d="M221.8,249.7c-0.4,2,0.8,3.9,2.7,4.5c0.2,0.1,0.4,0.1,0.6,0.1s0.4,0.1,0.6,0.1c-0.2-0.1-0.4-0.1-0.6-0.1
	s-0.4-0.1-0.6-0.1c-2-0.1-3.7,1.3-4.1,3.3c0.4-2-0.8-3.9-2.7-4.5c-0.2-0.1-0.4-0.1-0.6-0.1s-0.4-0.1-0.6-0.1
	c0.2,0.1,0.4,0.1,0.6,0.1s0.4,0.1,0.6,0.1C219.6,253.1,221.4,251.7,221.8,249.7z"/>
<path class="st7" d="M239.2,145.8c-0.1,0.8,0.3,1.6,1.1,1.9c0.1,0,0.1,0,0.2,0.1c0.1,0,0.2,0,0.2,0c-0.1,0-0.1,0-0.2-0.1
	c-0.1,0-0.2,0-0.2,0c-0.8,0-1.6,0.6-1.7,1.4c0.1-0.8-0.3-1.6-1.1-1.9c-0.1,0-0.1,0-0.2-0.1s-0.2,0-0.2,0c0.1,0,0.1,0,0.2,0.1
	c0.1,0,0.2,0,0.2,0C238.3,147.2,239.1,146.7,239.2,145.8z"/>
<path class="st9" d="M178.1,192.6c-0.5,2.7,1.1,5.2,3.6,6c0.2,0.1,0.5,0.1,0.7,0.2c0.3,0.1,0.5,0.1,0.8,0.1
	c-0.2-0.1-0.5-0.1-0.7-0.2c-0.3-0.1-0.5-0.1-0.8-0.1c-2.6-0.1-5,1.8-5.5,4.4c0.5-2.7-1.1-5.2-3.6-6c-0.2-0.1-0.5-0.1-0.7-0.2
	c-0.3-0.1-0.5-0.1-0.8-0.1c0.2,0.1,0.5,0.1,0.7,0.2c0.3,0.1,0.5,0.1,0.8,0.1C175.2,197.1,177.6,195.3,178.1,192.6z"/>
<path class="st10" d="M1195.6,0C1110.2,45.7,925.1,126,747,58c-183.8-70.2-220,80-416,110c-41,6.3-79.4,2.8-114.5-6.6l0,0
	C92.4,128.3,9.9,20.8,0,7.4C-0.7,6.5-1,6-1,6s0.3-1.2,1-2.7c0.5-1,1.1-2.2,2-3.3H1195.6z"/>
<path class="st3" d="M2.8-1L2-0.6c9.9,13.4,101.4,120.9,225.5,154.1l0,0c35.1,9.4,73.5,12.8,114.5,6.6C538,130,574.2-20.2,758,50
	c169.3,64.7,344.9-4.8,435.2-51H2.8z"/>
<path class="st3" d="M929.6,465.8c1.9-3.3,0.6-7.3-3-9.2c-0.3-0.2-0.7-0.4-1.1-0.5c-0.4-0.1-0.8-0.3-1.2-0.4
	c0.3,0.2,0.7,0.4,1.1,0.5c0.4,0.1,0.8,0.3,1.2,0.4c4.1,1.1,8.6-0.5,10.5-3.8c-1.9,3.3-0.6,7.3,3,9.2c0.3,0.2,0.7,0.4,1.1,0.5
	c0.4,0.1,0.8,0.3,1.2,0.4c-0.3-0.2-0.7-0.4-1.1-0.5c-0.4-0.1-0.8-0.3-1.2-0.4C936,460.9,931.5,462.5,929.6,465.8z"/>
<g>
	<line class="st11" x1="254.8" y1="230.8" x2="261.6" y2="252.3"/>
	<path class="st11" d="M247.6,231c-5.4-6.6-14.5-9.6-23.1-6.8c-1.8,0.6-3.4,1.4-4.9,2.3l3.9,12.4"/>
	<path class="st11" d="M255.7,256.2c-0.5,8.6-6.2,16.3-14.9,19.1c-1.8,0.6-3.6,0.9-5.3,1l-4-12.4"/>
	<path class="st11" d="M223.2,264l-6.5-20.4c0,0,26.3-22.7,59.4-7.7C257.7,267.1,223.2,264,223.2,264z"/>
	<ellipse class="st11" cx="242.9" cy="246.5" rx="5.4" ry="5.4"/>
	<path class="st11" d="M200.7,255.5c1.5-2.9,5.1-4.1,8.1-2.6c2.9,1.5,4.1,5.1,2.6,8.1c-1.5,2.9-5.1,4.1-8.1,2.6
		c-1-0.5-5.3-2.8-5.3-2.8S199.7,257.4,200.7,255.5z"/>
</g>
<ellipse class="st12" cx="675.5" cy="1169.7" rx="420.7" ry="383.1"/>
<ellipse class="st12" cx="675.5" cy="1169.7" rx="445" ry="402.6"/>
<path class="st13" d="M1343,3039H53c148.1-149.4,381.9-245.7,645-245.7S1194.9,2889.6,1343,3039z"/>
<path class="st4" d="M1215.1,3038H180.9c118.8-119.7,306.2-197,517.1-197S1096.3,2918.3,1215.1,3038z"/>
<path class="st13" d="M1264,3051H132c130-142.6,335.1-234.7,566-234.7S1134,2908.4,1264,3051z"/>
<polygon class="st14" points="886.2,2542.3 899.9,2542.3 899.9,2542.3 "/>
<polygon id="Shadow_10_" class="st15" points="1361,2645.9 1293.8,2578 1266.8,2605 1257.2,2595.5 1243.1,2615.6 1228.3,2625.7 
	1215.8,2625.7 1175.3,2699.8 1258.7,2784 1361,2784 "/>
<path class="st16" d="M104.4,2053.1c0.2-0.3,0.3-0.6,0.5-0.8C104.8,2052.6,104.7,2052.9,104.4,2053.1c-0.1,0.4-0.2,0.7-0.4,0.9
	C104.2,2053.7,104.3,2053.4,104.4,2053.1z"/>
<path class="st16" d="M114,2050.4c-3.2-1.6-7-0.7-9.1,2c1.2-3.1-0.2-6.6-3.3-8.2c3.2,1.6,7,0.7,9.1-2
	C109.5,2045.3,110.9,2048.8,114,2050.4z"/>
<path class="st16" d="M111.3,2041.4c-0.2,0.3-0.3,0.6-0.5,0.8C110.9,2041.9,111.1,2041.6,111.3,2041.4c0.1-0.4,0.2-0.7,0.4-0.9
	C111.5,2040.8,111.4,2041.1,111.3,2041.4z"/>
<path class="st16" d="M167.7,2072.5c0.2-0.4,0.5-0.7,0.7-1.1C168.2,2071.8,168.1,2072.2,167.7,2072.5c-0.2,0.5-0.3,0.8-0.6,1.2
	C167.4,2073.3,167.5,2072.9,167.7,2072.5z"/>
<path class="st16" d="M176.8,2056.8c-0.2,0.4-0.4,0.7-0.7,1.1C176.2,2057.5,176.4,2057.1,176.8,2056.8c0.2-0.5,0.3-0.8,0.6-1.2
	C177.2,2056.1,177,2056.5,176.8,2056.8z"/>
<path class="st17" d="M104.4,2053.1c0.2-0.3,0.3-0.6,0.5-0.8C104.8,2052.6,104.7,2052.9,104.4,2053.1c-0.1,0.4-0.2,0.7-0.4,0.9
	C104.2,2053.7,104.3,2053.4,104.4,2053.1z"/>
<path class="st17" d="M110.7,2042.2c-1.2,3.1,0.2,6.6,3.3,8.2c-3.2-1.6-7-0.7-9.1,2c1.2-3.1-0.2-6.6-3.3-8.2
	C104.8,2045.7,108.7,2044.8,110.7,2042.2z"/>
<path class="st17" d="M111.3,2041.4c-0.2,0.3-0.3,0.6-0.5,0.8C110.9,2041.9,111.1,2041.6,111.3,2041.4c0.1-0.4,0.2-0.7,0.4-0.9
	C111.5,2040.8,111.4,2041.1,111.3,2041.4z"/>
<path class="st17" d="M167.7,2072.5c0.2-0.4,0.5-0.7,0.7-1.1C168.2,2071.8,168.1,2072.2,167.7,2072.5c-0.2,0.5-0.3,0.8-0.6,1.2
	C167.4,2073.3,167.5,2072.9,167.7,2072.5z"/>
<path class="st17" d="M176.8,2056.8c-0.2,0.4-0.4,0.7-0.7,1.1C176.2,2057.5,176.4,2057.1,176.8,2056.8c0.2-0.5,0.3-0.8,0.6-1.2
	C177.2,2056.1,177,2056.5,176.8,2056.8z"/>
<g>
	<path class="st18" d="M403,2103.9c0.1-0.2,0.2-0.4,0.2-0.6c0.9-2,1.7-4,2.5-6c0.1-0.3,0.3-0.6,0.4-0.9c0.8-2,1.6-4,2.3-5.9
		c0.1-0.3,0.2-0.5,0.3-0.8c2.5-6.8,4.7-13.7,6.6-20.6c0.1-0.3,0.2-0.7,0.3-1c0.5-1.9,1-3.9,1.5-5.8c0.1-0.5,0.2-1,0.4-1.5
		c0.4-1.9,0.9-3.7,1.3-5.6c0.1-0.5,0.2-0.9,0.3-1.4c0.4-2.1,0.9-4.3,1.2-6.5c0-0.2,0.1-0.3,0.1-0.4c0.8-4.7,1.5-9.4,2.1-14.2
		c0.1-0.5,0.1-1.1,0.2-1.6c0.2-1.8,0.4-3.6,0.5-5.4c0.1-0.7,0.1-1.3,0.2-2c0.1-1.7,0.3-3.4,0.3-5.2c0-0.7,0.1-1.3,0.1-2
		c0.1-1.9,0.1-3.8,0.2-5.7c0-0.5,0-0.9,0-1.4c0-2.4,0.1-4.8,0-7.2c0-0.1,0-0.2,0-0.2c0-2.3-0.1-4.5-0.2-6.8c0-0.7-0.1-1.3-0.1-2
		c-0.1-1.7-0.2-3.4-0.3-5.1c-0.1-0.8-0.1-1.6-0.2-2.4c-0.1-1.6-0.3-3.2-0.4-4.8c-0.1-0.8-0.2-1.6-0.3-2.4c-0.2-1.7-0.4-3.4-0.6-5.1
		c-0.1-0.7-0.2-1.3-0.3-2c-0.3-2.4-0.7-4.8-1.1-7.1c0-0.1,0-0.3-0.1-0.4c-0.4-2.2-0.8-4.4-1.3-6.7c-0.1-0.8-0.3-1.5-0.5-2.3
		c-0.3-1.6-0.7-3.2-1.1-4.8c-0.2-0.9-0.4-1.7-0.6-2.6c-0.4-1.5-0.8-3.1-1.2-4.6c-0.2-0.9-0.5-1.7-0.7-2.6c-0.5-1.6-0.9-3.2-1.4-4.8
		c-0.2-0.8-0.4-1.5-0.7-2.2c-0.7-2.3-1.5-4.7-2.3-7c-46.1-135.1-199.4-209.3-342.3-165.7c-143,43.5-221.5,188.3-175.4,323.4
		s199.4,209.3,342.3,165.7c57.5-17.5,104.6-51.4,137.3-94.4l0,0l0,0c4.5-6,8.8-12.1,12.8-18.4c0.1-0.1,0.1-0.2,0.2-0.3
		c1.2-1.9,2.4-3.9,3.6-5.9c0.1-0.2,0.2-0.4,0.4-0.6c1.2-2,2.3-4,3.5-6c0-0.1,0.1-0.2,0.1-0.2C396.7,2117.2,400,2110.6,403,2103.9z"
		/>
	<path class="st18" d="M375.6,2093.1c0.1-0.2,0.1-0.3,0.2-0.5c0.8-1.8,1.5-3.6,2.3-5.4c0.1-0.3,0.2-0.6,0.4-0.9
		c0.7-1.8,1.4-3.5,2.1-5.3c0.1-0.2,0.2-0.4,0.3-0.7c2.2-6,4.2-12.2,5.9-18.4c0.1-0.3,0.2-0.6,0.2-0.9c0.5-1.7,0.9-3.4,1.3-5.2
		c0.1-0.4,0.2-0.9,0.3-1.3c0.4-1.7,0.8-3.3,1.1-5c0.1-0.4,0.2-0.8,0.3-1.2c0.4-1.9,0.8-3.8,1.1-5.8c0-0.1,0-0.3,0.1-0.4
		c0.7-4.2,1.4-8.4,1.8-12.7c0-0.5,0.1-0.9,0.1-1.4c0.2-1.6,0.3-3.2,0.5-4.8c0-0.6,0.1-1.2,0.1-1.8c0.1-1.5,0.2-3.1,0.3-4.6
		c0-0.6,0.1-1.2,0.1-1.8c0.1-1.7,0.1-3.4,0.2-5.1c0-0.4,0-0.8,0-1.2c0-2.1,0-4.3,0-6.4c0-0.1,0-0.1,0-0.2c0-2-0.1-4-0.2-6.1
		c0-0.6-0.1-1.2-0.1-1.8c-0.1-1.5-0.2-3-0.3-4.5c0-0.7-0.1-1.4-0.2-2.2c-0.1-1.4-0.2-2.8-0.4-4.3c-0.1-0.7-0.1-1.4-0.2-2.2
		c-0.2-1.5-0.4-3-0.6-4.6c-0.1-0.6-0.1-1.2-0.2-1.8c-0.3-2.1-0.6-4.2-1-6.3c0-0.1,0-0.2-0.1-0.3c-0.3-2-0.7-4-1.1-5.9
		c-0.1-0.7-0.3-1.3-0.4-2c-0.3-1.4-0.6-2.9-1-4.3c-0.2-0.8-0.4-1.6-0.6-2.3c-0.3-1.4-0.7-2.7-1-4.1c-0.2-0.8-0.4-1.5-0.6-2.3
		c-0.4-1.4-0.8-2.9-1.3-4.3c-0.2-0.7-0.4-1.3-0.6-2c-0.6-2.1-1.3-4.2-2-6.3c-41.1-120.3-177.6-186.4-305-147.7
		C-50,1825.6-120,1954.6-78.9,2074.9c41.1,120.3,177.6,186.4,305,147.6c51.2-15.6,93.2-45.8,122.3-84.1l0,0l0,0
		c4-5.3,7.8-10.8,11.4-16.4c0.1-0.1,0.1-0.2,0.2-0.3c1.1-1.7,2.2-3.5,3.2-5.2c0.1-0.2,0.2-0.4,0.3-0.5c1-1.8,2.1-3.6,3.1-5.4
		c0-0.1,0.1-0.1,0.1-0.2C370,2104.9,372.9,2099.1,375.6,2093.1z"/>
	<path class="st18" d="M349.1,2082.7c0.1-0.1,0.1-0.3,0.2-0.4c0.7-1.6,1.4-3.1,2-4.7c0.1-0.3,0.2-0.5,0.3-0.8
		c0.6-1.6,1.2-3.1,1.8-4.7c0.1-0.2,0.1-0.4,0.2-0.6c2-5.3,3.7-10.7,5.2-16.2c0.1-0.3,0.1-0.5,0.2-0.8c0.4-1.5,0.8-3,1.2-4.6
		c0.1-0.4,0.2-0.8,0.3-1.1c0.4-1.5,0.7-2.9,1-4.4c0.1-0.4,0.1-0.7,0.2-1.1c0.4-1.7,0.7-3.4,1-5.1c0-0.1,0-0.2,0.1-0.4
		c0.6-3.7,1.2-7.4,1.6-11.2c0-0.4,0.1-0.8,0.1-1.2c0.1-1.4,0.3-2.8,0.4-4.3c0-0.5,0.1-1,0.1-1.6c0.1-1.3,0.2-2.7,0.3-4.1
		c0-0.5,0.1-1,0.1-1.6c0.1-1.5,0.1-3,0.2-4.5c0-0.4,0-0.7,0-1.1c0-1.9,0-3.8,0-5.7c0-0.1,0-0.1,0-0.2c0-1.8-0.1-3.6-0.1-5.3
		c0-0.5,0-1.1-0.1-1.6c-0.1-1.3-0.1-2.7-0.2-4c0-0.6-0.1-1.3-0.1-1.9c-0.1-1.3-0.2-2.5-0.3-3.8c-0.1-0.6-0.1-1.3-0.2-1.9
		c-0.1-1.3-0.3-2.7-0.5-4c-0.1-0.5-0.1-1.1-0.2-1.6c-0.3-1.9-0.5-3.7-0.9-5.6c0-0.1,0-0.2-0.1-0.3c-0.3-1.8-0.6-3.5-1-5.2
		c-0.1-0.6-0.3-1.2-0.4-1.8c-0.3-1.3-0.5-2.5-0.8-3.8c-0.2-0.7-0.3-1.4-0.5-2.1c-0.3-1.2-0.6-2.4-0.9-3.6c-0.2-0.7-0.4-1.4-0.5-2
		c-0.4-1.3-0.7-2.5-1.1-3.8c-0.2-0.6-0.3-1.2-0.5-1.8c-0.6-1.8-1.2-3.7-1.8-5.5c-36.2-106.1-156.6-164.4-268.9-130.2
		s-174,147.9-137.8,254s156.6,164.4,268.9,130.2c45.2-13.8,82.1-40.4,107.9-74.2l0,0l0,0c3.6-4.7,6.9-9.5,10-14.4
		c0-0.1,0.1-0.2,0.1-0.2c1-1.5,1.9-3.1,2.8-4.6c0.1-0.2,0.2-0.3,0.3-0.5c0.9-1.6,1.8-3.1,2.7-4.7c0-0.1,0.1-0.1,0.1-0.2
		C344.2,2093.1,346.8,2088,349.1,2082.7z"/>
	<g>
		<ellipse class="st4" cx="151.9" cy="2005" rx="183" ry="172.9"/>
		<g>
			<path class="st19" d="M176.3,1863.1L176.3,1863.1c2.7,7.9-1.9,16.5-10.3,19l-63.1,19.2c-9.7,3-15.1,12.8-11.9,22l0,0
				c3.1,9.2,13.5,14.2,23.3,11.3l95.4-29c9.8-3,20.2,2.1,23.4,11.3l0,0c3.1,9.2-2.2,19.1-12,22.1l-67.1,20.4
				c-8.8,2.7-13.6,11.6-10.8,19.9l0,0c2.8,8.3,12.3,12.9,21.1,10.2l46-14c8-2.4,16.7,1.7,19.3,9.3l0,0c2.6,7.6-1.8,15.7-9.9,18.2
				l-65.4,19.9c-9.4,2.9-14.6,12.4-11.6,21.4l0,0c3,8.9,13.2,13.8,22.6,11l86.5-26.3c9-2.8,18.7,1.9,21.6,10.4l0,0
				c2.9,8.5-2,17.7-11.1,20.4l-26.5,8.1c-8,2.4-12.3,10.5-9.8,18l0,0c2.6,7.5,11.1,11.6,19,9.2l20-6.1c14.8-4.5,30.6,3.2,35.4,17.1
				l0,0c32.8-43,44.2-99.7,25.6-154c-31-90.9-134.1-140.8-230.3-111.5l0,0c5.3,15.6,23.1,24.2,39.6,19.2l20.7-6.3
				C164.6,1850.8,173.6,1855.2,176.3,1863.1z"/>
		</g>
	</g>
</g>
<g>
	<g>
		
			<image style="overflow:visible;opacity:0.5;enable-background:new    ;" width="239" height="226" xlink:href="B4B9BBAD.png"  transform="matrix(1 0 0 1 36 1883)">
		</image>
		<g>
			<ellipse class="st20" cx="154.5" cy="1995.1" rx="109.6" ry="103.5"/>
		</g>
	</g>
	<g>
		<path class="st7" d="M203.9,2008.6c-0.2,1.4,0.7,2.7,2.2,3.1c0.1,0,0.3,0.1,0.4,0.1c0.1,0,0.3,0,0.4,0c-0.1,0-0.3-0.1-0.4-0.1
			c-0.1,0-0.3,0-0.4,0c-1.6,0-2.9,1-3.2,2.4c0.2-1.4-0.7-2.7-2.2-3.1c-0.1,0-0.3-0.1-0.4-0.1c-0.1,0-0.3,0-0.4,0
			c0.1,0,0.3,0.1,0.4,0.1c0.1,0,0.3,0,0.4,0C202.3,2010.9,203.7,2009.9,203.9,2008.6z"/>
		<path class="st7" d="M218.9,1899.2c-0.7,4.2,2.2,8.1,6.7,9.2c0.4,0.1,0.9,0.2,1.3,0.3s0.9,0.1,1.3,0.1c-0.4-0.1-0.9-0.2-1.3-0.3
			s-0.9-0.1-1.3-0.1c-4.7,0-8.8,2.9-9.5,7.1c0.7-4.2-2.2-8.1-6.7-9.2c-0.4-0.1-0.9-0.2-1.3-0.3s-0.9-0.1-1.3-0.1
			c0.4,0.1,0.9,0.2,1.3,0.3s0.9,0.1,1.3,0.1C214,1906.3,218.1,1903.3,218.9,1899.2z"/>
		<path class="st3" d="M111.6,2067L111.6,2067v-145.3l0,0c7.2,0,13,5.8,13,13V2054C124.5,2061.1,118.7,2067,111.6,2067z"/>
		<g>
			<path class="st3" d="M220.3,1955v76.8c0,19.5-18,35.3-40.3,35.3h-53.3c0-2.8,1.3-5.3,3.4-7.1s4.9-2.9,8.1-2.9H180
				c15.9,0,28.8-11.3,28.8-25.3V1955c0-13.9-12.8-25.1-28.7-25.1h-42c-6.3,0-11.4-4.5-11.4-10h53.4c21.1,0,38.4,14.3,40,32.4
				C220.2,1953.2,220.3,1954.1,220.3,1955z"/>
		</g>
	</g>
	<ellipse class="st3" cx="78.2" cy="1943.3" rx="15.8" ry="14.9"/>
</g>
<path class="st5" d="M184.5,1971.6c0.5,0.5,1.3,0.6,1.9,0.2c0.1,0,0.1-0.1,0.2-0.1s0.1-0.1,0.1-0.1c-0.1,0-0.1,0.1-0.2,0.1
	s-0.1,0.1-0.1,0.1c-0.4,0.5-0.4,1.3,0.1,1.8c-0.5-0.5-1.3-0.6-1.9-0.2c-0.1,0-0.1,0.1-0.2,0.1s-0.1,0.1-0.1,0.1
	c0.1,0,0.1-0.1,0.2-0.1s0.1-0.1,0.1-0.1C185,1972.9,185,1972.1,184.5,1971.6z"/>
<path class="st5" d="M141.1,1995.5c1,1,2.6,1.1,3.7,0.3c0.1-0.1,0.2-0.2,0.3-0.2s0.2-0.2,0.3-0.3c-0.1,0.1-0.2,0.2-0.3,0.2
	s-0.2,0.2-0.3,0.3c-0.9,1-0.8,2.5,0.2,3.5c-1-1-2.6-1.1-3.7-0.3c-0.1,0.1-0.2,0.2-0.3,0.2s-0.2,0.2-0.3,0.3c0.1-0.1,0.2-0.2,0.3-0.2
	s0.2-0.2,0.3-0.3C142.1,1997.9,142.1,1996.4,141.1,1995.5z"/>
<path class="st5" d="M144.7,1934.2c1.5,1.5,3.9,1.7,5.6,0.5c0.2-0.1,0.3-0.2,0.5-0.4s0.3-0.3,0.4-0.4c-0.2,0.1-0.3,0.2-0.5,0.4
	s-0.3,0.3-0.4,0.4c-1.3,1.5-1.2,3.8,0.2,5.3c-1.5-1.5-3.9-1.7-5.6-0.5c-0.2,0.1-0.3,0.2-0.5,0.4s-0.3,0.3-0.4,0.4
	c0.2-0.1,0.3-0.2,0.5-0.4s0.3-0.3,0.4-0.4C146.2,1937.9,146.2,1935.7,144.7,1934.2z"/>
<g>
	<polygon class="st21" points="1404,1488 694.7,1865 728.7,1923.3 1463.7,1531.9 	"/>
	<g>
		<g>
			<g>
				<path class="st19" d="M867.9,1818.8l-23.3,11.9c-2.1,0.7-4.5-0.2-5.6-2.3c-1.2-2.3-0.3-5.1,2-6.3l0,0l32.2-17.1
					c2.3-1.2,3.2-4,2-6.3s-4-3.2-6.3-2l-64.5,34.3c-0.3,0.2-0.6,0.3-0.8,0.3l-0.7,0.3l-0.1-0.2c-2.4,0.4-4.9-0.7-6.1-2.9
					c-1.1-2.1-0.8-4.6,0.6-6.3l15.1-8.4c1.8-1.4,2.3-3.8,1.3-5.9c-1.2-2.3-4-3.2-6.3-2L694.7,1865c-16.5,8.7-22.8,29-14.2,45.5
					c8.7,16.5,29,22.8,45.5,14.2l114.9-60.3c2.3-1.2,3.2-4,2-6.3c-1.1-2.1-3.5-3-5.7-2.2l-6.2,3.2c-2.2,1.2-4.9,0.3-6.1-1.9
					c-1.2-2.2-0.3-4.9,1.9-6.1l10.2-5.3l35.3-18.7c2.3-1.2,3.2-4,2-6.3C873,1818.5,870.2,1817.6,867.9,1818.8z"/>
			</g>
		</g>
		<g>
			<path class="st4" d="M815.2,1845.9l-17.7,9c-1.6,0.5-3.4-0.2-4.2-1.7c-0.9-1.7-0.2-3.9,1.5-4.8l0,0l24.5-13
				c1.7-0.9,2.4-3.1,1.5-4.8c-0.9-1.7-3.1-2.4-4.8-1.5l-48.9,26c-0.2,0.1-0.4,0.2-0.7,0.3l-0.5,0.3l-0.1-0.1
				c-1.8,0.3-3.7-0.5-4.6-2.2c-0.8-1.6-0.6-3.4,0.5-4.8l11.5-6.4c1.3-1,1.8-2.9,1-4.4c-0.9-1.7-3.1-2.4-4.8-1.5l-68.7,35.2
				c-12.5,6.6-17.3,22-10.8,34.5s22,17.3,34.5,10.8l70.3-36.2c1.7-0.9,2.4-3.1,1.5-4.8c-0.8-1.6-2.7-2.3-4.3-1.7l-4.7,2.4
				c-1.7,0.9-3.7,0.2-4.6-1.4c-0.9-1.7-0.2-3.7,1.4-4.6l7.7-4l26.7-14.2c1.7-0.9,2.4-3.1,1.5-4.8
				C819.1,1845.6,817,1844.9,815.2,1845.9z"/>
		</g>
	</g>
</g>
<g>
	<polygon class="st21" points="1699,1742.8 1124.1,2056.1 1147,2095.2 1699,1811.4 	"/>
	<g>
		<g>
			<g>
				<path class="st19" d="M1240.5,2025l-15.7,8c-1.4,0.5-3-0.2-3.7-1.5c-0.8-1.5-0.2-3.4,1.3-4.2l0,0l21.7-11.5
					c1.5-0.8,2.1-2.7,1.3-4.3s-2.7-2.1-4.3-1.3l-43.3,23.1c-0.2,0.1-0.4,0.2-0.6,0.2l-0.4,0.2l-0.1-0.1c-1.6,0.3-3.3-0.4-4.1-2
					c-0.7-1.4-0.5-3.1,0.4-4.2l10.2-5.7c1.2-0.9,1.6-2.6,0.8-3.9c-0.8-1.5-2.7-2.1-4.3-1.3l-75.7,39.6c-11.1,5.8-15.3,19.5-9.5,30.6
					s19.5,15.4,30.6,9.5l77.2-40.5c1.5-0.8,2.1-2.7,1.3-4.3c-0.7-1.4-2.4-2-3.8-1.5l-4.1,2.2c-1.5,0.8-3.3,0.2-4.1-1.3
					c-0.8-1.5-0.2-3.3,1.3-4.1l6.8-3.6l23.7-12.6c1.5-0.8,2.1-2.7,1.3-4.3C1244,2024.8,1242.1,2024.2,1240.5,2025z"/>
			</g>
		</g>
		<g>
			<path class="st4" d="M1205.1,2043.2l-11.9,6c-1.1,0.4-2.3-0.1-2.8-1.2c-0.6-1.2-0.2-2.6,1-3.2l0,0l16.4-8.7
				c1.2-0.6,1.6-2.1,1-3.2c-0.6-1.2-2.1-1.6-3.2-1l-32.9,17.5c-0.1,0.1-0.3,0.1-0.4,0.2l-0.3,0.2l-0.1-0.1c-1.2,0.2-2.5-0.3-3.1-1.5
				c-0.6-1.1-0.4-2.3,0.3-3.2l7.7-4.3c0.9-0.7,1.2-1.9,0.7-3c-0.6-1.2-2.1-1.6-3.2-1l-46.2,23.7c-8.4,4.4-11.7,14.8-7.2,23.2
				s14.8,11.6,23.2,7.2l47.3-24.3c1.2-0.6,1.6-2.1,1-3.2c-0.6-1.1-1.8-1.5-2.9-1.1l-3.1,1.6c-1.1,0.6-2.5,0.2-3.1-1
				c-0.6-1.1-0.2-2.5,1-3.1l5.2-2.7l18-9.5c1.2-0.6,1.6-2.1,1-3.2C1207.8,2043,1206.3,2042.6,1205.1,2043.2z"/>
		</g>
	</g>
</g>
<g id="Telescope_1_">
	<g id="Telescope">
		<g>
			<rect x="679.9" y="2841.7" class="st22" width="4.9" height="16.6"/>
			<rect x="679.9" y="2858" class="st22" width="4.9" height="50.4"/>
			<polygon class="st22" points="660.6,2908.1 674.5,2858.2 679.2,2859.5 665.7,2908.1 			"/>
			<polygon class="st22" points="704.2,2908.1 690.3,2858.2 685.6,2859.5 699,2908.1 			"/>
			<path class="st23" d="M687.2,2858.3c0,2.7-2.2,4.9-4.9,4.9s-4.9-2.2-4.9-4.9s2.2-4.9,4.9-4.9
				C685,2853.3,687.2,2855.5,687.2,2858.3z"/>
			<rect x="673.8" y="2855.8" class="st23" width="17" height="4.9"/>
		</g>
		<g>
			
				<rect x="648.1" y="2802.2" transform="matrix(0.3411 -0.94 0.94 0.3411 -2217.6248 2484.2393)" class="st24" width="30.4" height="43.6"/>
			
				<rect x="684.3" y="2821.4" transform="matrix(0.3411 -0.94 0.94 0.3411 -2206.5298 2525.1882)" class="st25" width="27.5" height="30.3"/>
			
				<rect x="721.1" y="2831.9" transform="matrix(0.3411 -0.94 0.94 0.3411 -2197.5752 2558.8301)" class="st26" width="10.8" height="30.3"/>
			<g>
				<path class="st27" d="M644.4,2798.1l1.8,0.6c1.6,0.6,2.4,2.4,1.9,4l-10.1,27.9c-0.6,1.6-2.4,2.4-4,1.9l-1.8-0.6L644.4,2798.1z"
					/>
			</g>
			<g>
				<path class="st27" d="M744,2844.9c0.8,0.3,1.3,1.1,1,1.8l-4.5,12.5c-0.3,0.7-1.1,1-1.9,0.7l-0.3-0.1l5.4-15L744,2844.9z"/>
			</g>
			
				<rect x="665.6" y="2792.1" transform="matrix(0.3411 -0.94 0.94 0.3411 -2204.3262 2480.542)" class="st28" width="3.4" height="41.2"/>
			
				<rect x="699.9" y="2813.3" transform="matrix(0.3413 -0.9399 0.9399 0.3413 -2195.0664 2521.5081)" class="st28" width="3.4" height="27.3"/>
			<path class="st3" d="M638.3,2815L638.3,2815L638.3,2815l6-16.5c0,0-2.4,0.5-8,15.8l0,0l0,0l0,0l0,0c-5.5,15.3-4,17.2-4,17.2
				L638.3,2815L638.3,2815L638.3,2815z"/>
		</g>
	</g>
</g>
<path class="st11" d="M166,279c0,0-174,197-11,288s365-53,467-52s187,99,290,21c0,0,41-23,68-76"/>
</svg>
