<?xml version="1.0" encoding="utf-8"?>
<!-- Generator: Adobe Illustrator 23.0.0, SVG Export Plug-In . SVG Version: 6.00 Build 0)  -->
<svg version="1.1" id="Layer_1" xmlns="http://www.w3.org/2000/svg" xmlns:xlink="http://www.w3.org/1999/xlink" x="0px" y="0px"
	 viewBox="0 0 580 1632" style="enable-background:new 0 0 580 1632;" xml:space="preserve">
<style type="text/css">
	.st0{fill:url(#SVGID_1_);}
	.st1{opacity:0.5;}
	.st2{opacity:0.1;fill:#FCFCFC;enable-background:new    ;}
	.st3{fill:#DFD8D8;}
	.st4{fill:#FCFCFC;}
	.st5{opacity:0.46;fill:#FFFFFF;enable-background:new    ;}
	.st6{fill:#CCCCCC;}
	.st7{fill:#FFFFFF;}
	.st8{opacity:0.26;fill:#FFFFFF;enable-background:new    ;}
	.st9{opacity:0.7;fill:#FFFFFF;enable-background:new    ;}
	.st10{opacity:0.19;fill:#FFFFFF;enable-background:new    ;}
	.st11{opacity:0.3;fill:#FFFFFF;enable-background:new    ;}
	.st12{fill:#999999;}
	.st13{opacity:0.38;fill:#FFFFFF;enable-background:new    ;}
	.st14{opacity:0.3;fill:#FCFCFC;enable-background:new    ;}
	.st15{fill:#A8A8A8;}
	.st16{opacity:0.1;fill:#BBF9E7;enable-background:new    ;}
	.st17{fill:#4D4D4D;}
	.st18{opacity:0.2;fill:#FCFCFC;enable-background:new    ;}
	.st19{opacity:0.1;enable-background:new    ;}
	.st20{fill:#FFDF3C;}
	.st21{fill:#FF8948;}
	.st22{fill:#E6E7E8;}
	.st23{fill:#939598;}
	.st24{fill:#58595B;}
	.st25{fill:#808285;}
	.st26{fill:#E03643;}
	.st27{fill:#A3DFFF;}
	.st28{fill:#53A2D3;}
	.st29{fill:#F1F2F2;}
	.st30{fill:#D1D3D4;}
	.st31{fill:#3A3A3A;}
	.st32{fill:#A7A9AC;}
	.st33{fill:#BCBEC0;}
	.st34{fill:#46BBEB;}
	.st35{fill:#D5F6FF;}
	.st36{fill:#231F20;}
	.st37{fill:#414042;}
	.st38{fill:#E0E0E0;}
</style>
<g>
	
		<radialGradient id="SVGID_1_" cx="110.4527" cy="859.4255" r="1264.9573" gradientTransform="matrix(1 0 0 -1 0 1632)" gradientUnits="userSpaceOnUse">
		<stop  offset="0" style="stop-color:#4D4D4D"/>
		<stop  offset="0.2681" style="stop-color:#2E2E2E"/>
		<stop  offset="0.5445" style="stop-color:#151515"/>
		<stop  offset="0.7966" style="stop-color:#050505"/>
		<stop  offset="1" style="stop-color:#000000"/>
	</radialGradient>
	<rect x="-0.3" y="1.4" class="st0" width="582.3" height="1630.5"/>
</g>
<g class="st1">
	<polygon class="st2" points="579,1 578.5,1.4 560.8,14.3 554,19.4 542.6,27.7 531.6,35.8 522.3,42.6 491.2,65.5 477.8,75.4 
		381.7,146 341.1,175.9 339,173.7 325.3,159.6 323.1,157.3 437.6,73.2 437.6,73.2 442.6,69.6 506,23 520.3,12.6 535.5,1.4 536,1 	
		"/>
	<g>
		<g>
			<g>
				<path class="st3" d="M388.3,128.5l-8.3,5.9c-0.8,0.4-1.8,0.2-2.4-0.4c-0.6-0.7-0.5-1.8,0.3-2.4l0,0l11.5-8.4
					c0.8-0.6,1-1.7,0.3-2.4c-0.6-0.7-1.9-0.9-2.7-0.3l-23,16.9c-0.1,0.1-0.2,0.1-0.3,0.2l-0.2,0.2l0-0.1c-0.9,0.3-2,0.1-2.6-0.6
					c-0.6-0.7-0.6-1.6-0.2-2.3l5.3-4.1c0.6-0.6,0.6-1.5,0-2.2c-0.7-0.7-1.9-0.9-2.7-0.3L323,157.2c-5.9,4.3-6.8,12-2.1,17.4
					s13.3,6.2,19.2,1.9l41-29.7c0.8-0.6,1-1.7,0.3-2.4c-0.6-0.7-1.6-0.8-2.4-0.4l-2.2,1.6c-0.8,0.6-1.9,0.4-2.6-0.3
					c-0.6-0.7-0.5-1.8,0.3-2.3l3.6-2.6l12.5-9.2c0.8-0.6,1-1.7,0.3-2.4C390.3,128.1,389.1,127.9,388.3,128.5z"/>
			</g>
		</g>
		<g>
			<path class="st4" d="M369.4,141.9l-6.3,4.5c-0.6,0.3-1.4,0.2-1.8-0.3c-0.5-0.6-0.4-1.4,0.2-1.8l0,0l8.7-6.4
				c0.6-0.4,0.7-1.3,0.2-1.8c-0.5-0.6-1.4-0.6-2-0.2L351,148.6c-0.1,0.1-0.2,0.1-0.2,0.1l-0.2,0.1l0,0c-0.7,0.3-1.5,0.1-2-0.5
				c-0.5-0.5-0.5-1.2-0.2-1.7l4-3.1c0.5-0.5,0.5-1.2,0-1.7c-0.5-0.6-1.4-0.6-2-0.2l-24.5,17.5c-4.5,3.2-5.2,9.1-1.6,13.2
				s10.1,4.7,14.5,1.5l25.1-17.9c0.6-0.4,0.7-1.3,0.2-1.8c-0.5-0.5-1.2-0.6-1.9-0.3l-1.7,1.2c-0.6,0.4-1.5,0.4-1.9-0.2
				c-0.5-0.5-0.4-1.3,0.2-1.8l2.8-2l9.5-7c0.6-0.4,0.7-1.3,0.2-1.8C371,141.6,370,141.5,369.4,141.9z"/>
		</g>
	</g>
</g>
<g class="st1">
	<path class="st2" d="M582.5,43.8c-0.1,7.3-0.2,15-0.5,19.2v6.4l-40.1,29.5l-32,23.5l-0.4,0.3l0,0l-1.7-1.7L497,109.7l-1.8-1.9
		l59.9-44l7.8-5.7l19.1-14L582.5,43.8L582.5,43.8z"/>
	<g>
		<g>
			<g>
				<path class="st3" d="M547.2,84.9l-6.6,4.7c-0.6,0.3-1.4,0.2-1.9-0.3c-0.5-0.6-0.4-1.4,0.2-1.9l0,0l9.1-6.7
					c0.7-0.5,0.8-1.3,0.2-1.9c-0.5-0.6-1.5-0.7-2.1-0.2l-18.3,13.4c-0.1,0.1-0.2,0.1-0.3,0.2l-0.2,0.1l0,0c-0.7,0.3-1.6,0.1-2.1-0.5
					c-0.5-0.5-0.5-1.3-0.2-1.8l4.3-3.3c0.5-0.5,0.5-1.2,0-1.8c-0.5-0.6-1.5-0.7-2.1-0.2l-32,23.2c-4.7,3.4-5.4,9.6-1.7,13.8
					c3.8,4.3,10.6,4.9,15.3,1.5l32.6-23.7c0.7-0.5,0.8-1.3,0.2-1.9c-0.5-0.5-1.3-0.7-1.9-0.3l-1.8,1.3c-0.6,0.4-1.5,0.4-2-0.2
					s-0.4-1.4,0.2-1.8l2.9-2.1l10-7.3c0.7-0.5,0.8-1.3,0.2-1.9C548.8,84.5,547.8,84.4,547.2,84.9z"/>
			</g>
		</g>
		<g>
			<path class="st4" d="M532.2,95.6l-5,3.6c-0.5,0.2-1.1,0.1-1.4-0.3c-0.4-0.4-0.3-1.1,0.2-1.5l0,0l6.9-5.1c0.5-0.4,0.6-1,0.2-1.5
				s-1.1-0.5-1.6-0.2l-13.9,10.2c-0.1,0-0.1,0.1-0.2,0.1l-0.1,0.1l0,0c-0.5,0.2-1.2,0.1-1.6-0.4c-0.4-0.4-0.4-1-0.1-1.4l3.2-2.5
				c0.4-0.4,0.4-0.9,0-1.3c-0.4-0.4-1.1-0.5-1.6-0.2l-19.6,13.9c-3.5,2.6-4.1,7.3-1.3,10.5c2.8,3.2,8,3.7,11.6,1.2l20-14.3
				c0.5-0.4,0.6-1,0.2-1.5c-0.4-0.4-1-0.5-1.5-0.3l-1.3,1c-0.5,0.3-1.2,0.3-1.5-0.2s-0.3-1.1,0.2-1.4l2.2-1.6l7.6-5.6
				c0.5-0.4,0.6-1,0.2-1.5C533.4,95.3,532.6,95.2,532.2,95.6z"/>
		</g>
	</g>
</g>
<g>
	<ellipse class="st5" cx="25.5" cy="337.4" rx="0.4" ry="0.4"/>
	<ellipse class="st5" cx="71.4" cy="348.5" rx="0.9" ry="0.9"/>
	<ellipse class="st5" cx="103.9" cy="345.9" rx="0.9" ry="0.9"/>
	<ellipse class="st5" cx="80.2" cy="360.4" rx="0.9" ry="0.9"/>
	<path class="st5" d="M36.1,365.6c-0.1-0.2-0.1-0.4,0.1-0.5c0.2-0.1,0.5-0.1,0.6,0.1c0.1,0.2,0.1,0.4-0.1,0.5"/>
	<g id="the_moon">
		<path class="st6" d="M138.4,331.6c-10.8,24.2-41.3,35.9-68,26c-18.2-6.7-30-21.7-32.2-38.2c-1-7.7,0-15.7,3.5-23.4
			c10.8-24.2,41.3-35.9,68-26c20.8,7.7,33.2,26.1,32.5,45.3C142.1,320.8,140.9,326.3,138.4,331.6z"/>
		<path class="st7" d="M138.4,331.6c-10.8,24.2-41.3,35.9-68,26c-18.2-6.7-30-21.7-32.2-38.2c0.2-5.4,1.4-11,3.8-16.3
			c10.8-24.2,41.3-35.9,68-26c18.2,6.7,30,21.7,32.2,38.2C142.1,320.8,140.9,326.3,138.4,331.6z"/>
		<path class="st6" d="M111.3,270.6c-0.4-0.3-1-0.4-1.6-0.6c-26.7-9.8-57.2,1.8-68,26c-10.8,24.2,2,51.8,28.7,61.6s57.2-1.8,68-26
			c0,0,2-6-6.2-8.4s-40-14.1-25.9-24.7C106.3,298.5,128.6,282.8,111.3,270.6z"/>
		<path class="st4" d="M136.4,329.7c-9.2,20.6-32.2,33.2-55.3,30.3c-0.5-0.1-1.1-0.1-1.6-0.2c-3.2-0.5-6.5-1.3-9.7-2.4l-0.1,0
			c-0.2-0.1-0.4-0.1-0.6-0.2c-13.9-5.1-24.3-15.5-29.4-27.6c-0.1-0.3-0.2-0.6-0.3-0.9c-1.7-4.2-2.8-8.6-3.2-13.1
			c-0.1-0.7-0.1-1.5-0.1-2.2c-0.2-6.5,0.9-13,3.7-19.2c4.4-9.9,12.1-17.6,21.5-22.7c0.3-0.2,0.6-0.3,1-0.5c4.3-2.2,9-3.9,13.8-5
			c0.4-0.1,0.7-0.1,1.1-0.2c9.9-2,20.5-1.3,30.7,2.4c0.5,0.2,3.4,2.1,3.7,2.5c0,0,0,0,0,0l0,0c0,0,0,0,0.1,0.1
			c2.3,3,3.4,5.9,3.6,8.5c1,10.4-10.9,17.3-10.9,17.3c-5.8,4.3-3.8,8.8,1,12.8l0,0c7,5.8,20.1,10.5,25,11.9c2.8,0.8,4.4,2.1,5.4,3.4
			l0,0C137.3,327.1,136.4,329.7,136.4,329.7z"/>
	</g>
	<path class="st6" d="M43,331.2c2.8-6.2,10-9.5,17-8.1c-6.1-3-9.1-9.4-7.3-15.5c-3.4,5-10,7.5-16.3,6.1c6.3,3.3,9.1,10.5,6.3,16.8
		L43,331.2z"/>
	<path class="st4" d="M39.2,330.4c2.8-6.2,10-9.5,17-8.1c-6.1-3-9.1-9.4-7.3-15.5c-3.4,5-10,7.5-16.3,6.1c6.3,3.3,9.1,10.5,6.3,16.8
		L39.2,330.4z"/>
	<path class="st6" d="M77,265.7l1,2.1l1.2,2.6l-2.2,4.8l-0.3,0.8l-6.1,2.3l-1.4-0.5l-0.1,0l-4.6-1.7l-1.3-2.8l-1.1-2.4
		c4.3-2.2,9-3.9,13.8-5L77,265.7z"/>
	<path class="st4" d="M77.8,269.9l-2.5,5.6l-2.9,1.1l-0.1,0l-3.2,1.2l-6.1-2.3l-0.8-1.7l-1.1-2.4c0.3-0.2,0.6-0.3,1-0.5
		c4.3-2.2,9-3.9,13.8-5l1,2.1L77.8,269.9z"/>
</g>
<path class="st8" d="M146.7,463.6c1,0,1.9-0.7,2-1.6c0-0.1,0-0.2,0-0.3s0-0.2,0-0.3c0,0.1,0,0.2,0,0.3s0,0.2,0,0.3
	c0.1,0.9,1,1.6,2,1.6c-1,0-1.9,0.7-2,1.6c0,0.1,0,0.2,0,0.3s0,0.2,0,0.3c0-0.1,0-0.2,0-0.3s0-0.2,0-0.3
	C148.5,464.3,147.7,463.6,146.7,463.6z"/>
<path class="st9" d="M150.3,358.6c0.6,0.8,1.9,1,2.8,0.6c0.1,0,0.2-0.1,0.3-0.1c0.1-0.1,0.2-0.1,0.2-0.2c-0.1,0-0.2,0.1-0.3,0.1
	s-0.2,0.1-0.2,0.2c-0.8,0.7-0.9,1.8-0.3,2.6c-0.6-0.8-1.9-1-2.8-0.6c-0.1,0-0.2,0.1-0.3,0.1s-0.2,0.1-0.2,0.2c0.1,0,0.2-0.1,0.3-0.1
	s0.2-0.1,0.2-0.2C150.9,360.5,151,359.4,150.3,358.6z"/>
<path class="st10" d="M36.4,376.5c0.4,0.4,1,0.4,1.4,0.1c0,0,0.1-0.1,0.1-0.1s0.1-0.1,0.1-0.1c0,0-0.1,0.1-0.1,0.1
	c0,0-0.1,0.1-0.1,0.1c-0.3,0.4-0.3,0.9,0.1,1.3c-0.4-0.4-1-0.4-1.4-0.1c0,0-0.1,0.1-0.1,0.1s-0.1,0.1-0.1,0.1c0,0,0.1-0.1,0.1-0.1
	c0,0,0.1-0.1,0.1-0.1C36.8,377.4,36.7,376.8,36.4,376.5z"/>
<path class="st10" d="M37.5,394.6c0.8,0.7,2,0.8,2.8,0.2c0.1,0,0.2-0.1,0.2-0.2c0.1-0.1,0.1-0.1,0.2-0.2c-0.1,0-0.2,0.1-0.2,0.2
	c-0.1,0.1-0.1,0.1-0.2,0.2c-0.7,0.8-0.6,1.9,0.2,2.6c-0.8-0.7-2-0.8-2.8-0.2c-0.1,0-0.2,0.1-0.2,0.2c-0.1,0.1-0.1,0.1-0.2,0.2
	c0.1,0,0.2-0.1,0.2-0.2c0.1-0.1,0.1-0.1,0.2-0.2C38.3,396.5,38.3,395.4,37.5,394.6z"/>
<path class="st10" d="M11.4,360.9c0.2,0.2,0.5,0.2,0.7,0.1c0,0,0,0,0.1,0c0,0,0,0,0.1,0c0,0,0,0-0.1,0s0,0-0.1,0
	c-0.2,0.2-0.1,0.5,0,0.6c-0.2-0.2-0.5-0.2-0.7-0.1c0,0,0,0-0.1,0s0,0-0.1,0c0,0,0,0,0.1,0c0,0,0,0,0.1,0
	C11.6,361.3,11.6,361,11.4,360.9z"/>
<path class="st10" d="M25.1,387.2c0.6,0.5,1.5,0.6,2.1,0.2c0.1,0,0.1-0.1,0.2-0.1c0.1,0,0.1-0.1,0.1-0.1c-0.1,0-0.1,0.1-0.2,0.1
	s-0.1,0.1-0.1,0.1c-0.5,0.6-0.5,1.4,0.1,1.9c-0.6-0.5-1.5-0.6-2.1-0.2c-0.1,0-0.1,0.1-0.2,0.1c-0.1,0-0.1,0.1-0.1,0.1
	c0.1,0,0.1-0.1,0.2-0.1c0.1,0,0.1-0.1,0.1-0.1C25.7,388.6,25.7,387.8,25.1,387.2z"/>
<path class="st10" d="M-5.1,369.7c0.4,0.4,1,0.4,1.4,0.1c0,0,0.1-0.1,0.1-0.1s0.1-0.1,0.1-0.1c0,0-0.1,0.1-0.1,0.1s-0.1,0.1-0.1,0.1
	c-0.3,0.4-0.3,0.9,0.1,1.3c-0.4-0.4-1-0.4-1.4-0.1c0,0-0.1,0.1-0.1,0.1s-0.1,0.1-0.1,0.1c0,0,0.1-0.1,0.1-0.1S-5,371.1-5,371
	C-4.7,370.6-4.7,370.1-5.1,369.7z"/>
<path class="st10" d="M-3.9,347.3c0.6,0.5,1.5,0.6,2.1,0.2c0.1,0,0.1-0.1,0.2-0.1c0.1,0,0.1-0.1,0.1-0.1c-0.1,0-0.1,0.1-0.2,0.1
	c-0.1,0-0.1,0.1-0.1,0.1c-0.5,0.6-0.5,1.4,0.1,1.9c-0.6-0.5-1.5-0.6-2.1-0.2c-0.1,0-0.1,0.1-0.2,0.1c-0.1,0.1-0.1,0.1-0.2,0.1
	c0.1,0,0.1-0.1,0.2-0.1s0.1-0.1,0.2-0.1C-3.3,348.6-3.4,347.8-3.9,347.3z"/>
<path class="st11" d="M68.5,346.1c-0.2,1,0.4,1.9,1.4,2.2c0.1,0,0.2,0,0.3,0.1c0.1,0,0.2,0,0.3,0c-0.1,0-0.2,0-0.3-0.1
	c-0.1,0-0.2,0-0.3,0c-1.1,0-2,0.6-2.2,1.6c0.2-1-0.4-1.9-1.4-2.2c-0.1,0-0.2,0-0.3-0.1c-0.1,0-0.2,0-0.3,0c0.1,0,0.2,0,0.3,0.1
	c0.1,0,0.2,0,0.3,0C67.4,347.7,68.3,347,68.5,346.1z"/>
<path class="st11" d="M67.9,332.6c-0.1,0.7,0.3,1.4,1.1,1.7c0.1,0,0.2,0,0.2,0c0.1,0,0.2,0,0.2,0c-0.1,0-0.2,0-0.2,0
	c-0.1,0-0.2,0-0.2,0c-0.8,0-1.5,0.5-1.7,1.2c0.1-0.7-0.3-1.4-1.1-1.7c-0.1,0-0.2,0-0.2,0c-0.1,0-0.2,0-0.2,0c0.1,0,0.2,0,0.2,0
	c0.1,0,0.2,0,0.2,0C67,333.9,67.8,333.4,67.9,332.6z"/>
<path class="st12" d="M582.5,43.8c-0.1,7.3-0.2,15-0.5,19.2c-10,0.1-18.9,0.4-26.9,0.9c-44.2,2.5-59.1,9.4-77.3,11.5
	c-9.1,1.1-19.1,1-34.1-1.4c-2.1-0.3-4.1-0.6-6.1-0.8l0,0c-7.8-0.7-14.6-0.3-21.6-1.2c-77.1-9.6-86.4,3.4-126.1,6.7
	c-7.9,0.7-16.9,0.9-27.9,0.6c-45.8-1.4-81.6,5.3-142.7-3.5C90.8,71.7,52,59.9,18.7,53.5c-6.6-1.3-13-2.3-19-3.1V1H582
	c0,0,0.5,12.9,0.5,27.9C582.5,32.4,582.5,38,582.5,43.8z"/>
<path class="st4" d="M582.5,28.9c0,4.1,0,9.6-0.2,15c-0.1,4.4-0.2,8.6-0.4,11.8c-6.5,0.9-12.8,1.7-19.1,2.5l0,0
	c-26.2,3.2-49.9,5.5-71.7,7.4c-17.3,1.5-33.5,2.8-48.6,4.1c-9.2,0.8-18,1.6-26.5,2.4c-47.9,4.9-86.5,7.1-126.1,6.7
	C220.6,78,148.4,69.4,18.7,53.5c-6.2-0.8-12.6-1.5-19-2.3V1H582C582,1,582.5,13.9,582.5,28.9z"/>
<g>
	<g>
		<path class="st9" d="M45.9,32.1c0,0.2,0.1,0.5,0.4,0.5c0,0,0,0,0.1,0c0,0,0,0,0.1,0c0,0,0,0-0.1,0s0,0-0.1,0
			c-0.3,0-0.5,0.2-0.6,0.4c0-0.2-0.1-0.5-0.4-0.5c0,0,0,0-0.1,0c0,0,0,0-0.1,0c0,0,0,0,0.1,0c0,0,0,0,0.1,0
			C45.7,32.5,45.9,32.3,45.9,32.1z"/>
		<path class="st9" d="M48.6,13.5c-0.1,0.7,0.4,1.4,1.2,1.6c0.1,0,0.2,0,0.2,0c0.1,0,0.2,0,0.2,0c-0.1,0-0.2,0-0.2,0
			c-0.1,0-0.2,0-0.2,0c-0.8,0-1.5,0.5-1.7,1.2c0.1-0.7-0.4-1.4-1.2-1.6c-0.1,0-0.2,0-0.2,0c-0.1,0-0.2,0-0.2,0c0.1,0,0.2,0,0.2,0
			s0.2,0,0.2,0C47.7,14.7,48.5,14.2,48.6,13.5z"/>
		<path class="st7" d="M28.7,42.2h-0.1c0,0-0.1,0-0.1-0.1V17.6c0,0,0-0.1,0.1-0.1h0.1c0,1.2,0.9,2.1,2.1,2.1v20.5
			C29.6,40.1,28.7,41,28.7,42.2z"/>
		<g>
			<path class="st7" d="M48.8,23v13.1c0,3.3-3.2,6-7.1,6h-9.4c0-0.5,0.2-0.9,0.6-1.2c0.4-0.3,0.9-0.5,1.4-0.5h7.4
				c2.8,0,5.1-1.9,5.1-4.3V23c0-2.4-2.3-4.3-5.1-4.3h-7.4c-1.1,0-2-0.8-2-1.7h9.5c3.7,0,6.8,2.4,7.1,5.5
				C48.8,22.7,48.8,22.9,48.8,23z"/>
		</g>
	</g>
	<ellipse class="st7" cx="23.7" cy="21" rx="2.8" ry="2.5"/>
</g>
<path class="st13" d="M428.8,218.3c0.1,1,1,1.7,2.1,1.8c0.1,0,0.2,0,0.3,0c0.1,0,0.2,0,0.3-0.1c-0.1,0-0.2,0-0.3,0
	c-0.1,0-0.2,0-0.3,0.1c-1,0.2-1.7,1.1-1.6,2.1c-0.1-1-1-1.7-2.1-1.8c-0.1,0-0.2,0-0.3,0c-0.1,0-0.2,0-0.3,0.1c0.1,0,0.2,0,0.3,0
	c0.1,0,0.2,0,0.3-0.1C428.2,220.2,428.9,219.3,428.8,218.3z"/>
<path class="st13" d="M426.3,184.1c0.2,0.1,0.5,0.1,0.7-0.1c0,0,0,0,0-0.1s0,0,0-0.1c0,0,0,0,0,0.1s0,0,0,0.1
	c-0.1,0.2,0,0.5,0.2,0.6c-0.2-0.1-0.5-0.1-0.7,0.1c0,0,0,0,0,0.1s0,0,0,0.1c0,0,0,0,0-0.1s0,0,0-0.1
	C426.6,184.5,426.5,184.3,426.3,184.1z"/>
<path class="st13" d="M413.2,196.9c0.5,0.3,1.1,0.1,1.4-0.3c0,0,0.1-0.1,0.1-0.1c0,0,0-0.1,0.1-0.1c0,0-0.1,0.1-0.1,0.1
	c0,0,0,0.1-0.1,0.1c-0.2,0.4,0,1,0.5,1.2c-0.5-0.3-1.1-0.1-1.4,0.3c0,0-0.1,0.1-0.1,0.1c0,0,0,0.1-0.1,0.1c0,0,0.1-0.1,0.1-0.1
	s0-0.1,0.1-0.1C413.9,197.6,413.7,197.1,413.2,196.9z"/>
<path class="st13" d="M407.3,175c0.7,0.4,1.6,0.2,2.1-0.4c0-0.1,0.1-0.1,0.1-0.2s0.1-0.1,0.1-0.2c0,0.1-0.1,0.1-0.1,0.2
	s-0.1,0.1-0.1,0.2c-0.3,0.7,0,1.4,0.7,1.8c-0.7-0.4-1.6-0.2-2.1,0.4c0,0.1-0.1,0.1-0.1,0.2s-0.1,0.1-0.1,0.2c0-0.1,0.1-0.1,0.1-0.2
	s0.1-0.1,0.1-0.2C408.3,176.2,408,175.4,407.3,175z"/>
<path class="st13" d="M448.2,127.1c0.1,1,1,1.7,2.1,1.8c0.1,0,0.2,0,0.3,0c0.1,0,0.2,0,0.3-0.1c-0.1,0-0.2,0-0.3,0
	c-0.1,0-0.2,0-0.3,0.1c-1,0.2-1.7,1.1-1.6,2.1c-0.1-1-1-1.7-2.1-1.8c-0.1,0-0.2,0-0.3,0c-0.1,0-0.2,0-0.3,0.1c0.1,0,0.2,0,0.3,0
	c0.1,0,0.2,0,0.3-0.1C447.6,128.9,448.4,128.1,448.2,127.1z"/>
<path class="st13" d="M421.3,452.9c0.1,0.3,0.4,0.4,0.7,0.3c0,0,0.1,0,0.1,0c0,0,0,0,0.1,0c0,0-0.1,0-0.1,0c0,0,0,0-0.1,0
	c-0.3,0.1-0.4,0.4-0.3,0.7c-0.1-0.3-0.4-0.4-0.7-0.3c0,0-0.1,0-0.1,0c0,0,0,0-0.1,0c0,0,0.1,0,0.1,0c0,0,0,0,0.1,0
	C421.3,453.5,421.4,453.2,421.3,452.9z"/>
<path class="st13" d="M401.3,466.4c0.2,0.5,0.8,0.8,1.4,0.7c0.1,0,0.1,0,0.2,0s0.1,0,0.2-0.1c-0.1,0-0.1,0-0.2,0s-0.1,0-0.2,0.1
	c-0.5,0.3-0.8,0.8-0.5,1.4c-0.2-0.5-0.8-0.8-1.4-0.7c-0.1,0-0.1,0-0.2,0s-0.1,0-0.2,0.1c0.1,0,0.1,0,0.2,0s0.1,0,0.2-0.1
	C401.3,467.5,401.5,466.9,401.3,466.4z"/>
<path class="st13" d="M411.9,432.8c0.3,0.8,1.3,1.2,2.1,1c0.1,0,0.2,0,0.3-0.1s0.2-0.1,0.2-0.1c-0.1,0-0.2,0-0.3,0.1
	s-0.2,0.1-0.2,0.1c-0.8,0.4-1.1,1.3-0.8,2c-0.3-0.8-1.3-1.2-2.1-1c-0.1,0-0.2,0-0.3,0.1s-0.2,0.1-0.2,0.1c0.1,0,0.2,0,0.3-0.1
	s0.2-0.1,0.2-0.1C411.8,434.5,412.2,433.6,411.9,432.8z"/>
<path class="st8" d="M292.2,401.7c0.5,1,1.6,1.5,2.7,1.2c0.1,0,0.2-0.1,0.3-0.1s0.2-0.1,0.3-0.1c-0.1,0-0.2,0.1-0.3,0.1
	s-0.2,0.1-0.3,0.1c-1,0.5-1.4,1.6-0.9,2.6c-0.5-1-1.6-1.5-2.7-1.2c-0.1,0-0.2,0.1-0.3,0.1s-0.2,0.1-0.3,0.1c0.1,0,0.2-0.1,0.3-0.1
	s0.2-0.1,0.3-0.1C292.2,403.7,292.6,402.6,292.2,401.7z"/>
<path class="st9" d="M412.4,348.4c-0.6,1-0.4,2.2,0.5,2.9c0.1,0.1,0.2,0.1,0.3,0.2c0.1,0.1,0.2,0.1,0.3,0.1
	c-0.1-0.1-0.2-0.1-0.3-0.2c-0.1-0.1-0.2-0.1-0.3-0.1c-1.1-0.4-2.4-0.1-3.1,0.9c0.6-1,0.4-2.2-0.5-2.9c-0.1-0.1-0.2-0.1-0.3-0.2
	c-0.1-0.1-0.2-0.1-0.3-0.1c0.1,0.1,0.2,0.1,0.3,0.2c0.1,0.1,0.2,0.1,0.3,0.1C410.5,349.8,411.8,349.4,412.4,348.4z"/>
<path class="st8" d="M418.2,333.3c1.1,0.3,2.3-0.2,2.8-1.1c0-0.1,0.1-0.2,0.1-0.3s0.1-0.2,0.1-0.3c0,0.1-0.1,0.2-0.1,0.3
	c0,0.1-0.1,0.2-0.1,0.3c-0.2,1,0.5,2,1.6,2.3c-1.1-0.3-2.3,0.2-2.8,1.1c0,0.1-0.1,0.2-0.1,0.3c0,0.1-0.1,0.2-0.1,0.3
	c0-0.1,0.1-0.2,0.1-0.3s0.1-0.2,0.1-0.3C419.9,334.6,419.3,333.6,418.2,333.3z"/>
<path class="st13" d="M428,314.2c0.3,0.5,1,0.6,1.5,0.4c0,0,0.1,0,0.1-0.1c0,0,0.1-0.1,0.1-0.1c0,0-0.1,0-0.1,0.1
	c0,0-0.1,0.1-0.1,0.1c-0.5,0.4-0.6,1-0.2,1.4c-0.3-0.5-1-0.6-1.5-0.4c0,0-0.1,0-0.1,0.1c0,0-0.1,0.1-0.1,0.1c0,0,0.1,0,0.1-0.1
	c0,0,0.1-0.1,0.1-0.1C428.2,315.2,428.3,314.6,428,314.2z"/>
<path class="st13" d="M416.9,282.3c0.1,0.2,0.4,0.3,0.7,0.2c0,0,0,0,0.1,0c0,0,0,0,0.1,0c0,0,0,0-0.1,0s0,0-0.1,0
	c-0.2,0.2-0.3,0.4-0.1,0.6c-0.1-0.2-0.4-0.3-0.7-0.2c0,0,0,0-0.1,0c0,0,0,0-0.1,0c0,0,0,0,0.1,0c0,0,0,0,0.1,0
	C417,282.8,417,282.5,416.9,282.3z"/>
<path class="st13" d="M412.9,323.7c0.5,0.7,1.5,1,2.3,0.6c0.1,0,0.1-0.1,0.2-0.1s0.1-0.1,0.2-0.1c-0.1,0-0.1,0.1-0.2,0.1
	s-0.1,0.1-0.2,0.1c-0.7,0.5-0.9,1.4-0.4,2.1c-0.5-0.7-1.5-1-2.3-0.6c-0.1,0-0.1,0.1-0.2,0.1s-0.1,0.1-0.2,0.1c0.1,0,0.1-0.1,0.2-0.1
	c0.1,0,0.1-0.1,0.2-0.1C413.2,325.3,413.4,324.4,412.9,323.7z"/>
<path class="st13" d="M398.8,288c0.3,0.4,0.9,0.6,1.4,0.4c0,0,0.1,0,0.1-0.1c0,0,0.1,0,0.1-0.1c0,0-0.1,0-0.1,0.1c0,0-0.1,0-0.1,0.1
	c-0.4,0.3-0.5,0.9-0.2,1.3c-0.3-0.4-0.9-0.6-1.4-0.4c0,0-0.1,0-0.1,0.1c0,0-0.1,0-0.1,0.1c0,0,0.1,0,0.1-0.1c0,0,0.1,0,0.1-0.1
	C399,288.9,399.1,288.4,398.8,288z"/>
<path class="st8" d="M403.4,425.2c1.1,1.5,3.3,2,5.1,1.3c0.2-0.1,0.3-0.2,0.5-0.3s0.3-0.2,0.5-0.3c-0.2,0.1-0.3,0.2-0.5,0.3
	s-0.3,0.2-0.5,0.3c-1.5,1.2-1.8,3.3-0.7,4.8c-1.1-1.5-3.3-2-5.1-1.3c-0.2,0.1-0.3,0.2-0.5,0.3s-0.3,0.2-0.5,0.3
	c0.2-0.1,0.3-0.2,0.5-0.3s0.3-0.2,0.5-0.3C404.2,428.8,404.5,426.8,403.4,425.2z"/>
<path class="st8" d="M383.2,407.9c0.9,1.2,2.5,1.5,3.9,1c0.1-0.1,0.3-0.1,0.4-0.2s0.2-0.1,0.3-0.2c-0.1,0.1-0.3,0.1-0.4,0.2
	s-0.2,0.1-0.3,0.2c-1.1,0.9-1.4,2.4-0.5,3.6c-0.9-1.2-2.5-1.5-3.9-1c-0.1,0.1-0.3,0.1-0.4,0.2s-0.2,0.1-0.3,0.2
	c0.1-0.1,0.3-0.1,0.4-0.2s0.2-0.1,0.3-0.2C383.9,410.5,384.1,409,383.2,407.9z"/>
<path class="st8" d="M352.2,316.1c0.6,0.9,1.9,1.2,2.9,0.7c0.1,0,0.2-0.1,0.3-0.1s0.2-0.1,0.3-0.2c-0.1,0-0.2,0.1-0.3,0.1
	s-0.2,0.1-0.3,0.2c-0.8,0.7-1,1.8-0.4,2.7c-0.6-0.9-1.9-1.2-2.9-0.7c-0.1,0-0.2,0.1-0.3,0.1s-0.2,0.1-0.3,0.2c0.1,0,0.2-0.1,0.3-0.1
	s0.2-0.1,0.3-0.2C352.7,318.2,352.9,317,352.2,316.1z"/>
<path class="st13" d="M291.7,443.4c0.2,0.2,0.5,0.3,0.8,0.2c0,0,0,0,0.1,0s0,0,0.1,0c0,0,0,0-0.1,0c0,0,0,0-0.1,0
	c-0.2,0.2-0.3,0.5-0.1,0.7c-0.2-0.2-0.5-0.3-0.8-0.2c0,0,0,0-0.1,0c0,0,0,0-0.1,0c0,0,0,0,0.1,0c0,0,0,0,0.1,0
	C291.9,444,291.9,443.7,291.7,443.4z"/>
<path class="st13" d="M271.4,449.8c0.3,0.5,1,0.6,1.5,0.4c0,0,0.1,0,0.1-0.1c0,0,0.1-0.1,0.1-0.1c0,0-0.1,0-0.1,0.1
	c0,0-0.1,0.1-0.1,0.1c-0.5,0.4-0.6,1-0.2,1.4c-0.3-0.5-1-0.6-1.5-0.4c0,0-0.1,0-0.1,0.1c0,0-0.1,0.1-0.1,0.1c0,0,0.1,0,0.1-0.1
	s0.1-0.1,0.1-0.1C271.6,450.9,271.7,450.3,271.4,449.8z"/>
<path class="st13" d="M278.3,425.3c0.5,0.7,1.5,1,2.3,0.6c0.1,0,0.1-0.1,0.2-0.1c0.1,0,0.1-0.1,0.2-0.1c-0.1,0-0.1,0.1-0.2,0.1
	s-0.1,0.1-0.2,0.1c-0.7,0.5-0.9,1.4-0.4,2.1c-0.5-0.7-1.5-1-2.3-0.6c-0.1,0-0.1,0.1-0.2,0.1s-0.1,0.1-0.2,0.1c0.1,0,0.1-0.1,0.2-0.1
	s0.1-0.1,0.2-0.1C278.6,426.9,278.8,426,278.3,425.3z"/>
<path class="st13" d="M59,674.7c0.1,0.3,0.4,0.4,0.7,0.3c0,0,0.1,0,0.1,0c0,0,0,0,0.1,0c0,0-0.1,0-0.1,0c0,0,0,0-0.1,0
	c-0.3,0.1-0.4,0.4-0.3,0.7c-0.1-0.3-0.4-0.4-0.7-0.3c0,0-0.1,0-0.1,0c0,0,0,0-0.1,0c0,0,0.1,0,0.1,0c0,0,0,0,0.1,0
	C58.9,675.3,59.1,675,59,674.7z"/>
<path class="st13" d="M39,688.2c0.2,0.5,0.8,0.8,1.4,0.7c0.1,0,0.1,0,0.2,0c0,0,0.1,0,0.2-0.1c-0.1,0-0.1,0-0.2,0c0,0-0.1,0-0.2,0.1
	c-0.5,0.3-0.8,0.8-0.5,1.4c-0.2-0.5-0.8-0.8-1.4-0.7c-0.1,0-0.1,0-0.2,0c0,0-0.1,0-0.2,0.1c0.1,0,0.1,0,0.2,0c0,0,0.1,0,0.2-0.1
	C39,689.3,39.2,688.7,39,688.2z"/>
<path class="st13" d="M49.5,654.6c0.3,0.8,1.3,1.2,2.1,1c0.1,0,0.2,0,0.3-0.1s0.2-0.1,0.2-0.1c-0.1,0-0.2,0-0.3,0.1
	s-0.2,0.1-0.2,0.1c-0.8,0.4-1.1,1.3-0.8,2c-0.3-0.8-1.3-1.2-2.1-1c-0.1,0-0.2,0-0.3,0.1s-0.2,0.1-0.2,0.1c0.1,0,0.2,0,0.3-0.1
	s0.2-0.1,0.2-0.1C49.5,656.2,49.8,655.4,49.5,654.6z"/>
<path class="st9" d="M50.1,570.2c-0.6,1-0.4,2.2,0.5,2.9c0.1,0.1,0.2,0.1,0.3,0.2c0.1,0.1,0.2,0.1,0.3,0.1c-0.1-0.1-0.2-0.1-0.3-0.2
	c-0.1-0.1-0.2-0.1-0.3-0.1c-1.1-0.4-2.4-0.1-3.1,0.9c0.6-1,0.4-2.2-0.5-2.9c-0.1-0.1-0.2-0.1-0.3-0.2s-0.2-0.1-0.3-0.1
	c0.1,0.1,0.2,0.1,0.3,0.2c0.1,0.1,0.2,0.1,0.3,0.1C48.1,571.5,49.4,571.2,50.1,570.2z"/>
<path class="st8" d="M55.8,555c1.1,0.3,2.3-0.2,2.8-1.1c0-0.1,0.1-0.2,0.1-0.3c0-0.1,0.1-0.2,0.1-0.3c0,0.1-0.1,0.2-0.1,0.3
	c0,0.1-0.1,0.2-0.1,0.3c-0.2,1,0.5,2,1.6,2.3c-1.1-0.3-2.3,0.2-2.8,1.1c0,0.1-0.1,0.2-0.1,0.3s-0.1,0.2-0.1,0.3
	c0-0.1,0.1-0.2,0.1-0.3c0-0.1,0.1-0.2,0.1-0.3C57.6,556.4,56.9,555.4,55.8,555z"/>
<path class="st13" d="M65.6,535.9c0.3,0.5,1,0.6,1.5,0.4c0.1,0,0.1,0,0.2-0.1c0.1,0,0.1-0.1,0.1-0.1c-0.1,0-0.1,0-0.2,0.1
	c-0.1,0-0.1,0.1-0.1,0.1c-0.5,0.3-0.6,1-0.2,1.4c-0.3-0.5-1-0.6-1.5-0.4c-0.1,0-0.1,0-0.2,0.1c-0.1,0-0.1,0.1-0.1,0.1
	c0.1,0,0.1,0,0.2-0.1c0.1,0,0.1-0.1,0.1-0.1C65.8,537,65.9,536.4,65.6,535.9z"/>
<path class="st13" d="M50.6,545.5c0.5,0.7,1.5,1,2.3,0.6c0.1,0,0.2-0.1,0.2-0.1c0.1,0,0.1-0.1,0.2-0.1c-0.1,0-0.2,0.1-0.2,0.1
	c-0.1,0-0.1,0.1-0.2,0.1c-0.7,0.5-0.8,1.4-0.4,2.1c-0.5-0.7-1.5-1-2.3-0.6c-0.1,0-0.2,0.1-0.2,0.1c-0.1,0-0.1,0.1-0.2,0.1
	c0.1,0,0.2-0.1,0.2-0.1c0.1,0,0.1-0.1,0.2-0.1C50.9,547.1,51.1,546.2,50.6,545.5z"/>
<path class="st8" d="M41,647c1.1,1.5,3.3,2,5.1,1.3c0.2-0.1,0.3-0.2,0.5-0.3c0.2-0.1,0.3-0.2,0.5-0.3c-0.2,0.1-0.3,0.2-0.5,0.3
	s-0.3,0.2-0.5,0.3c-1.5,1.2-1.8,3.3-0.7,4.8c-1.1-1.5-3.3-2-5.1-1.3c-0.2,0.1-0.3,0.2-0.5,0.3c-0.2,0.1-0.3,0.2-0.5,0.3
	c0.2-0.1,0.3-0.2,0.5-0.3c0.2-0.1,0.3-0.2,0.5-0.3C41.8,650.6,42.2,648.5,41,647z"/>
<path class="st8" d="M20.9,629.6c0.9,1.2,2.5,1.5,3.9,1c0.1-0.1,0.3-0.1,0.4-0.2s0.2-0.2,0.3-0.2c-0.1,0.1-0.3,0.1-0.4,0.2
	s-0.2,0.2-0.3,0.2c-1.1,0.9-1.4,2.4-0.5,3.6c-0.9-1.2-2.5-1.5-3.9-1c-0.1,0.1-0.3,0.1-0.4,0.2s-0.2,0.2-0.3,0.2
	c0.1-0.1,0.3-0.1,0.4-0.2s0.2-0.2,0.3-0.2C21.5,632.3,21.8,630.8,20.9,629.6z"/>
<path class="st13" d="M276.5,701.1c-0.1,0.3,0,0.5,0.2,0.7c0,0,0,0,0.1,0c0,0,0,0,0.1,0c0,0,0,0-0.1,0c0,0,0,0-0.1,0
	c-0.3-0.1-0.6,0-0.7,0.3c0.1-0.3,0-0.5-0.2-0.7c0,0,0,0-0.1,0c0,0,0,0-0.1,0c0,0,0,0,0.1,0c0,0,0,0,0.1,0
	C276,701.4,276.4,701.3,276.5,701.1z"/>
<path class="st13" d="M252,697c-0.3,0.5-0.1,1.1,0.4,1.4c0.1,0,0.1,0,0.1,0.1s0.1,0,0.2,0.1c-0.1,0-0.1,0-0.1-0.1s-0.1,0-0.2-0.1
	c-0.6-0.2-1.2,0.1-1.5,0.6c0.3-0.5,0.1-1.1-0.4-1.4c-0.1,0-0.1,0-0.1-0.1s-0.1,0-0.2-0.1c0.1,0,0.1,0,0.1,0.1s0.1,0,0.2,0.1
	C251.1,697.7,251.8,697.5,252,697z"/>
<path class="st13" d="M286.3,681.1c-0.4,0.8-0.1,1.6,0.6,2.1c0.1,0,0.1,0.1,0.2,0.1c0.1,0,0.2,0.1,0.2,0.1c-0.1,0-0.1-0.1-0.2-0.1
	c-0.1,0-0.2-0.1-0.2-0.1c-0.9-0.3-1.8,0.1-2.2,0.9c0.4-0.8,0.1-1.6-0.6-2.1c-0.1,0-0.1-0.1-0.2-0.1c-0.1,0-0.2-0.1-0.2-0.1
	c0.1,0,0.1,0.1,0.2,0.1c0.1,0,0.2,0.1,0.2,0.1C285,682.2,285.9,681.8,286.3,681.1z"/>
<path class="st8" d="M229.9,580.5c-0.5,1-0.1,2.1,0.9,2.6c0.1,0,0.2,0.1,0.3,0.1s0.2,0.1,0.3,0.1c-0.1,0-0.2-0.1-0.3-0.1
	c-0.1,0-0.2-0.1-0.3-0.1c-1.1-0.3-2.3,0.2-2.7,1.2c0.5-1,0.1-2.1-0.9-2.6c-0.1,0-0.2-0.1-0.3-0.1c-0.1,0-0.2-0.1-0.3-0.1
	c0.1,0,0.2,0.1,0.3,0.1c0.1,0,0.2,0.1,0.3,0.1C228.3,581.9,229.5,581.4,229.9,580.5z"/>
<path class="st9" d="M354.8,624c-1.2,0.2-2,1.2-2,2.3c0,0.1,0,0.2,0,0.3c0,0.1,0.1,0.2,0.1,0.3c0-0.1,0-0.2,0-0.3
	c0-0.1-0.1-0.2-0.1-0.3c-0.4-1-1.6-1.7-2.8-1.4c1.2-0.2,2-1.2,2-2.3c0-0.1,0-0.2,0-0.3c0-0.1-0.1-0.2-0.1-0.3c0,0.1,0,0.2,0,0.3
	c0,0.1,0.1,0.2,0.1,0.3C352.4,623.6,353.6,624.2,354.8,624z"/>
<path class="st8" d="M371,617.5c0.5,0.9,1.7,1.4,2.8,1.1c0.1,0,0.2-0.1,0.3-0.1c0.1,0,0.2-0.1,0.3-0.2c-0.1,0-0.2,0.1-0.3,0.1
	c-0.1,0-0.2,0.1-0.3,0.2c-0.9,0.6-1.3,1.7-0.8,2.6c-0.5-0.9-1.7-1.4-2.8-1.1c-0.1,0-0.2,0.1-0.3,0.1c-0.1,0-0.2,0.1-0.3,0.2
	c0.1,0,0.2-0.1,0.3-0.1c0.1,0,0.2-0.1,0.3-0.2C371.1,619.5,371.5,618.4,371,617.5z"/>
<path class="st13" d="M393.1,611c-0.2,0.5,0.1,1.1,0.7,1.3c0,0,0.1,0,0.2,0c0.1,0,0.1,0,0.2,0c0,0-0.1,0-0.2,0c-0.1,0-0.1,0-0.2,0
	c-0.6-0.1-1.2,0.3-1.3,0.8c0.2-0.5-0.1-1.1-0.7-1.3c0,0-0.1,0-0.2,0c-0.1,0-0.1,0-0.2,0c0,0,0.1,0,0.2,0c0.1,0,0.1,0,0.2,0
	C392.4,611.8,392.9,611.5,393.1,611z"/>
<path class="st13" d="M375.2,607.5c-0.2,0.8,0.2,1.6,1,2c0.1,0,0.2,0.1,0.2,0.1s0.2,0,0.3,0c-0.1,0-0.2-0.1-0.2-0.1s-0.2,0-0.3,0
	c-0.9-0.1-1.7,0.4-2,1.2c0.2-0.8-0.2-1.6-1-2c-0.1,0-0.2-0.1-0.2-0.1s-0.2,0-0.3,0c0.1,0,0.2,0.1,0.2,0.1s0.2,0,0.3,0
	C374.1,608.8,374.9,608.3,375.2,607.5z"/>
<path class="st8" d="M286.7,670.3c-0.5,1.8,0.6,3.6,2.5,4.3c0.2,0.1,0.4,0.1,0.5,0.2c0.2,0,0.4,0.1,0.6,0.1
	c-0.2-0.1-0.4-0.1-0.5-0.2c-0.2,0-0.4-0.1-0.6-0.1c-2-0.2-3.8,1-4.3,2.8c0.5-1.8-0.6-3.6-2.5-4.3c-0.2-0.1-0.4-0.1-0.5-0.2
	c-0.2,0-0.4-0.1-0.6-0.1c0.2,0.1,0.4,0.1,0.5,0.2c0.2,0,0.4,0.1,0.6,0.1C284.3,673.3,286.2,672.1,286.7,670.3z"/>
<path class="st8" d="M287,645.1c-0.4,1.3,0.5,2.7,1.9,3.2c0.1,0,0.3,0.1,0.4,0.1c0.1,0,0.3,0,0.4,0.1c-0.1,0-0.3-0.1-0.4-0.1
	c-0.1,0-0.3,0-0.4-0.1c-1.5-0.1-2.9,0.8-3.2,2.1c0.4-1.3-0.5-2.7-1.9-3.2c-0.1,0-0.3-0.1-0.4-0.1c-0.1,0-0.3,0-0.4-0.1
	c0.1,0,0.3,0.1,0.4,0.1c0.1,0,0.3,0,0.4,0.1C285.2,647.3,286.6,646.5,287,645.1z"/>
<path class="st8" d="M339.9,562c-0.3,1,0.4,2,1.4,2.4c0.1,0,0.2,0.1,0.3,0.1s0.2,0,0.3,0c-0.1,0-0.2-0.1-0.3-0.1c-0.1,0-0.2,0-0.3,0
	c-1.1-0.1-2.2,0.6-2.4,1.6c0.3-1-0.4-2-1.4-2.4c-0.1,0-0.2-0.1-0.3-0.1s-0.2,0-0.3,0c0.1,0,0.2,0.1,0.3,0.1c0.1,0,0.2,0,0.3,0
	C338.6,563.7,339.7,563.1,339.9,562z"/>
<path class="st13" d="M195.9,608.6c-0.1,0.3,0.1,0.5,0.4,0.7c0,0,0.1,0,0.1,0s0.1,0,0.1,0c0,0-0.1,0-0.1,0s-0.1,0-0.1,0
	c-0.3,0-0.6,0.1-0.7,0.4c0.1-0.3-0.1-0.5-0.4-0.7c0,0-0.1,0-0.1,0s-0.1,0-0.1,0c0,0,0.1,0,0.1,0s0.1,0,0.1,0
	C195.5,609.1,195.8,608.9,195.9,608.6z"/>
<path class="st13" d="M176.9,599.5c-0.2,0.5,0.1,1.1,0.7,1.3c0.1,0,0.1,0,0.2,0c0.1,0,0.1,0,0.2,0c-0.1,0-0.1,0-0.2,0
	c-0.1,0-0.1,0-0.2,0c-0.6-0.1-1.2,0.3-1.3,0.8c0.2-0.5-0.1-1.1-0.7-1.3c-0.1,0-0.1,0-0.2,0c-0.1,0-0.1,0-0.2,0c0.1,0,0.1,0,0.2,0
	c0.1,0,0.1,0,0.2,0C176.2,600.3,176.7,600,176.9,599.5z"/>
<path class="st13" d="M201.4,587.3c-0.2,0.8,0.2,1.6,1.1,2c0.1,0,0.2,0.1,0.2,0.1s0.2,0,0.3,0c-0.1,0-0.2-0.1-0.2-0.1s-0.2,0-0.3,0
	c-0.9-0.1-1.7,0.4-2,1.2c0.2-0.8-0.2-1.6-1.1-2c-0.1,0-0.2-0.1-0.2-0.1s-0.2,0-0.3,0c0.1,0,0.2,0.1,0.2,0.1s0.2,0,0.3,0
	C200.3,588.7,201.1,588.2,201.4,587.3z"/>
<path class="st13" d="M208.2,1025.9c0.1,0.3,0.4,0.4,0.7,0.3c0,0,0.1,0,0.1,0s0.1,0,0.1,0c0,0-0.1,0-0.1,0s-0.1,0-0.1,0
	c-0.3,0.1-0.4,0.4-0.3,0.7c-0.1-0.3-0.4-0.4-0.7-0.3c0,0-0.1,0-0.1,0s-0.1,0-0.1,0c0,0,0.1,0,0.1,0s0.1,0,0.1,0
	C208.2,1026.4,208.3,1026.1,208.2,1025.9z"/>
<path class="st13" d="M188.2,1039.3c0.2,0.5,0.8,0.8,1.4,0.7c0.1,0,0.1,0,0.2-0.1s0.1,0,0.2-0.1c-0.1,0-0.1,0-0.2,0.1
	s-0.1,0-0.2,0.1c-0.5,0.3-0.8,0.8-0.5,1.4c-0.2-0.5-0.8-0.8-1.4-0.7c-0.1,0-0.1,0-0.2,0.1s-0.1,0-0.2,0.1c0.1,0,0.1,0,0.2-0.1
	s0.1,0,0.2-0.1C188.2,1040.4,188.4,1039.8,188.2,1039.3z"/>
<path class="st13" d="M198.7,1005.8c0.3,0.8,1.3,1.2,2.1,1c0.1,0,0.2,0,0.3-0.1s0.2-0.1,0.2-0.1c-0.1,0-0.2,0-0.3,0.1
	s-0.2,0.1-0.2,0.1c-0.8,0.4-1.1,1.3-0.8,2c-0.3-0.8-1.3-1.2-2.1-1c-0.1,0-0.2,0-0.3,0.1s-0.2,0.1-0.2,0.1c0.1,0,0.2,0,0.3-0.1
	s0.2-0.1,0.2-0.1C198.7,1007.4,199.1,1006.5,198.7,1005.8z"/>
<path class="st8" d="M79.1,974.6c0.4,1,1.6,1.5,2.7,1.2c0.1,0,0.2-0.1,0.3-0.1s0.2-0.1,0.3-0.1c-0.1,0-0.2,0.1-0.3,0.1
	s-0.2,0.1-0.3,0.1c-1,0.5-1.4,1.6-0.9,2.6c-0.4-1-1.6-1.5-2.7-1.2c-0.1,0-0.2,0.1-0.3,0.1s-0.2,0.1-0.3,0.1c0.1,0,0.2-0.1,0.3-0.1
	s0.2-0.1,0.3-0.1C79.1,976.7,79.5,975.6,79.1,974.6z"/>
<path class="st9" d="M199.3,921.4c-0.6,1-0.4,2.2,0.6,2.9c0.1,0.1,0.2,0.1,0.3,0.2c0.1,0.1,0.2,0.1,0.3,0.1
	c-0.1-0.1-0.2-0.1-0.3-0.2c-0.1-0.1-0.2-0.1-0.3-0.1c-1.1-0.4-2.4-0.1-3.1,0.9c0.6-1,0.4-2.2-0.6-2.9c-0.1-0.1-0.2-0.1-0.3-0.2
	c-0.1-0.1-0.2-0.1-0.3-0.1c0.1,0.1,0.2,0.1,0.3,0.2c0.1,0.1,0.2,0.1,0.3,0.1C197.3,922.7,198.6,922.4,199.3,921.4z"/>
<path class="st8" d="M205,906.2c1.1,0.3,2.3-0.2,2.8-1.1c0.1-0.1,0.1-0.2,0.1-0.3c0-0.1,0.1-0.2,0.1-0.3c-0.1,0.1-0.1,0.2-0.1,0.3
	c0,0.1-0.1,0.2-0.1,0.3c-0.2,1,0.5,2,1.6,2.3c-1.1-0.3-2.3,0.2-2.8,1.1c-0.1,0.1-0.1,0.2-0.1,0.3c0,0.1-0.1,0.2-0.1,0.3
	c0.1-0.1,0.1-0.2,0.1-0.3s0.1-0.2,0.1-0.3C206.8,907.5,206.1,906.5,205,906.2z"/>
<path class="st13" d="M214.8,887.1c0.3,0.5,1,0.6,1.5,0.4c0.1,0,0.1,0,0.1-0.1c0.1,0,0.1-0.1,0.1-0.1c-0.1,0-0.1,0-0.1,0.1
	c-0.1,0-0.1,0.1-0.1,0.1c-0.5,0.3-0.6,1-0.2,1.4c-0.3-0.5-1-0.6-1.5-0.4c-0.1,0-0.1,0-0.1,0.1c-0.1,0-0.1,0.1-0.1,0.1
	c0.1,0,0.1,0,0.1-0.1c0.1,0,0.1-0.1,0.1-0.1C215.1,888.2,215.2,887.6,214.8,887.1z"/>
<path class="st13" d="M199.8,896.6c0.5,0.7,1.5,1,2.3,0.6c0.1,0,0.1-0.1,0.2-0.1c0.1,0,0.1-0.1,0.2-0.1c-0.1,0-0.1,0.1-0.2,0.1
	s-0.1,0.1-0.2,0.1c-0.7,0.5-0.9,1.4-0.4,2.1c-0.5-0.7-1.5-1-2.3-0.6c-0.1,0-0.1,0.1-0.2,0.1s-0.1,0.1-0.2,0.1c0.1,0,0.1-0.1,0.2-0.1
	s0.1-0.1,0.2-0.1C200.1,898.3,200.3,897.3,199.8,896.6z"/>
<path class="st8" d="M190.2,998.2c1.1,1.5,3.3,2,5.1,1.3c0.2-0.1,0.3-0.2,0.5-0.3c0.2-0.1,0.3-0.2,0.4-0.3c-0.2,0.1-0.3,0.2-0.5,0.3
	c-0.2,0.1-0.3,0.2-0.4,0.3c-1.5,1.2-1.8,3.3-0.7,4.8c-1.1-1.5-3.3-2-5.1-1.3c-0.2,0.1-0.3,0.2-0.5,0.3c-0.2,0.1-0.3,0.2-0.4,0.3
	c0.2-0.1,0.3-0.2,0.5-0.3c0.2-0.1,0.3-0.2,0.4-0.3C191.1,1001.8,191.4,999.7,190.2,998.2z"/>
<path class="st8" d="M170.1,980.8c0.9,1.2,2.5,1.5,3.9,1c0.1-0.1,0.3-0.1,0.4-0.2s0.2-0.2,0.3-0.2c-0.1,0.1-0.3,0.1-0.4,0.2
	s-0.2,0.2-0.3,0.2c-1.1,0.9-1.4,2.4-0.5,3.6c-0.9-1.2-2.5-1.5-3.9-1c-0.1,0.1-0.3,0.1-0.4,0.2s-0.2,0.2-0.3,0.2
	c0.1-0.1,0.3-0.1,0.4-0.2s0.2-0.2,0.3-0.2C170.7,983.5,171,982,170.1,980.8z"/>
<path class="st8" d="M139.1,889.1c0.6,0.9,1.9,1.2,2.9,0.7c0.1,0,0.2-0.1,0.3-0.2s0.2-0.1,0.3-0.2c-0.1,0-0.2,0.1-0.3,0.2
	s-0.2,0.1-0.3,0.2c-0.8,0.7-1,1.8-0.4,2.7c-0.6-0.9-1.9-1.2-2.9-0.7c-0.1,0-0.2,0.1-0.3,0.2s-0.2,0.1-0.3,0.2c0.1,0,0.2-0.1,0.3-0.2
	s0.2-0.1,0.3-0.2C139.6,891.1,139.8,890,139.1,889.1z"/>
<path class="st13" d="M78.6,1016.4c0.2,0.2,0.5,0.3,0.8,0.2c0,0,0.1,0,0.1,0s0.1,0,0.1,0c0,0-0.1,0-0.1,0c0,0-0.1,0-0.1,0
	c-0.2,0.2-0.3,0.5-0.1,0.7c-0.2-0.2-0.5-0.3-0.8-0.2c0,0-0.1,0-0.1,0c0,0-0.1,0-0.1,0c0,0,0.1,0,0.1,0c0,0,0.1,0,0.1,0
	C78.7,1016.9,78.8,1016.6,78.6,1016.4z"/>
<path class="st13" d="M58.3,1022.8c0.3,0.5,1,0.6,1.5,0.4c0,0,0.1,0,0.2-0.1c0,0,0.1-0.1,0.1-0.1c0,0-0.1,0-0.2,0.1
	s-0.1,0.1-0.1,0.1c-0.5,0.3-0.6,1-0.2,1.4c-0.3-0.5-1-0.6-1.5-0.4c0,0-0.1,0.1-0.2,0.1c0,0-0.1,0.1-0.1,0.1c0,0,0.1-0.1,0.2-0.1
	s0.1-0.1,0.1-0.1C58.5,1023.8,58.6,1023.2,58.3,1022.8z"/>
<path class="st13" d="M65.1,998.3c0.5,0.7,1.5,1,2.3,0.6c0.1,0,0.2-0.1,0.2-0.1s0.1-0.1,0.2-0.1c-0.1,0-0.2,0.1-0.2,0.1
	c-0.1,0-0.1,0.1-0.2,0.1c-0.7,0.5-0.8,1.4-0.4,2.1c-0.5-0.7-1.5-1-2.3-0.6c-0.1,0-0.2,0.1-0.2,0.1c-0.1,0-0.1,0.1-0.2,0.1
	c0.1,0,0.2-0.1,0.2-0.1c0.1,0,0.1-0.1,0.2-0.1C65.5,999.9,65.6,999,65.1,998.3z"/>
<path class="st13" d="M425.7,1052.2c-0.1,0.3,0,0.6,0.2,0.7c0,0,0,0,0.1,0c0,0,0,0,0.1,0c0,0,0,0-0.1,0c0,0,0,0-0.1,0
	c-0.3-0.1-0.6,0-0.7,0.3c0.1-0.3,0-0.6-0.2-0.7c0,0,0,0-0.1,0s0,0-0.1,0c0,0,0,0,0.1,0c0,0,0,0,0.1,0
	C425.3,1052.6,425.6,1052.5,425.7,1052.2z"/>
<path class="st13" d="M401.3,1048.2c-0.3,0.5-0.1,1.1,0.4,1.4c0,0,0.1,0.1,0.1,0.1c0,0,0.1,0,0.2,0.1c0,0-0.1-0.1-0.1-0.1
	c0,0-0.1,0-0.2-0.1c-0.6-0.2-1.2,0.1-1.5,0.6c0.3-0.5,0.1-1.1-0.4-1.4c0,0-0.1-0.1-0.1-0.1c0,0-0.1,0-0.2-0.1c0,0,0.1,0.1,0.1,0.1
	c0,0,0.1,0,0.2,0.1C400.4,1048.9,401,1048.7,401.3,1048.2z"/>
<path class="st13" d="M435.5,1032.3c-0.4,0.8-0.1,1.6,0.6,2.1c0.1,0,0.1,0.1,0.2,0.1c0.1,0,0.2,0.1,0.2,0.1c-0.1,0-0.1-0.1-0.2-0.1
	c-0.1,0-0.2-0.1-0.2-0.1c-0.9-0.3-1.8,0.1-2.2,0.9c0.4-0.8,0.1-1.6-0.6-2.1c-0.1,0-0.1-0.1-0.2-0.1c-0.1,0-0.2-0.1-0.2-0.1
	c0.1,0,0.1,0.1,0.2,0.1c0.1,0,0.2,0.1,0.2,0.1C434.2,1033.4,435.1,1033,435.5,1032.3z"/>
<path class="st8" d="M379.2,931.7c-0.5,1-0.1,2.1,0.9,2.6c0.1,0,0.2,0.1,0.3,0.1c0.1,0,0.2,0.1,0.3,0.1c-0.1,0-0.2-0.1-0.3-0.1
	c-0.1,0-0.2-0.1-0.3-0.1c-1.1-0.3-2.3,0.2-2.7,1.2c0.5-1,0.1-2.1-0.9-2.6c-0.1,0-0.2-0.1-0.3-0.1c-0.1,0-0.2-0.1-0.3-0.1
	c0.1,0,0.2,0.1,0.3,0.1c0.1,0,0.2,0.1,0.3,0.1C377.5,933.1,378.7,932.6,379.2,931.7z"/>
<path class="st9" d="M504,975.2c-1.2,0.2-2,1.2-2,2.3c0,0.1,0,0.2,0,0.3c0,0.1,0.1,0.2,0.1,0.3c0-0.1,0-0.2,0-0.3
	c0-0.1-0.1-0.2-0.1-0.3c-0.4-1-1.6-1.7-2.8-1.4c1.2-0.2,2-1.2,2-2.3c0-0.1,0-0.2,0-0.3c0-0.1-0.1-0.2-0.1-0.3c0,0.1,0,0.2,0,0.3
	c0,0.1,0.1,0.2,0.1,0.3C501.6,974.8,502.8,975.4,504,975.2z"/>
<path class="st8" d="M520.2,968.7c0.5,0.9,1.7,1.4,2.8,1.1c0.1,0,0.2-0.1,0.3-0.1s0.2-0.1,0.3-0.2c-0.1,0-0.2,0.1-0.3,0.1
	s-0.2,0.1-0.3,0.2c-0.9,0.6-1.3,1.7-0.8,2.6c-0.5-0.9-1.7-1.4-2.8-1.1c-0.1,0-0.2,0.1-0.3,0.1s-0.2,0.1-0.3,0.2
	c0.1,0,0.2-0.1,0.3-0.1s0.2-0.1,0.3-0.2C520.4,970.7,520.7,969.6,520.2,968.7z"/>
<path class="st13" d="M542.3,962.1c-0.2,0.5,0.2,1.1,0.7,1.3c0,0,0.1,0,0.2,0c0.1,0,0.1,0,0.2,0c0,0-0.1,0-0.2,0c-0.1,0-0.1,0-0.2,0
	c-0.6-0.1-1.2,0.3-1.3,0.8c0.2-0.5-0.2-1.1-0.7-1.3c0,0-0.1,0-0.2,0c-0.1,0-0.1,0-0.2,0c0,0,0.1,0,0.2,0c0.1,0,0.1,0,0.2,0
	C541.6,963,542.2,962.7,542.3,962.1z"/>
<path class="st13" d="M524.4,958.6c-0.2,0.8,0.2,1.6,1,2c0.1,0,0.2,0.1,0.2,0.1s0.2,0,0.3,0c-0.1,0-0.2-0.1-0.2-0.1s-0.2,0-0.3,0
	c-0.9-0.1-1.7,0.4-2,1.2c0.2-0.8-0.2-1.6-1-2c-0.1,0-0.2-0.1-0.2-0.1s-0.2,0-0.3,0c0.1,0,0.2,0.1,0.2,0.1s0.2,0,0.3,0
	C523.3,960,524.2,959.4,524.4,958.6z"/>
<path class="st8" d="M435.9,1021.5c-0.5,1.8,0.6,3.6,2.5,4.3c0.2,0.1,0.4,0.1,0.5,0.2s0.4,0.1,0.6,0.1c-0.2-0.1-0.4-0.1-0.5-0.2
	s-0.4-0.1-0.6-0.1c-2-0.2-3.8,1-4.3,2.8c0.5-1.8-0.6-3.6-2.5-4.3c-0.2-0.1-0.4-0.1-0.5-0.2s-0.4-0.1-0.6-0.1
	c0.2,0.1,0.4,0.1,0.5,0.2s0.4,0.1,0.6,0.1C433.5,1024.5,435.4,1023.3,435.9,1021.5z"/>
<path class="st8" d="M436.2,996.3c-0.4,1.3,0.5,2.7,1.9,3.2c0.1,0,0.3,0.1,0.4,0.1c0.1,0,0.3,0,0.4,0.1c-0.1,0-0.3-0.1-0.4-0.1
	c-0.1,0-0.3,0-0.4-0.1c-1.5-0.1-2.9,0.8-3.2,2.1c0.4-1.3-0.5-2.7-1.9-3.2c-0.1,0-0.3-0.1-0.4-0.1c-0.1,0-0.3,0-0.4-0.1
	c0.1,0,0.3,0.1,0.4,0.1c0.1,0,0.3,0,0.4,0.1C434.5,998.5,435.9,997.6,436.2,996.3z"/>
<path class="st8" d="M489.1,913.2c-0.3,1,0.4,2,1.4,2.4c0.1,0,0.2,0.1,0.3,0.1c0.1,0,0.2,0,0.3,0c-0.1,0-0.2-0.1-0.3-0.1
	c-0.1,0-0.2,0-0.3,0c-1.1-0.1-2.2,0.6-2.4,1.6c0.3-1-0.4-2-1.4-2.4c-0.1,0-0.2-0.1-0.3-0.1c-0.1,0-0.2,0-0.3,0
	c0.1,0,0.2,0.1,0.3,0.1s0.2,0,0.3,0C487.8,914.9,488.9,914.3,489.1,913.2z"/>
<path class="st13" d="M345.1,959.8c-0.1,0.3,0.1,0.5,0.4,0.7c0,0,0,0,0.1,0s0.1,0,0.1,0c0,0,0,0-0.1,0s-0.1,0-0.1,0
	c-0.3,0-0.6,0.1-0.7,0.4c0.1-0.3-0.1-0.5-0.4-0.7c0,0,0,0-0.1,0s-0.1,0-0.1,0c0,0,0,0,0.1,0s0.1,0,0.1,0
	C344.8,960.3,345,960.1,345.1,959.8z"/>
<path class="st13" d="M326.1,950.6c-0.2,0.5,0.1,1.1,0.7,1.3c0,0,0.1,0,0.2,0c0.1,0,0.1,0,0.2,0c0,0-0.1,0-0.2,0c-0.1,0-0.1,0-0.2,0
	c-0.6-0.1-1.2,0.3-1.3,0.8c0.2-0.5-0.1-1.1-0.7-1.3c0,0-0.1,0-0.2,0c-0.1,0-0.1,0-0.2,0c0,0,0.1,0,0.2,0c0.1,0,0.1,0,0.2,0
	C325.4,951.5,326,951.2,326.1,950.6z"/>
<path class="st13" d="M350.6,938.5c-0.2,0.8,0.2,1.6,1,2c0.1,0,0.2,0.1,0.2,0.1s0.2,0,0.3,0c-0.1,0-0.2-0.1-0.2-0.1s-0.2,0-0.3,0
	c-0.9-0.1-1.7,0.4-2,1.2c0.2-0.8-0.2-1.6-1-2c-0.1,0-0.2-0.1-0.2-0.1s-0.2,0-0.3,0c0.1,0,0.2,0.1,0.2,0.1s0.2,0,0.3,0
	C349.5,939.8,350.3,939.3,350.6,938.5z"/>
<path class="st13" d="M518.8,834.2c0.1,0.3,0.4,0.4,0.7,0.3c0,0,0.1,0,0.1,0s0,0,0.1,0c0,0-0.1,0-0.1,0c0,0,0,0-0.1,0
	c-0.3,0.1-0.4,0.4-0.3,0.7c-0.1-0.3-0.4-0.4-0.7-0.3c0,0-0.1,0-0.1,0s0,0-0.1,0c0,0,0.1,0,0.1,0c0,0,0,0,0.1,0
	C518.8,834.7,518.9,834.4,518.8,834.2z"/>
<path class="st13" d="M500.4,406.3c0.2,0.5,0.8,0.8,1.4,0.7c0.1,0,0.1,0,0.2,0s0.1,0,0.2-0.1c-0.1,0-0.1,0-0.2,0s-0.1,0-0.2,0.1
	c-0.5,0.3-0.8,0.8-0.5,1.4c-0.2-0.5-0.8-0.8-1.4-0.7c-0.1,0-0.1,0-0.2,0c0,0-0.1,0-0.2,0.1c0.1,0,0.1,0,0.2,0c0,0,0.1,0,0.2-0.1
	C500.4,407.4,500.6,406.8,500.4,406.3z"/>
<path class="st13" d="M509.3,814c0.3,0.8,1.3,1.2,2.1,1c0.1,0,0.2,0,0.3-0.1s0.2-0.1,0.2-0.1c-0.1,0-0.2,0-0.3,0.1s-0.2,0.1-0.2,0.1
	c-0.8,0.4-1.1,1.3-0.8,2c-0.3-0.8-1.3-1.2-2.1-1c-0.1,0-0.2,0-0.3,0.1s-0.2,0.1-0.2,0.1c0.1,0,0.2,0,0.3-0.1s0.2-0.1,0.2-0.1
	C509.3,815.7,509.6,814.8,509.3,814z"/>
<path class="st8" d="M389.6,782.9c0.5,1,1.6,1.5,2.7,1.2c0.1,0,0.2-0.1,0.3-0.1s0.2-0.1,0.3-0.1c-0.1,0-0.2,0.1-0.3,0.1
	s-0.2,0.1-0.3,0.1c-1,0.5-1.4,1.6-0.9,2.6c-0.5-1-1.6-1.5-2.7-1.2c-0.1,0-0.2,0.1-0.3,0.1s-0.2,0.1-0.3,0.1c0.1,0,0.2-0.1,0.3-0.1
	s0.2-0.1,0.3-0.1C389.7,785,390.1,783.9,389.6,782.9z"/>
<path class="st9" d="M509.9,729.7c-0.6,1-0.4,2.2,0.5,2.9c0.1,0.1,0.2,0.1,0.3,0.2c0.1,0.1,0.2,0.1,0.3,0.1
	c-0.1-0.1-0.2-0.1-0.3-0.2s-0.2-0.1-0.3-0.1c-1.1-0.4-2.4-0.1-3.1,0.9c0.6-1,0.4-2.2-0.5-2.9c-0.1-0.1-0.2-0.1-0.3-0.2
	c-0.1-0.1-0.2-0.1-0.3-0.1c0.1,0.1,0.2,0.1,0.3,0.2c0.1,0.1,0.2,0.1,0.3,0.1C507.9,731,509.2,730.7,509.9,729.7z"/>
<path class="st8" d="M515.6,714.5c1.1,0.3,2.3-0.2,2.8-1.1c0-0.1,0.1-0.2,0.1-0.3s0.1-0.2,0.1-0.3c0,0.1-0.1,0.2-0.1,0.3
	c0,0.1-0.1,0.2-0.1,0.3c-0.2,1,0.5,2,1.6,2.3c-1.1-0.3-2.3,0.2-2.8,1.1c0,0.1-0.1,0.2-0.1,0.3c0,0.1-0.1,0.2-0.1,0.3
	c0-0.1,0.1-0.2,0.1-0.3c0-0.1,0.1-0.2,0.1-0.3C517.4,715.8,516.7,714.8,515.6,714.5z"/>
<path class="st13" d="M525.4,695.4c0.3,0.5,1,0.6,1.5,0.4c0,0,0.1,0,0.2-0.1c0,0,0.1-0.1,0.1-0.1c0,0-0.1,0-0.2,0.1
	c0,0-0.1,0.1-0.1,0.1c-0.5,0.3-0.6,1-0.2,1.4c-0.3-0.5-1-0.6-1.5-0.4c0,0-0.1,0-0.2,0.1s-0.1,0.1-0.1,0.1c0,0,0.1,0,0.2-0.1
	c0,0,0.1-0.1,0.1-0.1C525.6,696.5,525.7,695.9,525.4,695.4z"/>
<path class="st13" d="M510.4,704.9c0.5,0.7,1.5,1,2.3,0.6c0.1,0,0.2-0.1,0.2-0.1c0.1,0,0.1-0.1,0.2-0.1c-0.1,0-0.2,0.1-0.2,0.1
	c-0.1,0-0.1,0.1-0.2,0.1c-0.7,0.5-0.9,1.4-0.4,2.1c-0.5-0.7-1.5-1-2.3-0.6c-0.1,0-0.1,0.1-0.2,0.1s-0.1,0.1-0.2,0.1
	c0.1,0,0.1-0.1,0.2-0.1s0.1-0.1,0.2-0.1C510.7,706.5,510.9,705.6,510.4,704.9z"/>
<path class="st8" d="M500.8,806.5c1.1,1.5,3.3,2,5.1,1.3c0.2-0.1,0.3-0.2,0.5-0.3c0.2-0.1,0.3-0.2,0.5-0.3c-0.2,0.1-0.3,0.2-0.5,0.3
	c-0.2,0.1-0.3,0.2-0.5,0.3c-1.5,1.2-1.8,3.3-0.7,4.8c-1.1-1.5-3.3-2-5.1-1.3c-0.2,0.1-0.3,0.2-0.5,0.3c-0.2,0.1-0.3,0.2-0.5,0.3
	c0.2-0.1,0.3-0.2,0.5-0.3c0.2-0.1,0.3-0.2,0.5-0.3C501.6,810,502,808,500.8,806.5z"/>
<path class="st8" d="M480.7,789.1c0.9,1.2,2.5,1.5,3.9,1c0.1-0.1,0.3-0.1,0.4-0.2s0.2-0.2,0.3-0.2c-0.1,0.1-0.3,0.1-0.4,0.2
	s-0.2,0.2-0.3,0.2c-1.1,0.9-1.4,2.4-0.5,3.6c-0.9-1.2-2.5-1.5-3.9-1c-0.1,0.1-0.3,0.1-0.4,0.2s-0.2,0.2-0.3,0.2
	c0.1-0.1,0.3-0.1,0.4-0.2s0.2-0.2,0.3-0.2C481.3,791.8,481.6,790.2,480.7,789.1z"/>
<path class="st8" d="M449.7,697.4c0.6,0.9,1.9,1.2,2.9,0.7c0.1,0,0.2-0.1,0.3-0.2s0.2-0.1,0.3-0.2c-0.1,0-0.2,0.1-0.3,0.2
	s-0.2,0.1-0.3,0.2c-0.8,0.7-1,1.8-0.4,2.7c-0.6-0.9-1.9-1.2-2.9-0.7c-0.1,0-0.2,0.1-0.3,0.2s-0.2,0.1-0.3,0.2c0.1,0,0.2-0.1,0.3-0.2
	s0.2-0.1,0.3-0.2C450.2,699.4,450.4,698.2,449.7,697.4z"/>
<path class="st13" d="M389.2,824.7c0.2,0.2,0.5,0.3,0.8,0.2c0,0,0,0,0.1,0c0,0,0,0,0.1,0c0,0,0,0-0.1,0c0,0,0,0-0.1,0
	c-0.2,0.2-0.3,0.5-0.1,0.7c-0.2-0.2-0.5-0.3-0.8-0.2c0,0,0,0-0.1,0c0,0,0,0-0.1,0c0,0,0,0,0.1,0c0,0,0,0,0.1,0
	C389.3,825.2,389.4,824.9,389.2,824.7z"/>
<path class="st13" d="M368.8,831c0.3,0.5,1,0.6,1.5,0.4c0,0,0.1,0,0.1-0.1s0.1-0.1,0.1-0.1c0,0-0.1,0-0.1,0.1c0,0-0.1,0.1-0.1,0.1
	c-0.5,0.3-0.6,1-0.2,1.4c-0.3-0.5-1-0.6-1.5-0.4c0,0-0.1,0-0.1,0.1c0,0-0.1,0.1-0.1,0.1c0,0,0.1,0,0.1-0.1c0,0,0.1-0.1,0.1-0.1
	C369,832.1,369.2,831.5,368.8,831z"/>
<path class="st13" d="M375.7,806.6c0.5,0.7,1.5,1,2.3,0.6c0.1,0,0.1-0.1,0.2-0.1c0.1,0,0.1-0.1,0.2-0.1c-0.1,0-0.1,0.1-0.2,0.1
	c-0.1,0-0.1,0.1-0.2,0.1c-0.7,0.5-0.9,1.4-0.4,2.1c-0.5-0.7-1.5-1-2.3-0.6c-0.1,0-0.1,0.1-0.2,0.1s-0.1,0.1-0.2,0.1
	c0.1,0,0.1-0.1,0.2-0.1s0.1-0.1,0.2-0.1C376,808.2,376.2,807.3,375.7,806.6z"/>
<path class="st13" d="M42.6,916.2c-0.2,0.2-0.3,0.5-0.1,0.7c0,0,0,0,0.1,0.1c0,0,0,0,0.1,0c0,0,0,0-0.1-0.1c0,0,0,0-0.1,0
	c-0.2-0.2-0.6-0.2-0.8,0c0.2-0.2,0.3-0.5,0.1-0.7c0,0,0,0-0.1-0.1c0,0,0,0-0.1,0c0,0,0,0,0.1,0.1c0,0,0,0,0.1,0
	C42,916.4,42.3,916.4,42.6,916.2z"/>
<path class="st13" d="M21.2,904.6c-0.4,0.4-0.5,1-0.1,1.4c0,0,0.1,0.1,0.1,0.1s0.1,0.1,0.1,0.1c0,0-0.1-0.1-0.1-0.1
	s-0.1-0.1-0.1-0.1c-0.5-0.3-1.1-0.3-1.6,0.1c0.4-0.4,0.5-1,0.1-1.4c0,0-0.1-0.1-0.1-0.1s-0.1-0.1-0.1-0.1c0,0,0.1,0.1,0.1,0.1
	s0.1,0.1,0.1,0.1C20.1,905,20.8,905,21.2,904.6z"/>
<path class="st13" d="M59.4,900.6c-0.7,0.6-0.7,1.5-0.2,2.2c0,0.1,0.1,0.1,0.2,0.2c0.1,0.1,0.1,0.1,0.2,0.2c0-0.1-0.1-0.1-0.2-0.2
	c-0.1-0.1-0.1-0.1-0.2-0.2c-0.7-0.5-1.7-0.5-2.4,0.1c0.7-0.6,0.7-1.5,0.2-2.2c0-0.1-0.1-0.1-0.2-0.2c-0.1-0.1-0.1-0.1-0.2-0.2
	c0,0.1,0.1,0.1,0.2,0.2c0.1,0.1,0.1,0.1,0.2,0.2C57.8,901.2,58.8,901.2,59.4,900.6z"/>
<path class="st8" d="M45.3,788.5c-0.8,0.8-0.9,1.9-0.2,2.7c0.1,0.1,0.1,0.2,0.2,0.2c0.1,0.1,0.2,0.1,0.3,0.2
	c-0.1-0.1-0.1-0.2-0.2-0.2s-0.2-0.1-0.3-0.2c-0.9-0.6-2.2-0.5-3,0.2c0.8-0.8,0.9-1.9,0.2-2.7c-0.1-0.1-0.1-0.2-0.2-0.2
	s-0.2-0.1-0.3-0.2c0.1,0.1,0.1,0.2,0.2,0.2c0.1,0.1,0.2,0.1,0.3,0.2C43.2,789.3,44.5,789.2,45.3,788.5z"/>
<path class="st9" d="M145.6,868.7c-1.2-0.2-2.4,0.5-2.7,1.6c0,0.1-0.1,0.2-0.1,0.3s0,0.2,0,0.3c0-0.1,0.1-0.2,0.1-0.3s0-0.2,0-0.3
	c0-1.1-0.9-2.1-2.1-2.2c1.2,0.2,2.4-0.5,2.7-1.6c0-0.1,0.1-0.2,0.1-0.3s0-0.2,0-0.3c0,0.1-0.1,0.2-0.1,0.3s0,0.2,0,0.3
	C143.5,867.6,144.4,868.5,145.6,868.7z"/>
<path class="st8" d="M163.3,867.7c0.1,1,1.1,1.8,2.2,1.9c0.1,0,0.2,0,0.3,0c0.1,0,0.2,0,0.3,0c-0.1,0-0.2,0-0.3,0
	c-0.1,0-0.2,0-0.3,0c-1.1,0.2-1.9,1.2-1.8,2.2c-0.1-1-1.1-1.8-2.2-1.9c-0.1,0-0.2,0-0.3,0s-0.2,0-0.3,0c0.1,0,0.2,0,0.3,0
	c0.1,0,0.2,0,0.3,0C162.6,869.7,163.4,868.8,163.3,867.7z"/>
<path class="st13" d="M186.5,868.6c-0.4,0.5-0.3,1.1,0.2,1.4c0,0,0.1,0.1,0.1,0.1c0.1,0,0.1,0.1,0.1,0.1c0,0-0.1-0.1-0.1-0.1
	c-0.1,0-0.1-0.1-0.1-0.1c-0.5-0.3-1.2-0.1-1.6,0.3c0.4-0.5,0.3-1.1-0.2-1.4c0,0-0.1-0.1-0.1-0.1s-0.1-0.1-0.1-0.1
	c0,0,0.1,0.1,0.1,0.1c0.1,0,0.1,0.1,0.1,0.1C185.5,869.2,186.1,869,186.5,868.6z"/>
<path class="st13" d="M171,859.7c-0.5,0.7-0.4,1.6,0.2,2.2c0.1,0,0.1,0.1,0.2,0.2c0.1,0,0.1,0.1,0.2,0.1c-0.1,0-0.1-0.1-0.2-0.2
	c-0.1,0-0.1-0.1-0.2-0.1c-0.8-0.4-1.8-0.2-2.3,0.5c0.5-0.7,0.4-1.6-0.2-2.2c-0.1,0-0.1-0.1-0.2-0.2c-0.1,0-0.1-0.1-0.2-0.1
	c0.1,0,0.1,0.1,0.2,0.2c0.1,0,0.1,0.1,0.2,0.1C169.5,860.5,170.5,860.3,171,859.7z"/>
<path class="st8" d="M63.9,890.6c-1.1,1.5-0.8,3.6,0.7,4.8c0.1,0.1,0.3,0.2,0.4,0.3c0.2,0.1,0.3,0.2,0.5,0.3
	c-0.1-0.1-0.3-0.2-0.4-0.3c-0.2-0.1-0.3-0.2-0.5-0.3c-1.8-0.8-4-0.3-5.1,1.3c1.1-1.5,0.8-3.6-0.7-4.8c-0.1-0.1-0.3-0.2-0.5-0.3
	c-0.2-0.1-0.3-0.2-0.5-0.3c0.1,0.1,0.3,0.2,0.5,0.3c0.2,0.1,0.3,0.2,0.5,0.3C60.6,892.6,62.8,892.1,63.9,890.6z"/>
<path class="st8" d="M73.9,867.1c-0.8,1.2-0.6,2.7,0.5,3.6c0.1,0.1,0.2,0.2,0.3,0.2c0.1,0.1,0.3,0.1,0.4,0.2
	c-0.1-0.1-0.2-0.2-0.3-0.2c-0.1-0.1-0.3-0.1-0.4-0.2c-1.3-0.6-3-0.2-3.8,1c0.8-1.2,0.6-2.7-0.5-3.6c-0.1-0.1-0.2-0.2-0.3-0.2
	c-0.1-0.1-0.3-0.1-0.4-0.2c0.1,0.1,0.2,0.2,0.3,0.2c0.1,0.1,0.3,0.1,0.4,0.2C71.4,868.6,73.1,868.2,73.9,867.1z"/>
<path class="st13" d="M267.3,1421.9c-0.2,0.2-0.1,0.5,0.1,0.7c0,0,0,0,0.1,0.1c0,0,0,0,0.1,0c0,0,0,0-0.1-0.1c0,0,0,0-0.1,0
	c-0.3-0.1-0.6,0-0.8,0.2c0.2-0.2,0.1-0.5-0.1-0.7c0,0,0,0-0.1-0.1c0,0,0,0-0.1,0c0,0,0,0,0.1,0.1c0,0,0,0,0.1,0
	C266.8,1422.2,267.2,1422.2,267.3,1421.9z"/>
<path class="st13" d="M243.5,1415.4c-0.3,0.5-0.2,1.1,0.3,1.4c0,0,0.1,0.1,0.1,0.1c0.1,0,0.1,0.1,0.1,0.1c0,0-0.1-0.1-0.1-0.1
	c-0.1,0-0.1-0.1-0.1-0.1c-0.6-0.2-1.2-0.1-1.5,0.4c0.3-0.5,0.2-1.1-0.3-1.4c0,0-0.1-0.1-0.1-0.1c-0.1,0-0.1-0.1-0.1-0.1
	c0,0,0.1,0.1,0.1,0.1c0.1,0,0.1,0.1,0.1,0.1C242.5,1416,243.2,1415.9,243.5,1415.4z"/>
<path class="st13" d="M279.5,1403.1c-0.5,0.7-0.3,1.6,0.4,2.1c0.1,0.1,0.1,0.1,0.2,0.1c0.1,0,0.1,0.1,0.2,0.1
	c-0.1-0.1-0.1-0.1-0.2-0.1s-0.1-0.1-0.2-0.1c-0.8-0.3-1.8-0.1-2.3,0.6c0.5-0.7,0.3-1.6-0.4-2.1c-0.1-0.1-0.1-0.1-0.2-0.1
	s-0.1-0.1-0.2-0.1c0.1,0.1,0.1,0.1,0.2,0.1c0.1,0,0.1,0.1,0.2,0.1C278,1404,279,1403.8,279.5,1403.1z"/>
<path class="st8" d="M235.8,1297.4c-0.6,0.9-0.3,2.1,0.5,2.7c0.1,0.1,0.2,0.1,0.3,0.2c0.1,0.1,0.2,0.1,0.3,0.1
	c-0.1-0.1-0.2-0.1-0.3-0.2c-0.1-0.1-0.2-0.1-0.3-0.1c-1-0.4-2.3,0-2.9,0.9c0.6-0.9,0.3-2.1-0.5-2.7c-0.1-0.1-0.2-0.1-0.3-0.2
	c-0.1-0.1-0.2-0.1-0.3-0.1c0.1,0.1,0.2,0.1,0.3,0.2c0.1,0.1,0.2,0.1,0.3,0.1C234,1298.7,235.2,1298.3,235.8,1297.4z"/>
<path class="st9" d="M354.6,1353.2c-1.2,0.1-2.2,1-2.2,2.1c0,0.1,0,0.2,0,0.3s0,0.2,0.1,0.3c0-0.1,0-0.2,0-0.3s0-0.2-0.1-0.3
	c-0.3-1.1-1.4-1.8-2.6-1.7c1.2-0.1,2.2-1,2.2-2.1c0-0.1,0-0.2,0-0.3s0-0.2-0.1-0.3c0,0.1,0,0.2,0,0.3s0,0.2,0.1,0.3
	C352.2,1352.5,353.4,1353.3,354.6,1353.2z"/>
<path class="st8" d="M371.5,1348.3c0.4,1,1.5,1.6,2.6,1.3c0.1,0,0.2,0,0.3-0.1c0.1,0,0.2-0.1,0.3-0.1c-0.1,0-0.2,0-0.3,0.1
	c-0.1,0-0.2,0.1-0.3,0.1c-1,0.5-1.5,1.6-1.1,2.5c-0.4-1-1.5-1.6-2.6-1.3c-0.1,0-0.2,0.1-0.3,0.1c-0.1,0-0.2,0.1-0.3,0.1
	c0.1,0,0.2,0,0.3-0.1c0.1,0,0.2-0.1,0.3-0.1C371.3,1350.4,371.8,1349.3,371.5,1348.3z"/>
<path class="st13" d="M394.2,1344.1c-0.2,0.5,0,1.1,0.5,1.4c0,0,0.1,0.1,0.2,0.1s0.1,0,0.2,0.1c0,0-0.1-0.1-0.2-0.1
	c0,0-0.1,0-0.2-0.1c-0.6-0.1-1.2,0.2-1.4,0.7c0.2-0.5,0-1.1-0.5-1.4c0,0-0.1-0.1-0.2-0.1c0,0-0.1,0-0.2-0.1c0,0,0.1,0.1,0.2,0.1
	c0,0,0.1,0,0.2,0.1C393.4,1344.8,394,1344.6,394.2,1344.1z"/>
<path class="st13" d="M376.8,1338.8c-0.3,0.8,0,1.7,0.8,2c0.1,0,0.1,0.1,0.2,0.1c0.1,0,0.2,0.1,0.3,0.1c-0.1,0-0.1-0.1-0.2-0.1
	c-0.1,0-0.2-0.1-0.3-0.1c-0.9-0.2-1.8,0.2-2.1,1c0.3-0.8,0-1.7-0.8-2c-0.1,0-0.1-0.1-0.2-0.1s-0.2-0.1-0.3-0.1
	c0.1,0,0.1,0.1,0.2,0.1s0.2,0.1,0.3,0.1C375.6,1340,376.5,1339.6,376.8,1338.8z"/>
<path class="st8" d="M281.2,1392.3c-0.7,1.8,0.2,3.7,1.9,4.5c0.2,0.1,0.3,0.2,0.5,0.2c0.2,0.1,0.4,0.1,0.5,0.1
	c-0.2-0.1-0.3-0.2-0.5-0.2c-0.2-0.1-0.4-0.1-0.5-0.1c-2-0.4-4,0.6-4.6,2.4c0.7-1.8-0.2-3.7-1.9-4.5c-0.2-0.1-0.3-0.2-0.5-0.2
	c-0.2-0.1-0.4-0.1-0.5-0.1c0.2,0.1,0.3,0.2,0.5,0.2s0.4,0.1,0.5,0.1C278.5,1395.1,280.5,1394.1,281.2,1392.3z"/>
<path class="st8" d="M284.6,1367.3c-0.5,1.3,0.1,2.7,1.5,3.4c0.1,0.1,0.3,0.1,0.4,0.2c0.1,0,0.3,0.1,0.4,0.1
	c-0.1-0.1-0.3-0.1-0.4-0.2c-0.1,0-0.3-0.1-0.4-0.1c-1.5-0.3-3,0.5-3.5,1.8c0.5-1.3-0.1-2.7-1.5-3.4c-0.1-0.1-0.3-0.1-0.4-0.2
	s-0.3-0.1-0.4-0.1c0.1,0.1,0.3,0.1,0.4,0.2c0.1,0,0.3,0.1,0.4,0.1C282.6,1369.4,284.1,1368.7,284.6,1367.3z"/>
<path class="st13" d="M198.5,1322c-0.1,0.3,0,0.6,0.3,0.7c0,0,0.1,0,0.1,0s0.1,0,0.1,0c0,0-0.1,0-0.1,0s-0.1,0-0.1,0
	c-0.3-0.1-0.6,0.1-0.7,0.3c0.1-0.3,0-0.6-0.3-0.7c0,0-0.1,0-0.1,0s-0.1,0-0.1,0c0,0,0.1,0,0.1,0s0.1,0,0.1,0
	C198.1,1322.4,198.4,1322.2,198.5,1322z"/>
<path class="st13" d="M180.7,1310.9c-0.2,0.5,0,1.1,0.5,1.4c0.1,0,0.1,0.1,0.2,0.1c0.1,0,0.1,0,0.2,0.1c-0.1,0-0.1-0.1-0.2-0.1
	c-0.1,0-0.1,0-0.2-0.1c-0.6-0.1-1.2,0.2-1.4,0.7c0.2-0.5,0-1.1-0.5-1.4c-0.1,0-0.1-0.1-0.2-0.1c-0.1,0-0.1,0-0.2-0.1
	c0.1,0,0.1,0.1,0.2,0.1c0.1,0,0.1,0,0.2,0.1C179.9,1311.7,180.5,1311.5,180.7,1310.9z"/>
<path class="st13" d="M206.5,1301.4c-0.3,0.8,0,1.7,0.8,2c0.1,0,0.1,0.1,0.2,0.1s0.2,0.1,0.3,0.1c-0.1,0-0.1-0.1-0.2-0.1
	s-0.2-0.1-0.3-0.1c-0.9-0.2-1.8,0.2-2.1,1c0.3-0.8,0-1.7-0.8-2c-0.1,0-0.1-0.1-0.2-0.1s-0.2-0.1-0.3-0.1c0.1,0,0.1,0.1,0.2,0.1
	s0.2,0.1,0.3,0.1C205.3,1302.6,206.2,1302.1,206.5,1301.4z"/>
<path class="st13" d="M330.6,1596.3c-0.4,0.1-0.6,0.3-0.6,0.6c0,0,0,0.1,0,0.1c0,0,0,0.1,0,0.1c0,0,0-0.1,0-0.1c0,0,0-0.1,0-0.1
	c-0.1-0.3-0.5-0.4-0.8-0.4c0.4-0.1,0.6-0.3,0.6-0.6c0,0,0-0.1,0-0.1s0-0.1,0-0.1c0,0,0,0.1,0,0.1s0,0.1,0,0.1
	C329.9,1596.2,330.2,1596.4,330.6,1596.3z"/>
<path class="st13" d="M362.7,1575.7c-0.6,0.1-1,0.6-1,1.1c0,0.1,0,0.1,0,0.2c0,0.1,0,0.1,0,0.2c0-0.1,0-0.1,0-0.2c0-0.1,0-0.1,0-0.2
	c-0.2-0.5-0.8-0.8-1.4-0.7c0.6-0.1,1-0.6,1-1.1c0-0.1,0-0.1,0-0.2c0-0.1,0-0.1,0-0.2c0,0.1,0,0.1,0,0.2c0,0.1,0,0.1,0,0.2
	C361.5,1575.5,362.1,1575.8,362.7,1575.7z"/>
<path class="st8" d="M452.7,1490.2c-1.1,0.2-1.9,1.2-1.8,2.2c0,0.1,0,0.2,0,0.3s0,0.2,0.1,0.3c0-0.1,0-0.2,0-0.3s0-0.2-0.1-0.3
	c-0.4-1-1.5-1.5-2.6-1.3c1.1-0.2,1.9-1.2,1.8-2.2c0-0.1,0-0.2,0-0.3c0-0.1,0-0.2-0.1-0.3c0,0.1,0,0.2,0,0.3c0,0.1,0,0.2,0.1,0.3
	C450.5,1489.9,451.6,1490.4,452.7,1490.2z"/>
<path class="st13" d="M530,1618.9c-0.8,0.3-1.3,1.1-1.1,1.9c0,0.1,0,0.2,0.1,0.2s0.1,0.1,0.1,0.2c0-0.1,0-0.2-0.1-0.2
	s-0.1-0.1-0.1-0.2c-0.5-0.7-1.4-1-2.3-0.7c0.8-0.3,1.3-1.1,1.1-1.9c0-0.1,0-0.2-0.1-0.2s-0.1-0.1-0.1-0.2c0,0.1,0,0.2,0.1,0.2
	s0.1,0.1,0.1,0.2C528.1,1618.9,529.1,1619.3,530,1618.9z"/>
<path class="st8" d="M421.5,1592c-1.9,0.7-2.8,2.6-2.3,4.3c0,0.2,0.1,0.3,0.2,0.5c0.1,0.2,0.2,0.3,0.3,0.5c0-0.2-0.1-0.3-0.2-0.5
	c-0.1-0.2-0.2-0.3-0.3-0.5c-1-1.5-3.2-2.2-5.1-1.4c1.9-0.7,2.8-2.6,2.3-4.3c0-0.2-0.1-0.3-0.2-0.5c-0.1-0.2-0.2-0.3-0.3-0.5
	c0,0.2,0.1,0.3,0.2,0.5c0.1,0.2,0.2,0.3,0.3,0.5C417.5,1592.1,419.6,1592.7,421.5,1592z"/>
<path class="st8" d="M429.5,1570.2c-1.4,0.6-2.1,2-1.7,3.3c0,0.1,0.1,0.3,0.1,0.4s0.1,0.2,0.2,0.3c0-0.1-0.1-0.3-0.1-0.4
	s-0.1-0.2-0.2-0.3c-0.8-1.2-2.4-1.6-3.8-1.1c1.4-0.6,2.1-2,1.7-3.3c0-0.1-0.1-0.3-0.1-0.4s-0.1-0.2-0.2-0.3c0,0.1,0.1,0.3,0.1,0.4
	s0.1,0.2,0.2,0.3C426.5,1570.3,428.1,1570.8,429.5,1570.2z"/>
<path class="st8" d="M534.6,1559.3c-1.1,0.4-1.6,1.5-1.3,2.5c0,0.1,0.1,0.2,0.1,0.3c0,0.1,0.1,0.2,0.2,0.3c0-0.1-0.1-0.2-0.1-0.3
	c0-0.1-0.1-0.2-0.2-0.3c-0.6-0.9-1.8-1.2-2.9-0.8c1.1-0.4,1.6-1.5,1.3-2.5c0-0.1-0.1-0.2-0.1-0.3c0-0.1-0.1-0.2-0.2-0.3
	c0,0.1,0.1,0.2,0.1,0.3c0,0.1,0.1,0.2,0.2,0.3C532.3,1559.3,533.5,1559.7,534.6,1559.3z"/>
<path class="st13" d="M407.5,1482.2c-0.3,0.1-0.4,0.4-0.4,0.6c0,0,0,0.1,0,0.1c0,0,0,0.1,0,0.1c0,0,0-0.1,0-0.1c0,0,0-0.1,0-0.1
	c-0.1-0.2-0.5-0.3-0.8-0.2c0.3-0.1,0.4-0.4,0.4-0.6c0,0,0-0.1,0-0.1c0,0,0-0.1,0-0.1c0,0,0,0.1,0,0.1c0,0,0,0.1,0,0.1
	C406.9,1482.2,407.2,1482.3,407.5,1482.2z"/>
<path class="st13" d="M404.3,1462.9c-0.6,0.2-0.9,0.8-0.7,1.3c0,0.1,0,0.1,0,0.2s0,0.1,0.1,0.1c0-0.1,0-0.1,0-0.2s0-0.1-0.1-0.1
	c-0.3-0.5-0.9-0.7-1.5-0.5c0.6-0.2,0.9-0.8,0.7-1.3c0-0.1,0-0.1,0-0.2s0-0.1-0.1-0.1c0,0.1,0,0.1,0,0.2s0,0.1,0.1,0.1
	C403.1,1462.9,403.7,1463.1,404.3,1462.9z"/>
<path class="st13" d="M429.6,1473.5c-0.9,0.3-1.3,1.1-1.1,1.9c0,0.1,0,0.2,0.1,0.2s0.1,0.1,0.1,0.2c0-0.1,0-0.2-0.1-0.2
	s-0.1-0.1-0.1-0.2c-0.5-0.7-1.4-1-2.3-0.7c0.9-0.3,1.3-1.1,1.1-1.9c0-0.1,0-0.2-0.1-0.2s-0.1-0.1-0.1-0.2c0,0.1,0,0.2,0.1,0.2
	s0.1,0.1,0.1,0.2C427.8,1473.5,428.7,1473.8,429.6,1473.5z"/>
<path class="st13" d="M598.5,1527.2c-0.3,0.5-0.2,1.1,0.3,1.4c0,0,0.1,0.1,0.1,0.1c0,0,0.1,0.1,0.2,0.1c0,0-0.1-0.1-0.1-0.1
	c0,0-0.1-0.1-0.2-0.1c-0.5-0.2-1.2-0.1-1.5,0.4c0.3-0.5,0.2-1.1-0.3-1.4c0,0-0.1-0.1-0.1-0.1c0,0-0.1-0.1-0.2-0.1
	c0,0,0.1,0.1,0.1,0.1c0,0,0.1,0.1,0.2,0.1C597.5,1527.8,598.1,1527.6,598.5,1527.2z"/>
<path class="st13" d="M265.8,1236c-0.3-0.1-0.6,0.1-0.7,0.4c0,0,0,0.1,0,0.1s0,0.1,0,0.1c0,0,0-0.1,0-0.1s0-0.1,0-0.1
	c0-0.3-0.2-0.5-0.5-0.6c0.3,0.1,0.6-0.1,0.7-0.4c0,0,0-0.1,0-0.1s0-0.1,0-0.1c0,0,0,0.1,0,0.1s0,0.1,0,0.1
	C265.3,1235.7,265.5,1235.9,265.8,1236z"/>
<path class="st13" d="M263.3,1213.6c-0.6-0.1-1.2,0.2-1.4,0.8c0,0.1,0,0.1,0,0.2s0,0.1,0,0.2c0-0.1,0-0.1,0-0.2s0-0.1,0-0.2
	c0-0.5-0.4-1-1-1.1c0.6,0.1,1.2-0.2,1.4-0.8c0-0.1,0-0.1,0-0.2s0-0.1,0-0.2c0,0.1,0,0.1,0,0.2s0,0.1,0,0.2
	C262.3,1213,262.7,1213.5,263.3,1213.6z"/>
<path class="st13" d="M289.7,1239c-0.9-0.1-1.8,0.4-2,1.1c0,0.1,0,0.2-0.1,0.2s0,0.2,0,0.2c0-0.1,0-0.2,0.1-0.2s0-0.2,0-0.2
	c0-0.8-0.6-1.5-1.5-1.7c0.9,0.1,1.8-0.4,2-1.1c0-0.1,0-0.2,0.1-0.2s0-0.2,0-0.2c0,0.1,0,0.2-0.1,0.2s0,0.2,0,0.2
	C288.1,1238.1,288.8,1238.8,289.7,1239z"/>
<path class="st13" d="M393.7,1312.4c-0.6,0-1.1,0.4-1.2,1c0,0.1,0,0.1,0,0.2c0,0.1,0,0.1,0,0.2c0-0.1,0-0.1,0-0.2c0-0.1,0-0.1,0-0.2
	c-0.1-0.5-0.6-0.9-1.2-0.9c0.6,0,1.1-0.4,1.2-1c0-0.1,0-0.1,0-0.2c0-0.1,0-0.1,0-0.2c0,0.1,0,0.1,0,0.2c0,0.1,0,0.1,0,0.2
	C392.6,1312,393.1,1312.4,393.7,1312.4z"/>
<path class="st13" d="M392.4,1295.8c-0.9,0-1.7,0.7-1.8,1.5c0,0.1,0,0.2,0,0.2s0,0.2,0,0.2c0-0.1,0-0.2,0-0.2s0-0.2,0-0.2
	c-0.1-0.8-0.9-1.4-1.9-1.4c0.9,0,1.7-0.7,1.8-1.5c0-0.1,0-0.2,0-0.2s0-0.2,0-0.2c0,0.1,0,0.2,0,0.2s0,0.2,0,0.2
	C390.8,1295.2,391.5,1295.8,392.4,1295.8z"/>
<path class="st8" d="M301.2,1236.3c-2,0.1-3.7,1.6-3.8,3.3c0,0.2,0,0.3,0,0.5c0,0.2,0,0.3,0.1,0.5c0-0.2,0-0.3,0-0.5
	c0-0.2,0-0.3-0.1-0.5c-0.4-1.8-2.1-3.1-4.2-3c2-0.1,3.7-1.6,3.8-3.3c0-0.2,0-0.3,0-0.5c0-0.2,0-0.3-0.1-0.5c0,0.2,0,0.3,0,0.5
	c0,0.2,0,0.3,0.1,0.5C297.4,1235.1,299.1,1236.4,301.2,1236.3z"/>
<path class="st13" d="M-25.6,1477.3c-0.9,0-1.6,0.7-1.7,1.5c0,0.1,0,0.2,0,0.2s0,0.2,0,0.2c0-0.1,0-0.2,0-0.2s0-0.2,0-0.2
	c-0.2-0.8-1-1.4-1.9-1.3c0.9,0,1.6-0.7,1.7-1.5c0-0.1,0-0.2,0-0.2s0-0.2,0-0.2c0,0.1,0,0.2,0,0.2s0,0.2,0,0.2
	C-27.4,1476.7-26.6,1477.3-25.6,1477.3z"/>
<path class="st8" d="M45.7,1384.8c-1.2,0.1-2,0.9-2.1,1.9c0,0.1,0,0.2,0,0.3c0,0.1,0,0.2,0,0.3c0-0.1,0-0.2,0-0.3c0-0.1,0-0.2,0-0.3
	c-0.2-1-1.3-1.7-2.4-1.6c1.2-0.1,2-0.9,2.1-1.9c0-0.1,0-0.2,0-0.3s0-0.2,0-0.3c0,0.1,0,0.2,0,0.3c0,0.1,0,0.2,0,0.3
	C43.5,1384.1,44.6,1384.8,45.7,1384.8z"/>
<path class="st9" d="M62.2,1505.1c-0.8-0.9-2.2-1.1-3.2-0.5c-0.1,0.1-0.2,0.1-0.3,0.2s-0.2,0.1-0.3,0.2c0.1-0.1,0.2-0.1,0.3-0.2
	s0.2-0.1,0.3-0.2c0.8-0.8,0.9-2.1,0.1-2.9c0.8,0.9,2.2,1.1,3.2,0.5c0.1-0.1,0.2-0.1,0.3-0.2s0.2-0.1,0.3-0.2
	c-0.1,0.1-0.2,0.1-0.3,0.2s-0.2,0.1-0.3,0.2C61.5,1503,61.4,1504.3,62.2,1505.1z"/>
<path class="st8" d="M76.2,1515c-0.7,0.8-0.6,2,0.3,2.7c0.1,0.1,0.2,0.1,0.3,0.2c0.1,0.1,0.2,0.1,0.3,0.2c-0.1-0.1-0.2-0.1-0.3-0.2
	c-0.1-0.1-0.2-0.1-0.3-0.2c-1-0.5-2.3-0.2-2.9,0.6c0.7-0.8,0.6-2-0.3-2.7c-0.1-0.1-0.2-0.1-0.3-0.2c-0.1-0.1-0.2-0.1-0.3-0.2
	c0.1,0.1,0.2,0.1,0.3,0.2c0.1,0.1,0.2,0.1,0.3,0.2C74.2,1516.1,75.5,1515.8,76.2,1515z"/>
<path class="st13" d="M43.4,1589.2c-0.3,0.1-0.4,0.3-0.4,0.5c0,0,0,0.1,0,0.1c0,0,0,0.1,0,0.1c0,0,0-0.1,0-0.1c0,0,0-0.1,0-0.1
	c-0.1-0.2-0.4-0.4-0.6-0.3c0.3-0.1,0.4-0.3,0.4-0.5c0,0,0-0.1,0-0.1c0,0,0-0.1,0-0.1c0,0,0,0.1,0,0.1c0,0,0,0.1,0,0.1
	C42.8,1589.2,43.1,1589.3,43.4,1589.2z"/>
<path class="st13" d="M33.8,1560.2c-2.6,0.6-4.2,2.7-4,5c0,0.2,0.1,0.4,0.1,0.7c0.1,0.2,0.1,0.4,0.2,0.6c0-0.2-0.1-0.4-0.1-0.7
	c-0.1-0.2-0.1-0.4-0.2-0.6c-0.9-2.2-3.5-3.4-6.1-2.9c2.6-0.6,4.2-2.7,4-5c0-0.2-0.1-0.4-0.1-0.7s-0.1-0.4-0.2-0.6
	c0,0.2,0.1,0.4,0.1,0.7c0.1,0.2,0.1,0.4,0.2,0.6C28.6,1559.5,31.2,1560.8,33.8,1560.2z"/>
<path class="st8" d="M-15,1472.4c-2,0.5-3.2,2.2-3,4c0,0.2,0.1,0.3,0.1,0.5c0,0.2,0.1,0.3,0.2,0.5c0-0.2-0.1-0.3-0.1-0.5
	c0-0.2-0.1-0.3-0.2-0.5c-0.8-1.7-2.8-2.6-4.8-2.1c2-0.5,3.2-2.2,3-4c0-0.2-0.1-0.3-0.1-0.5c0-0.2-0.1-0.3-0.2-0.5
	c0,0.2,0.1,0.3,0.1,0.5c0,0.2,0.1,0.3,0.2,0.5C-19,1472-17,1472.9-15,1472.4z"/>
<path class="st8" d="M9.7,1460.8c-1.5,0.4-2.4,1.7-2.2,3c0,0.1,0,0.3,0.1,0.4c0,0.1,0.1,0.3,0.1,0.4c0-0.1,0-0.3-0.1-0.4
	s-0.1-0.3-0.1-0.4c-0.6-1.3-2.1-1.9-3.6-1.6c1.5-0.4,2.4-1.7,2.2-3c0-0.1,0-0.3-0.1-0.4s-0.1-0.3-0.1-0.4c0,0.1,0,0.3,0.1,0.4
	s0.1,0.3,0.1,0.4C6.7,1460.5,8.2,1461.2,9.7,1460.8z"/>
<path class="st8" d="M112.6,1418.4c-3.2,0.8-5.2,3.6-4.8,6.5c0,0.3,0.1,0.6,0.2,0.8s0.2,0.5,0.3,0.8c0-0.3-0.1-0.6-0.2-0.8
	c-0.1-0.3-0.2-0.5-0.3-0.8c-1.3-2.7-4.5-4.2-7.7-3.4c3.2-0.8,5.2-3.6,4.8-6.5c0-0.3-0.1-0.6-0.2-0.8c-0.1-0.3-0.2-0.5-0.3-0.8
	c0,0.3,0.1,0.6,0.2,0.8c0.1,0.3,0.2,0.5,0.3,0.8C106.2,1417.7,109.4,1419.2,112.6,1418.4z"/>
<path class="st13" d="M2.3,1370.8c-0.3,0.1-0.5,0.3-0.5,0.6c0,0,0,0.1,0,0.1c0,0,0,0.1,0,0.1c0,0,0-0.1,0-0.1c0,0,0-0.1,0-0.1
	c-0.1-0.3-0.4-0.4-0.7-0.3c0.3-0.1,0.5-0.3,0.5-0.6c0,0,0-0.1,0-0.1c0,0,0-0.1,0-0.1c0,0,0,0.1,0,0.1s0,0.1,0,0.1
	C1.7,1370.7,2,1370.9,2.3,1370.8z"/>
<path class="st13" d="M2.2,1351.3c-0.6,0.1-1,0.6-0.9,1.2c0,0.1,0,0.1,0,0.2c0,0.1,0,0.1,0,0.2c0-0.1,0-0.1,0-0.2s0-0.1,0-0.2
	c-0.2-0.5-0.8-0.8-1.4-0.7c0.6-0.1,1-0.6,0.9-1.2c0-0.1,0-0.1,0-0.2c0-0.1,0-0.1-0.1-0.2c0,0.1,0,0.1,0,0.2c0,0.1,0,0.1,0.1,0.2
	C1,1351.1,1.6,1351.4,2.2,1351.3z"/>
<path class="st13" d="M25.5,1365.2c-0.9,0.2-1.5,0.9-1.4,1.8c0,0.1,0,0.2,0,0.2s0,0.2,0.1,0.2c0-0.1,0-0.2,0-0.2s0-0.2-0.1-0.2
	c-0.3-0.8-1.2-1.2-2.1-1c0.9-0.2,1.5-0.9,1.4-1.8c0-0.1,0-0.2,0-0.2s0-0.2-0.1-0.2c0,0.1,0,0.2,0,0.2s0,0.2,0.1,0.2
	C23.8,1364.9,24.6,1365.3,25.5,1365.2z"/>
<path class="st13" d="M56.7,1694.6c-0.3-0.1-0.6,0-0.7,0.3c0,0,0,0.1,0,0.1s0,0.1,0,0.1c0,0,0-0.1,0-0.1s0-0.1,0-0.1
	c0-0.3-0.1-0.5-0.4-0.6c0.3,0.1,0.6,0,0.7-0.3c0,0,0-0.1,0-0.1s0-0.1,0-0.1c0,0,0,0.1,0,0.1s0,0.1,0,0.1
	C56.2,1694.2,56.4,1694.5,56.7,1694.6z"/>
<path class="st13" d="M-28.2,1194.1c0,0,0.1-0.1,0.1-0.1C-28.1,1194-28.1,1194.1-28.2,1194.1c0,0.1,0,0.1-0.1,0.1
	C-28.2,1194.2-28.2,1194.1-28.2,1194.1z"/>
<path class="st13" d="M-26.8,1192.3c0,0-0.1,0.1-0.1,0.1C-26.9,1192.3-26.9,1192.3-26.8,1192.3c0-0.1,0-0.1,0.1-0.1
	C-26.7,1192.2-26.8,1192.2-26.8,1192.3z"/>
<path class="st13" d="M118.5,1372.4c-0.1-0.3-0.4-0.4-0.7-0.3c0,0-0.1,0-0.1,0s-0.1,0-0.1,0c0,0,0.1,0,0.1,0s0.1,0,0.1,0
	c0.3-0.2,0.3-0.4,0.2-0.7c0.1,0.3,0.4,0.4,0.7,0.3c0,0,0.1,0,0.1,0s0.1,0,0.1,0c0,0-0.1,0-0.1,0s-0.1,0-0.1,0
	C118.5,1371.9,118.4,1372.2,118.5,1372.4z"/>
<path class="st13" d="M137.5,1357.9c-0.3-0.5-0.9-0.8-1.5-0.6c-0.1,0-0.1,0-0.2,0.1c-0.1,0-0.1,0.1-0.1,0.1c0.1,0,0.1,0,0.2-0.1
	c0.1,0,0.1-0.1,0.1-0.1c0.5-0.3,0.7-0.9,0.4-1.4c0.3,0.5,0.9,0.8,1.5,0.6c0.1,0,0.1,0,0.2-0.1c0.1,0,0.1-0.1,0.1-0.1
	c-0.1,0-0.1,0-0.2,0.1c-0.1,0-0.1,0.1-0.1,0.1C137.5,1356.8,137.3,1357.4,137.5,1357.9z"/>
<path class="st13" d="M129.3,1392c-0.4-0.8-1.3-1.1-2.2-0.9c-0.1,0-0.2,0.1-0.2,0.1c-0.1,0-0.2,0.1-0.2,0.1c0.1,0,0.2-0.1,0.2-0.1
	c0.1,0,0.2-0.1,0.2-0.1c0.8-0.4,1-1.3,0.7-2.1c0.4,0.8,1.3,1.1,2.2,0.9c0.1,0,0.2-0.1,0.2-0.1c0.1,0,0.1-0.1,0.2-0.1
	c-0.1,0-0.2,0.1-0.2,0.1c-0.1,0-0.1,0.1-0.2,0.1C129.2,1390.3,128.9,1391.2,129.3,1392z"/>
<path class="st9" d="M167.4,1453.3c1.6-2.9,0.7-6.3-2.1-8.2c-0.3-0.2-0.6-0.3-0.9-0.5s-0.6-0.3-0.9-0.4c0.3,0.2,0.6,0.3,0.9,0.5
	s0.6,0.3,0.9,0.4c3.3,1.1,6.9-0.2,8.6-3.1c-1.6,2.9-0.7,6.3,2.1,8.2c0.3,0.2,0.6,0.3,0.9,0.5s0.6,0.3,0.9,0.4
	c-0.3-0.2-0.6-0.3-0.9-0.5s-0.6-0.3-0.9-0.4C172.8,1449.2,169.1,1450.4,167.4,1453.3z"/>
<path class="st8" d="M154,1497.5c-3.2-0.7-6.5,0.9-7.6,3.6c-0.1,0.3-0.2,0.5-0.3,0.8c-0.1,0.3-0.1,0.6-0.1,0.8
	c0.1-0.3,0.2-0.5,0.3-0.8c0.1-0.3,0.1-0.6,0.1-0.8c0.3-2.9-1.8-5.7-5-6.3c3.2,0.7,6.5-0.9,7.6-3.6c0.1-0.3,0.2-0.5,0.3-0.8
	c0.1-0.3,0.1-0.6,0.1-0.8c-0.1,0.3-0.2,0.5-0.3,0.8c-0.1,0.3-0.1,0.6-0.1,0.8C148.7,1494.1,150.8,1496.8,154,1497.5z"/>
<path class="st13" d="M129.8,1553.7c-1-1.3-2.9-1.7-4.4-0.9c-0.1,0.1-0.3,0.2-0.4,0.2s-0.3,0.2-0.4,0.3c0.1-0.1,0.3-0.2,0.4-0.2
	s0.3-0.2,0.4-0.3c1.2-1.1,1.4-2.8,0.4-4.1c1,1.3,2.9,1.7,4.4,0.9c0.1-0.1,0.3-0.2,0.4-0.2s0.3-0.2,0.4-0.3c-0.1,0.1-0.3,0.2-0.4,0.2
	s-0.3,0.2-0.4,0.3C129,1550.6,128.8,1552.4,129.8,1553.7z"/>
<path class="st13" d="M170.9,1524.1c-1.5-1.9-4.4-2.5-6.7-1.4c-0.2,0.1-0.4,0.2-0.6,0.3c-0.2,0.1-0.4,0.3-0.6,0.4
	c0.2-0.1,0.4-0.2,0.6-0.3c0.2-0.1,0.4-0.3,0.6-0.4c1.9-1.6,2.1-4.3,0.6-6.2c1.5,1.9,4.4,2.5,6.7,1.4c0.2-0.1,0.4-0.2,0.6-0.3
	c0.2-0.1,0.4-0.3,0.6-0.4c-0.2,0.1-0.4,0.2-0.6,0.3s-0.4,0.3-0.6,0.4C169.6,1519.5,169.3,1522.2,170.9,1524.1z"/>
<path class="st9" d="M71.6,1181.2c-0.8-0.9-2.2-1.1-3.2-0.5c-0.1,0.1-0.2,0.1-0.3,0.2s-0.2,0.1-0.3,0.2c0.1-0.1,0.2-0.1,0.3-0.2
	s0.2-0.1,0.3-0.2c0.8-0.8,0.9-2.1,0.1-2.9c0.8,0.9,2.2,1.1,3.2,0.5c0.1-0.1,0.2-0.1,0.3-0.2s0.2-0.1,0.3-0.2
	c-0.1,0.1-0.2,0.1-0.3,0.2s-0.2,0.1-0.3,0.2C70.8,1179.1,70.8,1180.4,71.6,1181.2z"/>
<path class="st8" d="M85.6,1191.1c-0.7,0.8-0.6,2,0.3,2.7c0.1,0.1,0.2,0.1,0.3,0.2c0.1,0.1,0.2,0.1,0.3,0.2
	c-0.1-0.1-0.2-0.1-0.3-0.2c-0.1-0.1-0.2-0.1-0.3-0.2c-1-0.5-2.3-0.2-2.9,0.6c0.7-0.8,0.6-2-0.3-2.7c-0.1-0.1-0.2-0.1-0.3-0.2
	c-0.1-0.1-0.2-0.1-0.3-0.2c0.1,0.1,0.2,0.1,0.3,0.2s0.2,0.1,0.3,0.2C83.6,1192.2,84.9,1191.9,85.6,1191.1z"/>
<path class="st13" d="M102.3,1205.7c-0.6,0.1-1,0.6-0.9,1.2c0,0.1,0,0.1,0,0.2c0,0.1,0,0.1,0.1,0.2c0-0.1,0-0.1,0-0.2
	c0-0.1,0-0.1-0.1-0.2c-0.2-0.5-0.8-0.8-1.4-0.7c0.6-0.1,1-0.6,0.9-1.2c0-0.1,0-0.1,0-0.2c0-0.1,0-0.1-0.1-0.2c0,0.1,0,0.1,0,0.2
	c0,0.1,0,0.1,0.1,0.2C101.1,1205.5,101.7,1205.8,102.3,1205.7z"/>
<path class="st13" d="M97.3,1189.7c-0.9,0.2-1.5,0.9-1.4,1.8c0,0.1,0,0.2,0,0.2c0,0.1,0.1,0.2,0.1,0.2c0-0.1,0-0.2,0-0.2
	c0-0.1-0.1-0.2-0.1-0.2c-0.3-0.8-1.2-1.2-2.1-1c0.9-0.2,1.5-0.9,1.4-1.8c0-0.1,0-0.2,0-0.2c0-0.1-0.1-0.2-0.1-0.2c0,0.1,0,0.2,0,0.2
	c0,0.1,0.1,0.2,0.1,0.2C95.5,1189.4,96.4,1189.9,97.3,1189.7z"/>
<path class="st8" d="M139.3,1167.8c-1.1-0.3-2.3,0.3-2.7,1.3c0,0.1-0.1,0.2-0.1,0.3s0,0.2-0.1,0.3c0-0.1,0.1-0.2,0.1-0.3
	s0-0.2,0.1-0.3c0.1-1-0.6-2-1.8-2.2c1.1,0.3,2.3-0.3,2.7-1.3c0-0.1,0.1-0.2,0.1-0.3s0-0.2,0.1-0.3c0,0.1-0.1,0.2-0.1,0.3
	s0,0.2-0.1,0.3C137.4,1166.6,138.2,1167.5,139.3,1167.8z"/>
<path class="st13" d="M130.9,1187.4c-0.4-0.4-1-0.6-1.6-0.3c-0.1,0-0.1,0.1-0.1,0.1s-0.1,0.1-0.1,0.1c0.1,0,0.1-0.1,0.1-0.1
	c0.1,0,0.1-0.1,0.1-0.1c0.4-0.4,0.5-1,0.1-1.4c0.4,0.4,1,0.6,1.6,0.3c0.1,0,0.1-0.1,0.1-0.1s0.1-0.1,0.1-0.1c-0.1,0-0.1,0.1-0.1,0.1
	c-0.1,0-0.1,0.1-0.1,0.1C130.6,1186.3,130.5,1187,130.9,1187.4z"/>
<path class="st13" d="M145.2,1177.1c-0.5-0.7-1.5-0.9-2.3-0.5c-0.1,0-0.1,0.1-0.2,0.1c-0.1,0.1-0.1,0.1-0.2,0.2
	c0.1,0,0.1-0.1,0.2-0.1c0.1-0.1,0.1-0.1,0.2-0.2c0.6-0.6,0.8-1.5,0.2-2.2c0.5,0.7,1.5,0.9,2.3,0.5c0.1,0,0.1-0.1,0.2-0.1
	c0.1-0.1,0.1-0.1,0.2-0.2c-0.1,0-0.1,0.1-0.2,0.1c-0.1,0.1-0.1,0.1-0.2,0.2C144.8,1175.5,144.7,1176.4,145.2,1177.1z"/>
<path class="st9" d="M162.7,1066.3c-0.8-0.9-2.2-1.1-3.2-0.5c-0.1,0.1-0.2,0.1-0.3,0.2s-0.2,0.1-0.3,0.2c0.1-0.1,0.2-0.1,0.3-0.2
	s0.2-0.1,0.3-0.2c0.8-0.8,0.9-2.1,0.1-2.9c0.8,0.9,2.2,1.1,3.2,0.5c0.1-0.1,0.2-0.1,0.3-0.2s0.2-0.1,0.3-0.2
	c-0.1,0.1-0.2,0.1-0.3,0.2s-0.2,0.1-0.3,0.2C162,1064.2,161.9,1065.4,162.7,1066.3z"/>
<path class="st13" d="M193.5,1090.7c-0.6,0.1-1,0.6-0.9,1.2c0,0.1,0,0.1,0,0.2c0,0.1,0,0.1,0.1,0.2c0-0.1,0-0.1,0-0.2
	c0-0.1,0-0.1-0.1-0.2c-0.2-0.5-0.8-0.8-1.4-0.7c0.6-0.1,1-0.6,0.9-1.2c0-0.1,0-0.1,0-0.2c0-0.1,0-0.1-0.1-0.2c0,0.1,0,0.1,0,0.2
	c0,0.1,0,0.1,0.1,0.2C192.3,1090.6,192.9,1090.9,193.5,1090.7z"/>
<path class="st13" d="M188.4,1074.7c-0.9,0.2-1.5,0.9-1.4,1.8c0,0.1,0,0.2,0,0.2c0,0.1,0.1,0.2,0.1,0.2c0-0.1,0-0.2,0-0.2
	c0-0.1-0.1-0.2-0.1-0.2c-0.3-0.8-1.2-1.2-2.1-1c0.9-0.2,1.5-0.9,1.4-1.8c0-0.1,0-0.2,0-0.2c0-0.1-0.1-0.2-0.1-0.2c0,0.1,0,0.2,0,0.2
	c0,0.1,0.1,0.2,0.1,0.2C186.6,1074.5,187.5,1074.9,188.4,1074.7z"/>
<path class="st8" d="M106.1,1064.6c-1,0.5-1.4,1.7-0.9,2.6c0,0.1,0.1,0.2,0.2,0.3s0.1,0.2,0.2,0.2c0-0.1-0.1-0.2-0.2-0.3
	s-0.1-0.2-0.2-0.2c-0.7-0.8-2-1-3-0.5c1-0.5,1.4-1.7,0.9-2.6c0-0.1-0.1-0.2-0.2-0.3c-0.1-0.1-0.1-0.2-0.2-0.2c0,0.1,0.1,0.2,0.2,0.3
	c0.1,0.1,0.1,0.2,0.2,0.2C103.9,1064.9,105.2,1065.1,106.1,1064.6z"/>
<path class="st9" d="M126.7,1068.9c-0.1,0-0.2-0.1-0.3-0.1c-0.1,0-0.2,0-0.3,0c0.1,0,0.2,0.1,0.3,0.1
	C126.4,1068.9,126.6,1068.9,126.7,1068.9c1.2,0.1,2.3-0.7,2.6-1.8c-0.3,1.1,0.4,2.2,1.6,2.6c0.1,0,0.2,0.1,0.3,0.1
	c0.1,0,0.2,0,0.4,0c-0.1,0-0.2-0.1-0.3-0.1c-0.1,0-0.2,0-0.4,0"/>
<path class="st9" d="M441.7,1189.3c-0.8-0.9-2.2-1.1-3.2-0.5c-0.1,0.1-0.2,0.1-0.3,0.2s-0.2,0.1-0.3,0.2c0.1-0.1,0.2-0.1,0.3-0.2
	s0.2-0.1,0.3-0.2c0.8-0.8,0.9-2.1,0.1-2.9c0.8,0.9,2.2,1.1,3.2,0.5c0.1-0.1,0.2-0.1,0.3-0.2s0.2-0.1,0.3-0.2
	c-0.1,0.1-0.2,0.1-0.3,0.2s-0.2,0.1-0.3,0.2C440.9,1187.2,440.9,1188.4,441.7,1189.3z"/>
<path class="st8" d="M455.6,1199.2c-0.7,0.8-0.5,2,0.3,2.7c0.1,0.1,0.2,0.1,0.3,0.2s0.2,0.1,0.3,0.2c-0.1-0.1-0.2-0.1-0.3-0.2
	c-0.1-0.1-0.2-0.1-0.3-0.2c-1-0.5-2.3-0.2-2.9,0.6c0.7-0.8,0.5-2-0.3-2.7c-0.1-0.1-0.2-0.1-0.3-0.2s-0.2-0.1-0.3-0.2
	c0.1,0.1,0.2,0.1,0.3,0.2c0.1,0.1,0.2,0.1,0.3,0.2C453.7,1200.3,455,1200,455.6,1199.2z"/>
<path class="st13" d="M472.4,1213.8c-0.6,0.1-1,0.6-0.9,1.2c0,0.1,0,0.1,0,0.2c0,0.1,0,0.1,0,0.2c0-0.1,0-0.1,0-0.2
	c0-0.1,0-0.1,0-0.2c-0.2-0.5-0.8-0.8-1.4-0.7c0.6-0.1,1-0.6,0.9-1.2c0-0.1,0-0.1,0-0.2c0-0.1,0-0.1,0-0.2c0,0.1,0,0.1,0,0.2
	s0,0.1,0,0.2C471.2,1213.6,471.8,1213.9,472.4,1213.8z"/>
<path class="st13" d="M467.4,1197.8c-0.9,0.2-1.5,0.9-1.4,1.8c0,0.1,0,0.2,0,0.2s0,0.2,0.1,0.2c0-0.1,0-0.2,0-0.2
	c0-0.1,0-0.2-0.1-0.2c-0.3-0.8-1.2-1.2-2.1-1c0.9-0.2,1.5-0.9,1.4-1.8c0-0.1,0-0.2,0-0.2c0-0.1,0-0.2-0.1-0.2c0,0.1,0,0.2,0,0.2
	c0,0.1,0,0.2,0.1,0.2C465.6,1197.5,466.5,1198,467.4,1197.8z"/>
<path class="st8" d="M494.9,1148.2c-1.1,0.3-1.8,1.2-1.7,2.3c0,0.1,0,0.2,0.1,0.3c0,0.1,0.1,0.2,0.1,0.3c0-0.1,0-0.2-0.1-0.3
	s-0.1-0.2-0.1-0.3c-0.4-0.9-1.6-1.5-2.7-1.2c1.1-0.3,1.8-1.2,1.7-2.3c0-0.1,0-0.2-0.1-0.3c0-0.1-0.1-0.2-0.1-0.3
	c0,0.1,0,0.2,0.1,0.3c0,0.1,0.1,0.2,0.1,0.3C492.7,1147.9,493.8,1148.5,494.9,1148.2z"/>
<path class="st9" d="M514.1,1160.4c0.6-1,0.2-2.2-0.8-2.8c-0.1-0.1-0.2-0.1-0.3-0.2s-0.2-0.1-0.3-0.1c0.1,0.1,0.2,0.1,0.3,0.2
	s0.2,0.1,0.3,0.1c1.1,0.4,2.4-0.1,3-1.1c-0.6,1-0.2,2.2,0.8,2.8c0.1,0.1,0.2,0.1,0.3,0.2c0.1,0.1,0.2,0.1,0.3,0.1
	c-0.1-0.1-0.2-0.1-0.3-0.2c-0.1-0.1-0.2-0.1-0.3-0.1C516,1158.9,514.7,1159.4,514.1,1160.4z"/>
<path class="st8" d="M509.4,1175.8c-1.1-0.3-2.3,0.3-2.7,1.3c0,0.1-0.1,0.2-0.1,0.3s0,0.2,0,0.3c0-0.1,0.1-0.2,0.1-0.3s0-0.2,0-0.3
	c0.1-1-0.6-2-1.8-2.2c1.1,0.3,2.3-0.3,2.7-1.3c0-0.1,0.1-0.2,0.1-0.3s0-0.2,0-0.3c0,0.1-0.1,0.2-0.1,0.3s0,0.2,0,0.3
	C507.5,1174.7,508.3,1175.6,509.4,1175.8z"/>
<path class="st13" d="M500.9,1195.5c-0.4-0.4-1-0.6-1.5-0.3c0,0-0.1,0.1-0.1,0.1s-0.1,0.1-0.1,0.1c0,0,0.1-0.1,0.1-0.1
	s0.1-0.1,0.1-0.1c0.4-0.4,0.5-1,0.1-1.4c0.4,0.4,1,0.6,1.5,0.3c0,0,0.1-0.1,0.1-0.1c0,0,0.1-0.1,0.1-0.1c0,0-0.1,0.1-0.1,0.1
	c0,0-0.1,0.1-0.1,0.1C500.6,1194.4,500.6,1195,500.9,1195.5z"/>
<path class="st13" d="M515.3,1185.1c-0.5-0.7-1.5-0.9-2.3-0.5c-0.1,0-0.2,0.1-0.2,0.1c-0.1,0.1-0.1,0.1-0.2,0.2
	c0.1,0,0.2-0.1,0.2-0.1s0.1-0.1,0.2-0.2c0.7-0.6,0.8-1.5,0.2-2.2c0.5,0.7,1.5,0.9,2.3,0.5c0.1,0,0.2-0.1,0.2-0.1s0.1-0.1,0.2-0.2
	c-0.1,0-0.2,0.1-0.2,0.1c-0.1,0.1-0.1,0.1-0.2,0.2C514.9,1183.5,514.8,1184.5,515.3,1185.1z"/>
<path class="st8" d="M138.3,1399.1c-1.2-1.5-3.5-1.9-5.2-1c-0.2,0.1-0.3,0.2-0.5,0.3s-0.3,0.2-0.4,0.3c0.2-0.1,0.3-0.2,0.5-0.3
	s0.3-0.2,0.4-0.3c1.4-1.3,1.6-3.3,0.3-4.8c1.2,1.5,3.5,1.9,5.2,1c0.2-0.1,0.3-0.2,0.5-0.3s0.3-0.2,0.4-0.3c-0.2,0.1-0.3,0.2-0.5,0.3
	s-0.3,0.2-0.4,0.3C137.3,1395.5,137.1,1397.6,138.3,1399.1z"/>
<path class="st8" d="M159.6,1415.3c-0.9-1.1-2.6-1.4-3.9-0.7c-0.1,0.1-0.2,0.1-0.4,0.2s-0.2,0.2-0.3,0.3c0.1-0.1,0.2-0.1,0.4-0.2
	s0.2-0.2,0.3-0.3c1.1-1,1.2-2.5,0.2-3.6c0.9,1.1,2.6,1.4,3.9,0.7c0.1-0.1,0.2-0.1,0.4-0.2s0.2-0.2,0.3-0.3c-0.1,0.1-0.2,0.1-0.4,0.2
	c-0.1,0.1-0.2,0.2-0.3,0.3C158.8,1412.6,158.7,1414.2,159.6,1415.3z"/>
<path class="st8" d="M155.5,806c-0.6,0.9-0.5,2,0.4,2.7c0.1,0.1,0.2,0.1,0.3,0.2s0.2,0.1,0.3,0.2c-0.1-0.1-0.2-0.1-0.3-0.2
	s-0.2-0.1-0.3-0.2c-1-0.4-2.3-0.2-2.9,0.7c0.6-0.9,0.5-2-0.4-2.7c-0.1-0.1-0.2-0.1-0.3-0.2s-0.2-0.1-0.3-0.2
	c0.1,0.1,0.2,0.1,0.3,0.2s0.2,0.1,0.3,0.2C153.6,807.1,154.8,806.8,155.5,806z"/>
<path class="st13" d="M2.6,804.1c-0.2,0.2-0.1,0.5,0.1,0.7c0,0,0,0,0.1,0s0,0,0.1,0c0,0,0,0-0.1,0s0,0-0.1,0c-0.3-0.1-0.6,0-0.8,0.2
	c0.2-0.2,0.1-0.5-0.1-0.7c0,0,0,0-0.1,0s0,0-0.1,0c0,0,0,0,0.1,0s0,0,0.1,0C2.1,804.4,2.4,804.3,2.6,804.1z"/>
<path class="st13" d="M15.9,785.9c-0.5,0.7-0.4,1.6,0.2,2.2c0.1,0,0.1,0.1,0.2,0.2c0.1,0,0.1,0.1,0.2,0.1c-0.1,0-0.1-0.1-0.2-0.2
	c-0.1,0-0.1-0.1-0.2-0.1c-0.8-0.4-1.8-0.2-2.3,0.5c0.5-0.7,0.4-1.6-0.2-2.2c-0.1,0-0.1-0.1-0.2-0.2c-0.1,0-0.1-0.1-0.2-0.1
	c0.1,0,0.1,0.1,0.2,0.2c0.1,0,0.1,0.1,0.2,0.1C14.3,786.8,15.3,786.5,15.9,785.9z"/>
<path class="st13" d="M166.4,265.9c1.4,0,2.6-1,2.8-2.5c0-0.1,0-0.3,0-0.4s0-0.3,0-0.4c0,0.1,0,0.3,0,0.4c0,0.1,0,0.3,0,0.4
	c0.1,1.5,1.3,2.6,2.7,2.6c-1.4,0-2.6,1-2.8,2.5c0,0.1,0,0.3,0,0.4s0,0.3,0,0.4c0-0.1,0-0.3,0-0.4s0-0.3,0-0.4
	C168.9,267.1,167.8,265.9,166.4,265.9z"/>
<path class="st9" d="M303.9,258.7c0.2,1.5,1.4,2.6,2.8,2.6c0.1,0,0.3,0,0.4,0s0.3,0,0.4-0.1c-0.1,0-0.3,0-0.4,0s-0.3,0-0.4,0.1
	c-1.3,0.4-2.2,1.8-2,3.3c-0.2-1.5-1.4-2.6-2.8-2.6c-0.1,0-0.3,0-0.4,0s-0.3,0-0.4,0.1c0.1,0,0.3,0,0.4,0s0.3,0,0.4-0.1
	C303.2,261.6,304.1,260.2,303.9,258.7z"/>
<path class="st7" d="M233.8,252c1-1.9,0.3-4.1-1.5-5.2c-0.2-0.1-0.4-0.2-0.6-0.3s-0.4-0.2-0.6-0.2c0.2,0.1,0.4,0.2,0.6,0.3
	s0.4,0.2,0.6,0.2c2.1,0.6,4.4-0.3,5.4-2.1c-1,1.9-0.3,4.1,1.5,5.2c0.2,0.1,0.4,0.2,0.6,0.3s0.4,0.2,0.6,0.2
	c-0.2-0.1-0.4-0.2-0.6-0.3s-0.4-0.2-0.6-0.2C237.1,249.2,234.8,250.1,233.8,252z"/>
<path class="st7" d="M582,874.7v235.9c-16.8,32.9-32.6,54.6-40.5,64.6c-3.3,4.2-5.2,6.3-5.2,6.3c-19,19.4-63.5,27-88.4,28.6
	l-337.2,20.7c-14.8,0.9-27-10.3-25.7-23.7l21.9-230.5c2.3-24.4,23.4-44,50.3-46.7C157.1,929.7,445.2,925.5,582,874.7z"/>
<path class="st8" d="M55.8,1501.9c0.5,1.1,2,1.7,3.3,1.4c0.1,0,0.3-0.1,0.4-0.1c0.1-0.1,0.2-0.1,0.3-0.2c-0.1,0-0.3,0.1-0.4,0.1
	c-0.1,0.1-0.2,0.1-0.3,0.2c-1.2,0.6-1.7,1.9-1.1,3c-0.5-1.1-2-1.7-3.3-1.4c-0.1,0-0.3,0.1-0.4,0.1s-0.2,0.1-0.3,0.2
	c0.1,0,0.3-0.1,0.4-0.1s0.2-0.1,0.3-0.2C55.9,1504.3,56.4,1503,55.8,1501.9z"/>
<path class="st8" d="M31.1,1190c0.1-0.1,0.2-0.3,0.3-0.4C31.3,1189.8,31.3,1189.9,31.1,1190c0,0.2-0.1,0.3-0.2,0.4
	C30.9,1190.3,31,1190.1,31.1,1190z"/>
<path class="st8" d="M34.9,1619.2c0,0.1-0.1,0.1-0.1,0.2C34.8,1619.3,34.8,1619.2,34.9,1619.2c0-0.1,0-0.1,0.1-0.2
	C35,1619,34.9,1619.1,34.9,1619.2z"/>
<path class="st8" d="M27.8,1184.4c0.1-0.1,0.1-0.2,0.2-0.3C27.9,1184.2,27.9,1184.3,27.8,1184.4c0,0.1-0.1,0.2-0.2,0.3
	C27.6,1184.6,27.7,1184.5,27.8,1184.4z"/>
<path class="st8" d="M31.6,1183.3c-1.3-0.6-2.8-0.3-3.7,0.7c0.5-1.1-0.1-2.4-1.4-3c1.3,0.6,2.8,0.3,3.7-0.7
	C29.8,1181.5,30.4,1182.8,31.6,1183.3z"/>
<path class="st8" d="M30.5,1180.1c-0.1,0.1-0.1,0.2-0.2,0.3C30.3,1180.2,30.4,1180.1,30.5,1180.1c0-0.1,0.1-0.2,0.2-0.3
	C30.6,1179.8,30.6,1179.9,30.5,1180.1z"/>
<path class="st14" d="M27.8,1184.4c0.1-0.1,0.1-0.2,0.2-0.3C27.9,1184.2,27.9,1184.3,27.8,1184.4c0,0.1-0.1,0.2-0.2,0.3
	C27.6,1184.6,27.7,1184.5,27.8,1184.4z"/>
<path class="st14" d="M31.6,1183.3c-1.3-0.6-2.8-0.3-3.7,0.7c0.5-1.1-0.1-2.4-1.4-3c1.3,0.6,2.8,0.3,3.7-0.7
	C29.8,1181.5,30.4,1182.8,31.6,1183.3z"/>
<path class="st14" d="M30.5,1180.1c-0.1,0.1-0.1,0.2-0.2,0.3C30.3,1180.2,30.4,1180.1,30.5,1180.1c0-0.1,0.1-0.2,0.2-0.3
	C30.6,1179.8,30.6,1179.9,30.5,1180.1z"/>
<path class="st14" d="M31.1,1190c0.1-0.1,0.2-0.3,0.3-0.4C31.3,1189.8,31.3,1189.9,31.1,1190c0,0.2-0.1,0.3-0.2,0.4
	C30.9,1190.3,31,1190.1,31.1,1190z"/>
<path class="st14" d="M34.9,1619.2c0,0.1-0.1,0.1-0.1,0.2C34.8,1619.3,34.8,1619.2,34.9,1619.2c0-0.1,0-0.1,0.1-0.2
	C35,1619,34.9,1619.1,34.9,1619.2z"/>
<path class="st15" d="M27.8,1184.4c0.1-0.1,0.1-0.2,0.2-0.3C27.9,1184.2,27.9,1184.3,27.8,1184.4c0,0.1-0.1,0.2-0.2,0.3
	C27.6,1184.6,27.7,1184.5,27.8,1184.4z"/>
<path class="st15" d="M30.3,1180.3c-0.5,1.1,0.1,2.4,1.4,3c-1.3-0.6-2.8-0.3-3.7,0.7c0.5-1.1-0.1-2.4-1.4-3
	C27.9,1181.6,29.5,1181.3,30.3,1180.3z"/>
<path class="st15" d="M30.5,1180.1c-0.1,0.1-0.1,0.2-0.2,0.3C30.3,1180.2,30.4,1180.1,30.5,1180.1c0-0.1,0.1-0.2,0.2-0.3
	C30.6,1179.8,30.6,1179.9,30.5,1180.1z"/>
<path class="st15" d="M31.1,1190c0.1-0.1,0.2-0.3,0.3-0.4C31.3,1189.8,31.3,1189.9,31.1,1190c0,0.2-0.1,0.3-0.2,0.4
	C30.9,1190.3,31,1190.1,31.1,1190z"/>
<path class="st15" d="M34.9,1619.2c0,0.1-0.1,0.1-0.1,0.2C34.8,1619.3,34.8,1619.2,34.9,1619.2c0-0.1,0-0.1,0.1-0.2
	C35,1619,34.9,1619.1,34.9,1619.2z"/>
<g>
	<path class="st16" d="M-28.2,1194.1c0,0-0.1,0.1-0.1,0.1C-28.2,1194.2-28.2,1194.2-28.2,1194.1c0.1,0,0.1-0.1,0.1-0.1
		C-28.1,1194-28.1,1194.1-28.2,1194.1z M-26.8,1192.3c0,0-0.1,0.1-0.1,0.1C-26.8,1192.4-26.8,1192.3-26.8,1192.3
		c0.1,0,0.1-0.1,0.1-0.1C-26.7,1192.2-26.8,1192.2-26.8,1192.3z M157,1165.7L157,1165.7c0-0.9,0-1.7-0.1-2.6c0-0.3,0-0.5,0-0.7
		c0-0.6-0.1-1.2-0.1-1.8c0-0.3-0.1-0.6-0.1-0.9c-0.1-0.6-0.1-1.2-0.2-1.8c0-0.3-0.1-0.6-0.1-0.9c-0.1-0.6-0.2-1.3-0.3-1.9
		c0-0.2-0.1-0.5-0.1-0.7c-0.1-0.9-0.3-1.7-0.4-2.6c0-0.1,0-0.1,0-0.1c-0.1-0.8-0.3-1.6-0.5-2.4c-0.1-0.3-0.1-0.6-0.2-0.8
		c-0.1-0.6-0.3-1.2-0.4-1.8c-0.1-0.3-0.2-0.6-0.3-0.9c-0.1-0.6-0.3-1.1-0.5-1.7c-0.1-0.3-0.2-0.6-0.3-0.9c-0.2-0.6-0.4-1.2-0.6-1.8
		c-0.1-0.3-0.2-0.6-0.3-0.8c-0.3-0.9-0.6-1.7-0.9-2.6c-18.6-49.5-80.6-76.7-138.4-60.8c-4.7,1.3-9.2,2.8-13.5,4.6v170.1
		c24.5,10,53.2,12.3,81,4.6c23.3-6.4,42.3-18.8,55.5-34.6l0,0c1.8-2.2,3.6-4.4,5.2-6.7c0,0,0.1-0.1,0.1-0.1c0.5-0.7,1-1.4,1.4-2.2
		c0.1-0.1,0.1-0.2,0.1-0.2c0.5-0.7,0.9-1.5,1.4-2.2c0,0,0-0.1,0.1-0.1c1.4-2.4,2.8-4.8,4-7.3c0-0.1,0.1-0.1,0.1-0.2
		c0.4-0.7,0.7-1.5,1-2.2c0.1-0.1,0.1-0.2,0.2-0.3c0.3-0.7,0.6-1.4,0.9-2.2c0-0.1,0.1-0.2,0.1-0.3c1-2.5,1.9-5,2.7-7.6
		c0-0.1,0.1-0.3,0.1-0.4c0.2-0.7,0.4-1.4,0.6-2.1c0.1-0.2,0.1-0.4,0.1-0.5c0.2-0.7,0.4-1.4,0.5-2.1c0-0.2,0.1-0.3,0.1-0.5
		c0.2-0.8,0.3-1.6,0.5-2.4c0-0.1,0-0.1,0-0.2c0.3-1.7,0.6-3.5,0.8-5.2c0-0.2,0-0.4,0.1-0.6c0.1-0.7,0.1-1.3,0.2-2
		c0-0.2,0-0.5,0.1-0.7c0.1-0.6,0.1-1.3,0.1-1.9c0-0.2,0-0.5,0-0.7c0-0.7,0.1-1.4,0.1-2.1c0-0.2,0-0.3,0-0.5
		C157,1167.4,157,1166.6,157,1165.7z"/>
	<path class="st16" d="M-28.2,1194.1c0,0-0.1,0.1-0.1,0.1C-28.2,1194.2-28.2,1194.2-28.2,1194.1c0.1,0,0.1-0.1,0.1-0.1
		C-28.1,1194-28.1,1194.1-28.2,1194.1z M-26.8,1192.3c0,0-0.1,0.1-0.1,0.1C-26.8,1192.4-26.8,1192.3-26.8,1192.3
		c0.1,0,0.1-0.1,0.1-0.1C-26.7,1192.2-26.8,1192.2-26.8,1192.3z M145,1165.8L145,1165.8c0-0.8,0-1.5-0.1-2.3c0-0.2,0-0.4,0-0.7
		c0-0.6-0.1-1.1-0.1-1.7c0-0.3,0-0.5-0.1-0.8c-0.1-0.5-0.1-1-0.2-1.6c0-0.3-0.1-0.5-0.1-0.8c-0.1-0.6-0.1-1.1-0.2-1.7
		c0-0.2-0.1-0.4-0.1-0.7c-0.1-0.8-0.3-1.6-0.4-2.3c0,0,0-0.1,0-0.1c-0.1-0.7-0.3-1.5-0.4-2.2c-0.1-0.3-0.1-0.5-0.2-0.7
		c-0.1-0.5-0.3-1.1-0.4-1.6c-0.1-0.3-0.1-0.6-0.2-0.8c-0.1-0.5-0.3-1-0.4-1.5c-0.1-0.3-0.2-0.6-0.3-0.8c-0.2-0.5-0.3-1.1-0.5-1.6
		c-0.1-0.2-0.1-0.5-0.2-0.7c-0.3-0.8-0.5-1.5-0.8-2.3c-16.6-44.1-71.8-68.3-123.3-54.1c-6.1,1.7-11.8,3.8-17.2,6.3v147
		c22.8,10.8,50.6,13.8,77.3,6.4c20.7-5.7,37.7-16.8,49.5-30.8c1.6-1.9,3.2-3.9,4.6-6c0,0,0-0.1,0.1-0.1c0.4-0.6,0.9-1.3,1.3-1.9
		c0-0.1,0.1-0.1,0.1-0.2c0.4-0.7,0.8-1.3,1.2-2c0,0,0-0.1,0.1-0.1c1.3-2.1,2.5-4.3,3.5-6.4c0-0.1,0.1-0.1,0.1-0.2
		c0.3-0.7,0.6-1.3,0.9-2c0.1-0.1,0.1-0.2,0.1-0.3c0.3-0.7,0.6-1.3,0.8-1.9c0-0.1,0.1-0.2,0.1-0.3c0.9-2.2,1.7-4.5,2.4-6.7
		c0-0.1,0.1-0.2,0.1-0.3c0.2-0.6,0.4-1.3,0.5-1.9c0-0.2,0.1-0.3,0.1-0.5c0.2-0.6,0.3-1.2,0.4-1.8c0-0.2,0.1-0.3,0.1-0.4
		c0.2-0.7,0.3-1.4,0.4-2.1c0-0.1,0-0.1,0-0.2c0.3-1.5,0.6-3.1,0.7-4.6c0-0.2,0-0.3,0.1-0.5c0.1-0.6,0.1-1.2,0.2-1.8
		c0-0.2,0-0.4,0.1-0.7c0.1-0.6,0.1-1.1,0.1-1.7c0-0.2,0-0.4,0-0.7c0-0.6,0.1-1.2,0.1-1.9c0-0.2,0-0.3,0-0.4
		C145,1167.4,145,1166.6,145,1165.8z"/>
	<path class="st16" d="M-28.2,1194.1c0,0-0.1,0.1-0.1,0.1C-28.2,1194.2-28.2,1194.2-28.2,1194.1c0.1,0,0.1-0.1,0.1-0.1
		C-28.1,1194-28.1,1194.1-28.2,1194.1z M-26.8,1192.3c0,0-0.1,0.1-0.1,0.1C-26.8,1192.4-26.8,1192.3-26.8,1192.3
		c0.1,0,0.1-0.1,0.1-0.1C-26.7,1192.2-26.8,1192.2-26.8,1192.3z M133.3,1163.9c0-0.2,0-0.4,0-0.6c0-0.5-0.1-1-0.1-1.5
		c0-0.2,0-0.5-0.1-0.7c0-0.5-0.1-0.9-0.1-1.4c0-0.2-0.1-0.5-0.1-0.7c-0.1-0.5-0.1-1-0.2-1.5c0-0.2-0.1-0.4-0.1-0.6
		c-0.1-0.7-0.2-1.4-0.4-2.1c0,0,0-0.1,0-0.1c-0.1-0.6-0.3-1.3-0.4-1.9c-0.1-0.2-0.1-0.4-0.1-0.7c-0.1-0.5-0.2-0.9-0.3-1.4
		c-0.1-0.3-0.1-0.5-0.2-0.8c-0.1-0.4-0.2-0.9-0.4-1.3c-0.1-0.3-0.1-0.5-0.2-0.8c-0.1-0.5-0.3-0.9-0.4-1.4c-0.1-0.2-0.1-0.4-0.2-0.6
		c-0.2-0.7-0.5-1.3-0.7-2c-14.6-38.9-63.3-60.3-108.8-47.7c-7.5,2.1-14.5,4.9-20.8,8.5v123.9c21.1,11.8,48,15.6,73.8,8.5
		c18.3-5,33.2-14.8,43.6-27.2c1.4-1.7,2.8-3.5,4.1-5.3c0,0,0-0.1,0.1-0.1c0.4-0.6,0.8-1.1,1.1-1.7c0-0.1,0.1-0.1,0.1-0.2
		c0.4-0.6,0.7-1.2,1.1-1.7c0,0,0-0.1,0-0.1c1.1-1.9,2.2-3.8,3.1-5.7c0-0.1,0.1-0.1,0.1-0.2c0.3-0.6,0.6-1.2,0.8-1.7
		c0-0.1,0.1-0.2,0.1-0.3c0.3-0.6,0.5-1.1,0.7-1.7c0-0.1,0.1-0.1,0.1-0.2c0.8-1.9,1.5-3.9,2.1-5.9c0-0.1,0.1-0.2,0.1-0.3
		c0.2-0.6,0.3-1.1,0.5-1.7c0-0.1,0.1-0.3,0.1-0.4c0.1-0.5,0.3-1.1,0.4-1.6c0-0.1,0.1-0.3,0.1-0.4c0.1-0.6,0.3-1.2,0.4-1.9
		c0,0,0-0.1,0-0.1c0.3-1.4,0.5-2.7,0.6-4.1c0-0.2,0-0.3,0.1-0.4c0.1-0.5,0.1-1,0.2-1.6c0-0.2,0-0.4,0.1-0.6c0-0.5,0.1-1,0.1-1.5
		c0-0.2,0-0.4,0-0.6c0-0.6,0.1-1.1,0.1-1.6c0-0.1,0-0.3,0-0.4c0-0.7,0-1.4,0-2.1v-0.1C133.4,1165.2,133.4,1164.5,133.3,1163.9z"/>
	<g>
		<path class="st4" d="M121,1166.7l-0.1,3.9c-0.1,1.6-0.3,3.2-0.6,4.8l-1.4,6.2c-0.2,0.7-0.4,1.5-0.7,2.2c0,0,0,0,0,0
			c-0.1,0.4-0.3,0.8-0.4,1.2l-0.4,1.2c-0.3,0.8-0.6,1.6-0.9,2.3c-0.3,0.8-0.7,1.5-1,2.2l-0.6,1.2c-0.2,0.4-0.4,0.8-0.6,1.1l-0.6,1.1
			c-0.2,0.4-0.4,0.7-0.6,1.1l-1.3,2.2c-0.4,0.7-0.9,1.4-1.4,2.1l-0.1,0.2c-0.2,0.3-0.4,0.6-0.7,0.9c-0.5,0.7-1,1.3-1.5,2l-0.9,1.1
			c-8.9,10.6-21.7,19-37.4,23.3c-25,6.9-51.2,1.8-70-11.6v-97.5c7.1-5,15.3-9,24.6-11.5c38.9-10.7,80.6,7.6,93.1,40.9
			C119.8,1153.7,121,1160.3,121,1166.7z"/>
		<g>
			<path class="st3" d="M56.8,1114.7L56.8,1114.7c1.1,2.9-0.8,6-4.2,7l-25.5,7c-3.9,1.1-6.1,4.7-4.8,8.1l0,0
				c1.3,3.4,5.5,5.2,9.4,4.1l38.6-10.6c3.9-1.1,8.2,0.8,9.4,4.2l0,0c1.3,3.4-0.9,7-4.8,8.1l-27.1,7.5c-3.6,1-5.5,4.2-4.4,7.3l0,0
				c1.2,3,5,4.7,8.5,3.7l18.6-5.1c3.3-0.9,6.7,0.6,7.8,3.4l0,0c1.1,2.8-0.7,5.8-4,6.7l-26.4,7.3c-3.8,1.1-5.9,4.6-4.7,7.8l0,0
				c1.2,3.3,5.3,5.1,9.1,4l35-9.7c3.7-1,7.6,0.7,8.7,3.8l0,0c1.2,3.1-0.8,6.5-4.5,7.5l-10.7,3c-3.2,0.9-5,3.8-3.9,6.6l0,0
				c1,2.8,4.5,4.3,7.7,3.4l8.1-2.2c6-1.7,12.4,1.2,14.3,6.3l0,0c13.2-15.8,17.9-36.5,10.4-56.5c-12.5-33.3-54.2-51.6-93.1-40.9l0,0
				c2.2,5.7,9.3,8.9,16,7l8.4-2.3C52.1,1110.2,55.7,1111.8,56.8,1114.7z"/>
		</g>
	</g>
</g>
<g>
	<g>
		
			<image style="overflow:visible;opacity:0.5;enable-background:new    ;" width="108" height="95" xlink:href="7055F79C.png"  transform="matrix(1 0 0 1 -5 1117)">
		</image>
		<g>
			<ellipse class="st17" cx="48" cy="1163.1" rx="44.3" ry="37.9"/>
		</g>
	</g>
	<g>
		<path class="st9" d="M68,1168c-0.1,0.5,0.3,1,0.9,1.1c0.1,0,0.1,0,0.2,0s0.1,0,0.2,0c-0.1,0-0.1,0-0.2,0s-0.1,0-0.2,0
			c-0.6,0-1.2,0.4-1.3,0.9c0.1-0.5-0.3-1-0.9-1.1c-0.1,0-0.1,0-0.2,0s-0.1,0-0.2,0c0.1,0,0.1,0,0.2,0s0.1,0,0.2,0
			C67.3,1168.9,67.9,1168.5,68,1168z"/>
		<path class="st9" d="M74,1127.9c-0.3,1.5,0.9,3,2.7,3.4c0.2,0,0.3,0.1,0.5,0.1s0.4,0,0.5,0c-0.2,0-0.3-0.1-0.5-0.1s-0.4,0-0.5,0
			c-1.9,0-3.5,1.1-3.8,2.6c0.3-1.5-0.9-3-2.7-3.4c-0.2,0-0.3-0.1-0.5-0.1s-0.4,0-0.5,0c0.2,0,0.3,0.1,0.5,0.1s0.4,0,0.5,0
			C72.1,1130.5,73.7,1129.4,74,1127.9z"/>
		<path class="st7" d="M29.9,1189.8h-1.6c-0.1,0-0.1-0.1-0.1-0.1v-53c0-0.1,0.1-0.1,0.1-0.1h1.5c0,2,1.6,3.6,3.6,3.6v46.1
			C31.5,1186.2,29.9,1187.8,29.9,1189.8z"/>
		<g>
			<path class="st7" d="M74.6,1148.4v28.2c0,7.2-7.3,12.9-16.3,12.9H36.8c0-1,0.5-1.9,1.4-2.6c0.8-0.7,2-1.1,3.3-1.1h16.9
				c6.4,0,11.7-4.2,11.7-9.3v-28.2c0-5.1-5.2-9.2-11.6-9.2h-17c-2.6,0-4.6-1.7-4.6-3.7h21.6c8.5,0,15.5,5.2,16.2,11.9
				C74.6,1147.7,74.6,1148.1,74.6,1148.4z"/>
		</g>
	</g>
	<ellipse class="st7" cx="17.1" cy="1144.1" rx="6.4" ry="5.5"/>
</g>
<path class="st13" d="M36.3,1605.2c0.1,0.1,0.2,0.1,0.3,0c0,0,0,0,0,0s0,0,0,0c0,0,0,0,0,0s0,0,0,0c-0.1,0.1-0.1,0.2,0,0.3
	c-0.1-0.1-0.2-0.1-0.3,0c0,0,0,0,0,0s0,0,0,0c0,0,0,0,0,0s0,0,0,0C36.4,1605.4,36.4,1605.2,36.3,1605.2z"/>
<path class="st13" d="M31.7,1163.2c0.4,0.4,1,0.4,1.5,0.1c0,0,0.1-0.1,0.1-0.1c0,0,0.1-0.1,0.1-0.1c0,0-0.1,0.1-0.1,0.1
	s-0.1,0.1-0.1,0.1c-0.3,0.4-0.3,0.9,0.1,1.3c-0.4-0.4-1-0.4-1.5-0.1c0,0-0.1,0.1-0.1,0.1s-0.1,0.1-0.1,0.1c0,0,0.1-0.1,0.1-0.1
	s0.1-0.1,0.1-0.1C32.1,1164.1,32,1163.6,31.7,1163.2z"/>
<path class="st13" d="M33.1,1140.8c0.6,0.5,1.6,0.6,2.2,0.2c0.1,0,0.1-0.1,0.2-0.1c0.1-0.1,0.1-0.1,0.2-0.2c-0.1,0-0.1,0.1-0.2,0.1
	c-0.1,0.1-0.1,0.1-0.2,0.2c-0.5,0.6-0.5,1.4,0.1,1.9c-0.6-0.5-1.6-0.6-2.2-0.2c-0.1,0-0.1,0.1-0.2,0.1c-0.1,0.1-0.1,0.1-0.2,0.2
	c0.1,0,0.1-0.1,0.2-0.1c0.1-0.1,0.1-0.1,0.2-0.2C33.7,1142.1,33.7,1141.3,33.1,1140.8z"/>
<path class="st18" d="M582,1595.2v36.7H-0.3v-31.3c78.8-36.3,183-58.4,297.2-58.4C405.4,1542.2,504.8,1562.1,582,1595.2z"/>
<path class="st4" d="M580.9,1631.9h-568c65.2-43.9,168.2-72.2,284-72.2S515.7,1588,580.9,1631.9z"/>
<path class="st18" d="M582,1619.7v12.2H-0.3v-4.7c71.7-46.9,178.2-76.6,297.2-76.6C409.4,1550.6,510.7,1577.2,582,1619.7z"/>
<polygon id="Shadow_17_" class="st19" points="571.9,940.9 525.5,898.6 507.1,930.3 525.1,946.6 517.5,961.5 531.1,973.9 
	571.9,973.9 "/>
<g id="Spacecraft_2_">
	<g id="Star_19_">
		<g>
			<ellipse class="st7" cx="493.8" cy="915.7" rx="4.6" ry="4.2"/>
		</g>
		<g>
			<path class="st7" d="M542,948.1c-1.5,0-2.7-1.1-2.7-2.5c0,1.4-1.2,2.5-2.7,2.5c1.5,0,2.7,1.1,2.7,2.5
				C539.3,949.2,540.5,948.1,542,948.1z"/>
		</g>
		<g>
			<path class="st7" d="M550.3,921.5c-1.5,0-2.7-1.1-2.7-2.5c0,1.4-1.2,2.5-2.7,2.5c1.5,0,2.7,1.1,2.7,2.5
				C547.6,922.6,548.8,921.5,550.3,921.5z"/>
		</g>
		<g>
			<path class="st7" d="M501.1,941.5c-1.5,0-2.7-1.1-2.7-2.5c0,1.4-1.2,2.5-2.7,2.5c1.5,0,2.7,1.1,2.7,2.5
				C498.4,942.7,499.6,941.5,501.1,941.5z"/>
		</g>
	</g>
	<g id="Smoke">
		<polygon class="st7" points="523.2,936.3 518.5,936.3 517.5,948.7 523.2,948.7 		"/>
		<polygon class="st7" points="523.2,936.3 527.9,936.3 528.8,948.7 523.2,948.7 		"/>
		<path class="st7" d="M524.1,942.7c0,1.3-1.2,2.4-2.6,2.4s-2.6-1.1-2.6-2.4s1.2-2.4,2.6-2.4S524.1,941.3,524.1,942.7z"/>
		<path class="st7" d="M527.1,943.9c0,1.3-1.2,2.4-2.6,2.4s-2.6-1.1-2.6-2.4s1.2-2.4,2.6-2.4S527.1,942.6,527.1,943.9z"/>
		<path class="st7" d="M524.1,946.3c0,1.3-1.2,2.4-2.6,2.4s-2.6-1.1-2.6-2.4s1.2-2.4,2.6-2.4S524.1,945,524.1,946.3z"/>
		<path class="st7" d="M523.5,949.4c0,1.3-1.2,2.4-2.6,2.4s-2.6-1.1-2.6-2.4s1.2-2.4,2.6-2.4S523.5,948.1,523.5,949.4z"/>
		<path class="st7" d="M528.2,949.4c0,1.3-1.2,2.4-2.6,2.4s-2.6-1.1-2.6-2.4s1.2-2.4,2.6-2.4S528.2,948.1,528.2,949.4z"/>
		<path class="st7" d="M527.4,947c0,1.3-1.2,2.4-2.6,2.4s-2.6-1.1-2.6-2.4s1.2-2.4,2.6-2.4C526.2,944.6,527.4,945.7,527.4,947z"/>
		<path class="st7" d="M527.4,951.4c0,1.3-1.2,2.4-2.6,2.4s-2.6-1.1-2.6-2.4s1.2-2.4,2.6-2.4S527.4,950.1,527.4,951.4z"/>
		<path class="st7" d="M530.1,949.4c0,1.3-1.2,2.4-2.6,2.4s-2.6-1.1-2.6-2.4s1.2-2.4,2.6-2.4S530.1,948.1,530.1,949.4z"/>
		<path class="st7" d="M520.5,948.7c0,1.3-1.2,2.4-2.6,2.4s-2.6-1.1-2.6-2.4s1.2-2.4,2.6-2.4C519.3,946.3,520.5,947.4,520.5,948.7z"
			/>
		<path class="st7" d="M520.2,952.6c0,1.3-1.2,2.4-2.6,2.4s-2.6-1.1-2.6-2.4s1.2-2.4,2.6-2.4S520.2,951.3,520.2,952.6z"/>
		<path class="st7" d="M518.4,955.8c0,1.1-1,1.9-2.1,1.9s-2.1-0.9-2.1-1.9s1-1.9,2.1-1.9S518.4,954.8,518.4,955.8z"/>
		<path class="st7" d="M524.1,952.9c0,1.3-1.2,2.4-2.6,2.4s-2.6-1.1-2.6-2.4s1.2-2.4,2.6-2.4C523,950.5,524.1,951.6,524.1,952.9z"/>
		<path class="st7" d="M524.8,958c0,2.3-2.1,4.2-4.6,4.2s-4.6-1.9-4.6-4.2c0-2.3,2.1-4.2,4.6-4.2S524.8,955.7,524.8,958z"/>
		<path class="st7" d="M533,955.3c0,2.6-2.3,4.7-5.2,4.7s-5.2-2.1-5.2-4.7c0-2.6,2.3-4.7,5.2-4.7C530.7,950.6,533,952.7,533,955.3z"
			/>
	</g>
	<g id="Fire">
		<path class="st20" d="M525.5,938.4c0,1.2-1,4.9-2.3,4.9c-1.3,0-2.3-3.7-2.3-4.9s1-2.1,2.3-2.1S525.5,937.3,525.5,938.4z"/>
		<path class="st21" d="M524.8,938.1c0,0.8-0.7,3.5-1.7,3.5c-0.9,0-1.7-2.6-1.7-3.5c0-0.8,0.7-1.5,1.7-1.5
			C524,936.6,524.8,937.3,524.8,938.1z"/>
	</g>
	<g id="Spacecraft_1_">
		<g>
			<path class="st22" d="M538.9,921.5l-5.6-4.3c-0.5-0.4-1-1.1-1.2-1.7l-2.1-6.2c-0.2-0.5-0.6-1-1-1.1c0,0,0,0-0.1,0l0,0h-0.6v0.9
				v1.9v18.4v3.2c0,0.6,0.5,0.9,1.1,0.7l9.3-2.6c0.6-0.2,1.1-0.8,1.1-1.3v-6.3C539.8,922.6,539.4,921.8,538.9,921.5z"/>
			<path class="st22" d="M517.6,908.2C517.6,908.2,517.6,908.2,517.6,908.2c-0.4,0.1-0.9,0.6-1.1,1.1l-2.1,6.2
				c-0.2,0.5-0.7,1.3-1.2,1.7l-5.6,4.3c-0.5,0.4-0.9,1.1-0.9,1.7v6.3c0,0.6,0.5,1.2,1.1,1.3l9.3,2.6c0.6,0.2,1.1-0.2,1.1-0.7v-3.2
				v-18.4v-1.9v-0.9L517.6,908.2L517.6,908.2z"/>
		</g>
		<path class="st23" d="M528.3,932.6c0,0.6,0.5,0.9,1.1,0.7l9.3-2.6c0.6-0.2,1.1-0.8,1.1-1.3h-11.5L528.3,932.6L528.3,932.6z"/>
		<path class="st23" d="M507.9,930.8l9.3,2.6c0.6,0.2,1.1-0.2,1.1-0.7v-3.2h-11.5C506.8,930,507.3,930.6,507.9,930.8z"/>
		<path class="st24" d="M523.3,935.8c0,0.3-0.3,0.5-0.6,0.5h-3.9c-0.3,0-0.6-0.2-0.6-0.5v-2.2c0-0.3,0.3-0.5,0.6-0.5h3.9
			c0.3,0,0.6,0.2,0.6,0.5V935.8z"/>
		<path class="st24" d="M528.3,935.8c0,0.3-0.3,0.5-0.6,0.5h-3.9c-0.3,0-0.6-0.2-0.6-0.5v-2.2c0-0.3,0.3-0.5,0.6-0.5h3.9
			c0.3,0,0.6,0.2,0.6,0.5V935.8z"/>
		<path class="st25" d="M525.8,935.8c0,0.3-0.3,0.5-0.6,0.5h-3.9c-0.3,0-0.6-0.2-0.6-0.5v-2.2c0-0.3,0.3-0.5,0.6-0.5h3.9
			c0.3,0,0.6,0.2,0.6,0.5V935.8z"/>
		<rect x="518.2" y="904.2" class="st7" width="10.2" height="29.5"/>
		<polygon class="st26" points="538.1,926.1 537,926 536.6,925.1 536.1,926 535,926.1 535.8,926.8 535.6,927.8 536.6,927.3 
			537.5,927.8 537.3,926.8 		"/>
		<path class="st23" d="M523.3,897.5c-3.5,0-5.1,6.6-5.1,6.6h5.1h5.1C528.3,904.2,526.8,897.5,523.3,897.5z"/>
		<g>
			<path class="st27" d="M523.3,905.7c-1.9,0-3.4,1.4-3.4,3.1h6.8C526.7,907.1,525.2,905.7,523.3,905.7z"/>
		</g>
		<path class="st28" d="M511.3,926.4c0,0.7-0.6,1.2-1.4,1.2s-1.4-0.5-1.4-1.2s0.6-1.2,1.4-1.2S511.3,925.8,511.3,926.4z"/>
		<rect x="519.9" y="908.8" class="st29" width="6.8" height="20.7"/>
		<path class="st30" d="M524.2,934c0,0.3,0.3,0.5,0.6,0.5h3.9c0.3,0,0.6-0.2,0.6-0.5v-3.5c0-0.3-0.2-0.6-0.5-0.8l-2.5-1.2
			c-0.3-0.1-0.8-0.2-1.1-0.2h-0.5c-0.3,0-0.6,0.2-0.6,0.5V934z"/>
		<path class="st30" d="M522.4,934c0,0.3-0.3,0.5-0.6,0.5h-3.9c-0.3,0-0.6-0.2-0.6-0.5v-3.5c0-0.3,0.2-0.6,0.5-0.8l2.5-1.2
			c0.3-0.1,0.8-0.2,1.1-0.2h0.5c0.3,0,0.6,0.2,0.6,0.5L522.4,934L522.4,934z"/>
		<path class="st31" d="M524.2,928c0-0.3-0.3-0.5-0.6-0.5H523c-0.3,0-0.6,0.2-0.6,0.5v6c0,0.3,0.3,0.5,0.6,0.5h0.6
			c0.3,0,0.6-0.2,0.6-0.5V928z"/>
	</g>
</g>
<g id="Space_Robot_1_">
	<rect x="215.5" y="1555" class="st32" width="2.1" height="7.3"/>
	<rect x="255.7" y="1537.5" class="st7" width="1.1" height="17.7"/>
	<polygon class="st22" points="248.9,1548.1 246.2,1546.1 237.5,1556.3 240.2,1558.3 	"/>
	<polygon class="st7" points="257.2,1537.5 255.5,1536.3 246.7,1546.5 248.4,1547.7 	"/>
	<path class="st33" d="M218.4,1554.4c0,0.9-0.8,1.7-1.9,1.7s-1.9-0.8-1.9-1.7c0-0.9,0.8-1.7,1.9-1.7
		C217.6,1552.7,218.4,1553.5,218.4,1554.4z"/>
	<path class="st33" d="M219.4,1560.2c0,1.4-1.3,2.6-2.9,2.6s-2.9-1.2-2.9-2.6c0-1.4,1.3-2.6,2.9-2.6
		C218.1,1557.6,219.4,1558.8,219.4,1560.2z"/>
	<path class="st33" d="M241.8,1557c0,1.4-1.3,2.6-2.9,2.6s-2.9-1.2-2.9-2.6c0-1.4,1.3-2.6,2.9-2.6
		C240.6,1554.4,241.8,1555.6,241.8,1557z"/>
	<path class="st33" d="M258.3,1537.3c0,1.1-1,2-2.2,2c-1.2,0-2.2-0.9-2.2-2c0-1.1,1-2,2.2-2C257.3,1535.3,258.3,1536.2,258.3,1537.3
		z"/>
	<g>
		<rect x="214.9" y="1541.2" class="st33" width="12.6" height="0.4"/>
	</g>
	<g>
		<rect x="227.1" y="1541.2" class="st33" width="0.5" height="11.4"/>
	</g>
	<g>
		<polygon class="st33" points="227.4,1541.3 227.7,1541.6 218.8,1549.7 218.5,1549.4 		"/>
	</g>
	<g>
		<path class="st7" d="M214.7,1553.1c4,3.6,10.5,3.6,14.4,0l-14.4-13.1C210.7,1543.7,210.7,1549.5,214.7,1553.1z"/>
	</g>
	<path class="st7" d="M228.5,1542.3c-0.5,0.5-1.4,0.5-1.9,0c-0.5-0.5-0.5-1.3,0-1.8c0.5-0.5,1.4-0.5,1.9,0
		C229.1,1541.1,229.1,1541.8,228.5,1542.3z"/>
	<rect x="253" y="1565" transform="matrix(1 -1.248483e-03 1.248483e-03 1 -1.956 0.3208)" class="st22" width="6.1" height="3.8"/>
	
		<rect x="248.8" y="1565.2" transform="matrix(1 -1.265333e-03 1.265333e-03 1 -1.9824 0.3187)" class="st33" width="4.2" height="3.4"/>
	<g>
		<path class="st34" d="M259.7,1564.6h-0.3c-0.2,0-0.4,0.2-0.4,0.4v3.7c0,0.2,0.2,0.4,0.4,0.4h0.3V1564.6z"/>
	</g>
	<rect x="253.2" y="1565.2" class="st35" width="5.7" height="0.4"/>
	<rect x="249" y="1565.4" class="st35" width="3.8" height="0.4"/>
	<path class="st7" d="M259.7,1566.9L259.7,1566.9L259.7,1566.9v-2.2c0,0,0.3,0.2,0.3,2.2l0,0l0,0l0,0l0,0c0,2-0.3,2.2-0.3,2.2
		V1566.9L259.7,1566.9L259.7,1566.9z"/>
	<polygon class="st33" points="244,1572.9 211.5,1572.9 206.8,1572.9 211.5,1580.4 244,1580.4 248.8,1572.9 	"/>
	<ellipse class="st36" cx="211.5" cy="1580.4" rx="4.1" ry="3.7"/>
	<path class="st37" d="M214,1580.4c0,1.3-1.1,2.3-2.5,2.3c-1.4,0-2.5-1-2.5-2.3s1.1-2.3,2.5-2.3C212.9,1578.1,214,1579.1,214,1580.4
		z"/>
	<ellipse class="st36" cx="219.6" cy="1580.4" rx="4.1" ry="3.7"/>
	<path class="st37" d="M222.1,1580.4c0,1.3-1.1,2.3-2.5,2.3c-1.4,0-2.5-1-2.5-2.3s1.1-2.3,2.5-2.3
		C221,1578.1,222.1,1579.1,222.1,1580.4z"/>
	<ellipse class="st36" cx="227.8" cy="1580.4" rx="4.1" ry="3.7"/>
	<path class="st37" d="M230.3,1580.4c0,1.3-1.1,2.3-2.5,2.3c-1.4,0-2.5-1-2.5-2.3s1.1-2.3,2.5-2.3
		C229.2,1578.1,230.3,1579.1,230.3,1580.4z"/>
	<path class="st36" d="M240,1580.4c0,2-1.8,3.7-4.1,3.7s-4.1-1.7-4.1-3.7c0-2,1.8-3.7,4.1-3.7S240,1578.3,240,1580.4z"/>
	<path class="st37" d="M238.4,1580.4c0,1.3-1.1,2.3-2.5,2.3c-1.4,0-2.5-1-2.5-2.3s1.1-2.3,2.5-2.3
		C237.3,1578.1,238.4,1579.1,238.4,1580.4z"/>
	<path class="st36" d="M248.2,1580.4c0,2-1.8,3.7-4.1,3.7s-4.1-1.7-4.1-3.7c0-2,1.8-3.7,4.1-3.7S248.2,1578.3,248.2,1580.4z"/>
	<path class="st37" d="M246.6,1580.4c0,1.3-1.1,2.3-2.5,2.3c-1.4,0-2.5-1-2.5-2.3s1.1-2.3,2.5-2.3
		C245.5,1578.1,246.6,1579.1,246.6,1580.4z"/>
	<polygon class="st7" points="245.1,1560.2 228.5,1560.2 227.1,1560.2 206.8,1560.2 206.8,1565.5 206.8,1572.9 248.8,1572.9 
		248.8,1565.5 248.8,1565.2 	"/>
	<rect x="235" y="1558.7" class="st32" width="7.9" height="1.5"/>
	<path class="st33" d="M253.6,1556.8c0-0.8,0.7-1.4,1.5-1.4c0.8,0,1.5,0.6,1.5,1.4s-0.7,1.4-1.5,1.4l0,0v1.2l0,0
		c1.6,0,2.9-1.2,2.9-2.6s-1.3-2.6-2.9-2.6s-2.9,1.2-2.9,2.6L253.6,1556.8L253.6,1556.8z"/>
	<rect x="206.8" y="1565.5" class="st34" width="42" height="2.3"/>
</g>
<g id="Satellite_2_">
	<g id="Satellite_1_">
		<path class="st7" d="M588.3,1333.8c-1.2-1.6-3.6-2.1-5.5-1.1l-0.8,0.9v11.3l-24.1-14.1l3.8-4.4l7.6-8.8l1.2-1.4l2.5-2.9l9,5.2v2.4
			l5.6,3.3l-3.5,4c0.4,0.5,0.9,0.8,1.5,1.1c1.2,0.5,2.7,0.5,4-0.2C587.7,1330.1,587.1,1332.2,588.3,1333.8z"/>
		<polygon class="st28" points="587.6,1324.2 584.2,1328.3 584.1,1328.3 582,1330.7 575.3,1338.5 560.8,1330.1 573.2,1315.8 
			582,1320.9 		"/>
		<polygon class="st28" points="576.9,1339.5 582,1333.6 582,1342.5 		"/>
		<path class="st28" d="M588.3,1333.8c-1.2-1.6-3.6-2.1-5.5-1.1l0,0l1.7-2l1.2-1.3c1.2,0.5,2.7,0.5,4-0.2
			C587.7,1330.1,587.1,1332.2,588.3,1333.8z"/>
		<polygon class="st7" points="482.6,1286.9 497.8,1269.3 531.5,1289 516.3,1306.5 		"/>
		<polygon class="st28" points="500.1,1294.6 485.6,1286.2 498,1271.9 512.4,1280.3 		"/>
		<polygon class="st28" points="516.1,1304 501.7,1295.6 514,1281.3 528.5,1289.7 		"/>
		<polygon class="st7" points="466.7,1305.3 481.9,1287.8 515.5,1307.4 500.4,1325 		"/>
		<polygon class="st28" points="484.1,1313.1 469.7,1304.7 482.1,1290.3 496.5,1298.8 		"/>
		<polygon class="st28" points="500.2,1322.4 485.8,1314 498.1,1299.7 512.5,1308.1 		"/>
		<polygon class="st7" points="582,1346.2 582,1361.4 575.6,1368.9 542,1349.3 553.3,1336 557.1,1331.7 		"/>
		<polygon class="st28" points="559.4,1357 544.9,1348.6 557.3,1334.2 571.7,1342.7 		"/>
		<polygon class="st28" points="582,1348.7 582,1358.7 575.4,1366.3 561,1357.9 573.3,1343.6 		"/>
		<path class="st33" d="M510.8,1344.6c1-1.2,3.1-1.5,4.6-0.6c1.5,0.9,1.8,2.5,0.8,3.8s-3.1,1.5-4.6,0.6
			C510.1,1347.4,509.7,1345.8,510.8,1344.6z"/>
		<path class="st33" d="M515.8,1336.2c1.6-1.9,4.7-2.3,7-1c2.3,1.3,2.8,3.9,1.2,5.8s-4.7,2.3-7,1
			C514.8,1340.7,514.2,1338.1,515.8,1336.2z"/>
		<polygon class="st33" points="520.8,1335.1 523.7,1336.8 515.6,1346.3 512.6,1344.5 		"/>
		<polygon class="st33" points="561.9,1287.4 564.9,1289.1 556.7,1298.6 553.7,1296.8 		"/>
		<polygon class="st33" points="568.9,1289.7 566.8,1292.1 557.8,1286.9 559.9,1284.4 		"/>
		<polygon class="st7" points="533.1,1346.3 506.6,1330.9 536.2,1296.6 562.7,1312.1 		"/>
		<polygon class="st33" points="553.3,1336 545.8,1331.6 547,1330.1 554.5,1334.5 		"/>
		<polygon class="st33" points="544.5,1346.2 536.9,1341.8 538.2,1340.4 545.7,1344.8 		"/>
		<polygon class="st33" points="504.1,1320.6 511.7,1325 510.4,1326.3 502.9,1321.9 		"/>
		<polygon class="st33" points="513,1310.3 520.5,1314.7 519.3,1316.2 511.8,1311.8 		"/>
		<polygon class="st33" points="569.3,1317.6 561.7,1313.2 562.9,1311.8 570.5,1316.2 		"/>
		<polygon class="st33" points="560.4,1327.9 552.8,1323.5 554.1,1322 561.6,1326.4 		"/>
		<polygon class="st33" points="520.1,1302.2 527.6,1306.6 526.4,1307.9 518.8,1303.5 		"/>
		<polygon class="st33" points="528.9,1291.9 536.5,1296.3 535.2,1297.7 527.7,1293.2 		"/>
		<path class="st7" d="M562.7,1312.1c-5.2,6-15.3,7.4-22.6,3.2c-7.3-4.3-9-12.6-3.8-18.6c5.2-6,15.3-7.4,22.6-3.2
			C566.2,1297.7,567.9,1306,562.7,1312.1z"/>
		<g>
			<polygon class="st33" points="501.5,1364 501,1364.5 483,1354 483.5,1353.5 			"/>
		</g>
		<g>
			<polygon class="st33" points="483.7,1354.4 483,1354 495.8,1339.2 496.5,1339.6 			"/>
		</g>
		<g>
			<polygon class="st33" points="483.3,1354.1 483.2,1353.4 505,1350.4 505.1,1351 			"/>
		</g>
		<g>
			<path class="st7" d="M514.7,1349.4c-1.7-8-10.9-13.4-20.6-12l6,29C509.8,1364.9,516.3,1357.4,514.7,1349.4z"/>
		</g>
		<path class="st7" d="M482.9,1351.8c1.3-0.2,2.5,0.5,2.8,1.6s-0.7,2.1-2,2.3s-2.5-0.5-2.8-1.6C480.7,1353,481.6,1352,482.9,1351.8z
			"/>
		<path class="st22" d="M539.7,1308.5c1.2-1.3,3.5-1.7,5.1-0.7l2.2,1.3c1.6,1,2,2.8,0.9,4.2l-18.5,21.4c-1.2,1.3-3.5,1.7-5.1,0.7
			l-2.2-1.3c-1.6-1-2-2.8-0.9-4.2L539.7,1308.5z"/>
	</g>
	<g id="Star_15_">
		<g>
			<path class="st7" d="M505.8,1250.3c-1.9,1-4.4,0.5-5.6-1.1c1.2,1.6,0.6,3.7-1.3,4.6c1.9-1,4.4-0.5,5.6,1.1
				C503.3,1253.3,503.9,1251.3,505.8,1250.3z"/>
		</g>
		<g>
			
				<ellipse transform="matrix(0.2682 -0.9634 0.9634 0.2682 -962.0248 1513.4108)" class="st7" cx="515.1" cy="1389.9" rx="7.4" ry="2.1"/>
		</g>
		<g>
			<path class="st7" d="M459.9,1315.9c-1.9,1-4.4,0.5-5.6-1.1c1.2,1.6,0.6,3.7-1.3,4.6c1.9-1,4.4-0.5,5.6,1.1
				C457.4,1318.9,458,1316.8,459.9,1315.9z"/>
		</g>
		<g>
			<path class="st7" d="M588.3,1333.8c-1.2-1.6-3.6-2.1-5.5-1.1c0,0-0.1,0-0.1,0c0,0,0.1,0,0.1-0.1c0.9-0.5,1.5-1.2,1.7-2
				c0.2-0.8,0.1-1.6-0.4-2.4c0-0.1-0.1-0.1-0.1-0.2c0,0.1,0.1,0.1,0.1,0.2c0.4,0.5,0.9,0.8,1.5,1.1c1.2,0.5,2.7,0.5,4-0.2
				C587.7,1330.1,587.1,1332.2,588.3,1333.8z"/>
		</g>
	</g>
</g>
<path class="st38" d="M582,1021.7v206.4c-11.3-6.1-25.3-10.1-40.5-13c-47.2-9.1-106.1-8.3-130.6-32.3
	c-59-57.6,120-113.7,136.9-164.3c0.6-1.8,1.3-3.4,2-4.7c5-9,12.9-7.9,22.1-1.2C575.1,1015.1,578.5,1018.2,582,1021.7z"/>
</svg>
